<svg width="63" height="24" viewBox="0 0 63 24" fill="none" xmlns="http://www.w3.org/2000/svg">
<path d="M4.4568 18.7311L58.9021 18.7311V10.7422L4.4568 10.7422V18.7311Z" fill="#FFC785"/>
<g opacity="0.5">
<path d="M4.4568 18.7311L58.9021 18.7311V10.7422L4.4568 10.7422V18.7311Z" fill="black"/>
</g>
<path d="M56.8345 18.6016C56.8508 19.6402 56.5586 20.6603 55.9949 21.5328C55.4312 22.4053 54.6214 23.091 53.668 23.5031C52.7145 23.9152 51.6602 24.0353 50.6385 23.8481C49.6168 23.6608 48.6736 23.1748 47.9282 22.4513C47.1828 21.7279 46.6687 20.7996 46.4511 19.784C46.2334 18.7683 46.3219 17.7109 46.7053 16.7455C47.0888 15.7802 47.7499 14.9502 48.6052 14.3608C49.4604 13.7713 50.4713 13.4487 51.5099 13.4339C52.901 13.414 54.2431 13.9471 55.2415 14.9161C56.2398 15.885 56.8128 17.2106 56.8345 18.6016Z" fill="#263238"/>
<path d="M56.8336 18.588C56.8336 18.588 56.8336 18.5974 56.8336 18.6015C56.8532 19.2968 56.7345 19.9891 56.4843 20.6381C56.2341 21.2871 55.8574 21.88 55.3762 22.3822C54.895 22.8844 54.3187 23.286 53.681 23.5637C53.0432 23.8413 52.3566 23.9894 51.6611 23.9995C50.9656 24.0095 50.2751 23.8813 49.6296 23.6222C48.984 23.3631 48.3964 22.9783 47.9009 22.4902C47.4054 22.0021 47.0117 21.4203 46.7429 20.7788C46.4741 20.1373 46.3354 19.4487 46.335 18.7532C46.335 18.7532 46.335 18.7448 46.335 18.7396L56.8336 18.588Z" fill="#263238"/>
<path d="M55.2713 18.6245C55.2818 19.3534 55.0759 20.0691 54.6796 20.681C54.2834 21.2929 53.7146 21.7736 53.0452 22.0622C52.3758 22.3509 51.6358 22.4345 50.9188 22.3027C50.2019 22.1708 49.5401 21.8293 49.0172 21.3213C48.4944 20.8133 48.1339 20.1617 47.9813 19.4489C47.8287 18.736 47.891 17.994 48.1601 17.3165C48.4293 16.639 48.8933 16.0566 49.4935 15.6428C50.0937 15.229 50.803 15.0025 51.532 14.9918C52.016 14.9848 52.4967 15.0732 52.9467 15.2519C53.3966 15.4307 53.8069 15.6963 54.1541 16.0336C54.5013 16.371 54.7787 16.7734 54.9704 17.218C55.1621 17.6625 55.2644 18.1405 55.2713 18.6245Z" fill="#FAFAFA"/>
<path d="M51.5319 14.9918C52.5094 14.9779 53.4525 15.3527 54.1537 16.0339C54.855 16.7151 55.2569 17.647 55.2712 18.6245L47.9003 18.7291C47.8866 17.752 48.2614 16.8095 48.9424 16.1087C49.6234 15.4079 50.5548 15.0062 51.5319 14.9918Z" fill="#E0E0E0"/>
<path d="M53.8302 18.6455C53.8366 19.0895 53.7112 19.5254 53.4698 19.898C53.2285 20.2707 52.882 20.5635 52.4743 20.7393C52.0666 20.9151 51.6159 20.966 51.1792 20.8857C50.7425 20.8054 50.3394 20.5973 50.021 20.2879C49.7025 19.9785 49.4829 19.5817 49.39 19.1475C49.2971 18.7133 49.335 18.2613 49.499 17.8487C49.663 17.436 49.9456 17.0813 50.3111 16.8293C50.6767 16.5773 51.1088 16.4393 51.5528 16.4329C51.8476 16.4286 52.1404 16.4824 52.4144 16.5913C52.6884 16.7002 52.9383 16.862 53.1498 17.0674C53.3613 17.2729 53.5303 17.518 53.647 17.7888C53.7638 18.0596 53.826 18.3507 53.8302 18.6455Z" fill="#263238"/>
<path d="M16.689 18.6016C16.7053 19.6403 16.413 20.6604 15.8493 21.5329C15.2856 22.4054 14.4758 23.0911 13.5222 23.5032C12.5687 23.9153 11.5144 24.0353 10.4926 23.848C9.47087 23.6607 8.52765 23.1745 7.7823 22.451C7.03695 21.7274 6.52297 20.7991 6.30541 19.7833C6.08785 18.7676 6.17648 17.7102 6.56009 16.7448C6.94369 15.7795 7.60503 14.9496 8.46042 14.3602C9.31581 13.7709 10.3268 13.4485 11.3655 13.4339C12.7564 13.4143 14.0982 13.9475 15.0963 14.9164C16.0945 15.8853 16.6673 17.2107 16.689 18.6016Z" fill="#263238"/>
<path d="M16.6878 18.588C16.6878 18.588 16.6878 18.5974 16.6878 18.6015C16.7074 19.2968 16.5887 19.9891 16.3385 20.6381C16.0883 21.2871 15.7117 21.88 15.2304 22.3822C14.7492 22.8844 14.173 23.286 13.5352 23.5637C12.8974 23.8413 12.2109 23.9894 11.5154 23.9995C10.8199 24.0095 10.1293 23.8813 9.4838 23.6222C8.83828 23.3631 8.25069 22.9783 7.75515 22.4902C7.2596 22.0021 6.86598 21.4203 6.59716 20.7788C6.32834 20.1373 6.18967 19.4487 6.18921 18.7532V18.7396L16.6878 18.588Z" fill="#263238"/>
<path d="M15.1297 18.6245C15.1402 19.3532 14.9343 20.0687 14.5383 20.6805C14.1422 21.2923 13.5737 21.7729 12.9045 22.0617C12.2353 22.3505 11.4956 22.4344 10.7788 22.3028C10.0619 22.1713 9.40016 21.8302 8.87712 21.3226C8.35409 20.8151 7.99326 20.1639 7.84023 19.4513C7.6872 18.7387 7.74884 17.9968 8.01737 17.3193C8.28589 16.6417 8.74924 16.059 9.34887 15.6447C9.94849 15.2305 10.6575 15.0032 11.3862 14.9918C11.8706 14.9842 12.3518 15.0721 12.8022 15.2506C13.2525 15.4291 13.6633 15.6947 14.011 16.0321C14.3587 16.3695 14.6365 16.7721 14.8284 17.2169C15.0204 17.6617 15.1228 18.14 15.1297 18.6245Z" fill="#FAFAFA"/>
<path d="M11.3866 14.9918C11.871 14.9841 12.3523 15.0719 12.8027 15.2504C13.2532 15.4288 13.664 15.6944 14.0117 16.0318C14.3594 16.3692 14.6372 16.7719 14.8291 17.2168C15.021 17.6617 15.1233 18.14 15.1301 18.6245L7.75914 18.7291C7.74572 17.7528 8.12009 16.811 8.80013 16.1104C9.48017 15.4098 10.4103 15.0075 11.3866 14.9918Z" fill="#E0E0E0"/>
<path d="M13.6847 18.6455C13.6911 19.0895 13.5657 19.5254 13.3243 19.898C13.083 20.2707 12.7365 20.5635 12.3288 20.7393C11.9211 20.9151 11.4704 20.966 11.0337 20.8857C10.597 20.8054 10.1939 20.5973 9.87548 20.2879C9.55701 19.9785 9.33744 19.5817 9.24453 19.1475C9.15162 18.7133 9.18954 18.2613 9.35349 17.8487C9.51745 17.436 9.80007 17.0813 10.1656 16.8293C10.5312 16.5773 10.9633 16.4393 11.4072 16.4329C11.7021 16.4286 11.9949 16.4824 12.2689 16.5913C12.5429 16.7002 12.7928 16.862 13.0043 17.0674C13.2158 17.2729 13.3847 17.518 13.5015 17.7888C13.6182 18.0596 13.6805 18.3507 13.6847 18.6455Z" fill="#263238"/>
<path d="M44.7038 6.24795C44.7038 6.24795 52.4344 6.81785 55.2996 7.46094C57.3198 7.91372 61.214 8.69484 61.1669 11.1449L60.8532 12.9016C60.8532 12.9016 62.2983 13.5614 62.2983 15.2439C62.2983 16.9264 62.6507 19.5396 59.2794 19.6431C58.7242 19.6609 57.6681 19.6431 57.6681 19.6431C57.6681 19.6431 58.3153 12.4624 51.7182 12.2522C45.007 12.0431 45.4535 19.5783 45.4535 19.5783H17.4482C17.4482 19.5783 18.5984 12.2334 11.3728 12.223C4.14714 12.2125 5.24719 19.6264 5.24719 19.6264C5.24719 19.6264 2.59013 19.8564 1.35309 17.6218C0.116054 15.3872 0.439169 13.7988 0.439169 13.7988L0.47995 12.3871C0.486426 12.1554 0.580796 11.9349 0.743917 11.7702C0.907038 11.6055 1.12669 11.5091 1.35832 11.5004C1.35832 11.5004 0.875216 7.94509 1.61556 7.33023C2.3559 6.71537 6.41731 3.00322 6.41731 3.00322L6.22386 2.88192C6.15115 2.83612 6.09287 2.77071 6.05573 2.69322C6.01859 2.61574 6.00411 2.52933 6.01394 2.44397C6.02378 2.35861 6.05754 2.27776 6.11133 2.21075C6.16512 2.14375 6.23675 2.0933 6.31797 2.06524C7.8593 1.53508 10.9064 0.486269 11.6237 0.236352C11.7309 0.197953 11.8427 0.174382 11.9563 0.166292C12.3839 0.132831 13.5948 0.0564962 15.8169 0.0324456C18.5252 0.0042123 29.2748 0.0324456 29.2748 0.0324456C29.2748 0.0324456 32.9733 0.336737 35.0344 1.24439C37.2021 2.19804 44.7038 6.24795 44.7038 6.24795Z" fill="#FFC785"/>
<g opacity="0.4">
<path d="M60.343 15.0493C60.6232 14.9929 61.053 14.9876 61.2663 15.1769C61.4252 15.3181 61.4671 15.5471 61.4911 15.7573C61.5362 16.0465 61.5298 16.3413 61.4723 16.6283C61.4426 16.7714 61.3837 16.9068 61.2994 17.0261C61.215 17.1454 61.1069 17.246 60.9819 17.3216C60.8546 17.3941 60.7074 17.4239 60.5619 17.4066C60.4164 17.3893 60.2803 17.3258 60.1736 17.2254C59.9916 17.0309 59.9707 16.7381 59.9759 16.4715C59.9822 16.0929 59.9519 15.7719 60.0219 15.4007C60.037 15.3221 60.0699 15.2481 60.1181 15.1842C60.1427 15.1459 60.1757 15.1138 60.2147 15.0904C60.2537 15.067 60.2976 15.053 60.343 15.0493Z" fill="black"/>
</g>
<path d="M60.8574 12.9015C60.0365 12.9015 59.2408 12.8555 58.422 12.7969C58.3326 12.8012 58.2443 12.7746 58.1721 12.7217C58.1386 12.68 58.1137 12.6322 58.099 12.5808C58.0843 12.5294 58.08 12.4756 58.0864 12.4226C58.0864 11.9834 58.1052 11.4815 58.4388 11.196C58.6479 11.0214 58.9219 10.967 59.1895 10.9419C59.8553 10.8713 60.5285 10.9389 61.1669 11.1406L60.8574 12.9015Z" fill="#FAFAFA"/>
<path d="M43.8162 19.3534C43.8162 19.3534 43.8162 19.3293 43.8225 19.2833C43.8287 19.2373 43.8308 19.1662 43.836 19.0742C43.8465 18.8912 43.8611 18.6246 43.88 18.2816C43.8988 17.9386 43.9218 17.5172 43.9709 17.0268C44.0216 16.4755 44.1185 15.9295 44.2606 15.3945C44.4396 14.748 44.7055 14.1289 45.0511 13.5541C45.4411 12.89 45.9602 12.3108 46.5778 11.8507C47.9027 10.9095 49.6908 10.3763 51.5626 10.3532C53.4343 10.3302 55.2224 10.9242 56.5117 11.9113C57.1306 12.3697 57.673 12.9231 58.119 13.5509C58.5078 14.0976 58.8241 14.6923 59.0601 15.3202C59.254 15.8385 59.3873 16.3775 59.4574 16.9264C59.512 17.3423 59.5281 17.7623 59.5055 18.1812C59.4894 18.4447 59.4573 18.7069 59.4093 18.9665L59.3727 19.1694C59.3644 19.2154 59.3612 19.2384 59.3612 19.2384C59.3612 19.2384 59.3675 19.2154 59.378 19.1704C59.3884 19.1254 59.401 19.0554 59.4198 18.9686C59.4716 18.709 59.5065 18.4463 59.5243 18.1822C59.5504 17.7636 59.5371 17.3435 59.4846 16.9274C59.4164 16.3771 59.2852 15.8364 59.0935 15.316C58.8577 14.6854 58.5414 14.0879 58.1524 13.5384C57.7058 12.9039 57.1612 12.3444 56.5389 11.881C55.2413 10.8855 53.4469 10.2874 51.5615 10.3125C49.6762 10.3376 47.8828 10.8719 46.5496 11.8235C45.9283 12.2866 45.4063 12.8698 45.0145 13.5384C44.6685 14.1172 44.4032 14.7406 44.2261 15.3913C44.085 15.9284 43.9902 16.4766 43.9427 17.0299C43.8956 17.5172 43.8758 17.9386 43.8601 18.2847C43.8444 18.6308 43.834 18.8943 43.8266 19.0773C43.8266 19.1673 43.8193 19.2352 43.8172 19.2865C43.8151 19.3377 43.8162 19.3534 43.8162 19.3534Z" fill="white"/>
<path d="M43.519 19.4747C43.519 19.4747 43.519 19.4549 43.519 19.4162L43.5253 19.2426C43.5253 19.0878 43.5368 18.8599 43.5462 18.5639C43.5629 17.969 43.588 17.1 43.6194 15.9905C43.6508 14.8811 43.6863 13.5374 43.724 11.996C43.7344 11.6112 43.7452 11.2139 43.7564 10.804C43.7636 10.5945 43.7545 10.3847 43.7292 10.1766C43.7146 10.072 43.6989 9.96744 43.6842 9.86287C43.6696 9.7583 43.6414 9.65373 43.6194 9.54916C43.4096 8.66138 43.018 7.82678 42.4692 7.0981L37.612 4.03635L36.3018 3.21131C35.8602 2.91797 35.3967 2.65926 34.9152 2.43751C34.4254 2.20805 33.9226 2.00729 33.4094 1.83625C33.1522 1.74632 32.8866 1.67208 32.6241 1.5926C32.3616 1.51313 32.0908 1.45039 31.8189 1.39497C30.7899 1.17457 29.7439 1.04269 28.6924 1.00075C27.6841 0.952388 26.6741 0.955879 25.6662 1.01121H25.6379L25.6442 1.03944C26.1085 3.11616 26.5456 5.07471 26.9471 6.87014C27.1873 7.26575 27.3834 7.68654 27.5317 8.12495C27.6808 8.53994 27.7479 8.97996 27.7293 9.42054C27.6969 9.85136 27.6843 10.2728 27.6739 10.6816C27.6634 11.0905 27.6582 11.4878 27.6498 11.8737C27.6279 13.414 27.6216 14.7577 27.6174 15.8651C27.6132 16.9724 27.6174 17.8414 27.6174 18.4364C27.6174 18.7323 27.6174 18.9592 27.6174 19.114C27.6174 18.9603 27.6174 18.7323 27.6174 18.4364C27.6174 17.8414 27.6258 16.9724 27.632 15.8651C27.6383 14.7577 27.6498 13.414 27.6749 11.8737C27.6833 11.4889 27.692 11.0919 27.7011 10.6827C27.7126 10.2738 27.7251 9.85346 27.7586 9.42787C27.7781 8.98176 27.711 8.53611 27.5609 8.11554C27.4117 7.67431 27.2146 7.25073 26.9733 6.85236V6.85968C26.5728 5.06425 26.1367 3.1057 25.6745 1.02794L25.6515 1.05826C26.6577 1.00328 27.666 1.00014 28.6725 1.04885C29.7213 1.09073 30.7645 1.22262 31.7907 1.44307C32.0615 1.49745 32.3271 1.57378 32.5927 1.6407C32.8583 1.70763 33.1156 1.79233 33.376 1.88226C33.8871 2.05324 34.3881 2.25329 34.8765 2.48143C35.3559 2.70178 35.8174 2.95909 36.2568 3.25105L37.567 4.07504C39.2914 5.16046 40.9216 6.18522 42.4211 7.12738H42.4158C42.7055 7.49269 42.9531 7.8894 43.1541 8.31004C43.3426 8.70986 43.4888 9.12832 43.5901 9.55857C43.8108 10.3951 43.6999 11.2317 43.6947 11.9981C43.656 13.5384 43.6236 14.8832 43.5954 15.9916C43.5671 17.1 43.5494 17.97 43.5347 18.565C43.5284 18.8609 43.5232 19.0878 43.5201 19.2436C43.5201 19.3189 43.5201 19.3775 43.5201 19.4172C43.5201 19.457 43.519 19.4747 43.519 19.4747Z" fill="#263238"/>
<path d="M25.704 1.17642H25.658H25.5231L25.0002 1.16387L23.0678 1.12518L16.5533 1.01434H16.5407L16.5334 1.02375L15.6205 2.14158L13.0157 5.32985C12.9164 5.45324 12.8171 5.57454 12.7198 5.69375C12.6243 5.81462 12.5425 5.94579 12.4762 6.08483C12.354 6.34282 12.2875 6.62363 12.281 6.909C12.2746 7.19438 12.3282 7.47792 12.4385 7.74119L12.7355 8.43238C13.1151 9.3118 13.4225 10.0229 13.6369 10.5164C13.7414 10.7611 13.8261 10.9514 13.8837 11.0821L13.9495 11.2285C13.9566 11.2453 13.9646 11.2618 13.9736 11.2777C13.9736 11.2777 13.9673 11.2599 13.9537 11.2264C13.9401 11.193 13.9192 11.1417 13.8931 11.0779C13.8376 10.9462 13.7582 10.7548 13.6546 10.5091L12.769 8.41774C12.5996 7.97437 12.3026 7.50695 12.3235 6.93811C12.327 6.6487 12.3926 6.36342 12.5159 6.10156C12.5815 5.96598 12.6618 5.83799 12.7554 5.71989L13.0534 5.35704L15.6676 2.16354L16.5794 1.04676L16.5595 1.05512L23.0741 1.14923L25.0065 1.17224H25.5294H25.6643L25.704 1.17642Z" fill="#263238"/>
<path d="M28.9925 9.83886C28.9925 9.83886 28.9643 9.83886 28.9141 9.82736C28.8393 9.81563 28.7679 9.7878 28.7049 9.7458C28.6071 9.68035 28.5335 9.5844 28.4958 9.47287C28.4735 9.40302 28.4646 9.32957 28.4697 9.25642C28.4734 9.12209 28.5287 8.99437 28.6241 8.89974C28.7195 8.80511 28.8477 8.75085 28.982 8.74822H29.6429H31.1602C31.2861 8.74891 31.4074 8.79566 31.5012 8.87965C31.595 8.96364 31.6549 9.07906 31.6694 9.20413C31.6854 9.32323 31.6634 9.44433 31.6067 9.55025C31.55 9.65044 31.4617 9.7291 31.3557 9.77403C31.2509 9.80971 31.1398 9.82324 31.0295 9.81376H30.7105H30.1344L29.2978 9.82213H29.0699C29.0437 9.82232 29.0175 9.82407 28.9914 9.82736C29.0173 9.832 29.0436 9.83376 29.0699 9.83259L29.2978 9.83781L30.1344 9.84618H30.7105H31.0326C31.088 9.84618 31.1424 9.84618 31.202 9.84618C31.262 9.8427 31.321 9.82927 31.3766 9.80644C31.493 9.75884 31.5899 9.67337 31.6517 9.56385C31.7145 9.44942 31.7391 9.31785 31.7217 9.18845C31.7066 9.0508 31.6413 8.92355 31.5383 8.83097C31.4353 8.7384 31.3018 8.68698 31.1633 8.68652H29.646H28.9841C28.884 8.68867 28.7862 8.71777 28.7012 8.77077C28.6162 8.82376 28.5471 8.8987 28.501 8.98768C28.4617 9.06521 28.4406 9.15068 28.4393 9.23759C28.4359 9.31391 28.4469 9.39018 28.4717 9.46241C28.5132 9.57926 28.5932 9.67849 28.6987 9.7437C28.7639 9.78461 28.8375 9.81034 28.9141 9.81899C28.9392 9.82925 28.9656 9.83594 28.9925 9.83886Z" fill="#263238"/>
<path d="M14.4753 9.83886C14.4753 9.83886 14.4481 9.83886 14.398 9.82736C14.3232 9.81538 14.2519 9.78757 14.1888 9.7458C14.0912 9.68006 14.0178 9.58422 13.9797 9.47287C13.9579 9.40292 13.949 9.32956 13.9535 9.25642C13.9556 9.17506 13.9763 9.09528 14.0142 9.02323C14.0582 8.94137 14.1233 8.87274 14.2027 8.8244C14.2821 8.77606 14.373 8.74976 14.4659 8.74822H15.1299H16.6462C16.7721 8.74891 16.8934 8.79566 16.9872 8.87965C17.081 8.96364 17.1409 9.07906 17.1554 9.20413C17.1714 9.32323 17.1494 9.44433 17.0927 9.55025C17.0359 9.65044 16.9477 9.7291 16.8417 9.77403C16.7369 9.80977 16.6258 9.8233 16.5155 9.81376H16.1944H15.6172L14.7807 9.82213H14.5538C14.5272 9.8223 14.5007 9.82404 14.4743 9.82736C14.5005 9.83204 14.5272 9.83379 14.5538 9.83259L14.7807 9.83781L15.6172 9.84618H16.1944H16.5155C16.5719 9.84618 16.6252 9.84618 16.6849 9.84618C16.7449 9.84293 16.8039 9.8295 16.8595 9.80644C16.976 9.75862 17.0731 9.67323 17.1355 9.56385C17.1973 9.44903 17.2218 9.31782 17.2056 9.18845C17.19 9.0508 17.1244 8.92367 17.0213 8.83115C16.9182 8.73864 16.7847 8.68718 16.6462 8.68652H15.1299H14.468C14.3231 8.68871 14.1849 8.74767 14.083 8.85072C13.9811 8.95378 13.9237 9.09269 13.9232 9.23759C13.9198 9.31391 13.9308 9.39018 13.9556 9.46241C13.9966 9.57919 14.0763 9.67844 14.1815 9.7437C14.2469 9.78435 14.3204 9.81006 14.3969 9.81899C14.422 9.82929 14.4484 9.83598 14.4753 9.83886Z" fill="#263238"/>
<path d="M1.74519 7.47345H4.65008C4.84537 7.4735 5.03694 7.5269 5.20409 7.62789C5.37124 7.72888 5.50763 7.87363 5.59851 8.04648C5.67349 8.1892 5.71534 8.34699 5.72095 8.50811C5.72656 8.66923 5.69579 8.82954 5.63093 8.97713L4.49218 11.5641L1.58311 11.5359C1.58311 11.5359 0.965112 8.25353 1.74519 7.47345Z" fill="#FAFAFA"/>
<path d="M42.0864 7.10442L27.0987 6.82836L17.3446 6.64955L14.1281 4.79242C14.0671 4.75695 14.0144 4.70896 13.9733 4.65163C13.9321 4.59429 13.9036 4.5289 13.8896 4.45976C13.8756 4.39062 13.8764 4.31929 13.8919 4.25047C13.9074 4.18164 13.9373 4.11689 13.9796 4.06045L15.9821 1.42953C16.0853 1.29437 16.2179 1.18455 16.37 1.10843C16.522 1.03232 16.6894 0.991932 16.8594 0.990342L27.77 0.901459C27.77 0.901459 31.8785 0.663046 35.1149 2.47521C38.5217 4.37938 42.0864 7.10442 42.0864 7.10442Z" fill="#263238"/>
<path d="M35.0344 1.24438C35.0344 1.24438 34.4666 1.51312 34.956 1.82996C35.4453 2.14681 43.038 6.93496 43.038 6.93496L44.7038 6.24795C41.6117 4.52468 38.3847 2.82336 35.0344 1.24438Z" fill="#E0E0E0"/>
<path d="M42.7922 7.05518L42.8393 7.06772L42.9773 7.09805L43.5106 7.20784C43.9738 7.29986 44.6441 7.42953 45.4775 7.57279C47.1412 7.8593 49.4511 8.19287 52.0214 8.41456C52.6645 8.47102 53.2919 8.51912 53.9036 8.55677C54.5153 8.59441 55.0946 8.6331 55.6499 8.68434C56.6357 8.75443 57.6122 8.92151 58.5652 9.18313C59.2066 9.36368 59.8239 9.62103 60.4035 9.94961C60.6127 10.0605 60.7612 10.1682 60.8668 10.233L60.986 10.3093C61.0132 10.3261 61.0278 10.3334 61.0278 10.3334L60.9891 10.3041L60.872 10.2246C60.7241 10.1196 60.5708 10.0222 60.4129 9.93288C59.8356 9.59602 59.2184 9.33257 58.5757 9.14862C57.6212 8.88146 56.6425 8.71017 55.6541 8.63729C55.0978 8.585 54.5132 8.54736 53.9067 8.50658C53.3003 8.4658 52.6728 8.41978 52.0318 8.36436C49.4647 8.14163 47.1538 7.81434 45.488 7.53723C44.6515 7.39816 43.9833 7.27477 43.519 7.18798L42.9846 7.08341L42.8456 7.05831L42.7922 7.05518Z" fill="#263238"/>
<path d="M0.584473 13.7663C0.584473 13.7799 1.58309 13.7914 2.81595 13.7914C4.0488 13.7914 5.04638 13.7799 5.04638 13.7663C5.04638 13.7527 4.04776 13.7402 2.81595 13.7402C1.58414 13.7402 0.584473 13.7475 0.584473 13.7663Z" fill="#263238"/>
<path d="M18.8596 16.3158C18.8596 16.3293 24.4979 16.3408 31.4527 16.3408C38.4075 16.3408 44.0469 16.3293 44.0469 16.3158C44.0469 16.3022 38.4096 16.2896 31.4527 16.2896C24.4958 16.2896 18.8596 16.3011 18.8596 16.3158Z" fill="#263238"/>
<path d="M58.3425 13.8521C58.3425 13.8657 59.1393 13.8772 60.1202 13.8772C61.101 13.8772 61.8978 13.8657 61.8978 13.8521C61.8978 13.8385 61.1 13.826 60.1202 13.826C59.1404 13.826 58.3425 13.8364 58.3425 13.8521Z" fill="#263238"/>
<path d="M6.49694 2.90063C6.49694 2.90063 7.16617 3.64934 6.90266 4.19937C6.63915 4.74939 3.92144 6.67344 3.92144 6.67344L1.94824 7.04361L6.49694 2.90063Z" fill="#EBEBEB"/>
<path d="M25.2593 1.55914L25.7037 6.35148L17.7628 6.12562L14.562 4.26536L16.6345 1.55914H25.2593Z" fill="#EBEBEB"/>
<path d="M40.2062 6.63697C40.2062 6.63697 35.4159 3.17578 33.5253 2.48772C31.7017 1.82372 30.7501 1.65745 29.0373 1.60935C27.3987 1.5623 26.4011 1.60935 26.4011 1.60935L27.6674 6.48221L40.2062 6.63697Z" fill="#EBEBEB"/>
<path d="M3.99771 19.3942C3.99771 19.3942 3.99771 19.3712 3.99771 19.3262C3.99771 19.2812 3.98934 19.2133 3.98411 19.1275C3.97888 19.0418 3.96843 18.932 3.96215 18.8034C3.95588 18.6747 3.95274 18.5273 3.94751 18.361C3.94229 18.1948 3.94751 18.0086 3.94751 17.8068C3.94751 17.605 3.96215 17.3833 3.98934 17.1481C4.0344 16.6143 4.12963 16.086 4.27376 15.5701C4.35866 15.2703 4.46346 14.9765 4.58747 14.6907C4.7191 14.3805 4.87761 14.0824 5.06116 13.7998C5.46988 13.1762 5.98988 12.6332 6.59517 12.1978C7.26016 11.7141 8.00279 11.3474 8.79109 11.1134C9.6412 10.8722 10.5217 10.7549 11.4053 10.7652C12.2911 10.7561 13.1729 10.8841 14.0195 11.1448C14.4198 11.2712 14.8084 11.4318 15.1812 11.6248C15.5366 11.8131 15.8741 12.0337 16.1893 12.2836C16.7761 12.7445 17.299 13.2815 17.7442 13.8803C17.9393 14.1553 18.1121 14.4456 18.2607 14.7482C18.3952 15.0287 18.5142 15.3164 18.6173 15.6099C18.9317 16.4976 19.1224 17.4244 19.1841 18.3642C19.1998 18.6967 19.1977 18.955 19.1841 19.1307C19.1841 19.2164 19.1757 19.2833 19.1726 19.3293C19.1694 19.3753 19.1726 19.3973 19.1726 19.3973C19.1762 19.3751 19.1786 19.3528 19.1799 19.3304C19.1799 19.2833 19.1893 19.2175 19.1966 19.1307C19.2081 18.956 19.2134 18.6967 19.1966 18.3631C19.1424 17.4203 18.9565 16.4897 18.6445 15.5984C18.5414 15.303 18.4227 15.0133 18.289 14.7304C18.1386 14.4251 17.9638 14.1324 17.7661 13.8552C17.3204 13.253 16.796 12.7132 16.207 12.2501C15.8897 11.9979 15.5502 11.775 15.1927 11.584C14.8172 11.3896 14.4257 11.2277 14.0226 11.0999C13.1767 10.8387 12.2958 10.7089 11.4105 10.715C10.5212 10.7047 9.63503 10.823 8.77959 11.0664C7.98489 11.303 7.23629 11.6732 6.56589 12.1612C6.2551 12.3894 5.9647 12.6441 5.69798 12.9225C5.44464 13.1836 5.21897 13.4703 5.02456 13.7778C4.84037 14.0632 4.68152 14.3641 4.54983 14.6771C4.42576 14.9644 4.32096 15.2595 4.23612 15.5607C4.09372 16.0795 4.00093 16.6107 3.95902 17.147C3.93287 17.3833 3.93287 17.604 3.92137 17.8068C3.90987 18.0097 3.92137 18.1958 3.92137 18.3621C3.92137 18.5283 3.93497 18.6758 3.94124 18.8055C3.94751 18.9351 3.96006 19.0418 3.96738 19.1296C3.9747 19.2174 3.98202 19.2812 3.9862 19.3283C3.99039 19.3753 3.99771 19.3942 3.99771 19.3942Z" fill="#263238"/>
<path d="M27.8767 7.10423C27.8767 7.10423 27.884 7.10423 27.8997 7.10423H27.9656L28.2218 7.10946L29.1629 7.12724C29.9576 7.14188 31.0556 7.17116 32.2686 7.20358C33.4815 7.23599 34.5795 7.26004 35.3742 7.26631C35.7716 7.26631 36.0936 7.26631 36.3153 7.26631H36.5715L36.3153 7.26004L35.3742 7.24331C34.5795 7.22867 33.4815 7.19939 32.2686 7.16698C31.0556 7.13456 29.9576 7.10946 29.1629 7.10423C28.7655 7.10423 28.4435 7.10423 28.2218 7.10423H27.9656H27.8997C27.8872 7.10214 27.8767 7.10319 27.8767 7.10423Z" fill="white"/>
<path d="M29.1777 8.57977C29.4638 8.60597 29.7512 8.6147 30.0383 8.60591C30.3251 8.61472 30.6122 8.60599 30.8979 8.57977C30.6121 8.55486 30.3251 8.54648 30.0383 8.55467C29.7512 8.5465 29.4639 8.55488 29.1777 8.57977Z" fill="white"/>
<path d="M17.3101 3.14333C17.3048 3.15587 18.3725 3.60029 19.6932 4.13567C21.0139 4.67106 22.0909 5.09351 22.0982 5.07678C22.1056 5.06005 21.0369 4.61982 19.7151 4.08444C18.3934 3.54905 17.3153 3.12973 17.3101 3.14333Z" fill="white"/>
<path d="M19.4724 3.47793C19.4724 3.49048 20.4836 3.93803 21.7415 4.4776C22.9995 5.01717 24.0263 5.4438 24.0316 5.43021C24.0368 5.41662 23.0214 4.97011 21.7624 4.43054C20.5034 3.89097 19.4776 3.46538 19.4724 3.47793Z" fill="white"/>
<path d="M17.1011 7.10329C17.1011 7.11793 19.2238 7.14198 21.8422 7.15767C24.4606 7.17335 26.5833 7.1744 26.5833 7.15767C26.5833 7.14094 24.4606 7.12002 21.8422 7.10434C19.2238 7.08865 17.1011 7.0897 17.1011 7.10329Z" fill="white"/>
<path d="M14.7515 8.49823C14.7515 8.51182 15.3465 8.52855 16.0805 8.53587C16.8146 8.54319 17.4106 8.53587 17.4106 8.52228C17.4106 8.50868 16.8156 8.49195 16.0805 8.48463C15.3454 8.47732 14.7515 8.48359 14.7515 8.49823Z" fill="white"/>
<path d="M55.3884 7.77253C55.4072 7.77784 55.4265 7.78134 55.4459 7.78298L55.6122 7.80494C55.6844 7.81331 55.7732 7.82481 55.8747 7.84154C55.9761 7.85827 56.0943 7.87187 56.2218 7.89801C56.478 7.94193 56.7802 8.0099 57.1127 8.09773C57.8327 8.29385 58.5294 8.56732 59.1905 8.91336C59.4938 9.07439 59.7614 9.22707 59.98 9.37241C60.0908 9.44038 60.1891 9.50835 60.2728 9.56587C60.3564 9.62338 60.4307 9.67043 60.4892 9.71853L60.6262 9.81474C60.6416 9.82727 60.6584 9.83781 60.6764 9.84611C60.6634 9.83153 60.6486 9.81854 60.6325 9.80742L60.5018 9.70285C60.4443 9.65788 60.3742 9.60351 60.2927 9.5439C60.2111 9.4843 60.1138 9.4132 60.0041 9.34314C59.7876 9.19674 59.5209 9.03675 59.2167 8.87258C58.5539 8.51901 57.852 8.24422 57.1253 8.05381C56.7907 7.96702 56.4864 7.90324 56.2281 7.8635C56.1005 7.83945 55.9824 7.82795 55.8799 7.81436C55.7774 7.80076 55.6885 7.79135 55.6153 7.78612L55.448 7.77462C55.4284 7.77081 55.4083 7.7701 55.3884 7.77253Z" fill="white"/>
<path d="M6.27417 2.86517C6.41106 2.89802 6.55173 2.91244 6.69244 2.90804C6.85716 2.90385 7.02106 2.88354 7.18182 2.84739C7.39539 2.79874 7.60509 2.73443 7.80923 2.65499C8.03509 2.56924 8.27769 2.46049 8.5412 2.34965L8.94901 2.18548C9.08913 2.12901 9.23658 2.08091 9.38611 2.02654C10.0412 1.80454 10.7093 1.62261 11.3865 1.48174C12.6176 1.22385 13.868 1.06821 15.1248 1.01641C15.3653 1.00282 15.5838 1.00282 15.7752 0.99759H16.2667L16.5804 1.00386H16.6609C16.6702 1.00527 16.6798 1.00527 16.6891 1.00386H16.6609H16.5804L16.2667 0.987133L15.7742 0.977722C15.5817 0.977722 15.3632 0.977721 15.1216 0.989223C13.8621 1.0314 12.6085 1.18254 11.375 1.44096C10.696 1.58225 10.0265 1.76595 9.37042 1.99098C9.21984 2.0464 9.0724 2.09555 8.93124 2.15202L8.52342 2.32037C8.26305 2.4333 8.02254 2.5431 7.79772 2.63407C7.59679 2.71485 7.39024 2.7809 7.17973 2.83171C7.02084 2.86971 6.85876 2.89282 6.69558 2.90072C6.59087 2.90423 6.48604 2.90039 6.38187 2.88922L6.30136 2.87981C6.29301 2.87371 6.28386 2.86878 6.27417 2.86517Z" fill="#263238"/>
<path d="M37.0221 5.53268C36.8297 5.0935 36.2242 4.54138 35.6324 4.39394C35.0405 4.2465 34.3775 4.28937 33.8746 4.64491C33.5661 4.86345 33.3444 5.1782 33.1259 5.48145C32.9073 5.78469 32.6783 6.10258 32.3646 6.31067C32.0509 6.51876 31.6253 6.6045 31.2917 6.42778C30.9582 6.25106 30.6026 5.98233 30.7825 5.66026C30.9591 5.32395 31.0976 4.96902 31.1955 4.60203C31.2813 4.24336 31.3189 3.48629 31.1955 3.13808C30.9519 2.44689 30.5817 2.17815 30.038 2.02025C29.4942 1.86236 28.4506 1.87909 27.9466 2.14364C27.4426 2.4082 27.1739 2.83379 26.8372 3.29389L27.6507 6.63692L37.0221 6.59823V5.53268Z" fill="#E0E0E0"/>
<path d="M40.9067 6.61285C40.9071 6.4638 40.8677 6.31736 40.7925 6.18867C40.7173 6.05998 40.6091 5.95372 40.479 5.88087L39.3779 5.26288C39.0645 5.08648 38.7108 4.99392 38.3511 4.99414C38.1291 4.99449 37.9085 5.02978 37.6975 5.09871C37.4683 5.17815 37.2687 5.32561 37.1254 5.5214C36.9821 5.7172 36.9019 5.95203 36.8955 6.19458C36.8899 6.35727 36.9171 6.51942 36.9754 6.67138C37.0338 6.82334 37.1222 6.96199 37.2353 7.07908C37.3484 7.19617 37.4839 7.2893 37.6337 7.35292C37.7835 7.41654 37.9447 7.44935 38.1074 7.44939H40.0681C40.1781 7.44966 40.2871 7.42823 40.3889 7.38631C40.4906 7.3444 40.5831 7.28282 40.661 7.20511C40.7389 7.12741 40.8007 7.03509 40.8428 6.93346C40.885 6.83183 40.9067 6.72288 40.9067 6.61285Z" fill="#FFC785"/>
<path d="M40.907 6.61281C40.907 6.61281 40.907 6.64941 40.8944 6.71738C40.8804 6.81802 40.8478 6.91518 40.7982 7.0039C40.7191 7.14424 40.602 7.25947 40.4604 7.33642C40.3726 7.38322 40.2769 7.41335 40.1781 7.4253C40.0654 7.43329 39.9523 7.43538 39.8393 7.43158L38.161 7.42635C38.0018 7.43057 37.8432 7.40468 37.6936 7.35001C37.5374 7.29223 37.3949 7.20248 37.2753 7.0865C37.1519 6.96684 37.0562 6.82156 36.9951 6.66091C36.9325 6.49416 36.9075 6.31562 36.9219 6.13807C36.9351 5.96426 36.9862 5.79544 37.0716 5.64351C37.1571 5.49158 37.2748 5.36021 37.4165 5.25866C37.5543 5.16597 37.7088 5.10097 37.8714 5.0673C38.0273 5.03073 38.1869 5.01179 38.3471 5.01083C38.6442 5.01063 38.938 5.07372 39.2088 5.19592C39.3353 5.25238 39.4503 5.32349 39.5654 5.38623L39.8937 5.56818L40.4573 5.88188C40.5996 5.95785 40.7169 6.07332 40.7951 6.21441C40.8442 6.30338 40.8772 6.40041 40.8923 6.50093C40.9028 6.56994 40.9017 6.60549 40.9038 6.60549C40.9073 6.57072 40.9073 6.5357 40.9038 6.50093C40.8925 6.39775 40.8616 6.29768 40.8128 6.20604C40.7358 6.05941 40.6177 5.93841 40.473 5.85783L39.9125 5.54413L39.5863 5.35904C39.4723 5.2963 39.3573 5.22311 39.2266 5.16455C38.8013 4.96878 38.3229 4.92056 37.8672 5.02756C37.6981 5.0614 37.5374 5.12859 37.3945 5.2252C37.2463 5.33055 37.1231 5.46723 37.0337 5.62554C36.9442 5.78385 36.8907 5.9599 36.8769 6.14121C36.863 6.32481 36.8891 6.50924 36.9532 6.68183C37.0166 6.84592 37.114 6.99472 37.2391 7.11837C37.3642 7.24203 37.5141 7.33773 37.679 7.39916C37.8345 7.45491 37.999 7.48115 38.1641 7.47654H39.8425C39.9569 7.47947 40.0714 7.47598 40.1854 7.46608C40.2877 7.45202 40.3866 7.41942 40.4772 7.36988C40.6217 7.28882 40.7403 7.16844 40.8191 7.02272C40.8669 6.93045 40.897 6.83009 40.908 6.72679C40.9113 6.68885 40.9109 6.65068 40.907 6.61281Z" fill="#263238"/>
<path d="M37.8682 5.45734C37.8682 5.45734 37.8974 5.41865 37.9633 5.36532C38.0575 5.29309 38.1695 5.24789 38.2875 5.23461C38.4638 5.2204 38.6411 5.23955 38.8103 5.29108C39.4082 5.44189 39.9635 5.7281 40.4332 6.12762C40.6664 6.32316 40.7898 6.46747 40.7971 6.46119C40.7732 6.42358 40.7456 6.38854 40.7145 6.35663C40.6336 6.26653 40.5477 6.181 40.4573 6.10043C40.1579 5.83242 39.8171 5.61455 39.4482 5.45525C39.2455 5.36756 39.0356 5.29759 38.8208 5.24612C38.6456 5.19621 38.4623 5.18059 38.2812 5.20011C38.1578 5.21653 38.042 5.26931 37.9487 5.35173C37.9243 5.37426 37.9025 5.39952 37.8838 5.42702C37.8768 5.43606 37.8715 5.44634 37.8682 5.45734Z" fill="white"/>
<path d="M35.0145 6.13709C34.9975 6.13496 34.981 6.13038 34.9653 6.1235L34.8262 6.07226L34.3212 5.87463L32.6586 5.21271L30.9938 4.55394L30.4877 4.35735L30.3507 4.30193C30.3194 4.28938 30.3037 4.28206 30.3047 4.27997C30.322 4.28134 30.339 4.28558 30.3549 4.29252L30.4951 4.33748C30.6174 4.37722 30.792 4.44205 31.0074 4.51838C31.4372 4.67523 32.0291 4.90319 32.6805 5.16148C33.332 5.41976 33.9155 5.66131 34.3379 5.83907L34.8367 6.04821L34.9716 6.10886C34.9869 6.11666 35.0013 6.12613 35.0145 6.13709Z" fill="white"/>
<path d="M33.8998 5.26295C33.8824 5.26079 33.8654 5.25585 33.8496 5.24832L33.7116 5.19708L33.2054 4.99944L31.547 4.33648L29.8739 3.67875L29.3689 3.48216L29.2319 3.42779C29.2153 3.42212 29.1995 3.4144 29.1848 3.40479C29.2019 3.40736 29.2187 3.41156 29.235 3.41733L29.3762 3.4623C29.4975 3.50204 29.6721 3.56687 29.8875 3.6432C30.3183 3.8011 30.9091 4.02801 31.5606 4.28734C32.2121 4.54667 32.8018 4.78613 33.2201 4.96389L33.7199 5.17303L33.8538 5.23367C33.8703 5.24138 33.8858 5.25123 33.8998 5.26295Z" fill="white"/>
<path d="M62.1572 17.7211C62.1572 17.7211 62.1572 17.6908 62.1656 17.6312C62.1739 17.5716 62.1781 17.4816 62.1886 17.3645C62.2084 17.1303 62.2377 16.781 62.2639 16.3188C62.2764 16.0898 62.2879 15.8347 62.2952 15.5524C62.2952 15.4112 62.3025 15.2638 62.3025 15.11C62.3046 15.0315 62.3014 14.9529 62.2931 14.8748C62.2917 14.8349 62.2882 14.7951 62.2827 14.7556C62.2743 14.7148 62.267 14.675 62.2586 14.6343C62.1763 14.286 62.0105 13.963 61.7755 13.6931C61.6493 13.5411 61.5093 13.4011 61.3573 13.2749C61.1988 13.139 61.0287 13.0173 60.849 12.911H60.8407V12.9016C60.9139 12.4833 60.9913 12.0347 61.0728 11.56C61.1124 11.3181 61.1243 11.0725 61.1084 10.828C61.0992 10.5708 61.0235 10.3205 60.8888 10.1012C60.6661 9.60873 60.2352 9.21138 59.7385 8.90604C59.212 8.59634 58.6503 8.35061 58.0655 8.17406C57.4621 7.97957 56.8242 7.82376 56.1623 7.6805L55.1522 7.47137L54.6367 7.3668C54.462 7.33648 54.2895 7.29778 54.1138 7.27269C53.4017 7.14511 52.6698 7.05519 51.9231 6.97258C51.1765 6.88997 50.4027 6.80736 49.6164 6.72894C48.0479 6.57208 46.4009 6.41523 44.7017 6.27302C42.8843 5.29531 40.977 4.27473 38.9954 3.24055C38.0031 2.72294 36.9951 2.19488 35.963 1.68773C35.4504 1.41825 34.9154 1.19364 34.3641 1.0164C33.8078 0.843862 33.2369 0.702695 32.6597 0.584533C31.7248 0.387946 30.789 0.229003 29.8593 0.104568C29.6284 0.0741181 29.3958 0.0577055 29.1629 0.0554208H28.4644H27.0778L21.7031 0.0637864C18.2189 0.0815629 14.9438 0.0209142 11.9688 0.193451H11.9751L8.37276 1.40121L7.52995 1.68354L7.11167 1.82157C6.97574 1.86863 6.83771 1.91359 6.70072 1.95019C6.56464 1.98063 6.4319 2.02441 6.30441 2.0809C6.2449 2.11212 6.19235 2.1551 6.14993 2.20722C6.10751 2.25934 6.07611 2.31953 6.05763 2.38414C6.03318 2.44517 6.02316 2.51102 6.02835 2.57655C6.037 2.64102 6.06467 2.70145 6.10782 2.75013C6.19881 2.84502 6.31368 2.91365 6.44035 2.94881L6.47172 2.95927L6.44767 2.98123L3.10464 6.00324L1.74526 7.24027C1.64043 7.32876 1.54855 7.43155 1.47233 7.54561C1.41176 7.66166 1.37145 7.7872 1.35313 7.91682C1.30921 8.16988 1.23706 8.4062 1.22033 8.63625C1.19394 9.04538 1.19394 9.45579 1.22033 9.86492C1.24019 10.2205 1.26424 10.5206 1.28516 10.7632C1.33012 11.2389 1.35208 11.4648 1.35522 11.5004C1.35522 11.5004 1.34581 11.4376 1.33117 11.3132C1.31653 11.1888 1.29666 11.0058 1.2747 10.7642C1.25274 10.5227 1.22555 10.2215 1.20464 9.86597C1.17576 9.45631 1.17297 9.04522 1.19628 8.6352C1.21301 8.40097 1.28411 8.1657 1.32699 7.9116C1.34583 7.77949 1.38684 7.65152 1.44828 7.53306C1.52585 7.4163 1.61909 7.31075 1.72539 7.21936L3.08477 5.97918L6.41316 2.94672L6.42153 2.97913C6.28747 2.94292 6.16593 2.87057 6.07018 2.77C6.02151 2.7165 5.99048 2.64933 5.9813 2.57759C5.97556 2.50649 5.98593 2.43501 6.01162 2.36846C6.03174 2.29932 6.06551 2.23492 6.11096 2.17906C6.1564 2.1232 6.21258 2.07702 6.27618 2.04325C6.40654 1.98568 6.54203 1.94052 6.68085 1.90836C6.81784 1.87176 6.95273 1.82784 7.08867 1.78079L7.50694 1.64172L8.34976 1.35833L11.9511 0.146394H11.9573C14.9344 -0.0282339 18.2084 0.0303253 21.6926 0.0104574L27.0684 0H28.455H29.1535C29.3889 0.00211308 29.6239 0.0188759 29.8573 0.0501921C30.789 0.174628 31.7248 0.332526 32.6618 0.530159C33.24 0.652504 33.812 0.790531 34.3704 0.963068C34.9244 1.14148 35.4622 1.36713 35.9776 1.63753C37.0107 2.14887 38.0198 2.6738 39.0101 3.19245C40.9969 4.23186 42.9 5.25139 44.7163 6.23119H44.7069C46.4061 6.37863 48.0531 6.53235 49.6216 6.69025C50.4087 6.76972 51.1779 6.85163 51.9294 6.93598C52.6802 7.02277 53.4122 7.10956 54.1253 7.2225C54.3031 7.24655 54.4777 7.28628 54.6482 7.31765L55.1647 7.42222L56.1749 7.63136C56.8368 7.77461 57.4757 7.93146 58.0801 8.12701C58.6671 8.30721 59.2308 8.55605 59.7595 8.86839C60.2582 9.17687 60.6943 9.5805 60.9202 10.0814C61.0549 10.3048 61.1305 10.5589 61.1397 10.8196C61.1553 11.0681 61.1427 11.3175 61.1021 11.5631C61.0195 12.0378 60.94 12.4864 60.8668 12.9047L60.8606 12.8901C61.0414 12.9981 61.2128 13.1212 61.3729 13.2581C61.5248 13.3865 61.6648 13.5282 61.7912 13.6816C62.0288 13.9549 62.1954 14.2824 62.2764 14.6353C62.2837 14.6761 62.2921 14.7169 62.3004 14.7576C62.3088 14.7984 62.3067 14.8392 62.3109 14.8789C62.3183 14.9575 62.3211 15.0364 62.3193 15.1153C62.3193 15.269 62.3193 15.4175 62.3099 15.5586C62.3025 15.8399 62.2889 16.0961 62.2743 16.3251C62.2471 16.7821 62.2158 17.1313 62.1938 17.3708C62.1718 17.6103 62.1572 17.7211 62.1572 17.7211Z" fill="#263238"/>
</svg>
