<svg width="461" height="436" viewBox="0 0 461 436" fill="none" xmlns="http://www.w3.org/2000/svg">
<path d="M230.3 435.116C357.491 435.116 460.6 375.588 460.6 302.156C460.6 228.724 357.491 169.196 230.3 169.196C103.109 169.196 0 228.724 0 302.156C0 375.588 103.109 435.116 230.3 435.116Z" fill="#F5F5F5"/>
<path d="M101.26 20.556L92.9802 25.326C93.0281 24.9647 93.0515 24.6005 93.0502 24.236V21.836C93.0502 17.566 90.0502 15.836 86.3702 17.976C84.7738 18.946 83.4086 20.2531 82.3702 21.806C81.7702 16.446 77.5602 14.446 72.4502 17.396C66.9202 20.586 62.4502 28.396 62.4502 34.726V38.316C62.4159 39.7458 62.7065 41.1648 63.3002 42.466L56.4302 46.466C55.3504 47.1689 54.4517 48.1166 53.8071 49.2321C53.1624 50.3476 52.79 51.5995 52.7202 52.886C52.7202 55.256 54.3802 56.216 56.4302 55.036L101.26 29.116C102.34 28.4131 103.239 27.4654 103.883 26.3499C104.528 25.2344 104.9 23.9825 104.97 22.696C104.97 20.326 103.31 19.366 101.26 20.556Z" fill="#EBEBEB"/>
<path d="M136.66 44.656L130.42 48.256C130.452 47.9838 130.469 47.71 130.47 47.436V45.626C130.47 42.406 128.21 41.106 125.42 42.716C124.222 43.4499 123.198 44.4361 122.42 45.606C121.96 41.606 118.78 40.046 114.93 42.276C112.731 43.7087 110.9 45.6396 109.587 47.9122C108.273 50.1848 107.514 52.735 107.37 55.356V58.066C107.349 59.1439 107.567 60.2131 108.01 61.196L102.83 64.196C102.016 64.728 101.338 65.4443 100.851 66.2868C100.365 67.1294 100.084 68.0746 100.03 69.046C100.03 70.836 101.28 71.556 102.83 70.666L136.66 51.136C137.475 50.6039 138.153 49.8877 138.639 49.0451C139.125 48.2026 139.407 47.2574 139.46 46.286C139.46 44.486 138.21 43.766 136.66 44.656Z" fill="#EBEBEB"/>
<path d="M83.9097 347.996L94.2397 341.996C94.2397 341.996 96.7697 319.886 95.0797 302.766C92.7197 278.706 77.1797 249.766 58.6397 256.556C40.0997 263.346 67.1297 287.916 73.1297 308.306C79.1297 328.696 83.9097 347.996 83.9097 347.996Z" fill="#C0A5FC"/>
<path opacity="0.2" d="M83.9097 347.996L94.2397 341.996C94.2397 341.996 96.7697 319.886 95.0797 302.766C92.7197 278.706 77.1797 249.766 58.6397 256.556C40.0997 263.346 67.1297 287.916 73.1297 308.306C79.1297 328.696 83.9097 347.996 83.9097 347.996Z" fill="black"/>
<path d="M89.3399 345.486C89.2584 345.483 89.1783 345.465 89.1041 345.431C89.0298 345.398 88.9629 345.35 88.9072 345.29C88.8515 345.231 88.808 345.161 88.7793 345.085C88.7506 345.009 88.7372 344.927 88.7399 344.846C90.5499 291.376 63.9399 264.486 63.6699 264.226C63.5999 264.171 63.5423 264.102 63.5009 264.024C63.4594 263.945 63.4351 263.859 63.4295 263.77C63.4239 263.681 63.437 263.592 63.4682 263.509C63.4994 263.426 63.5478 263.35 63.6102 263.287C63.6727 263.224 63.7479 263.175 63.8307 263.142C63.9136 263.11 64.0023 263.096 64.091 263.101C64.1798 263.105 64.2665 263.129 64.3456 263.169C64.4247 263.21 64.4943 263.267 64.5499 263.336C64.8199 263.596 91.8199 290.886 89.9899 344.886C89.9873 344.968 89.9684 345.049 89.9342 345.124C89.9 345.199 89.8512 345.266 89.7907 345.322C89.7302 345.378 89.6592 345.421 89.5817 345.449C89.5043 345.478 89.4221 345.49 89.3399 345.486Z" fill="white"/>
<path d="M78.3998 352.266L85.7498 348.026C85.7498 348.026 86.9998 332.856 79.5598 314.416C73.0798 298.416 57.0198 285.066 48.9398 287.856C40.8598 290.646 41.0498 296.386 44.9398 302.396C48.8298 308.406 72.9098 322.736 78.3998 352.266Z" fill="#C0A5FC"/>
<path d="M82.2799 350.656C82.1128 350.656 81.9526 350.59 81.8344 350.471C81.7163 350.353 81.6499 350.193 81.6499 350.026C81.7999 316.226 50.0599 293.376 49.7399 293.146C49.6269 293.044 49.5556 292.903 49.5396 292.752C49.5235 292.6 49.5639 292.448 49.653 292.324C49.742 292.2 49.8736 292.114 50.0224 292.081C50.1713 292.048 50.327 292.071 50.4599 292.146C50.7799 292.376 83.0499 315.606 82.8999 350.056C82.8947 350.217 82.8271 350.37 82.7114 350.482C82.5957 350.593 82.4409 350.656 82.2799 350.656Z" fill="white"/>
<path d="M276.73 305.276L212.73 342.276L212.58 342.196L188.23 328.126C186.111 326.765 184.428 324.823 183.382 322.533C182.336 320.242 181.971 317.699 182.33 315.206L191.33 268.286L255.33 231.286L246.33 278.206C245.971 280.699 246.336 283.242 247.382 285.533C248.428 287.823 250.111 289.765 252.23 291.126L276.73 305.276Z" fill="#37474F"/>
<path d="M191.36 268.286L182.4 314.796L246.42 277.846L254.7 234.826L250.66 234.016L191.36 268.286Z" fill="#263238"/>
<path d="M212.71 342.266L188.22 328.126C186.103 326.763 184.422 324.821 183.376 322.531C182.33 320.241 181.963 317.698 182.32 315.206L191.32 268.286L180.65 262.116L170.33 315.796C168.96 322.896 172.97 331.666 179.23 335.276L212.68 354.586L212.71 342.266Z" fill="#263238"/>
<path d="M276.73 305.276L212.71 342.266V354.596L276.73 317.606V305.276Z" fill="#455A64"/>
<path d="M339.36 1.22598C342.3 2.92598 344.69 7.22598 344.69 10.876V207.336C344.583 209.31 344.012 211.23 343.023 212.941C342.034 214.653 340.656 216.107 339 217.186L94.13 358.576C90.99 360.386 86.05 360.476 83.13 358.776C80.21 357.076 77.79 352.776 77.79 349.126V152.666C77.8981 150.691 78.4695 148.77 79.458 147.057C80.4465 145.344 81.8243 143.888 83.48 142.806L328.33 1.42598C331.47 -0.394019 336.41 -0.484016 339.36 1.22598Z" fill="#455A64"/>
<path d="M93.45 358.916C90.31 360.386 85.84 360.356 83.09 358.776C80.14 357.076 77.75 352.776 77.75 349.126V152.666C77.821 150.684 78.3958 148.754 79.42 147.056L90.13 153.226C89.105 154.92 88.5301 156.847 88.46 158.826V355.286C88.43 358.656 90.62 360.166 93.45 358.916Z" fill="#263238"/>
<path d="M344.69 207.336V10.916C344.69 7.28597 342.15 5.81597 339 7.62597L94.1299 148.976C92.4739 150.055 91.0956 151.509 90.107 153.22C89.1183 154.932 88.5472 156.852 88.4399 158.826V355.286C88.4399 358.916 90.9899 360.386 94.1299 358.576L339 217.186C340.656 216.107 342.034 214.653 343.023 212.941C344.012 211.23 344.583 209.31 344.69 207.336Z" fill="#37474F"/>
<path d="M332.19 17.616L98.32 152.716C96.9958 153.58 95.8937 154.743 95.1032 156.112C94.3126 157.481 93.8559 159.017 93.77 160.596V335.026C93.77 337.926 95.77 339.106 98.32 337.656L332.2 202.556C333.524 201.692 334.626 200.529 335.417 199.16C336.207 197.791 336.664 196.255 336.75 194.676V20.246C336.75 17.346 334.71 16.166 332.19 17.616Z" fill="#C0A5FC"/>
<path opacity="0.8" d="M332.19 17.616L98.32 152.716C96.9958 153.58 95.8937 154.743 95.1032 156.112C94.3126 157.481 93.8559 159.017 93.77 160.596V335.026C93.77 337.926 95.77 339.106 98.32 337.656L332.2 202.556C333.524 201.692 334.626 200.529 335.417 199.16C336.207 197.791 336.664 196.255 336.75 194.676V20.246C336.75 17.346 334.71 16.166 332.19 17.616Z" fill="white"/>
<path d="M110.44 316.206C109.2 316.206 108.44 315.206 108.44 313.496V175.356L322.06 52.036V189.596C321.976 191.062 321.55 192.488 320.815 193.759C320.081 195.03 319.058 196.112 317.83 196.916L112.19 315.656C111.664 315.988 111.061 316.178 110.44 316.206Z" fill="#F5F5F5"/>
<path d="M321.56 52.916V189.616C321.475 190.998 321.069 192.341 320.375 193.539C319.681 194.736 318.717 195.756 317.56 196.516L111.94 315.226C111.489 315.51 110.973 315.676 110.44 315.706C109.1 315.706 108.96 314.166 108.96 313.496V175.646L321.56 52.916ZM322.56 51.186L107.96 175.086V313.496C107.96 315.496 108.96 316.706 110.44 316.706C111.15 316.681 111.84 316.467 112.44 316.086L318.07 197.366C319.377 196.515 320.465 195.368 321.245 194.018C322.025 192.668 322.476 191.153 322.56 189.596V51.166V51.186Z" fill="#E0E0E0"/>
<path d="M107.96 175.066V194.496L322.56 70.596V51.166L107.96 175.066Z" fill="#C0A5FC"/>
<path d="M242.61 104.916V109.096C242.61 109.946 243.22 110.296 243.96 109.876L309.96 71.776V64.516L243.96 102.616C243.573 102.869 243.249 103.209 243.015 103.608C242.781 104.007 242.642 104.454 242.61 104.916Z" fill="#FAFAFA"/>
<path d="M317.01 60.436C317.75 60.006 318.35 60.356 318.35 61.216V65.396C318.323 65.8618 318.188 66.315 317.955 66.7194C317.723 67.1239 317.399 67.4686 317.01 67.726L309.94 71.806V64.516L317.01 60.436Z" fill="#455A64"/>
<path d="M316.48 66.166L315.7 65.926C315.778 65.5983 315.818 65.2628 315.82 64.926C315.856 64.6076 315.808 64.2854 315.682 63.9909C315.556 63.6964 315.355 63.4397 315.1 63.246C314.926 63.141 314.728 63.0854 314.525 63.0854C314.322 63.0854 314.123 63.141 313.95 63.246C313.448 63.6298 313.043 64.1271 312.771 64.6973C312.498 65.2674 312.364 65.8941 312.38 66.526C312.344 66.8458 312.392 67.1694 312.518 67.4655C312.644 67.7616 312.845 68.0201 313.1 68.216C313.252 68.3024 313.425 68.3472 313.6 68.346C313.83 68.3427 314.054 68.277 314.25 68.156C314.848 67.744 315.295 67.1467 315.52 66.456L316.31 66.696H316.4C316.463 66.6947 316.523 66.6737 316.574 66.636C316.624 66.5984 316.661 66.5459 316.68 66.486C316.686 66.4181 316.67 66.3499 316.634 66.292C316.598 66.2342 316.544 66.1899 316.48 66.166ZM313.95 67.686C313.865 67.7361 313.768 67.7626 313.67 67.7626C313.571 67.7626 313.475 67.7361 313.39 67.686C313.229 67.5378 313.106 67.3534 313.032 67.1482C312.957 66.9429 312.932 66.7227 312.96 66.506C312.951 65.9768 313.063 65.4526 313.287 64.9728C313.51 64.493 313.839 64.0701 314.25 63.736C314.355 63.6693 314.476 63.6314 314.6 63.626C314.669 63.6098 314.741 63.6098 314.81 63.626C314.968 63.7756 315.09 63.9602 315.165 64.1651C315.239 64.3699 315.265 64.5894 315.24 64.806C315.262 65.3531 315.157 65.8979 314.934 66.3977C314.71 66.8974 314.373 67.3384 313.95 67.686Z" fill="#FAFAFA"/>
<path d="M107.96 165.676C108.042 164.12 108.491 162.605 109.27 161.255C110.048 159.904 111.134 158.757 112.44 157.906L318.07 39.186C320.55 37.756 322.56 38.916 322.56 41.776V51.166L107.96 175.066V165.676Z" fill="#37474F"/>
<path d="M297.31 56.016C296.699 56.4153 296.19 56.9529 295.825 57.5852C295.46 58.2176 295.25 58.927 295.21 59.656C295.21 61.006 296.15 61.546 297.31 60.876C297.925 60.478 298.438 59.9396 298.805 59.3051C299.171 58.6705 299.382 57.958 299.42 57.226C299.42 55.916 298.48 55.346 297.31 56.016Z" fill="#C0A5FC"/>
<path d="M304.68 51.776C304.066 52.173 303.554 52.7098 303.188 53.3425C302.821 53.9752 302.609 54.6857 302.57 55.416C302.57 56.756 303.51 57.306 304.68 56.636C305.293 56.2357 305.802 55.6965 306.167 55.0623C306.532 54.4281 306.742 53.7167 306.78 52.986C306.78 51.646 305.84 51.106 304.68 51.776Z" fill="#C0A5FC"/>
<path d="M312.04 47.536C311.429 47.9353 310.92 48.4728 310.555 49.1052C310.19 49.7376 309.98 50.447 309.94 51.176C309.94 52.516 310.88 53.066 312.04 52.396C312.652 51.9951 313.161 51.4558 313.526 50.8217C313.891 50.1876 314.101 49.4765 314.14 48.746C314.13 47.406 313.2 46.916 312.04 47.536Z" fill="#C0A5FC"/>
<path d="M202.04 179.636L228.48 164.376C230.15 163.376 231.48 164.186 231.48 166.126V196.646C231.425 197.695 231.125 198.716 230.604 199.627C230.083 200.539 229.356 201.316 228.48 201.896L202.04 217.156C200.37 218.156 199.04 217.336 199.04 215.406V184.916C199.088 183.862 199.385 182.834 199.906 181.916C200.428 180.998 201.159 180.217 202.04 179.636Z" fill="#C0A5FC"/>
<path d="M209.3 217.656L225.3 208.436C226.5 207.736 227.46 208.236 227.46 209.526C227.406 210.253 227.182 210.957 226.807 211.582C226.432 212.208 225.916 212.736 225.3 213.126L209.3 222.346C208.1 223.036 207.13 222.546 207.13 221.256C207.183 220.527 207.407 219.822 207.784 219.196C208.161 218.571 208.68 218.043 209.3 217.656Z" fill="#455A64"/>
<path d="M215.03 178.516C217.84 176.896 220.11 178.206 220.11 181.446C220.015 183.208 219.506 184.922 218.623 186.45C217.74 187.977 216.509 189.274 215.03 190.236C212.23 191.856 209.96 190.546 209.96 187.306C210.055 185.546 210.564 183.832 211.444 182.305C212.325 180.778 213.554 179.48 215.03 178.516Z" fill="#FAFAFA"/>
<path d="M225.04 195.826C225.04 190.516 221.3 188.146 216.7 190.826L213.82 192.496C209.21 195.156 205.48 201.616 205.48 206.936V208.366L225.04 197.086V195.826Z" fill="#FAFAFA"/>
<path d="M250.81 151.456L277.24 136.196C278.92 135.196 280.24 136.006 280.24 137.946V168.466C280.187 169.515 279.887 170.537 279.366 171.449C278.845 172.361 278.117 173.137 277.24 173.716L250.81 188.976C249.14 189.976 247.81 189.156 247.81 187.226V156.706C247.864 155.657 248.163 154.635 248.684 153.723C249.205 152.811 249.933 152.035 250.81 151.456Z" fill="#C0A5FC"/>
<path opacity="0.2" d="M250.81 151.456L277.24 136.196C278.92 135.196 280.24 136.006 280.24 137.946V168.466C280.187 169.515 279.887 170.537 279.366 171.449C278.845 172.361 278.117 173.137 277.24 173.716L250.81 188.976C249.14 189.976 247.81 189.156 247.81 187.226V156.706C247.864 155.657 248.163 154.635 248.684 153.723C249.205 152.811 249.933 152.035 250.81 151.456Z" fill="black"/>
<path d="M258.07 189.476L274.07 180.256C275.26 179.566 276.23 180.056 276.23 181.346C276.177 182.073 275.955 182.778 275.579 183.404C275.204 184.029 274.687 184.557 274.07 184.946L258.07 194.166C256.87 194.856 255.9 194.366 255.9 193.076C255.953 192.347 256.177 191.642 256.554 191.016C256.931 190.391 257.45 189.863 258.07 189.476Z" fill="#455A64"/>
<path d="M263.8 150.336C266.61 148.716 268.88 150.026 268.88 153.266C268.786 155.028 268.277 156.743 267.394 158.27C266.511 159.798 265.28 161.095 263.8 162.056C261 163.676 258.73 162.366 258.73 159.126C258.826 157.366 259.335 155.653 260.216 154.126C261.096 152.599 262.324 151.3 263.8 150.336Z" fill="#FAFAFA"/>
<path d="M273.81 167.646C273.81 162.336 270.07 159.966 265.47 162.646L262.59 164.316C257.98 166.976 254.25 173.436 254.25 178.756V180.186L273.81 168.916V167.646Z" fill="#FAFAFA"/>
<path d="M153.32 207.746L179.76 192.486C181.43 191.486 182.76 192.306 182.76 194.236V224.756C182.707 225.805 182.408 226.827 181.887 227.739C181.366 228.651 180.637 229.428 179.76 230.006L153.32 245.266C151.65 246.266 150.32 245.456 150.32 243.516V212.996C150.375 211.947 150.675 210.926 151.196 210.015C151.717 209.103 152.444 208.326 153.32 207.746Z" fill="#C0A5FC"/>
<path opacity="0.5" d="M153.32 207.746L179.76 192.486C181.43 191.486 182.76 192.306 182.76 194.236V224.756C182.707 225.805 182.408 226.827 181.887 227.739C181.366 228.651 180.637 229.428 179.76 230.006L153.32 245.266C151.65 246.266 150.32 245.456 150.32 243.516V212.996C150.375 211.947 150.675 210.926 151.196 210.015C151.717 209.103 152.444 208.326 153.32 207.746Z" fill="white"/>
<path d="M160.58 245.766L176.58 236.546C177.78 235.856 178.74 236.346 178.74 237.636C178.688 238.363 178.465 239.068 178.09 239.694C177.714 240.319 177.197 240.847 176.58 241.236L160.58 250.456C159.38 251.146 158.41 250.656 158.41 249.366C158.463 248.637 158.687 247.932 159.064 247.306C159.441 246.681 159.961 246.153 160.58 245.766Z" fill="#455A64"/>
<path d="M166.31 206.626C169.12 205.006 171.39 206.326 171.39 209.556C171.296 211.319 170.786 213.035 169.903 214.564C169.021 216.093 167.79 217.392 166.31 218.356C163.51 219.966 161.24 218.656 161.24 215.416C161.336 213.656 161.845 211.943 162.726 210.416C163.607 208.889 164.835 207.59 166.31 206.626Z" fill="#FAFAFA"/>
<path d="M176.32 223.916C176.32 218.596 172.58 216.236 167.98 218.916L165.13 220.586C160.52 223.246 156.79 229.716 156.79 235.036V236.466L176.35 225.176L176.32 223.916Z" fill="#FAFAFA"/>
<path d="M406.81 144.546L396.19 138.416C385.48 132.416 370.8 133.266 354.53 142.656C339.31 151.426 325.43 166.066 314.97 183.006C302.87 202.506 295.26 225.086 295.26 245.326C295.26 264.206 301.87 277.446 312.56 283.656L323.29 289.806C334.09 296.686 349.29 296.076 366.29 286.316C399.03 267.406 425.57 221.436 425.57 183.636C425.53 163.916 418.33 150.386 406.81 144.546Z" fill="#C0A5FC"/>
<path opacity="0.1" d="M322.87 289.556L312.56 283.656C301.87 277.456 295.27 264.196 295.27 245.316C295.27 225.076 302.88 202.516 314.97 183.016L326.65 189.806C314.55 209.306 306.96 231.856 306.96 252.076C306.96 270.126 313 283.026 322.87 289.556Z" fill="black"/>
<path opacity="0.4" d="M406.38 144.296C395.82 139.176 381.73 140.476 366.26 149.396C351.02 158.206 337.14 172.856 326.65 189.806L314.97 183.016C325.44 166.016 339.33 151.436 354.54 142.666C370.8 133.266 385.49 132.376 396.21 138.416L406.38 144.296Z" fill="white"/>
<path d="M339.66 286.396C335.35 286.486 331.105 285.326 327.44 283.056L327.27 282.946L326.93 282.756C319.12 277.436 314.82 266.556 314.82 252.066C314.82 234.066 321.55 212.956 333.3 194.066C343.5 177.586 356.57 164.196 370.12 156.366C378.07 151.776 385.85 149.366 392.59 149.366C396.014 149.315 399.407 150.029 402.52 151.456L402.88 151.656L403.06 151.746C412.17 156.356 417.39 167.996 417.39 183.686C417.39 218.896 392.59 261.846 362.1 279.436C354.13 283.976 346.4 286.396 339.66 286.396Z" fill="#FAFAFA"/>
<mask id="mask0_309_9894" style="mask-type:luminance" maskUnits="userSpaceOnUse" x="314" y="149" width="104" height="138">
<path d="M339.66 286.396C335.35 286.486 331.105 285.326 327.44 283.056L327.27 282.946L326.93 282.756C319.12 277.436 314.82 266.556 314.82 252.066C314.82 234.066 321.55 212.956 333.3 194.066C343.5 177.586 356.57 164.196 370.12 156.366C378.07 151.776 385.85 149.366 392.59 149.366C396.014 149.315 399.407 150.029 402.52 151.456L402.88 151.656L403.06 151.746C412.17 156.356 417.39 167.996 417.39 183.686C417.39 218.896 392.59 261.846 362.1 279.436C354.13 283.976 346.4 286.396 339.66 286.396Z" fill="white"/>
</mask>
<g mask="url(#mask0_309_9894)">
<path d="M368.85 229.406C353.76 233.406 341.52 224.486 341.52 209.406V199.736C341.52 186.946 351.89 173.806 364.68 170.376L373.01 168.146C385.8 164.716 396.17 172.306 396.17 185.096V194.766C396.13 209.846 383.94 225.356 368.85 229.406Z" fill="#263238"/>
<path d="M406 267.526L418.06 305.276L402.98 313.536L393.94 278.026L406 267.526Z" fill="#FFA8A7"/>
<path d="M379.6 235.196C387.6 233.196 396.47 234.196 399.51 240.596C402.55 246.996 409.2 269.986 409.2 269.986C405.063 275.561 399.006 279.405 392.2 280.776L379.6 235.196Z" fill="#C0A5FC"/>
<path opacity="0.3" d="M379.6 235.196C387.6 233.196 396.47 234.196 399.51 240.596C402.55 246.996 409.2 269.986 409.2 269.986C405.063 275.561 399.006 279.405 392.2 280.776L379.6 235.196Z" fill="black"/>
<path d="M362.98 239.976L356.3 242.086C349.03 246.086 346.41 252.506 343.36 260.776C341.134 266.648 340.93 273.095 342.78 279.096L351.29 305.246C351.29 305.246 347.29 317.426 342.68 329.176C364.03 337.176 390.68 322.836 397.11 311.076C397.39 308.866 397.02 299.366 397.53 288.306C398.09 276.506 399.47 262.986 397.89 256.206C394.94 243.636 389.43 232.566 378.45 235.506L362.98 239.976Z" fill="#F5F5F5"/>
<path d="M356.3 242.086C349.02 245.226 338.3 249.786 334.63 270.776C330.89 292.046 330.17 297.066 330.17 297.066C330.17 297.066 336.54 302.696 348.63 299.386C348.63 299.386 359.29 256.736 356.3 242.086Z" fill="#C0A5FC"/>
<path opacity="0.3" d="M356.3 242.086C349.02 245.226 338.3 249.786 334.63 270.776C330.89 292.046 330.17 297.066 330.17 297.066C330.17 297.066 336.54 302.696 348.63 299.386C348.63 299.386 359.29 256.736 356.3 242.086Z" fill="black"/>
<path d="M344.95 270.396C353.5 268.106 360.44 259.316 360.44 250.766V223.266C351.88 225.566 344.95 234.356 344.95 242.906V270.396Z" fill="#263238"/>
<path d="M348.95 298.066C350.3 292.396 351.72 285.946 353.06 279.066C353.06 279.066 353 293.286 350.9 304.066L348.95 298.066Z" fill="#E0E0E0"/>
<path d="M387.2 177.096C390.08 178.286 393.65 185.716 393.3 203.386C393 218.386 388.82 223.156 386.72 224.776C384.62 226.396 380.57 226.836 376.64 227.136V236.076C376.64 236.076 382.08 241.916 381.73 246.076C381.38 250.236 373.88 253.246 368.79 250.606C365.429 248.677 362.569 245.984 360.44 242.746V221.166C360.44 221.166 357.78 225.976 353.44 223.806C349.1 221.636 348.93 213.436 351.44 209.806C353.95 206.176 359.44 205.646 360.44 209.466C360.44 209.466 366.71 208.056 375.07 200.466C381.776 194.375 386.079 186.085 387.2 177.096Z" fill="#FFA8A7"/>
<path d="M378.9 203.496C378.923 204.013 378.788 204.524 378.513 204.962C378.238 205.4 377.836 205.743 377.36 205.946C376.47 206.226 375.7 205.606 375.66 204.546C375.635 204.03 375.768 203.519 376.041 203.081C376.315 202.643 376.715 202.299 377.19 202.096C378.13 201.816 378.85 202.436 378.9 203.496Z" fill="#263238"/>
<path d="M379.33 216.006L383.1 216.386C383.007 216.98 382.713 217.525 382.268 217.929C381.822 218.333 381.251 218.572 380.65 218.606C379.61 218.496 379.02 217.336 379.33 216.006Z" fill="#F28F8F"/>
<path d="M392.2 194.186L388.91 192.436C389.51 191.196 390.73 190.576 391.64 191.066C392.55 191.556 392.79 192.916 392.2 194.186Z" fill="#263238"/>
<path d="M391.44 198.786C391.465 199.302 391.331 199.813 391.056 200.249C390.78 200.686 390.376 201.027 389.9 201.226C389.01 201.516 388.25 200.886 388.2 199.826C388.175 199.312 388.308 198.802 388.582 198.366C388.856 197.93 389.256 197.588 389.73 197.386C390.63 197.096 391.39 197.726 391.44 198.786Z" fill="#263238"/>
<path d="M383.79 199.766L384.05 210.966L389.18 207.756L383.79 199.766Z" fill="#F28F8F"/>
<path d="M376.64 227.136C372.49 227.616 363.96 227.076 362.64 223.536C363.108 225.24 364.173 226.72 365.64 227.706C368.19 229.546 376.64 230.116 376.64 230.116V227.136Z" fill="#F28F8F"/>
</g>
<path d="M351.69 268.036L343.52 263.316H343.43C339.37 261.016 333.8 261.316 327.63 264.916C321.86 268.246 316.63 273.796 312.63 280.216C308.05 287.616 305.16 296.216 305.16 303.856C305.16 311.006 307.67 316.036 311.72 318.386L320.02 323.126C324.11 325.736 329.89 325.506 336.31 321.796C348.72 314.626 358.79 297.196 358.79 282.866C358.79 275.386 356.06 270.246 351.69 268.036Z" fill="#37474F"/>
<path d="M319.85 323.016L311.72 318.376C307.66 316.026 305.16 310.996 305.16 303.836C305.16 296.166 308.04 287.606 312.63 280.216L321.31 285.216C316.72 292.616 313.84 301.156 313.84 308.826C313.82 315.646 316.13 320.546 319.85 323.016Z" fill="#263238"/>
<path d="M351.52 267.916C347.52 265.976 342.18 266.466 336.31 269.856C330.44 273.246 325.31 278.746 321.31 285.176L312.63 280.176C316.63 273.746 321.87 268.176 327.63 264.876C333.8 261.316 339.37 260.976 343.43 263.266H343.52L351.52 267.916Z" fill="#455A64"/>
<path d="M346.06 287.186L338.57 291.516V279.516C338.57 277.586 337.57 276.616 336.31 277.336C335.05 278.056 334.05 280.196 334.05 282.126V294.126L326.55 298.456C325.93 298.949 325.431 299.577 325.093 300.294C324.755 301.01 324.586 301.794 324.6 302.586C324.6 304.246 325.48 305.086 326.55 304.456L334.05 300.136V312.136C334.05 314.066 335.05 315.036 336.31 314.316C337.57 313.596 338.57 311.446 338.57 309.526V297.526L346.06 293.196C346.682 292.705 347.182 292.077 347.52 291.36C347.858 290.643 348.026 289.858 348.01 289.066C348.01 287.406 347.13 286.566 346.06 287.186Z" fill="#F5F5F5"/>
</svg>
