<svg
  width="372"
  height="78"
  viewBox="0 0 372 78"
  fill="none"
  xmlns="http://www.w3.org/2000/svg"
>
<path
    d="M46.5409 70.2338C46.2208 70.0548 45.8943 69.7112 45.5814 69.7236C43.6719 69.7994 41.7654 69.9561 39.8578 70.0858C39.8481 69.7821 39.8384 69.4784 39.8287 69.1747C40.2806 69.1747 40.7824 69.044 41.1745 69.2006C42.1262 69.5809 42.7886 69.5845 42.9645 68.1001C41.2052 68.2565 39.5211 68.4062 37.3282 68.601C38.1161 69.3512 38.5028 69.7193 39.1581 70.3433C38.5248 70.4817 37.9778 70.7971 37.6751 70.6349C35.984 69.7295 34.4695 70.6081 32.8866 70.9439C32.4031 71.0465 31.6633 71.0705 31.4105 70.7864C31.1669 70.5125 31.4008 69.7941 31.4242 69.2866C30.504 69.1452 29.4294 68.9801 28.3765 68.6117C28.4474 68.363 28.4966 68.3176 28.5458 68.2722C28.8247 68.0352 29.1036 67.7981 29.3824 67.5611C28.8561 67.2401 28.3404 66.685 27.8008 66.6596C27.1797 66.6304 26.4921 66.9985 25.9436 67.3662C25.8364 67.438 26.2335 68.2972 26.3495 68.6471C25.8609 68.9131 25.1743 69.2868 24.3149 69.787C23.8735 70.034 23.6048 70.1547 23.3361 70.2753C21.9831 69.8255 21.769 70.812 21.5995 71.7616C18.7335 72.1908 18.7335 72.1908 17.5579 69.8701C16.9096 70.1548 16.246 70.4464 15.5099 70.7697C16.0796 71.4289 16.5488 71.9718 17.1617 72.681C15.9047 72.4701 14.9695 72.3133 13.8646 72.1495C13.6949 72.1425 13.6432 72.0926 13.6432 72.0926C13.1745 71.3646 12.7058 70.6367 12.4861 70.2954C11.5968 70.2954 11.1388 70.2954 10.5605 70.2992C10.4403 70.303 10.4535 70.3137 10.4535 70.3137C10.4621 68.931 9.96223 68.2747 8.49559 68.7293C7.38023 69.0749 6.22444 69.284 5.32282 69.4979C5.32282 70.2662 5.32282 70.8738 5.32282 71.4814C4.83258 71.4463 3.92398 71.4491 3.91714 71.3701C3.85219 70.6205 3.94041 69.8571 4.00628 68.724C3.49685 68.593 2.66098 68.3781 1.81946 67.973C1.81382 67.7827 1.92177 67.6516 1.92177 67.6516C3.9055 67.4197 5.88741 67.1687 7.87433 66.9702C8.32885 66.9248 8.81056 67.0162 9.26203 67.1231C9.87609 67.2684 10.668 67.8276 11.0361 67.6057C11.7607 67.1689 12.2532 66.3225 12.8136 65.622C12.8502 65.5763 12.6484 65.3311 12.5622 65.005C12.6066 64.785 12.6463 64.7389 12.686 64.6928C13.1844 64.9757 13.6633 65.3064 14.1859 65.5301C14.9531 65.8587 15.9996 66.5584 16.4745 66.283C17.0795 65.9322 18.4093 65.2864 17.6866 63.8474C18.1312 64.288 18.4604 64.8284 18.6829 65.1938C19.4147 64.8021 20.1264 64.0795 20.7188 64.1705C22.2686 64.4084 23.7425 65.2168 25.2909 65.3952C26.9474 65.586 28.6545 65.3166 30.3395 65.248C30.3343 65.1174 30.3291 64.9868 30.3239 64.8562C29.5245 64.4234 28.725 63.9906 27.5874 63.3747C30.2045 62.154 31.5704 64.6268 33.4371 64.6056C33.6858 63.8405 33.8744 63.2604 34.063 62.6803C34.1108 62.8828 34.1586 63.0853 34.2063 63.2878C35.7073 63.5129 37.2069 63.7512 38.7138 63.9215C38.7846 63.9295 38.9208 63.3318 39.0687 62.9693C39.1109 62.9223 39.1949 62.8282 39.3402 62.8348C40.0027 62.9031 40.7675 62.765 40.9952 63.0604C42.0878 64.4777 43.6119 62.9663 43.6385 62.8312C44.0344 60.8213 45.3126 62.036 46.2093 61.9983C46.6119 61.9814 47.0377 62.1195 47.4175 62.0299C49.5388 61.5289 51.6626 60.6854 53.5869 62.6057C53.7973 62.8157 54.2974 62.7219 54.3673 62.7309C53.9779 61.9382 53.5958 61.1603 53.36 60.3964C54.6892 60.9861 55.8079 61.965 57.2995 61.1107C57.4171 61.2414 57.466 61.2918 57.5045 61.4668C57.9148 61.8952 58.3238 62.4344 58.7589 62.4574C59.9092 62.5183 60.9559 61.4179 62.2344 62.0949C62.3935 62.1791 62.8412 61.6928 63.2137 61.4295C62.7408 60.9801 62.3928 60.6493 61.8803 60.1623C62.7923 60.1623 63.4446 60.1473 64.0958 60.1672C64.5903 60.1823 65.1427 60.1257 65.547 60.3412C65.6999 60.4228 65.5093 61.1784 65.44 62.0928C66.3732 61.2558 67.0593 60.6403 67.7454 60.0249C67.7142 60.2137 67.683 60.4026 67.6517 60.5914C68.3818 60.9456 69.1861 61.6869 69.8239 61.559C70.6792 61.3875 71.4057 60.5437 71.9483 60.1584C72.8918 60.7053 73.8684 61.2713 75.0156 61.9361C75.2586 59.1669 72.6145 59.1027 72.0464 57.7519C71.2089 58.0872 70.5052 58.5568 69.7621 58.635C65.9544 59.0354 62.1388 59.3659 58.3207 59.6465C57.446 59.7108 56.4784 60.2798 55.6547 59.114C55.4311 58.7976 54.1194 59.2284 53.3371 59.4349C53.1931 59.4729 53.1931 60.0821 52.9911 60.4103C52.4252 60.0019 51.9949 59.6109 51.939 59.56C46.8331 59.9542 42.0036 60.3271 36.6971 60.7367C36.0492 60.0768 34.8904 59.4875 33.5466 60.9784C33.3469 61.2 32.6828 61.1617 32.3439 61.0006C32.1658 60.9159 32.1658 60.2989 32.1995 59.9333C32.2258 59.6477 32.428 59.3791 32.5886 59.0218C31.4425 59.1212 30.4867 59.2042 29.4491 59.2942C29.5214 59.9182 29.5846 60.4632 29.6378 60.9228C27.6493 60.9228 25.7843 60.9195 23.9193 60.9342C23.8412 60.9348 23.7668 61.1049 23.6865 61.1921C22.6344 62.3332 21.3796 62.4406 19.9708 62.0415C19.6011 61.9367 19.1209 62.0538 18.7442 62.2059C18.2181 62.4182 17.7416 62.7591 17.2439 63.0449C16.3017 62.731 15.3595 62.4172 14.2351 62.0426C14.2993 62.6825 14.3378 63.0659 14.3925 63.6114C11.6602 62.8737 9.08641 62.9816 7.18879 64.1482C5.34247 63.9152 3.90959 63.7344 2.14454 63.5117C3.77527 62.146 5.25173 60.9094 6.83572 59.5828C6.55148 59.1422 6.23997 58.6592 5.85349 58.06C6.43667 57.6985 6.993 57.3537 7.61228 56.9698C7.87009 59.3749 8.97146 60.0475 10.8356 58.836C10.4959 59.872 10.2171 60.7221 9.92271 61.62C10.2507 61.658 10.4432 61.7062 10.4547 61.6778C11.6998 58.6017 14.3191 58.8178 16.8444 58.9433C17.9728 58.9993 18.5266 58.8251 18.0361 57.8901C20.2564 57.7825 22.5482 57.6759 24.8368 57.5195C24.8739 57.517 24.8711 56.9047 24.8779 56.7641C25.4655 56.5781 25.9879 56.4127 26.6066 56.1296C26.7029 56.0119 26.8111 56.0162 26.8111 56.0162C27.4232 56.5296 28.0353 57.043 28.797 57.6819C30.3014 57.4916 32.3627 57.8954 32.8587 54.7223C33.248 55.7543 33.4204 56.2111 33.6526 56.8267C34.4436 56.5877 35.2163 56.3543 36.2582 56.0395C35.7585 55.6568 35.4889 55.4503 35.2193 55.2439C35.2699 55.127 35.3204 55.0102 35.3709 54.8933C35.8635 55.0769 36.4604 55.1371 36.8311 55.4649C38.7468 57.1588 38.7243 57.18 40.6905 55.4016C40.8658 55.243 41.0942 55.0419 41.3004 55.039C43.1738 55.0126 44.7493 54.1693 46.347 53.2974C46.6441 53.1352 47.2499 53.6665 47.7322 53.7323C48.3482 53.8164 48.9835 53.7527 49.6105 53.7527C49.627 53.5956 49.6434 53.4384 49.6599 53.2813C47.8396 52.8381 45.999 52.4632 44.2135 51.9039C43.7651 51.7635 43.4937 51.0316 43.041 50.4411C42.3888 50.804 41.5472 51.3116 40.668 51.738C40.4 51.868 39.9286 51.9152 39.7198 51.7607C38.067 50.5375 36.3703 50.863 34.4629 51.0348C32.5091 51.2108 30.415 50.4641 28.4775 49.8212C27.5166 49.5024 27.0482 49.3606 26.1764 50.1162C25.5216 50.6837 24.2764 50.6676 23.2931 50.6713C22.3711 50.6748 21.448 50.3632 20.6656 50.2166C20.0834 49.6482 19.5812 48.8879 18.8879 48.5838C18.4823 48.4059 17.6279 48.8031 17.2216 49.2033C14.4808 51.9025 11.0659 51.4307 9.23081 48.0376C9.03254 47.671 8.79333 47.3275 8.70519 47.1858C6.98763 47.4503 5.45255 47.6867 3.68606 47.9588C3.74245 47.6641 3.88473 47.167 3.92318 46.6617C3.98119 45.8994 4.25982 44.8741 3.89694 44.4411C3.56356 44.0432 2.50601 44.2805 1.80568 44.2402C1.41892 43.682 0.960444 42.9148 0.398702 42.2372C-0.246135 41.4594 0.0778499 40.2019 1.07408 39.9816C1.53362 39.88 2.02186 39.9142 2.31558 39.5795C3.17529 38.8966 4.035 38.2137 4.918 37.5123C4.1263 36.9028 3.30653 36.2717 2.65432 35.7696C1.98964 36.1385 1.3935 36.4693 0.797367 36.8001C0.724406 36.6651 0.651444 36.53 0.578483 36.395C1.81744 34.9316 3.07969 33.4879 4.28572 31.9966C4.90542 31.2304 5.05054 31.2958 6.05133 32.9788C6.25984 33.06 6.31819 33.0427 6.37655 33.0255C6.30409 32.998 6.23163 32.9704 6.15916 32.9429C6.2741 32.1398 6.38904 31.3367 6.51081 30.4858C8.42369 30.4858 10.1141 30.4858 11.9493 30.4858C11.9121 30.8459 11.8633 31.32 11.8081 31.8549C12.7617 31.9289 13.6302 31.9962 14.6546 32.0757C14.5526 31.1752 14.4763 30.5017 14.439 30.1721C15.5267 29.7068 16.4253 29.3224 17.6046 28.8179C18.0831 28.9801 18.9643 29.2788 19.9778 29.6145C20.11 29.6515 20.1134 29.6547 20.1134 29.6547C20.876 30.5895 20.876 30.5895 21.6172 28.6481C22.4785 30.0257 25.5177 28.2937 24.7013 31.7653C24.8646 31.8 25.0278 31.8346 25.1911 31.8692C25.5705 31.2864 26.1196 30.7459 26.2717 30.1065C26.3795 29.6535 25.9508 29.0668 25.6691 28.2821C26.2323 26.6732 27.7526 26.1704 29.9247 26.0703C29.3732 25.3417 28.8678 24.766 28.4727 24.1197C28.2104 23.6907 28.106 23.1607 27.9308 22.6759C28.37 22.5591 28.8074 22.4347 29.2489 22.3282C29.525 22.2615 29.8842 22.3166 30.0748 22.155C31.7924 20.6989 33.54 20.7883 35.6123 21.457C36.4859 21.7389 37.7662 20.7013 39.0334 20.1949C38.0018 19.2458 37.2684 18.571 36.3333 17.7107C36.2659 18.5371 36.2245 19.0459 36.1541 19.9105C35.0445 19.9984 33.8994 20.269 32.8148 20.1093C32.1377 20.0095 31.6054 19.122 30.9105 18.8408C30.1819 18.5459 29.34 18.5163 28.5413 18.4373C27.4121 18.3256 26.2771 18.2749 25.1447 18.1981C25.1483 17.9228 25.1519 17.6475 25.1555 17.3721C26.9173 17.1878 28.6791 17.0034 30.2327 16.8408C30.0289 15.9593 29.8578 15.2191 29.6867 14.4788C29.8178 14.4026 29.9489 14.3264 30.0799 14.2502C30.8654 14.9679 31.6509 15.6855 32.7589 16.6978C32.7589 15.6869 32.7589 15.0602 32.7589 14.2712C33.1314 14.0438 33.627 13.7414 34.1884 13.3987C33.701 13.1542 33.2653 12.9357 32.5428 12.5733C34.592 12.2178 36.3207 11.0273 38.0671 12.8039C39.5087 11.1971 40.9899 10.6355 42.5777 12.6994C42.7768 12.9582 43.5749 12.7347 44.2674 12.7347C43.8433 11.1 44.5697 10.638 46.03 10.5205C48.4481 10.326 50.8403 9.80677 53.2573 9.57766C54.1261 9.4953 55.035 9.85573 55.855 9.72635C57.3373 9.48657 58.8168 9.22619 60.3027 9.01233C62.0766 8.75703 63.8516 8.49686 65.6337 8.31828C69.1827 7.96265 72.733 7.5913 76.2914 7.37716C77.4718 7.30613 78.6787 7.697 80.0087 7.97708C80.1236 8.47953 80.0034 9.1994 80.0994 9.23092C80.6323 9.40599 81.2177 9.41392 81.7851 9.47906C81.5768 9.59915 81.3685 9.71925 81.1602 9.83934C80.8627 9.12108 80.5653 8.40283 80.2679 7.68458C81.3415 6.26287 82.2618 7.15655 83.0256 7.98034C82.8119 8.31003 82.7654 8.54683 82.7188 8.78362C83.2604 8.98053 83.8021 9.17744 84.3437 9.37435C84.2291 8.79817 84.1145 8.22198 83.9262 7.27508C86.2047 6.91819 88.5836 6.27408 90.9734 6.22898C95.6453 6.1408 100.282 5.987 104.909 5.1763C106.96 4.8169 109.124 5.16559 111.235 5.11196C115.438 5.00513 119.632 5.0165 123.844 4.59781C128.059 4.17887 132.354 4.64739 136.614 4.63745C137.836 4.6346 139.053 4.28871 140.279 4.16631C140.79 4.11535 141.318 4.22405 141.836 4.28374C142.98 4.4157 144.129 4.71946 145.265 4.67154C147.814 4.56396 150.356 4.12602 152.902 4.1106C157.319 4.08387 161.737 4.29795 166.156 4.36279C167.66 4.38487 169.166 4.24286 170.672 4.20949C172.613 4.16648 174.559 4.08201 176.494 4.19048C176.936 4.21528 177.34 4.95579 177.866 5.46921C178.517 3.14762 180.492 3.8279 182.039 3.71642C183.544 3.60792 185.09 4.08879 186.593 3.97365C188.47 3.82991 190.312 3.19285 192.188 3.05996C193.23 2.98616 194.302 3.59235 195.38 3.72784C196.157 3.82544 196.966 3.6554 197.76 3.59772C198.107 3.57254 198.504 3.39827 198.791 3.51572C201.244 4.5212 203.655 3.5999 206.081 3.41061C206.139 3.40601 206.215 3.35502 206.253 3.37776C209.343 5.23108 212.723 2.55899 215.871 4.00077C216.224 4.16224 216.885 3.61724 217.108 3.52394C218.71 3.69549 220.107 3.98544 221.5 3.96625C224.829 3.92039 228.155 3.65212 231.483 3.63264C232.881 3.62446 234.278 4.15046 235.682 4.19359C237.228 4.24106 238.781 4.0008 240.333 3.90965C241.022 3.86914 241.724 3.95592 242.404 3.85931C243.122 3.75721 243.819 3.50559 244.149 3.41871C245.692 3.41871 246.917 3.37194 248.136 3.42818C250.91 3.55607 253.68 3.78507 256.454 3.87519C258.386 3.93796 260.324 3.83603 262.259 3.8128C262.841 3.80582 263.425 3.79467 264.006 3.82637C264.36 3.84568 264.752 4.07984 265.056 3.98383C267.382 3.24926 269.734 3.46463 272.093 3.68115C272.382 3.70766 272.696 3.54026 272.973 3.59552C276.735 4.346 280.445 3.32943 284.178 3.308C285.626 3.29969 287.073 3.86849 288.527 4.13327C288.947 4.20968 289.621 4.32963 289.789 4.11326C291.541 1.85103 293.916 3.05611 296.025 2.86748C298.554 2.64127 301.086 2.40939 303.622 2.31699C306.158 2.22455 308.702 2.33653 311.241 2.29517C314.852 2.23637 318.464 2.18073 322.07 2.00576C324.509 1.88739 326.937 1.44354 329.375 1.39821C330.3 1.38101 331.237 2.07244 332.058 2.06268C334.22 1.65182 336.387 0.898751 338.543 0.928984C340.587 0.957639 343.012 1.0967 343.692 3.86162C343.124 4.64573 342.521 5.47932 341.747 6.54805C342.709 6.72186 343.247 6.8191 344.049 6.96407C343.165 8.68799 342.234 10.0372 340.523 10.6955C340.2 10.8197 339.953 11.1496 339.671 11.3847C339.965 11.6157 340.25 12.0354 340.553 12.049C344.339 12.2193 343.187 11.5532 344.445 14.8608C344.543 15.1199 344.738 15.3406 345.001 15.7573C344.302 15.6987 343.803 15.6569 343.304 15.6151C343.261 15.7901 343.218 15.965 343.175 16.14C343.714 16.2179 344.259 16.263 344.789 16.382C345.468 16.5347 346.135 16.7469 347.338 17.0811C346.183 17.9433 345.509 18.4458 344.719 19.0358C345.25 20.0092 345.484 21.552 347.424 20.1425C348.068 19.6751 349.246 19.8964 350.169 19.9613C350.467 19.9823 351.004 20.5653 350.959 20.7951C350.825 21.4857 350.582 22.2316 350.158 22.7709C349.012 24.2264 347.749 25.586 346.468 27.0587C346.056 26.7425 345.66 26.4381 345.264 26.1336C345.123 26.2974 344.982 26.4611 344.841 26.6249C345.341 27.0822 345.841 27.5395 346.68 28.3066C346.685 28.3353 346.773 28.8836 346.961 30.0521C348.438 25.6227 351.191 28.1559 353.388 27.9642C353.399 28.1121 353.411 28.2601 353.422 28.408C352.075 28.408 350.728 28.408 349.38 28.408C349.375 28.6576 349.37 28.9071 349.365 29.1566C350.267 29.2081 351.175 29.3538 352.068 29.2884C353.354 29.1943 354.392 29.3012 354.958 30.7602C355.319 31.6907 355.93 32.1128 357.188 31.9435C358.92 31.7102 360.743 32.0093 362.501 32.2628C362.926 32.324 363.237 33.1157 363.628 33.5447C363.993 33.9452 364.395 34.3101 364.781 34.6907C364.914 34.5489 365.047 34.407 365.18 34.2652C364.786 33.8957 364.393 33.5261 363.821 32.99C365.709 31.3297 367.568 33.2596 369.273 32.4781C369.39 32.6502 369.506 32.8224 369.622 32.9945C368.614 34.5508 367.606 36.1071 366.449 37.8925C368.044 37.9749 369.702 38.0606 371.36 38.1463C371.444 38.3271 371.528 38.5078 371.612 38.6886C371.192 38.9776 370.645 39.605 370.374 39.4985C369.009 38.9622 368.144 39.2242 367.649 40.692C367.552 40.9768 367.14 41.1497 366.683 41.5338C368.44 42.7012 368.484 44.2701 367.982 46.0552C367.879 46.4235 368.421 46.9822 368.712 47.5411C368.082 47.7854 367.425 48.0403 366.79 48.2868C365.508 46.8372 365.136 46.886 364 48.5017C363.451 49.2829 362.919 49.9677 361.956 48.8023C361.664 48.4485 360.777 48.4817 360.182 48.5404C358.339 48.722 356.507 49.0268 354.663 49.2054C354.466 49.2245 354.221 48.7286 354.03 48.5088C353.243 48.8875 352.469 49.2605 351.431 49.7603C352.079 49.9253 352.569 50.0995 353.072 50.1674C354.122 50.309 355.186 50.3503 356.227 50.5367C356.461 50.5786 356.81 51.0851 356.766 51.3079C356.717 51.5565 356.27 51.9146 356.015 51.8986C354.175 51.783 352.341 51.5711 350.503 51.4227C350.056 51.3866 349.595 51.4406 349.148 51.5087C346.642 51.8906 344.129 52.6142 342.119 51.5144C340.64 51.8435 339.532 52.3353 338.456 52.273C336.754 52.1744 334.942 52.7528 333.312 51.5792C333.113 51.4355 332.182 52.3556 331.44 52.8908C329.768 52.6128 327.756 52.2074 325.726 51.9721C324.793 51.8641 323.747 51.9146 323.827 53.4566C323.842 53.7535 323.206 54.0855 322.733 54.2412C322.817 51.8429 322.817 51.8429 320.349 52.5983C320.293 53.0466 320.365 53.7304 320.163 53.83C319.559 54.1278 318.843 54.335 318.177 54.3189C317.419 54.3006 316.668 54.0033 315.876 53.8185C315.982 52.7939 314.309 51.6308 313.021 51.9178C311.429 52.2726 309.81 52.5005 307.92 52.755C307.342 52.8131 307.045 52.8995 306.748 52.9859C304.998 52.9859 303.248 52.9859 301.498 52.9859C301.485 53.1344 301.471 53.283 301.458 53.4315C302.417 53.504 303.377 53.5765 304.442 53.6571C304.701 54.529 304.677 55.1357 303.425 55.2344C301.661 55.3735 299.914 55.8231 298.152 55.8813C296.166 55.9469 294.172 55.7104 292.18 55.6364C291.423 55.6083 290.435 55.3574 289.943 55.7372C287.261 57.8044 284.051 55.6654 281.295 56.9965C280.99 57.144 280.375 56.6202 279.956 56.787C279.193 56.9505 278.428 57.1096 277.666 57.2787C277.019 57.4221 276.376 57.5771 275.73 57.727C275.923 58.2695 276.116 58.812 276.353 59.4796C274.203 59.4796 272.058 59.4796 269.912 59.4796C269.812 59.2409 269.711 59.0022 269.611 58.7636C270.073 58.6165 270.535 58.4695 270.878 58.3601C270.612 57.877 270.549 57.6803 270.498 57.6835C269.349 57.7557 268.183 57.7501 267.058 57.9681C265.962 58.1807 264.901 59.0545 263.925 57.6645C263.76 57.4302 262.996 57.326 262.759 57.5063C261.231 58.6738 259.608 57.6894 258.051 57.8496C257.327 57.924 256.624 58.2168 255.768 58.4498C256.133 59.2337 256.389 59.7847 256.584 60.203C255.878 60.3197 255.265 60.4209 254.53 60.5425C254.64 59.8303 254.767 59.0178 254.959 57.7813C254.187 58.9329 253.67 59.7033 253.347 60.1847C252.92 59.4581 252.581 58.4661 252.309 58.4849C249.929 58.6502 247.558 58.9772 245.192 59.3107C244.881 59.3545 244.611 59.7049 244.26 59.9577C244.013 59.5246 243.78 59.1167 243.482 58.5952C243.157 58.8466 242.879 59.0617 242.541 59.3228C241.398 57.4647 243.142 57.5335 243.853 56.9553C243.798 56.8002 243.742 56.6451 243.687 56.49C242.967 56.7946 242.246 57.0992 241.398 57.2503C241.271 56.515 241.271 55.9333 241.271 55.4316C242.207 55.2536 242.968 55.1089 243.729 54.9642C243.692 54.7197 243.655 54.4753 243.618 54.2309C242.935 54.2309 242.25 54.2679 241.571 54.2232C240.102 54.1266 239.86 55.3504 239.629 56.3236C239.569 56.5767 240.632 57.1087 241.178 57.5127C241.358 59.4463 241.303 59.4261 239.483 58.9365C238.655 58.7139 237.722 58.8534 236.84 58.9016C235.348 58.9831 233.86 59.145 232.368 59.2252C231.855 59.2528 231.332 59.0754 230.819 59.1009C229.964 59.1434 229.03 59.0809 228.281 59.4169C227.361 59.8297 226.597 60.6063 225.927 61.1056C224.902 60.417 224.107 59.8432 223.27 59.3427C222.978 59.1682 222.382 58.9908 222.265 59.1253C220.516 61.1239 217.551 58.7484 215.802 61.1289C214.95 62.2896 213.735 61.8247 212.909 59.8759C212.719 61.1159 212.62 61.7677 212.506 62.5112C210.16 62.5912 209.076 59.163 206.338 60.1984C206.399 60.5938 206.46 60.9795 206.482 61.1256C205.231 61.3585 204.02 61.5841 202.636 61.8416C202.734 61.4748 202.895 60.875 203.067 60.2295C200.952 59.063 200.061 60.9727 199.179 61.9394C197.765 61.7524 196.619 61.6008 195.205 61.4138C195.236 61.4468 194.947 61.1428 194.657 60.8387C194.466 61.2719 194.158 61.6919 194.109 62.1411C194.02 62.97 194.084 63.816 194.084 64.6549C193.832 64.6727 193.58 64.6904 193.329 64.7081C193.171 63.8746 193.106 63.0051 192.818 62.222C192.663 61.801 192.166 61.3242 191.748 61.2332C191.011 61.0727 190.217 61.1883 189.564 61.3281C188.949 61.5026 188.32 61.8595 187.721 61.814C186.423 61.7153 185.145 61.3201 183.848 61.2507C183.502 61.2323 183.119 61.9537 182.726 62.3639C182.583 62.0785 182.355 61.6221 182.11 61.1324C181.426 61.1967 180.801 61.2554 179.948 61.3356C180.434 61.9019 180.802 62.3295 181.168 62.7563C179.165 64.6883 177.834 64.5641 176.268 62.4338C176.022 62.0992 175.429 61.7681 175.065 61.8343C173.67 62.0888 173.553 61.3776 173.551 59.8812C172.903 60.2347 172.255 60.5882 171.607 60.9416C171.615 61.1975 171.623 61.4534 171.631 61.7093C170.987 61.2116 170.343 60.714 169.315 59.9197C169.161 60.7602 168.926 61.4256 168.942 62.0848C168.975 63.4647 168.75 64.3104 167.055 64.0738C166.119 63.9433 165.117 64.3102 164.091 64.4609C164.091 63.9697 164.091 63.6484 164.091 63.415C163.505 63.5698 162.968 63.7871 162.417 63.832C162.012 63.8651 161.59 63.6726 161.175 63.5806C161.205 63.3461 161.234 63.1116 161.264 62.8772C160.177 62.9957 158.696 63.6329 158.073 63.1386C155.942 61.4482 154.474 63.677 152.692 63.7139C152.23 63.7235 151.755 64.0695 151.314 64.0175C150.512 63.9233 149.732 63.6462 148.699 63.3835C146.899 64.7671 145.621 64.8311 144.854 63.1432C144.408 63.7236 144.026 64.2211 143.843 64.4603C143.176 64.3065 142.662 64.0668 142.161 64.0934C140.117 64.2016 138.077 64.3914 135.945 64.5583C135.423 65.8777 134.833 66.5543 133.597 64.8738C133.268 64.4267 132.065 64.6525 131.166 64.5591C131.166 65.0926 131.166 65.5392 131.166 66.5574C129.695 65.7902 128.525 65.1798 127.306 64.544C127.288 64.67 127.244 64.9733 127.247 64.9554C126.085 65.109 125.007 65.2514 123.631 65.4332C123.678 65.5055 123.474 65.1916 123.299 64.9224C122.23 65.5073 121.222 66.058 120.147 66.6463C120.342 65.4931 120.518 64.4542 120.747 63.1017C118.931 63.5513 120.15 66.3119 117.882 65.9415C116.686 65.7461 115.376 66.2835 114.004 66.5086C114.062 66.6185 114.295 67.0596 114.594 67.6241C113.762 67.6901 113.027 67.7485 112.412 67.7972C112.479 67.0303 112.537 66.3778 112.576 65.9341C106.472 66.0901 100.755 67.3968 95.0257 65.963C95.6098 65.6339 96.1449 65.4528 96.9545 65.1788C95.7303 64.403 94.8264 63.7545 93.7112 64.7159C93.5739 64.737 93.4365 64.758 93.0748 64.7792C92.3947 64.8237 91.9389 64.868 91.4831 64.9123C91.5077 65.0973 91.5324 65.2824 91.5571 65.4674C91.9597 65.4674 92.3623 65.4674 92.7649 65.4674C93.0952 65.772 93.4257 66.0766 93.756 66.3813C93.2434 66.6944 92.7623 67.1791 92.2116 67.2847C91.0795 67.502 89.9103 67.5166 88.359 67.6483C87.232 66.7377 84.9298 66.6817 83.0647 67.9393C82.4115 66.6044 81.5284 66.546 80.308 67.3513C78.9399 68.2541 77.3832 68.5685 75.7463 68.0288C75.4304 67.9247 75.054 67.9108 74.7244 67.9684C72.5956 68.3407 70.485 68.88 68.3426 69.0954C66.589 69.2717 64.7995 69.0581 63.0258 69.0503C62.3383 69.0473 61.6506 69.1366 60.9628 69.181C59.7416 69.2598 58.5202 69.3365 57.299 69.4141C57.1224 69.1738 56.9458 68.9335 56.7692 68.6932C56.2073 70.1757 55.6453 71.6582 55.034 73.2711C54.7437 72.9108 54.3893 72.4707 53.8595 71.8129C53.4266 72.5078 53.052 73.1092 52.6287 73.7887C51.8108 73.2842 51.2656 72.9479 50.627 72.4506C50.5411 72.1821 50.5491 72.0747 50.5575 71.9673C50.7446 71.5573 50.9317 71.1473 51.1538 70.5422C51.1888 70.347 51.2906 70.223 51.2906 70.223C52.3608 71.3325 53.8167 71.3291 54.4582 70.0587C51.8799 69.2356 49.3858 68.5986 46.7641 70.3146C46.6028 70.302 46.5409 70.2338 46.5409 70.2338ZM163.1 55.3422C163.613 55.6928 164.125 56.0435 164.679 56.4223C165.158 55.9778 165.607 55.5607 166.227 54.9852C165.388 54.7958 164.779 54.6583 164.16 54.5188C164.128 54.0189 164.099 53.566 164.07 53.1131C163.959 53.0932 163.849 53.0734 163.739 53.0535C163.451 53.7105 163.164 54.3676 162.584 55.0307C161.618 55.2526 160.653 55.4756 159.687 55.6958C159.464 55.7467 159.238 55.7878 159.014 55.8335C159.111 56.0222 159.163 56.2696 159.312 56.3898C160.117 57.036 162.449 56.2671 163.1 55.3422ZM93.0555 56.1203C93.094 55.7035 93.1326 55.2866 93.1718 54.8629C93.5388 55.0162 93.8863 55.1613 94.3135 55.3397C94.1888 54.6652 94.0914 54.1384 93.9901 53.5906C93.359 53.6257 92.7159 53.6614 92.0857 53.6964C92.0534 55.863 92.0534 55.863 92.9601 56.6488C91.2703 56.54 89.5807 56.4257 87.8902 56.3273C87.5637 56.3082 87.0994 56.2125 86.9265 56.3877C85.4052 57.9289 83.5654 57.6084 81.6994 57.5396C80.3705 57.4905 78.7414 56.9898 78.0341 58.9376C77.9391 59.1992 77.3639 59.2783 77.3605 59.2798C76.5509 58.7948 76.0055 58.4681 75.4602 58.1415C75.3507 58.3188 75.2413 58.4961 75.1318 58.6733C75.5769 59.7694 75.4853 61.2946 77.5569 60.822C79.0871 60.4729 80.7572 60.1894 82.2634 60.4628C83.8921 60.7585 85.1646 60.8713 85.9332 59.3224C87.0627 59.7583 88.0366 60.309 89.0705 60.4807C89.981 60.6318 90.9587 60.3593 91.8799 60.2763C91.2753 59.4472 90.9101 58.9463 90.526 58.4195C92.3182 58.6903 93.8062 58.9151 95.378 59.1525C94.9436 59.4346 94.576 59.6733 94.1759 59.9331C95.6868 60.9881 97.5089 60.6479 98.6553 59.4874C100.654 59.8723 102.352 60.1993 104.051 60.5263C104.138 60.325 104.226 60.1236 104.314 59.9223C103.908 59.4394 103.502 58.9565 103.096 58.4736C103.686 58.2925 104.414 58.3059 104.513 58.5683C105.309 60.6696 105.69 59.1125 105.97 58.7021C107.073 58.7592 107.986 58.7477 108.881 58.8711C109.602 58.9706 110.303 59.2252 111.009 59.4261C111.411 59.5403 111.804 59.6849 112.202 59.8158C112.175 59.3811 112.155 58.9459 112.118 58.5121C112.095 58.2381 112.046 57.9664 112.036 57.8866C114.509 58.4938 116.926 59.0868 119.252 59.6578C119.116 58.8145 118.994 58.0643 118.914 57.5732C119.854 57.9856 120.492 58.4203 121.179 58.5304C122.203 58.6946 122.685 59.0574 122.54 59.5798C121.139 59.8438 120.076 60.0443 119.012 60.2449C119.056 60.5657 119.1 60.8866 119.144 61.2074C121.703 60.9479 124.262 60.6884 127.127 60.3979C125.728 59.7826 124.738 59.3468 123.748 58.9109C123.807 58.727 123.867 58.5431 123.927 58.3591C126.441 58.3769 129.366 59.4559 130.401 56.169C129.392 55.7187 128.519 55.09 127.585 54.9709C126.343 54.8126 125.082 54.9909 123.787 55.2192C120.51 55.7971 117.158 55.0928 113.78 55.4414C111.641 55.6622 110.166 55.8789 109.404 57.5525C108.897 57.1196 108.477 56.4749 107.947 56.3613C106.421 56.0336 104.78 55.2691 103.434 56.9335C103.3 57.0991 102.681 56.8971 102.302 56.8013C101.852 56.6875 101.421 56.3766 100.979 56.3715C98.352 56.3407 95.7239 56.3737 93.0555 56.1203ZM273.534 55.8558C273.614 55.6316 273.709 55.4119 273.771 55.1827C274.376 52.9639 274.294 52.8195 272.055 52.7862C269.951 52.7549 267.84 52.707 265.746 52.8582C264.93 52.917 264.15 53.5002 263.354 53.8445C263.387 54.0498 263.42 54.2551 263.453 54.4604C264.852 54.4604 266.291 54.6733 267.638 54.4042C269.175 54.0972 270.551 53.5965 271.747 55.1621C272.07 55.5846 272.765 55.7098 273.534 55.8558ZM188.067 54.8609C190.366 54.9644 192.666 55.0678 194.966 55.1713C194.989 54.8613 195.012 54.5513 195.036 54.2414C192.745 52.8729 189.822 55.838 187.864 53.5603C186.318 54.059 184.959 54.4975 183.599 54.936C183.642 55.1038 183.685 55.2716 183.728 55.4395C184.138 55.4131 184.547 55.3867 185.543 55.3225C184.993 56.8704 184.578 58.0366 184.075 59.4509C185.099 58.4628 185.857 57.7305 186.615 56.9981C186.421 56.4676 186.477 55.9369 186.743 55.5622C186.966 55.2475 187.434 55.1145 188.067 54.8609ZM32.8432 67.308C36.0271 67.59 39.1916 67.7874 42.3147 66.7261C43.3307 66.3809 44.6598 66.6379 44.4436 64.9892C41.3883 65.4806 38.3379 65.9712 35.2876 66.4618C34.4317 66.3145 33.4536 64.9329 32.8432 67.308ZM285.595 52.0476C284.884 52.8116 284.173 53.5757 283.462 54.3398C283.569 54.5485 283.677 54.7571 283.784 54.9657C286.974 54.4707 290.163 53.9758 293.575 53.4462C293.706 53.2222 293.96 52.7877 294.352 52.1171C292.592 52.4234 291.138 52.6765 289.179 53.0175C288.799 53.0449 287.863 52.9512 287.033 53.2128C285.954 53.5529 285.619 53.2996 285.595 52.0476ZM136.836 55.3156C135.906 55.506 134.948 55.6104 134.057 55.9175C133.473 56.1187 132.985 56.613 132.088 57.2265C132.231 56.1458 132.281 55.7739 132.33 55.4021C132.204 55.3359 132.078 55.2698 131.951 55.2037C131.607 55.7028 131.262 56.2019 130.587 57.1807C132.114 57.3815 133.753 57.9983 134.088 57.5639C135 56.3778 136.021 57.0496 136.955 56.8434C137.551 56.7117 138.165 56.6653 138.877 56.5659C138.864 56.7237 138.837 57.0473 138.796 57.5366C139.586 57.1767 140.198 56.8979 140.851 56.6006C139.608 56.0165 138.804 54.3601 136.836 55.3156ZM152.949 55.2884C152.063 54.8644 151.177 54.4405 150.291 54.0166C150.222 54.1339 150.152 54.2512 150.082 54.3685C150.37 54.729 150.658 55.0895 150.896 55.3883C150.527 55.8266 150.187 56.2309 149.847 56.6351C149.966 56.8533 150.084 57.0715 150.202 57.2897C150.965 56.9623 151.722 56.6213 152.492 56.3136C152.837 56.176 153.215 55.9974 153.563 56.0268C154.253 56.085 154.933 56.3806 155.616 56.3773C156.19 56.3745 157.187 56.1842 157.248 55.9054C157.385 55.2802 157.245 54.3829 156.853 53.9151C156.568 53.5738 155.701 53.7413 155.094 53.6819C155.076 53.8323 155.059 53.9828 155.041 54.1332C155.328 54.3237 155.616 54.5143 155.903 54.7049C155.856 54.8448 155.81 54.9847 155.763 55.1246C155.153 54.9917 154.548 54.8086 153.931 54.7502C153.677 54.7262 153.399 54.9707 152.949 55.2884ZM280.111 52.4244C279.539 52.4939 278.968 52.6077 278.395 52.6237C277.261 52.6554 276.125 52.633 274.99 52.633C274.973 52.848 274.955 53.0629 274.938 53.2778C276.556 53.8104 277.551 55.8268 279.87 55.2052C279.458 54.8289 279.185 54.5802 278.883 54.3039C280.878 53.3874 280.878 53.3874 280.111 52.4244ZM145.389 58.4179C145.344 58.798 145.299 59.1781 145.255 59.5583C145.595 59.3 146.021 59.1051 146.26 58.7709C146.851 57.9477 147.355 57.0604 148.038 55.9703C147.799 55.5759 147.789 55.5318 144.122 56.4282C143.464 56.589 142.93 57.2822 142.339 57.7296C142.46 57.8677 142.58 58.0058 142.7 58.1439C143.235 57.9006 143.763 57.4891 144.305 57.4686C144.717 57.453 145.148 57.9338 145.389 58.4179ZM299.179 54.1125C299.492 54.1125 299.806 54.1125 300.191 54.1125C298.779 50.9787 298.779 50.9787 296.581 53.1485C296.157 52.7862 295.728 52.4204 295.158 51.9347C295.158 52.7669 295.158 53.3826 295.158 54.0734C296.408 54.0734 297.637 54.0734 299.179 54.1125ZM21.7579 69.1301C22.7964 68.6519 23.835 68.1738 24.8735 67.6956C24.8045 67.5138 24.7356 67.3321 24.6666 67.1503C23.5025 67.3591 22.3319 67.5366 21.1776 67.7918C20.707 67.8959 20.1759 68.0739 19.8625 68.406C19.7131 68.5644 19.9645 69.4805 20.11 69.5013C20.5647 69.5664 21.0555 69.3687 21.7579 69.1301ZM114.872 63.7395C115.252 63.4919 115.633 63.2443 116.205 62.8721C116.231 62.8819 116.604 63.0229 116.976 63.1639C116.332 61.5432 115.228 60.8054 113.459 60.9217C113.893 61.9002 114.275 62.7608 114.872 63.7395ZM224.893 55.7089C225.171 55.9203 225.448 56.1316 225.725 56.343C226.666 54.9129 228.239 55.7244 229.45 55.2459C229.715 55.1411 229.995 55.0773 230.268 54.9947C228.33 54.6665 226.779 54.6262 225.232 54.6926C224.803 54.711 223.761 54.6587 224.893 55.7089ZM251.754 54.2019C252.39 54.6809 253.026 55.1599 253.628 55.6134C254.293 54.9885 254.901 54.4166 255.628 53.7337C254.176 53.5558 252.994 53.4074 251.81 53.2949C251.789 53.2929 251.729 53.7217 251.754 54.2019ZM190.651 57.7815C191.362 58.0815 192.073 58.3815 192.685 58.6399C193.033 57.7341 193.349 56.9101 193.666 56.0861C193.517 55.9838 193.367 55.8816 193.218 55.7793C192.585 56.917 190.566 55.5339 190.651 57.7815ZM346.284 49.263C346.705 49.8577 347.127 50.4525 347.738 51.3141C348.092 50.9664 348.531 50.5353 348.97 50.1042C348.441 49.6533 347.949 49.1394 347.364 48.7862C347.162 48.664 346.729 48.9413 346.284 49.263ZM170.432 58.0376C171.379 58.137 172.464 59.6288 173.463 57.4517C172.278 57.2963 171.298 57.1678 170.318 57.0393C170.306 57.3034 170.293 57.5674 170.432 58.0376ZM71.1946 64.5013C71.0282 64.6497 70.8618 64.7982 70.513 65.1094C71.69 65.1094 72.6228 65.1094 73.4579 65.1094C72.9448 64.2242 72.4783 63.4195 72.0119 62.6148C71.8522 62.764 71.6924 62.9132 71.5327 63.0624C71.4919 63.5019 71.451 63.9414 71.1946 64.5013ZM274.621 57.3277C273.82 57.3502 273.011 57.3168 272.223 57.4347C272.028 57.4639 271.702 58.1218 271.785 58.2491C271.985 58.5521 272.514 58.9706 272.698 58.882C273.438 58.526 274.098 57.995 274.621 57.3277ZM29.6005 32.1572C30.1324 32.1251 30.6643 32.093 31.6545 32.0331C30.5248 31.0814 29.92 30.5719 29.2612 30.0168C28.2983 30.753 28.6288 31.378 29.6005 32.1572ZM348.786 30.0552C348.099 30.5024 347.412 30.9495 346.725 31.3966C346.815 31.5643 346.905 31.7319 346.996 31.8995C347.841 31.8261 348.686 31.7526 349.843 31.6521C349.499 30.9673 349.279 30.5304 348.786 30.0552ZM43.3041 16.9926C43.1278 17.7342 42.9147 18.4704 42.81 19.2224C42.7917 19.3533 43.2127 19.6275 43.4652 19.6897C43.6241 19.7288 44.0244 19.4723 44.0136 19.3895C43.9075 18.571 43.738 17.7611 43.3041 16.9926ZM356.629 42.8395C357.411 42.9512 358.057 45.1316 359.042 42.9504C358.498 42.5997 357.993 42.2044 357.431 41.9299C356.64 41.543 356.529 41.6599 356.629 42.8395ZM257.009 53.7118C257.286 55.2114 257.792 55.4549 259.674 54.3925C258.521 53.9726 257.777 53.7019 257.009 53.7118ZM65.5302 51.2824C65.0702 51.3674 64.6102 51.4525 64.1373 51.5399C64.1373 51.834 64.1373 52.1835 64.1373 52.4717C64.9783 52.7381 65.7568 52.9846 66.7693 53.3053C66.384 52.534 66.0785 51.9224 65.5302 51.2824Z"
    fill="#BEEB3F"
    fill-opacity="1"
  />
<path
    d="M57.6834 73.9587C57.2041 73.4135 56.7248 72.8684 56.1875 72.2574C56.5536 72.1841 56.9253 72.1097 57.1981 72.0551C57.1286 71.6668 56.8808 71.1611 57.0326 70.9289C57.2732 70.5608 57.7689 70.1735 58.178 70.1477C60.003 70.0326 61.8368 69.9958 63.6643 70.0468C64.0354 70.0572 64.3931 70.5694 64.6099 70.7367C69.3464 68.7171 74.2251 70.5929 78.9656 69.7441C78.959 69.6508 78.933 69.2889 78.8839 68.6031C80.6889 70.0432 82.3435 70.6098 84.1301 68.9504C84.1856 68.7897 84.2531 68.721 84.2531 68.721C84.4347 69.1749 84.6162 69.6289 84.7534 69.9717C85.3241 70.1669 85.9521 70.3816 86.3502 70.5178C87.0173 70.3206 87.8123 69.8176 88.1686 70.0424C88.7177 70.3889 88.9661 71.2342 89.5729 72.2568C89.7802 71.5492 89.9715 70.8963 90.2257 70.0286C92.0149 69.1197 92.7595 70.8517 93.7745 72.121C93.6987 72.2543 93.6228 72.5261 93.529 72.5327C90.8008 72.7251 88.0711 72.8938 85.3412 73.0601C83.6369 73.164 81.9324 73.3281 80.2274 73.3367C78.4832 73.3455 76.7388 73.1756 74.9933 73.129C74.2882 73.1102 73.58 73.2108 72.8732 73.2571C73.0956 73.9492 73.2602 74.6692 73.5618 75.323C73.7463 75.7227 74.1412 76.0208 74.7091 76.6705C72.9484 76.4087 71.4737 76.1894 69.9335 75.7777C69.8679 75.5852 69.862 75.4622 69.862 75.4622C70.1561 74.8722 70.9305 74.1633 69.9194 73.7051C69.2684 73.4101 68.7415 72.2733 67.6688 73.1718C67.3153 73.4679 66.4994 73.1679 65.8951 73.1732C64.7628 73.1832 63.5734 73.0058 62.5162 73.3062C61.6335 73.5569 60.8139 74.2862 60.1432 74.982C59.7318 75.4088 59.6534 76.1717 59.3546 76.974C58.8229 76.0137 58.3923 75.2361 57.8269 74.3331C57.6892 74.1248 57.6863 74.0417 57.6834 73.9587Z"
    fill="#BEEB3F"
    fill-opacity="1"
  />
<path
    d="M53.2136 60.3825C53.5957 61.1604 53.9779 61.9383 54.3673 62.7309C54.2974 62.7219 53.7973 62.8158 53.5869 62.6058C51.6626 60.6855 49.5388 61.529 47.4175 62.0299C47.0377 62.1196 46.6119 61.9815 46.2093 61.9984C45.3126 62.0361 44.0344 60.8213 43.6385 62.8313C43.6119 62.9664 42.0878 64.4778 40.9951 63.0605C40.7674 62.7651 40.0027 62.9032 39.2675 62.7602C38.8909 62.6878 38.7322 62.6966 38.5735 62.7055C38.7245 62.8091 38.8755 62.9127 39.0265 63.0163C38.9208 63.3319 38.7846 63.9296 38.7138 63.9216C37.2069 63.7513 35.7073 63.513 34.2063 63.2879C34.1585 63.0854 34.1108 62.8829 34.063 62.6804C33.8744 63.2605 33.6858 63.8406 33.4371 64.6057C31.5704 64.6269 30.2045 62.1541 27.5873 63.3748C28.725 63.9907 29.5245 64.4235 30.3239 64.8563C30.3291 64.9869 30.3343 65.1175 30.3394 65.2481C28.6544 65.3167 26.9473 65.5861 25.2909 65.3953C23.7425 65.2169 22.2685 64.4085 20.7188 64.1706C20.1264 64.0796 19.4147 64.8022 18.6829 65.1939C18.4604 64.8285 18.1312 64.2881 17.6792 63.7087C17.4573 63.5238 17.3582 63.3778 17.2515 63.1384C17.7416 62.7591 18.2181 62.4183 18.7441 62.206C19.1209 62.0539 19.6011 61.9368 19.9708 62.0416C21.3796 62.4407 22.6344 62.3333 23.6865 61.1921C23.7668 61.105 23.8412 60.9349 23.9193 60.9343C25.7843 60.9196 27.6493 60.9229 29.6378 60.9229C29.5846 60.4633 29.5214 59.9183 29.4491 59.2943C30.4867 59.2042 31.4424 59.1213 32.5886 59.0219C32.428 59.3792 32.2258 59.6478 32.1995 59.9334C32.1658 60.299 32.1658 60.9159 32.3439 61.0007C32.6827 61.1618 33.3469 61.2 33.5466 60.9785C34.8904 59.4875 36.0492 60.0769 36.6971 60.7368C42.0036 60.3272 46.8331 59.9543 51.9389 59.5601C51.9949 59.611 52.4252 60.002 53.0139 60.4019C53.1722 60.4107 53.2136 60.3825 53.2136 60.3825Z"
    fill="white"
  />
<path
    d="M175.856 67.4322C176.151 68.0055 176.3 68.5636 176.402 68.9444C177.531 68.3233 178.703 67.6589 179.896 67.0338C180.223 66.8622 180.614 66.7218 180.967 66.7398C181.125 66.7479 181.441 67.2953 181.377 67.4021C181.141 67.7909 180.627 68.4467 180.481 68.3818C178.342 67.4321 178.493 70.4892 176.93 70.4566C176.93 70.97 176.93 71.4834 176.93 71.9968C176.776 72.076 176.623 72.1552 176.47 72.2344C176.132 71.629 175.795 71.0236 175.386 70.2898C171.785 71.7555 168.776 68.5966 165.191 68.8379C165.197 68.6252 165.204 68.4125 165.211 68.1998C168.711 67.9389 172.211 67.6779 175.856 67.4322Z"
    fill="#BEEB3F"
    fill-opacity="1"
  />
<path
    d="M95.2379 71.4854C95.8927 70.5303 96.473 69.9731 97.7335 70.4065C98.4062 70.6377 99.2879 70.2325 100.41 70.0644C99.3932 71.5788 98.6286 72.7174 97.5756 74.2856C97.4957 73.2993 97.4528 72.7697 97.4099 72.2401C97.2921 72.1941 97.1742 72.1481 97.0564 72.102C96.8873 72.6372 96.7182 73.1723 96.4968 73.8733C95.9394 73.4037 95.2693 72.8652 94.6535 72.2681C94.6079 72.2239 94.9519 71.7589 95.2379 71.4854Z"
    fill="#BEEB3F"
    fill-opacity="1"
  />
<path
    d="M85.6044 76.8691C85.059 76.2013 84.577 75.6538 84.0673 75.0747C82.0171 77.6322 81.9128 77.6612 81.1006 76.0911C84.5248 73.7818 88.7631 73.5389 89.2745 75.4443C88.3001 75.3718 87.2605 75.2944 86.0747 75.2062C86.7748 77.0115 86.7748 77.0115 85.6044 76.8691Z"
    fill="#BEEB3F"
    fill-opacity="1"
  />
<path
    d="M291.594 64.107C292.118 64.7355 292.576 65.2525 293.339 66.1153C290.799 66.4227 288.679 66.6792 286.253 66.9729C286.521 66.4458 286.681 65.6181 287.046 65.5094C288.135 65.1846 289.305 65.1416 290.142 65.0291C290.663 64.6404 291.095 64.3179 291.594 64.107Z"
    fill="#BEEB3F"
    fill-opacity="1"
  />
<path
    d="M10.4366 70.2954C10.4329 71.0076 10.4329 71.7275 10.4329 72.4333C8.16953 73.703 7.9793 73.5977 6.44385 70.0803C7.1232 70.0803 7.68521 70.0803 8.24721 70.0803C8.24749 70.2255 8.24777 70.3707 8.24805 70.5159C8.91342 70.4183 9.5788 70.3207 10.3488 70.2685C10.4535 70.3138 10.4403 70.3031 10.4366 70.2954Z"
    fill="#BEEB3F"
    fill-opacity="1"
  />
<path
    d="M26.8502 55.8797C26.8113 56.0163 26.703 56.012 26.6493 56.0057C25.5069 55.4294 24.4181 54.8593 23.3149 54.2817C24.0303 53.2365 28.195 53.4095 29.5449 54.4591C28.6598 54.8874 27.7745 55.3153 26.8502 55.8797Z"
    fill="#BEEB3F"
    fill-opacity="1"
  />
<path
    d="M110.767 69.828C110.648 70.106 110.42 70.3246 110.229 70.5084C112.306 73.0254 108.19 71.9606 108.963 73.703C108.68 73.6114 108.396 73.5197 108.112 73.4281C108.27 72.2518 108.428 71.0755 108.627 69.5942C109.238 69.6467 109.948 69.7077 110.767 69.828Z"
    fill="#BEEB3F"
    fill-opacity="1"
  />
<path
    d="M185.706 68.1998C186.917 68.1991 188.007 68.2504 189.273 68.3101C189.273 67.7088 189.273 67.0422 189.273 66.0548C190.504 66.8806 190.743 68.092 190.265 68.8803C189.94 69.4156 188.637 69.5474 187.799 69.4816C186.856 69.4074 185.945 68.909 184.971 68.5786C185.178 68.4683 185.381 68.3601 185.706 68.1998Z"
    fill="#BEEB3F"
    fill-opacity="1"
  />
<path
    d="M57.5336 73.9647C57.6866 74.0417 57.6895 74.1248 57.6973 74.3334C56.9935 74.8714 56.2849 75.2839 55.3579 75.8236C55.2759 75.7605 54.8673 75.446 54.3502 75.048C53.0951 76.2044 52.0415 75.5714 50.7817 74.5963C53.1691 74.3701 55.2763 74.1704 57.5336 73.9647Z"
    fill="#BEEB3F"
    fill-opacity="1"
  />
<path
    d="M306.739 53.1289C307.045 52.8996 307.342 52.8132 307.762 52.7462C308.514 53.1697 309.142 53.5738 309.771 53.9778C309.816 54.1366 309.861 54.2955 309.907 54.4543C308.564 54.7214 307.223 54.9984 305.871 55.2044C305.833 55.2102 305.493 54.3508 305.634 54.0839C305.828 53.7182 306.349 53.5338 306.739 53.1289Z"
    fill="#BEEB3F"
    fill-opacity="1"
  />
<path
    d="M104.897 75.4211C103.708 75.7979 102.505 76.0339 101.301 76.2699C101.332 76.406 101.363 76.542 101.394 76.6781C100.749 76.4393 100.104 76.2005 99.2979 75.9019C99.3927 75.4499 99.4958 74.958 99.6448 74.2477C100.64 75.0813 101.646 76.2286 102.2 74.0001C103.124 74.4412 104.004 74.8608 104.897 75.4211Z"
    fill="#BEEB3F"
    fill-opacity="1"
  />
<path
    d="M142.828 72.7478C142.272 72.4157 141.759 71.9529 141.245 71.4902C141.31 71.2995 141.376 71.1089 141.441 70.9182C142.32 70.8354 143.199 70.7527 144.177 70.6607C144.312 70.4034 144.538 69.9753 144.763 69.5472C144.935 69.5469 145.106 69.5466 145.278 69.5463C145.365 70.1691 145.725 70.9928 145.466 71.3613C145.179 71.7711 144.31 71.723 143.727 71.9589C143.407 72.0885 143.153 72.3921 142.828 72.7478Z"
    fill="#BEEB3F"
    fill-opacity="1"
  />
<path
    d="M352.89 23.4711C351.012 21.8834 351.044 21.2518 353.198 19.72C352.911 20.5577 352.706 21.1537 352.416 21.9978C353.567 21.9978 354.529 21.9978 355.491 21.9978C354.474 22.2524 354.488 24.3454 352.89 23.4711Z"
    fill="#BEEB3F"
    fill-opacity="1"
  />
<path
    d="M111.419 71.4358C112.137 70.7538 112.775 69.5094 113.749 71.0642C113.854 71.2332 114.464 71.1363 114.821 71.065C116.461 70.7378 116.849 71.1981 116.475 72.6592C114.765 72.2909 113.096 71.9315 111.419 71.4358Z"
    fill="#BEEB3F"
    fill-opacity="1"
  />
<path
    d="M205.821 67.683C204.983 68.8045 203.48 68.8062 201.934 67.4943C203.074 67.558 203.804 67.5988 204.657 67.6464C204.74 67.0728 204.825 66.4887 204.928 65.7804C205.471 65.7804 206.058 65.7804 206.627 65.7804C206.313 66.4661 206.067 67.0043 205.821 67.683Z"
    fill="#BEEB3F"
    fill-opacity="1"
  />
<path
    d="M337.362 59.2324C336.288 59.1542 335.366 59.0797 334.443 59.0053C334.444 58.7643 334.444 58.5234 334.444 58.2825C335.945 58.1401 337.446 57.9978 338.947 57.8554C339.027 58.0651 339.107 58.2748 339.187 58.4846C338.629 58.7351 338.071 58.9856 337.362 59.2324Z"
    fill="#BEEB3F"
    fill-opacity="1"
  />
<path
    d="M212.552 68.4237C210.195 67.823 211.265 69.7413 210.851 70.7183C210.483 69.7281 210.02 68.8901 209.923 68.0099C209.887 67.6831 210.897 66.8524 211.107 66.9535C211.717 67.247 212.164 67.8963 212.552 68.4237Z"
    fill="#BEEB3F"
    fill-opacity="1"
  />
<path
    d="M219.164 67.3593C220.192 66.4235 221.227 65.6189 222.327 64.7631C223.017 65.5773 223.399 66.0289 223.506 66.1549C222.373 66.589 221.247 67.0415 220.104 67.4437C219.821 67.5432 219.483 67.4794 219.164 67.3593Z"
    fill="#BEEB3F"
    fill-opacity="1"
  />
<path
    d="M271.704 66.0257C272.545 65.524 273.361 65.1487 274.438 64.6533C274.554 64.9724 274.904 65.4553 274.805 65.8058C274.714 66.13 274.149 66.3248 273.779 66.554C273.327 66.8345 272.86 67.0914 272.257 67.4417C272.134 67.1668 271.907 66.6594 271.704 66.0257Z"
    fill="#BEEB3F"
    fill-opacity="1"
  />
<path
    d="M37.2831 53.5432C36.297 53.2645 35.311 52.9857 34.325 52.7069C34.3092 52.5144 34.2935 52.3219 34.2778 52.1293C35.4031 51.8963 36.5284 51.6634 38.0662 51.345C37.6725 52.3611 37.4893 52.834 37.2918 53.4336C37.2774 53.5604 37.2831 53.5432 37.2831 53.5432Z"
    fill="#BEEB3F"
    fill-opacity="1"
  />
<path
    d="M91.6127 74.4214C92.431 74.4645 93.1167 74.4645 94.1874 74.4645C94.157 74.2984 94.3121 74.939 94.2711 74.9524C93.0564 75.35 91.8223 75.6855 90.5912 76.0307C90.4841 75.8093 90.3771 75.5878 90.27 75.3664C90.6734 75.037 91.0768 74.7077 91.6127 74.4214Z"
    fill="#BEEB3F"
    fill-opacity="1"
  />
<path
    d="M185.234 71.9159C185.242 71.4128 185.176 71.0082 185.008 69.9791C186.005 70.9061 186.686 71.4949 187.276 72.1663C187.328 72.2249 186.656 73.1645 186.548 73.1196C186.011 72.8977 184.886 73.2987 185.234 71.9159Z"
    fill="#BEEB3F"
    fill-opacity="1"
  />
<path
    d="M246.785 1.3712C246.812 2.08058 246.761 2.67367 246.709 3.26676C245.775 2.20399 245.123 1.20739 243.782 2.45896C243.683 2.55187 243.144 2.15264 242.81 1.98221C242.823 1.78691 242.836 1.59162 242.849 1.39633C244.135 1.34919 245.42 1.30205 246.785 1.3712Z"
    fill="#BEEB3F"
    fill-opacity="1"
  />
<path
    d="M102.301 72.4952C101.886 70.8183 102.989 70.1973 104.25 69.9747C104.795 69.8786 105.447 70.4245 106.011 71.0533C104.087 69.9645 103.259 71.258 102.301 72.4952Z"
    fill="#BEEB3F"
    fill-opacity="1"
  />
<path
    d="M248.81 66.2085C249.734 65.8201 250.584 65.5403 251.578 65.2126C249.865 67.7161 248.038 68.025 247.079 66.1208C247.631 66.1859 248.182 66.2515 248.81 66.2085Z"
    fill="#BEEB3F"
    fill-opacity="1"
  />
<path
    d="M161.273 70.0895C160.082 69.6355 159.003 69.1873 157.893 68.726C159.157 67.4135 160.741 68.0774 161.273 70.0895Z"
    fill="#BEEB3F"
    fill-opacity="1"
  />
<path
    d="M120.141 72.3306C119.581 72.6413 119.108 72.8488 118.635 73.0563C118.592 72.6513 118.381 71.9912 118.534 71.8855C119.185 71.4373 119.944 71.1537 120.663 70.81C120.77 71.0109 120.877 71.2117 120.984 71.4126C120.732 71.6842 120.48 71.9558 120.141 72.3306Z"
    fill="#BEEB3F"
    fill-opacity="1"
  />
<path
    d="M69.7427 75.4037C69.8623 75.4622 69.8682 75.5852 69.8692 75.6466C69.4219 75.9603 68.997 76.2888 68.5184 76.4427C68.0674 76.5877 67.5599 76.5487 66.7847 76.616C67.2567 75.6829 69.1606 75.4284 67.3457 74.5021C67.4259 74.3661 67.506 74.23 67.5862 74.094C68.2652 74.5111 68.9442 74.9282 69.7427 75.4037Z"
    fill="#BEEB3F"
    fill-opacity="1"
  />
<path
    d="M78.4377 77.2128C78.2183 77.3626 78.0701 77.4131 77.9219 77.4636C78.4356 76.6596 78.8553 75.7601 79.5031 75.0921C79.8241 74.761 80.5646 74.8558 81.1153 74.7579C81.146 74.91 81.1766 75.062 81.2073 75.2141C80.7044 75.4655 80.2015 75.7168 79.6222 76.0064C79.7717 76.3702 79.9161 76.7217 80.1197 77.2175C79.4891 77.1767 78.9989 77.1451 78.4377 77.2128Z"
    fill="#BEEB3F"
    fill-opacity="1"
  />
<path
    d="M50.4329 71.9039C50.5489 72.0747 50.5409 72.1822 50.5316 72.3709C49.9596 72.6273 49.1433 73.1243 48.8725 72.9077C48.3688 72.5047 48.183 71.6857 47.6499 70.6036C48.9012 71.1858 49.6048 71.5131 50.4329 71.9039Z"
    fill="#BEEB3F"
    fill-opacity="1"
  />
<path
    d="M37.3283 53.6906C37.2831 53.5432 37.2774 53.5604 37.2715 53.5673C38.008 53.4144 38.7605 53.0953 39.4896 53.1439C40.1035 53.1849 40.69 53.6535 41.4614 54.0134C40.3368 54.224 39.6029 54.4771 38.8757 54.4581C38.3701 54.4449 37.8739 54.058 37.3283 53.6906Z"
    fill="#BEEB3F"
    fill-opacity="1"
  />
<path
    d="M253.539 67.0783C253.542 65.382 254.189 65.0105 256.242 65.8026C255.184 66.3616 254.397 66.7772 253.539 67.0783Z"
    fill="#BEEB3F"
    fill-opacity="1"
  />
<path
    d="M23.2745 70.3987C23.6045 70.1547 23.8732 70.0341 24.2597 69.9133C24.6612 70.4289 24.9449 70.9446 25.2986 71.5875C24.6257 71.7128 23.9447 71.8396 23.2637 71.9664C23.2469 71.485 23.2301 71.0035 23.2745 70.3987Z"
    fill="#BEEB3F"
    fill-opacity="1"
  />
<path
    d="M124.37 71.2572C125.036 71.0186 125.752 70.8126 126.455 70.8527C126.668 70.8649 126.844 71.5569 127.038 71.9375C126.684 72.0086 126.296 72.2094 125.985 72.1224C125.437 71.9689 124.935 71.6398 124.37 71.2572Z"
    fill="#BEEB3F"
    fill-opacity="1"
  />
<path
    d="M104.813 71.5912C105.504 71.9209 106.078 72.2057 106.652 72.4905C106.608 72.6324 106.564 72.7743 106.521 72.9162C105.531 72.8613 104.541 72.8063 103.384 72.7421C103.848 72.3196 104.272 71.9329 104.813 71.5912Z"
    fill="#BEEB3F"
    fill-opacity="1"
  />
<path
    d="M93.8105 64.7791C94.8265 63.7545 95.7304 64.403 96.9545 65.1788C96.1449 65.4528 95.6098 65.634 94.9398 65.8387C94.5065 65.5223 94.2081 65.1823 93.8105 64.7791Z"
    fill="white"
  />
<path
    d="M80.2275 7.71777C80.5653 8.40283 80.8627 9.12109 81.1602 9.83934C81.3684 9.71925 81.5768 9.59916 81.7851 9.47906C81.2176 9.41393 80.6323 9.406 80.0994 9.23092C80.0034 9.1994 80.1236 8.47953 80.1586 7.96675C80.1733 7.85603 80.1871 7.75097 80.2275 7.71777Z"
    fill="#BEEB3F"
    fill-opacity="1"
  />
<path
    d="M92.8003 65.386C92.3621 65.4674 91.9595 65.4674 91.5569 65.4674C91.5322 65.2824 91.5076 65.0974 91.4829 64.9123C91.9387 64.868 92.3945 64.8237 92.9748 64.8105C93.0115 64.996 92.9237 65.1502 92.8003 65.386Z"
    fill="white"
  />
<path
    d="M28.3227 68.475C28.0064 68.2434 27.7651 67.9454 27.5239 67.6473C27.6089 67.5607 27.6939 67.4741 27.7788 67.3876C28.0057 67.6096 28.2326 67.8316 28.5026 68.1629C28.4964 68.3176 28.4471 68.363 28.3227 68.475Z"
    fill="#BEEB3F"
    fill-opacity="1"
  />
<path
    d="M46.6344 70.3354C46.4771 70.6835 46.2881 70.9983 45.9572 71.3097C45.8152 71.3063 45.7129 71.1746 45.7129 71.1746C45.9125 70.8674 46.112 70.5603 46.4262 70.2435C46.5409 70.2339 46.6027 70.302 46.6344 70.3354Z"
    fill="#BEEB3F"
    fill-opacity="1"
  />
<path
    d="M1.7584 67.8472C1.41176 67.7302 1.12043 67.5487 0.829102 67.3672C0.873914 67.2794 0.918727 67.1916 0.963539 67.1038C1.23572 67.2276 1.5079 67.3514 1.85087 67.5634C1.92166 67.6516 1.81371 67.7828 1.7584 67.8472Z"
    fill="#BEEB3F"
    fill-opacity="1"
  />
<path
    d="M82.802 8.71777C82.765 8.54695 82.8123 8.31015 82.964 8.05981C83.0076 8.24811 82.947 8.44995 82.802 8.71777Z"
    fill="#BEEB3F"
    fill-opacity="1"
  />
<path
    d="M12.5073 64.9004C12.3374 64.8071 12.227 64.6446 12.1167 64.4822C12.2672 64.4948 12.4177 64.5075 12.627 64.6065C12.6462 64.739 12.6066 64.7851 12.5073 64.9004Z"
    fill="#BEEB3F"
    fill-opacity="1"
  />
<path
    d="M51.1365 70.4081C50.9659 70.3481 50.8475 70.2272 50.729 70.1063C50.8839 70.0941 51.0388 70.0819 51.242 70.1463C51.2904 70.2231 51.1885 70.3471 51.1365 70.4081Z"
    fill="#BEEB3F"
    fill-opacity="1"
  />
<path
    d="M45.8659 71.3723C45.7056 71.494 45.4944 71.5497 45.2832 71.6053C45.3595 71.4836 45.4357 71.3618 45.6124 71.2073C45.7128 71.1745 45.815 71.3063 45.8659 71.3723Z"
    fill="#BEEB3F"
    fill-opacity="1"
  />
<path
    d="M32.013 14.9068C32.1088 14.9844 32.1258 15.1319 32.1428 15.2793C32.0733 15.1785 32.0037 15.0776 32.013 14.9068Z"
    fill="#BEEB3F"
    fill-opacity="1"
  />
<path
    d="M20.1079 29.6494C20.1511 29.6425 20.1961 29.6376 20.1772 29.6435C20.1132 29.6544 20.1097 29.6513 20.1079 29.6494Z"
    fill="#BEEB3F"
    fill-opacity="1"
  />
<path
    d="M13.7229 72.168C13.6851 72.2588 13.6215 72.3241 13.5578 72.3895C13.5432 72.3124 13.5285 72.2353 13.5792 72.1254C13.6446 72.0926 13.6971 72.1426 13.7229 72.168Z"
    fill="#BEEB3F"
    fill-opacity="1"
  />
<path
    d="M84.1548 68.8236C84.0345 68.7901 83.9486 68.7227 83.8628 68.6553C83.9601 68.6309 84.0573 68.6066 84.206 68.6516C84.2575 68.7209 84.1892 68.7896 84.1548 68.8236Z"
    fill="#BEEB3F"
    fill-opacity="1"
  />
<path
    d="M93.0962 56.3853C95.7239 56.3737 98.352 56.3407 100.979 56.3715C101.421 56.3766 101.852 56.6875 102.302 56.8013C102.681 56.8971 103.3 57.0991 103.434 56.9335C104.78 55.2691 106.421 56.0336 107.947 56.3613C108.477 56.475 108.897 57.1196 109.404 57.5525C110.166 55.879 111.641 55.6622 113.78 55.4415C117.158 55.0928 120.51 55.7971 123.787 55.2193C125.082 54.991 126.343 54.8126 127.585 54.9709C128.519 55.0901 129.392 55.7187 130.401 56.1691C129.366 59.456 126.441 58.3769 123.927 58.3592C123.867 58.5431 123.807 58.727 123.748 58.911C124.738 59.3468 125.728 59.7827 127.127 60.3979C124.262 60.6884 121.703 60.9479 119.144 61.2074C119.1 60.8866 119.056 60.5658 119.012 60.2449C120.076 60.0444 121.139 59.8438 122.54 59.5798C122.685 59.0575 122.203 58.6946 121.179 58.5304C120.492 58.4203 119.854 57.9857 118.914 57.5732C118.994 58.0643 119.116 58.8146 119.252 59.6578C116.926 59.0868 114.509 58.4938 112.036 57.8867C112.046 57.9665 112.095 58.2382 112.118 58.5121C112.155 58.9459 112.175 59.3812 112.202 59.8158C111.804 59.6849 111.411 59.5404 111.009 59.4261C110.303 59.2253 109.602 58.9706 108.881 58.8711C107.986 58.7477 107.073 58.7592 105.97 58.7021C105.69 59.1125 105.309 60.6696 104.513 58.5683C104.414 58.3059 103.686 58.2925 103.096 58.4736C103.502 58.9565 103.908 59.4394 104.314 59.9223C104.226 60.1236 104.138 60.325 104.051 60.5263C102.352 60.1993 100.654 59.8723 98.6553 59.4875C97.5088 60.6479 95.6868 60.9882 94.1759 59.9331C94.576 59.6733 94.9436 59.4346 95.378 59.1526C93.8062 58.9151 92.3181 58.6903 90.526 58.4196C90.9101 58.9463 91.2753 59.4472 91.8799 60.2763C90.9587 60.3593 89.981 60.6319 89.0705 60.4807C88.0365 60.309 87.0627 59.7584 85.9332 59.3225C85.1646 60.8713 83.8921 60.7585 82.2634 60.4629C80.7572 60.1895 79.087 60.4729 77.5569 60.822C75.4853 61.2946 75.5769 59.7694 75.1318 58.6734C75.2413 58.4961 75.3507 58.3188 75.4602 58.1415C76.0055 58.4682 76.5509 58.7948 77.3605 59.2798C77.3638 59.2783 77.9391 59.1993 78.0341 58.9377C78.7414 56.9898 80.3705 57.4906 81.6994 57.5396C83.5654 57.6085 85.4052 57.929 86.9265 56.3877C87.0994 56.2125 87.5637 56.3083 87.8902 56.3273C89.5807 56.4257 91.2703 56.5401 93.0286 56.5103C93.0971 56.3718 93.0962 56.3853 93.0962 56.3853Z"
    fill="white"
  />
<path
    d="M53.3599 60.3965C53.2136 60.3824 53.1722 60.4107 53.1494 60.4192C53.1931 60.0822 53.193 59.473 53.337 59.435C54.1194 59.2285 55.431 58.7977 55.6546 59.1141C56.4783 60.2799 57.446 59.7108 58.3206 59.6466C62.1387 59.366 65.9543 59.0354 69.762 58.635C70.5051 58.5569 71.2089 58.0873 72.0464 57.752C72.6145 59.1027 75.2585 59.167 75.0156 61.9362C73.8684 61.2713 72.8918 60.7053 71.9482 60.1585C71.4056 60.5438 70.6791 61.3876 69.8238 61.5591C69.1861 61.687 68.3818 60.9457 67.6517 60.5915C67.6829 60.4026 67.7141 60.2138 67.7454 60.0249C67.0592 60.6404 66.3731 61.2559 65.44 62.0929C65.5093 61.1785 65.6998 60.4228 65.5469 60.3413C65.1427 60.1257 64.5903 60.1824 64.0958 60.1673C63.4445 60.1473 62.7923 60.1624 61.8802 60.1624C62.3927 60.6494 62.7408 60.9802 63.2136 61.4295C62.8412 61.6928 62.3934 62.1792 62.2344 62.095C60.9559 61.418 59.9092 62.5183 58.7588 62.4575C58.3238 62.4345 57.9148 61.8953 57.6029 61.4201C57.9336 61.074 58.1553 60.8993 58.377 60.7247C58.3208 60.6408 58.2647 60.5569 58.2085 60.4731C57.8826 60.6589 57.5568 60.8447 57.2309 61.0305C55.8079 61.9651 54.6891 60.9861 53.3599 60.3965Z"
    fill="white"
  />
<path
    d="M273.411 55.9137C272.765 55.7099 272.07 55.5847 271.747 55.1622C270.551 53.5965 269.175 54.0973 267.638 54.4043C266.291 54.6733 264.852 54.4605 263.453 54.4605C263.42 54.2552 263.387 54.0499 263.354 53.8446C264.15 53.5002 264.93 52.9171 265.746 52.8582C267.84 52.7071 269.951 52.755 272.055 52.7863C274.295 52.8196 274.376 52.964 273.771 55.1828C273.709 55.4119 273.614 55.6317 273.411 55.9137Z"
    fill="white"
  />
<path
    d="M187.93 54.8811C187.434 55.1146 186.966 55.2475 186.743 55.5622C186.477 55.937 186.421 56.4676 186.616 56.9982C185.857 57.7305 185.099 58.4629 184.075 59.4509C184.578 58.0367 184.993 56.8705 185.543 55.3226C184.547 55.3867 184.138 55.4131 183.728 55.4395C183.685 55.2717 183.642 55.1039 183.599 54.936C184.959 54.4975 186.318 54.059 187.864 53.5603C189.822 55.838 192.745 52.8729 195.036 54.2414C195.013 54.5514 194.989 54.8613 194.966 55.1713C192.666 55.0679 190.367 54.9644 187.93 54.8811Z"
    fill="white"
  />
<path
    d="M32.7827 67.1939C33.4537 64.933 34.4318 66.3145 35.2877 66.4618C38.338 65.9712 41.3883 65.4806 44.4437 64.9892C44.6599 66.6379 43.3308 66.3809 42.3148 66.7262C39.1917 67.7874 36.0272 67.59 32.7827 67.1939Z"
    fill="white"
  />
<path
    d="M285.692 52.1256C285.619 53.2996 285.954 53.5529 287.033 53.2128C287.863 52.9513 288.799 53.045 289.179 53.0175C291.138 52.6765 292.592 52.4234 294.352 52.1171C293.96 52.7877 293.706 53.2223 293.575 53.4463C290.163 53.9759 286.973 54.4708 283.784 54.9658C283.677 54.7571 283.569 54.5485 283.461 54.3399C284.173 53.5758 284.884 52.8117 285.692 52.1256Z"
    fill="white"
  />
<path
    d="M136.991 55.3061C138.804 54.3602 139.608 56.0165 140.851 56.6007C140.198 56.898 139.586 57.1768 138.796 57.5366C138.837 57.0473 138.864 56.7238 138.877 56.566C138.165 56.6654 137.551 56.7118 136.955 56.8434C136.021 57.0496 135 56.3778 134.088 57.5639C133.753 57.9983 132.114 57.3816 130.587 57.1808C131.263 56.202 131.607 55.7029 131.952 55.2038C132.078 55.2699 132.204 55.336 132.33 55.4021C132.281 55.774 132.232 56.1459 132.088 57.2265C132.985 56.6131 133.473 56.1187 134.057 55.9175C134.948 55.6105 135.906 55.5061 136.991 55.3061Z"
    fill="white"
  />
<path
    d="M153.04 55.1908C153.399 54.9708 153.677 54.7262 153.93 54.7502C154.547 54.8087 155.153 54.9918 155.763 55.1246C155.81 54.9848 155.856 54.8449 155.902 54.705C155.615 54.5144 155.328 54.3238 155.041 54.1332C155.059 53.9828 155.076 53.8324 155.094 53.682C155.701 53.7413 156.568 53.5739 156.853 53.9152C157.245 54.383 157.385 55.2803 157.248 55.9054C157.187 56.1842 156.189 56.3746 155.616 56.3773C154.933 56.3806 154.253 56.0851 153.563 56.0269C153.215 55.9975 152.836 56.176 152.492 56.3137C151.722 56.6214 150.964 56.9624 150.202 57.2898C150.084 57.0716 149.965 56.8534 149.847 56.6352C150.187 56.2309 150.527 55.8267 150.896 55.3883C150.658 55.0896 150.37 54.7291 150.082 54.3686C150.152 54.2513 150.221 54.1339 150.291 54.0166C151.177 54.4406 152.063 54.8645 153.04 55.1908Z"
    fill="white"
  />
<path
    d="M280.238 52.417C280.878 53.3875 280.878 53.3875 278.883 54.304C279.186 54.5803 279.458 54.829 279.87 55.2053C277.551 55.8268 276.557 53.8105 274.938 53.2779C274.956 53.063 274.973 52.8481 274.99 52.6331C276.125 52.6331 277.261 52.6555 278.395 52.6238C278.969 52.6078 279.539 52.494 280.238 52.417Z"
    fill="white"
  />
<path
    d="M145.48 58.3058C145.148 57.9338 144.717 57.4531 144.305 57.4687C143.763 57.4892 143.235 57.9006 142.7 58.1439C142.58 58.0058 142.46 57.8678 142.339 57.7297C142.93 57.2823 143.464 56.589 144.122 56.4282C147.789 55.5319 147.799 55.576 148.038 55.9704C147.355 57.0605 146.85 57.9477 146.26 58.7709C146.021 59.1052 145.595 59.3 145.255 59.5583C145.299 59.1782 145.344 58.7981 145.48 58.3058Z"
    fill="white"
  />
<path
    d="M299.023 54.093C297.637 54.0735 296.408 54.0735 295.158 54.0735C295.158 53.3826 295.158 52.7669 295.158 51.9348C295.727 52.4204 296.156 52.7863 296.581 53.1486C298.779 50.9788 298.779 50.9788 300.191 54.1125C299.805 54.1125 299.492 54.1125 299.023 54.093Z"
    fill="white"
  />
<path
    d="M21.6448 69.2015C21.0552 69.3688 20.5645 69.5665 20.1097 69.5013C19.9643 69.4805 19.7128 68.5645 19.8622 68.4061C20.1756 68.0739 20.7067 67.8959 21.1773 67.7919C22.3316 67.5366 23.5022 67.3591 24.6663 67.1504C24.7353 67.3321 24.8043 67.5139 24.8732 67.6957C23.8347 68.1738 22.7962 68.652 21.6448 69.2015Z"
    fill="white"
  />
<path
    d="M241.208 57.4905C240.632 57.1088 239.569 56.5767 239.629 56.3236C239.86 55.3505 240.102 54.1267 241.571 54.2233C242.25 54.268 242.935 54.2309 243.618 54.2309C243.655 54.4753 243.692 54.7198 243.729 54.9642C242.968 55.1089 242.207 55.2536 241.271 55.4316C241.271 55.9333 241.271 56.5151 241.275 57.2523C241.279 57.4078 241.237 57.4684 241.208 57.4905Z"
    fill="white"
  />
<path
    d="M114.764 63.6805C114.275 62.7608 113.893 61.9002 113.459 60.9218C115.228 60.8054 116.332 61.5433 116.976 63.164C116.604 63.023 116.232 62.882 116.206 62.8721C115.633 63.2444 115.252 63.4919 114.764 63.6805Z"
    fill="white"
  />
<path
    d="M224.77 55.683C223.761 54.6588 224.803 54.7111 225.232 54.6927C226.779 54.6263 228.331 54.6666 230.269 54.9947C229.995 55.0774 229.715 55.1412 229.45 55.246C228.24 55.7244 226.666 54.913 225.725 56.343C225.448 56.1317 225.171 55.9204 224.77 55.683Z"
    fill="white"
  />
<path
    d="M251.721 54.0757C251.729 53.7218 251.789 53.2929 251.81 53.2949C252.994 53.4074 254.176 53.5558 255.628 53.7337C254.901 54.4167 254.293 54.9885 253.629 55.6134C253.026 55.1599 252.39 54.6809 251.721 54.0757Z"
    fill="white"
  />
<path
    d="M190.547 57.6896C190.566 55.534 192.585 56.917 193.218 55.7794C193.368 55.8816 193.517 55.9839 193.666 56.0862C193.35 56.9102 193.033 57.7341 192.685 58.64C192.073 58.3816 191.362 58.0816 190.547 57.6896Z"
    fill="white"
  />
<path
    d="M162.876 55.0247C163.164 54.3677 163.451 53.7106 163.739 53.0535C163.849 53.0734 163.959 53.0933 164.07 53.1132C164.099 53.5661 164.128 54.0189 164.16 54.5189C164.779 54.6584 165.388 54.7959 166.227 54.9852C165.607 55.5608 165.158 55.9778 164.679 56.4224C164.125 56.0435 163.613 55.6929 162.986 55.2373C162.872 55.1324 162.876 55.0247 162.876 55.0247Z"
    fill="white"
  />
<path
    d="M162.73 55.0277C162.877 55.0247 162.872 55.1324 162.867 55.1858C162.449 56.2671 160.117 57.0361 159.312 56.3899C159.163 56.2697 159.111 56.0222 159.014 55.8335C159.238 55.7879 159.464 55.7468 159.687 55.6958C160.653 55.4757 161.618 55.2527 162.73 55.0277Z"
    fill="white"
  />
<path
    d="M346.343 49.1497C346.729 48.9414 347.162 48.6641 347.364 48.7863C347.949 49.1395 348.441 49.6534 348.97 50.1043C348.531 50.5354 348.092 50.9665 347.738 51.3141C347.127 50.4526 346.705 49.8578 346.343 49.1497Z"
    fill="white"
  />
<path
    d="M93.1035 56.3721C92.0532 55.863 92.0532 55.863 92.0856 53.6965C92.7157 53.6615 93.3588 53.6257 93.99 53.5906C94.0913 54.1385 94.1886 54.6652 94.3134 55.3398C93.8862 55.1614 93.5386 55.0162 93.1716 54.8629C93.1324 55.2867 93.0939 55.7035 93.0757 56.2528C93.096 56.3853 93.097 56.3718 93.1035 56.3721Z"
    fill="white"
  />
<path
    d="M170.357 57.9346C170.294 57.5675 170.306 57.3034 170.318 57.0393C171.298 57.1678 172.278 57.2964 173.463 57.4518C172.464 59.6289 171.379 58.1371 170.357 57.9346Z"
    fill="white"
  />
<path
    d="M71.3026 64.4412C71.4512 63.9415 71.492 63.5019 71.5329 63.0624C71.6926 62.9132 71.8523 62.7641 72.012 62.6149C72.4785 63.4196 72.9449 64.2243 73.458 65.1094C72.623 65.1094 71.6902 65.1094 70.5132 65.1094C70.8619 64.7983 71.0283 64.6498 71.3026 64.4412Z"
    fill="white"
  />
<path
    d="M274.704 57.4283C274.098 57.995 273.438 58.526 272.698 58.8821C272.514 58.9707 271.985 58.5522 271.786 58.2492C271.702 58.1219 272.028 57.464 272.223 57.4347C273.011 57.3169 273.82 57.3503 274.704 57.4283Z"
    fill="white"
  />
<path
    d="M29.4992 32.07C28.6285 31.3781 28.298 30.7531 29.2609 30.0169C29.9198 30.572 30.5246 31.0815 31.6543 32.0332C30.664 32.093 30.1321 32.1252 29.4992 32.07Z"
    fill="white"
  />
<path
    d="M348.923 30.0744C349.279 30.5304 349.499 30.9673 349.843 31.6521C348.686 31.7526 347.841 31.8261 346.996 31.8995C346.905 31.7319 346.815 31.5643 346.725 31.3967C347.412 30.9495 348.099 30.5024 348.923 30.0744Z"
    fill="white"
  />
<path
    d="M43.4455 16.9707C43.7382 17.7611 43.9077 18.571 44.0138 19.3895C44.0246 19.4723 43.6243 19.7288 43.4654 19.6897C43.2129 19.6276 42.7919 19.3533 42.8101 19.2224C42.9149 18.4704 43.128 17.7342 43.4455 16.9707Z"
    fill="white"
  />
<path
    d="M356.495 42.8346C356.529 41.6599 356.64 41.5431 357.431 41.93C357.992 42.2044 358.497 42.5997 359.042 42.9504C358.057 45.1317 357.411 42.9513 356.495 42.8346Z"
    fill="white"
  />
<path
    d="M257.021 53.5715C257.777 53.7019 258.52 53.9726 259.674 54.3926C257.792 55.4549 257.286 55.2114 257.021 53.5715Z"
    fill="white"
  />
<path
    d="M65.6515 51.2967C66.0784 51.9225 66.3839 52.5341 66.7692 53.3053C65.7567 52.9847 64.9782 52.7381 64.1372 52.4718C64.1372 52.1836 64.1372 51.8341 64.1372 51.54C64.6101 51.4525 65.0701 51.3675 65.6515 51.2967Z"
    fill="white"
  />
<path
    d="M6.15741 32.9446C6.23214 32.9705 6.30537 32.998 6.37861 33.0255C6.31963 33.0428 6.26065 33.0601 6.17824 33.0125C6.15481 32.9476 6.15592 32.9462 6.15741 32.9446Z"
    fill="white"
  />
<path
    d="M39.0685 62.9694C38.8753 62.9127 38.7243 62.8091 38.5732 62.7055C38.732 62.6966 38.8907 62.6878 39.122 62.7536C39.1947 62.8283 39.1107 62.9224 39.0685 62.9694Z"
    fill="#BEEB3F"
    fill-opacity="1"
  />
<path
    d="M57.2993 61.1108C57.5566 60.8447 57.8825 60.6589 58.2083 60.4731C58.2645 60.5569 58.3207 60.6408 58.3768 60.7247C58.1551 60.8994 57.9334 61.074 57.6132 61.2955C57.4658 61.2918 57.4168 61.2414 57.2993 61.1108Z"
    fill="#BEEB3F"
    fill-opacity="1"
  />
</svg>
