<svg width="140" height="51" viewBox="0 0 140 51" fill="none" xmlns="http://www.w3.org/2000/svg">
<path d="M17.7971 45.395C17.6773 45.2793 17.5551 45.0572 17.4379 45.0652C16.7231 45.1142 16.0094 45.2155 15.2953 45.2993C15.2916 45.103 15.288 44.9068 15.2844 44.7105C15.4535 44.7105 15.6414 44.626 15.7882 44.7272C16.1445 44.973 16.3924 44.9753 16.4583 44.0159C15.7997 44.117 15.1692 44.2137 14.3483 44.3397C14.6432 44.8245 14.788 45.0625 15.0333 45.4658C14.7962 45.5552 14.5915 45.759 14.4781 45.6543C13.845 45.0691 13.2781 45.6369 12.6855 45.854C12.5045 45.9203 12.2276 45.9358 12.1329 45.7521C12.0417 45.5752 12.1293 45.1108 12.138 44.7828C11.7936 44.6914 11.3913 44.5847 10.9971 44.3465C11.0237 44.1858 11.0421 44.1565 11.0605 44.1271C11.1649 43.9739 11.2693 43.8207 11.3737 43.6675C11.1767 43.4601 10.9836 43.1013 10.7816 43.0849C10.5491 43.066 10.2917 43.3039 10.0863 43.5415C10.0462 43.588 10.1949 44.1433 10.2383 44.3695C10.0554 44.5413 9.79834 44.7829 9.47663 45.1062C9.31139 45.2659 9.21079 45.3439 9.11019 45.4218C8.60369 45.1311 8.52355 45.7687 8.4601 46.3825C7.38718 46.6599 7.38717 46.6599 6.94707 45.1599C6.7044 45.344 6.45596 45.5324 6.18039 45.7414C6.39367 46.1675 6.56933 46.5183 6.79877 46.9767C6.3282 46.8404 5.9781 46.739 5.56448 46.6332C5.50095 46.6287 5.4816 46.5964 5.4816 46.5964C5.30613 46.1259 5.13066 45.6554 5.0484 45.4348C4.7155 45.4348 4.54403 45.4348 4.32756 45.4373C4.28254 45.4397 4.28749 45.4466 4.28749 45.4466C4.29069 44.553 4.10358 44.1288 3.55453 44.4226C3.13698 44.646 2.7043 44.7811 2.36677 44.9193C2.36677 45.4159 2.36677 45.8087 2.36677 46.2014C2.18325 46.1787 1.8431 46.1805 1.84054 46.1295C1.81623 45.645 1.84926 45.1515 1.87391 44.4192C1.6832 44.3345 1.37029 44.1956 1.05526 43.9337C1.05314 43.8108 1.09356 43.726 1.09356 43.726C1.83618 43.5761 2.57813 43.4139 3.32195 43.2856C3.49211 43.2563 3.67244 43.3153 3.84145 43.3844C4.07133 43.4783 4.3678 43.8397 4.50559 43.6963C4.77686 43.414 4.96122 42.8669 5.17103 42.4142C5.1847 42.3847 5.10916 42.2262 5.07689 42.0154C5.09352 41.8732 5.10837 41.8434 5.12323 41.8136C5.30982 41.9965 5.48909 42.2102 5.68473 42.3548C5.97195 42.5672 6.3637 43.0194 6.54151 42.8414C6.768 42.6147 7.26579 42.1973 6.99526 41.2672C7.16171 41.552 7.28493 41.9013 7.36825 42.1375C7.64221 41.8843 7.90864 41.4172 8.13041 41.476C8.71056 41.6298 9.26233 42.1523 9.84201 42.2676C10.4621 42.3909 11.1012 42.2168 11.732 42.1725C11.73 42.0881 11.7281 42.0037 11.7262 41.9192C11.4269 41.6395 11.1276 41.3597 10.7017 40.9617C11.6814 40.1727 12.1928 41.7709 12.8916 41.7573C12.9847 41.2628 13.0553 40.8878 13.1259 40.5129C13.1438 40.6438 13.1617 40.7746 13.1796 40.9055C13.7415 41.051 14.3029 41.205 14.867 41.3151C14.8935 41.3203 14.9445 40.934 14.9999 40.6996C15.0156 40.6693 15.0471 40.6084 15.1015 40.6127C15.3495 40.6569 15.6358 40.5676 15.721 40.7585C16.1301 41.6746 16.7006 40.6977 16.7106 40.6104C16.8588 39.3113 17.3373 40.0964 17.673 40.072C17.8237 40.0611 17.9831 40.1504 18.1253 40.0925C18.9194 39.7687 19.7145 39.2235 20.4349 40.4647C20.5136 40.6004 20.7008 40.5397 20.727 40.5455C20.5812 40.0332 20.4382 39.5304 20.3499 39.0367C20.8475 39.4178 21.2663 40.0505 21.8247 39.4984C21.8687 39.5828 21.8871 39.6154 21.9014 39.7285C22.0551 40.0054 22.2082 40.3539 22.371 40.3688C22.8017 40.4081 23.1935 39.6969 23.6721 40.1345C23.7317 40.1889 23.8993 39.8746 24.0387 39.7044C23.8617 39.4139 23.7314 39.2002 23.5396 38.8854C23.881 38.8854 24.1252 38.8757 24.369 38.8885C24.5541 38.8983 24.7609 38.8617 24.9122 39.001C24.9695 39.0537 24.8981 39.5421 24.8722 40.1331C25.2215 39.5921 25.4784 39.1943 25.7352 38.7965C25.7235 38.9186 25.7118 39.0407 25.7002 39.1627C25.9735 39.3917 26.2746 39.8708 26.5133 39.7881C26.8335 39.6773 27.1055 39.1319 27.3086 38.8829C27.6618 39.2363 28.0274 39.6021 28.4569 40.0318C28.5478 38.242 27.558 38.2005 27.3454 37.3274C27.0318 37.5442 26.7684 37.8477 26.4902 37.8982C25.0647 38.157 23.6363 38.3707 22.207 38.552C21.8796 38.5935 21.5173 38.9613 21.209 38.2078C21.1253 38.0033 20.6342 38.2818 20.3413 38.4152C20.2874 38.4398 20.2875 38.8335 20.2118 39.0457C20 38.7817 19.8389 38.529 19.8179 38.4961C17.9065 38.7509 16.0986 38.9919 14.112 39.2567C13.8695 38.8301 13.4357 38.4492 12.9326 39.4129C12.8578 39.5561 12.6092 39.5313 12.4824 39.4272C12.4157 39.3724 12.4157 38.9737 12.4283 38.7374C12.4381 38.5528 12.5139 38.3792 12.574 38.1482C12.1449 38.2125 11.7871 38.2661 11.3987 38.3243C11.4257 38.7276 11.4494 39.0799 11.4693 39.3769C10.7249 39.3769 10.0267 39.3748 9.32855 39.3843C9.2993 39.3847 9.27144 39.4946 9.24137 39.5509C8.84753 40.2885 8.37778 40.358 7.85039 40.1C7.71197 40.0322 7.5322 40.1079 7.39117 40.2062C7.19424 40.3435 7.01586 40.5638 6.82955 40.7485C6.47682 40.5457 6.1241 40.3428 5.70315 40.1007C5.7272 40.5143 5.7416 40.7621 5.7621 41.1147C4.73924 40.6379 3.7757 40.7076 3.06532 41.4616C2.37413 41.311 1.83772 41.1942 1.17695 41.0503C1.78743 40.1675 2.34016 39.3683 2.93314 38.5108C2.82673 38.226 2.71011 37.9138 2.56543 37.5266C2.78375 37.2929 2.99202 37.07 3.22385 36.8219C3.32037 38.3764 3.73267 38.8111 4.43054 38.0282C4.30337 38.6977 4.19901 39.2472 4.08878 39.8276C4.21158 39.8521 4.28363 39.8833 4.28793 39.8649C4.75404 37.8767 5.7346 38.0164 6.67997 38.0975C7.10241 38.1337 7.30971 38.0211 7.12611 37.4168C7.95729 37.3472 8.81527 37.2783 9.67202 37.1772C9.68589 37.1756 9.68486 36.7798 9.6874 36.689C9.90735 36.5688 10.1029 36.4618 10.3346 36.2789C10.3706 36.2028 10.4111 36.2056 10.4111 36.2056C10.6403 36.5374 10.8694 36.8692 11.1546 37.2822C11.7177 37.1592 12.4894 37.4202 12.6751 35.3693C12.8208 36.0363 12.8853 36.3315 12.9723 36.7294C13.2684 36.575 13.5577 36.4241 13.9477 36.2206C13.7606 35.9733 13.6597 35.8398 13.5588 35.7064C13.5777 35.6309 13.5966 35.5553 13.6156 35.4798C13.8 35.5985 14.0234 35.6373 14.1622 35.8492C14.8793 36.9441 14.8709 36.9578 15.607 35.8084C15.6726 35.7058 15.7581 35.5758 15.8353 35.574C16.5366 35.5569 17.1264 35.0119 17.7245 34.4483C17.8358 34.3435 18.0625 34.6869 18.2431 34.7294C18.4737 34.7837 18.7116 34.7426 18.9463 34.7426C18.9524 34.641 18.9586 34.5394 18.9648 34.4379C18.2833 34.1514 17.5943 33.9091 16.9258 33.5476C16.758 33.4569 16.6564 32.9838 16.4869 32.6021C16.2428 32.8367 15.9277 33.1648 15.5986 33.4404C15.4982 33.5244 15.3218 33.5549 15.2436 33.4551C14.6249 32.6644 13.9897 32.8749 13.2756 32.9859C12.5442 33.0996 11.7603 32.617 11.0349 32.2015C10.6752 31.9954 10.4999 31.9038 10.1735 32.3921C9.92835 32.7589 9.46221 32.7485 9.09411 32.7509C8.74895 32.7532 8.40336 32.5518 8.1105 32.457C7.89254 32.0897 7.70454 31.5983 7.44498 31.4017C7.29316 31.2867 6.97329 31.5435 6.82118 31.8021C5.79514 33.5467 4.51675 33.2418 3.82976 31.0486C3.75554 30.8117 3.66599 30.5897 3.63299 30.4981C2.99001 30.6691 2.41534 30.8219 1.75403 30.9977C1.77514 30.8072 1.82841 30.486 1.8428 30.1594C1.86452 29.6666 1.96883 29.004 1.83298 28.7241C1.70818 28.4669 1.31227 28.6203 1.0501 28.5942C0.905313 28.2334 0.733677 27.7376 0.523384 27.2996C0.281983 26.7969 0.40327 25.9842 0.776217 25.8418C0.948249 25.7761 1.13103 25.7982 1.24098 25.5818C1.56282 25.1405 1.88467 24.6991 2.21522 24.2458C1.91884 23.8518 1.61195 23.4439 1.3678 23.1194C1.11897 23.3578 0.895796 23.5716 0.672628 23.7854C0.645314 23.6981 0.618 23.6109 0.590686 23.5236C1.0545 22.5777 1.52703 21.6446 1.97852 20.6807C2.21052 20.1855 2.26484 20.2278 2.6395 21.3156C2.71755 21.368 2.7394 21.3569 2.76125 21.3457C2.73412 21.3279 2.70699 21.3101 2.67986 21.2924C2.72289 20.7733 2.76592 20.2542 2.81151 19.7042C3.52761 19.7042 4.16045 19.7042 4.84745 19.7042C4.83355 19.937 4.81524 20.2434 4.79459 20.5891C5.15158 20.6369 5.4767 20.6805 5.86021 20.7319C5.82203 20.1498 5.79347 19.7145 5.77949 19.5015C6.1867 19.2007 6.52308 18.9523 6.96458 18.6262C7.14368 18.731 7.4736 18.9241 7.85299 19.1411C7.90248 19.165 7.90377 19.167 7.90377 19.167C8.18926 19.7712 8.18926 19.7712 8.46673 18.5165C8.78916 19.4068 9.9269 18.2873 9.62127 20.5312C9.6824 20.5536 9.74352 20.576 9.80464 20.5984C9.94667 20.2217 10.1522 19.8723 10.2092 19.4591C10.2495 19.1662 10.089 18.7871 9.98357 18.2799C10.1944 17.24 10.7636 16.915 11.5767 16.8503C11.3703 16.3794 11.1811 16.0073 11.0331 15.5896C10.935 15.3123 10.8958 14.9697 10.8303 14.6564C10.9947 14.5808 11.1584 14.5005 11.3237 14.4316C11.4271 14.3885 11.5615 14.4241 11.6329 14.3197C12.2759 13.3785 12.9301 13.4363 13.7059 13.8685C14.0329 14.0507 14.5123 13.3801 14.9866 13.0528C14.6005 12.4393 14.3259 12.0032 13.9758 11.4471C13.9506 11.9813 13.9351 12.3101 13.9087 12.8689C13.4934 12.9258 13.0647 13.1007 12.6586 12.9974C12.4052 12.933 12.2059 12.3593 11.9457 12.1776C11.673 11.987 11.3578 11.9678 11.0588 11.9168C10.6361 11.8445 10.2112 11.8118 9.78726 11.7622C9.7886 11.5842 9.78995 11.4063 9.7913 11.2283C10.4508 11.1092 11.1104 10.99 11.692 10.8849C11.6157 10.3151 11.5517 9.8367 11.4876 9.35826C11.5367 9.309 11.5858 9.25974 11.6348 9.21048C11.9289 9.67433 12.2229 10.1382 12.6377 10.7925C12.6377 10.1391 12.6377 9.73402 12.6377 9.22405C12.7772 9.07708 12.9627 8.88159 13.1729 8.66013C12.9904 8.50211 12.8273 8.36086 12.5568 8.12666C13.324 7.89682 13.9711 7.12741 14.6249 8.27567C15.1646 7.23714 15.7191 6.87418 16.3135 8.2081C16.388 8.37541 16.6868 8.23096 16.946 8.23096C16.7872 7.17439 17.0592 6.87579 17.6059 6.79984C18.5111 6.67408 19.4066 6.33851 20.3115 6.19042C20.6367 6.13719 20.977 6.37015 21.284 6.28653C21.8389 6.13155 22.3927 5.96326 22.949 5.82503C23.613 5.66002 24.2775 5.49185 24.9447 5.37643C26.2733 5.14657 27.6024 4.90656 28.9345 4.76815C29.3764 4.72224 29.8282 4.97487 30.3261 5.1559C30.3691 5.48065 30.3241 5.94594 30.36 5.96631C30.5595 6.07947 30.7787 6.08459 30.9911 6.12669C30.9131 6.20431 30.8351 6.28193 30.7572 6.35956C30.6458 5.89532 30.5345 5.43108 30.4231 4.96684C30.8251 4.04793 31.1696 4.62556 31.4555 5.15801C31.3755 5.3711 31.3581 5.52415 31.3407 5.6772C31.5434 5.80447 31.7462 5.93175 31.949 6.05902C31.9061 5.6866 31.8632 5.31419 31.7927 4.70217C32.6456 4.4715 33.5362 4.05518 34.4308 4.02603C36.1798 3.96903 37.9155 3.86963 39.6478 3.34564C40.4158 3.11334 41.2256 3.33872 42.0158 3.30405C43.5895 3.23501 45.1593 3.24236 46.7363 2.97174C48.3141 2.70096 49.9221 3.00379 51.5168 2.99736C51.9741 2.99552 52.43 2.77195 52.889 2.69284C53.08 2.6599 53.2778 2.73016 53.4716 2.76874C53.8999 2.85404 54.3301 3.05037 54.7552 3.01939C55.7097 2.94986 56.6612 2.6668 57.6145 2.65684C59.268 2.63955 60.922 2.77793 62.576 2.81984C63.1392 2.83411 63.703 2.74232 64.2669 2.72075C64.9935 2.69296 65.7219 2.63835 66.4461 2.70846C66.6116 2.72449 66.7628 3.20312 66.9599 3.53496C67.2035 2.03442 67.9431 2.47412 68.5219 2.40206C69.0853 2.33193 69.6642 2.64274 70.2271 2.56832C70.9297 2.47541 71.6191 2.06366 72.3215 1.97776C72.7116 1.93006 73.1129 2.32187 73.5165 2.40944C73.8072 2.47252 74.1102 2.36262 74.4075 2.32534C74.5373 2.30906 74.686 2.19643 74.7932 2.27234C75.7116 2.92222 76.6143 2.32675 77.5222 2.2044C77.5443 2.20143 77.5725 2.16847 77.5867 2.18317C78.7436 3.38104 80.0089 1.65397 81.1874 2.58585C81.3194 2.69021 81.5671 2.33795 81.6504 2.27765C82.2502 2.38853 82.7732 2.57594 83.2947 2.56353C84.5408 2.5339 85.7861 2.3605 87.032 2.34791C87.5554 2.34262 88.0782 2.6826 88.6039 2.71047C89.1826 2.74115 89.764 2.58586 90.3448 2.52695C90.6029 2.50077 90.8658 2.55686 91.1201 2.49441C91.3889 2.42842 91.6501 2.26579 91.7735 2.20964C92.3513 2.20964 92.8096 2.17941 93.2663 2.21576C94.3045 2.29842 95.3414 2.44643 96.38 2.50468C97.1034 2.54525 97.8287 2.47937 98.5531 2.46436C98.7712 2.45984 98.9897 2.45263 99.2072 2.47312C99.3398 2.48561 99.4862 2.63695 99.6001 2.5749C100.471 2.10011 101.351 2.23932 102.234 2.37926C102.343 2.3964 102.46 2.2882 102.564 2.32392C103.972 2.80898 105.361 2.15193 106.759 2.13808C107.301 2.13271 107.842 2.50035 108.387 2.67149C108.544 2.72087 108.797 2.7984 108.859 2.65855C109.515 1.19638 110.404 1.97528 111.194 1.85335C112.14 1.70715 113.088 1.55727 114.038 1.49755C114.987 1.4378 115.939 1.51018 116.89 1.48345C118.242 1.44545 119.594 1.40948 120.944 1.29639C121.857 1.21988 122.766 0.933003 123.679 0.903705C124.025 0.892589 124.376 1.33949 124.683 1.33318C125.493 1.06762 126.304 0.580884 127.111 0.600425C127.876 0.618946 128.784 0.708824 129.038 2.49591C128.826 3.00271 128.6 3.5415 128.31 4.23226C128.67 4.3446 128.872 4.40745 129.172 4.50115C128.841 5.61539 128.492 6.48746 127.852 6.91293C127.731 6.99323 127.639 7.20646 127.533 7.35836C127.643 7.50767 127.75 7.77897 127.863 7.78777C129.281 7.89779 128.849 7.4673 129.32 9.60514C129.357 9.77262 129.43 9.91526 129.528 10.1845C129.267 10.1467 129.08 10.1197 128.893 10.0927C128.877 10.2058 128.861 10.3188 128.845 10.4319C129.046 10.4823 129.251 10.5114 129.449 10.5884C129.703 10.687 129.953 10.8242 130.403 11.0402C129.971 11.5975 129.719 11.9223 129.423 12.3036C129.621 12.9328 129.709 13.9299 130.436 13.0189C130.676 12.7168 131.118 12.8599 131.463 12.9018C131.575 12.9153 131.776 13.2922 131.759 13.4407C131.709 13.8871 131.618 14.3692 131.459 14.7178C131.03 15.6585 130.557 16.5373 130.077 17.4891C129.923 17.2848 129.775 17.088 129.627 16.8912C129.574 16.9971 129.521 17.1029 129.468 17.2088C129.656 17.5044 129.843 17.7999 130.157 18.2957C130.159 18.3143 130.192 18.6687 130.262 19.4239C130.815 16.561 131.846 18.1983 132.668 18.0744C132.672 18.17 132.677 18.2656 132.681 18.3613C132.177 18.3613 131.672 18.3613 131.168 18.3613C131.166 18.5225 131.164 18.6838 131.162 18.8451C131.5 18.8784 131.84 18.9726 132.174 18.9303C132.655 18.8695 133.044 18.9386 133.256 19.8816C133.391 20.483 133.62 20.7558 134.091 20.6464C134.739 20.4956 135.421 20.6889 136.08 20.8528C136.239 20.8923 136.355 21.404 136.501 21.6813C136.638 21.9402 136.789 22.176 136.933 22.422C136.983 22.3303 137.033 22.2387 137.083 22.147C136.935 21.9081 136.788 21.6693 136.574 21.3228C137.281 20.2496 137.976 21.4971 138.615 20.9919C138.658 21.1032 138.702 21.2144 138.745 21.3257C138.368 22.3316 137.991 23.3375 137.558 24.4915C138.155 24.5448 138.775 24.6001 139.396 24.6555C139.427 24.7724 139.459 24.8892 139.49 25.006C139.333 25.1928 139.129 25.5983 139.027 25.5295C138.516 25.1828 138.192 25.3522 138.007 26.3009C137.971 26.485 137.816 26.5967 137.645 26.845C138.303 27.5996 138.32 28.6136 138.132 29.7673C138.093 30.0054 138.296 30.3665 138.405 30.7278C138.169 30.8856 137.923 31.0504 137.685 31.2098C137.205 30.2728 137.066 30.3043 136.641 31.3487C136.435 31.8536 136.236 32.2962 135.876 31.543C135.766 31.3143 135.434 31.3357 135.212 31.3736C134.521 31.491 133.836 31.6881 133.146 31.8035C133.072 31.8158 132.98 31.4953 132.908 31.3532C132.614 31.598 132.324 31.8391 131.935 32.1621C132.178 32.2688 132.361 32.3814 132.55 32.4253C132.943 32.5168 133.341 32.5435 133.731 32.6639C133.818 32.691 133.949 33.0184 133.933 33.1624C133.914 33.3231 133.747 33.5545 133.652 33.5442C132.963 33.4695 132.276 33.3325 131.588 33.2366C131.421 33.2133 131.248 33.2482 131.081 33.2922C130.143 33.539 129.202 34.0067 128.449 33.2959C127.896 33.5086 127.481 33.8265 127.078 33.7862C126.441 33.7224 125.763 34.0963 125.153 33.3377C125.078 33.2449 124.729 33.8396 124.452 34.1855C123.826 34.0058 123.073 33.7438 122.312 33.5917C121.963 33.5219 121.572 33.5545 121.601 34.5512C121.607 34.7431 121.369 34.9577 121.192 35.0583C121.224 33.5082 121.224 33.5082 120.3 33.9964C120.279 34.2862 120.306 34.7281 120.23 34.7925C120.004 34.985 119.736 35.1189 119.487 35.1085C119.203 35.0967 118.922 34.9045 118.625 34.7851C118.665 34.1229 118.038 33.3711 117.556 33.5566C116.96 33.786 116.354 33.9332 115.647 34.0977C115.43 34.1353 115.319 34.1911 115.208 34.247C114.553 34.247 113.898 34.247 113.243 34.247C113.238 34.343 113.233 34.439 113.228 34.535C113.587 34.5818 113.946 34.6287 114.345 34.6808C114.442 35.2444 114.433 35.6365 113.964 35.7003C113.304 35.7902 112.65 36.0808 111.99 36.1184C111.247 36.1608 110.5 36.0079 109.754 35.9601C109.471 35.9419 109.101 35.7797 108.917 36.0252C107.913 37.3614 106.711 35.9788 105.68 36.8392C105.565 36.9345 105.335 36.5959 105.178 36.7038C104.892 36.8094 104.606 36.9123 104.321 37.0216C104.079 37.1143 103.838 37.2144 103.596 37.3113C103.668 37.662 103.741 38.0126 103.829 38.4441C103.025 38.4441 102.221 38.4441 101.418 38.4441C101.381 38.2898 101.343 38.1356 101.306 37.9813C101.478 37.8863 101.651 37.7913 101.78 37.7206C101.68 37.4083 101.657 37.2811 101.638 37.2832C101.207 37.3299 100.771 37.3263 100.35 37.4672C99.9393 37.6046 99.5424 38.1693 99.1768 37.2709C99.1152 37.1195 98.8289 37.0522 98.7405 37.1687C98.1683 37.9233 97.5608 37.2871 96.9777 37.3906C96.7067 37.4387 96.4438 37.6279 96.1232 37.7785C96.2598 38.2852 96.3558 38.6413 96.4286 38.9117C96.1643 38.9871 95.935 39.0525 95.6596 39.1311C95.701 38.6708 95.7483 38.1456 95.8203 37.3464C95.5312 38.0908 95.3379 38.5887 95.217 38.8999C95.0569 38.4302 94.9301 37.789 94.8283 37.8012C93.9372 37.908 93.0497 38.1194 92.1638 38.3349C92.0474 38.3633 91.9463 38.5897 91.8151 38.7531C91.7224 38.4732 91.6352 38.2096 91.5237 37.8725C91.402 38.035 91.298 38.174 91.1716 38.3428C90.7435 37.1418 91.3967 37.1863 91.6626 36.8126C91.642 36.7123 91.6213 36.6121 91.6007 36.5118C91.3309 36.7087 91.061 36.9056 90.7436 37.0032C90.696 36.528 90.696 36.152 90.696 35.8277C91.0465 35.7127 91.3314 35.6191 91.6164 35.5256C91.6024 35.3676 91.5885 35.2096 91.5745 35.0516C91.3191 35.0516 91.0628 35.0756 90.8083 35.0467C90.2586 34.9843 90.168 35.7753 90.0815 36.4042C90.059 36.5678 90.4567 36.9117 90.6615 37.1728C90.7288 38.4226 90.7081 38.4095 90.0267 38.0931C89.7168 37.9492 89.3673 38.0394 89.0372 38.0705C88.4787 38.1232 87.9217 38.2278 87.3631 38.2797C87.1711 38.2975 86.9753 38.1828 86.7832 38.1993C86.463 38.2268 86.1135 38.1864 85.8332 38.4036C85.4889 38.6704 85.2029 39.1724 84.952 39.4951C84.5681 39.05 84.2705 38.6791 83.9572 38.3557C83.8479 38.2428 83.625 38.1282 83.5809 38.2151C82.9262 39.5069 81.8162 37.9715 81.1617 39.5102C80.8426 40.2603 80.3878 39.9598 80.0784 38.7002C80.0075 39.5017 79.9702 39.923 79.9277 40.4036C79.0496 40.4553 78.6434 38.2395 77.6185 38.9087C77.6416 39.1642 77.6641 39.4136 77.6726 39.508C77.2043 39.6585 76.7508 39.8043 76.2329 39.9708C76.2696 39.7337 76.3296 39.346 76.3942 38.9288C75.6025 38.1749 75.2689 39.4092 74.9384 40.034C74.4091 39.9131 73.9801 39.8151 73.4507 39.6943C73.4625 39.7156 73.3542 39.5191 73.2458 39.3225C73.1743 39.6025 73.0588 39.874 73.0407 40.1644C73.0074 40.7001 73.0312 41.2469 73.0312 41.7891C72.9369 41.8006 72.8427 41.8121 72.7484 41.8235C72.6894 41.2848 72.6652 40.7228 72.5572 40.2167C72.4991 39.9445 72.3131 39.6364 72.1567 39.5775C71.8809 39.4738 71.5836 39.5485 71.3392 39.6389C71.1088 39.7516 70.8735 39.9824 70.6491 39.9529C70.1632 39.8892 69.6847 39.6337 69.1993 39.5889C69.0699 39.5769 68.9264 40.0432 68.7792 40.3083C68.7257 40.1239 68.6403 39.8289 68.5485 39.5124C68.2925 39.5539 68.0587 39.5919 67.7392 39.6437C67.9213 40.0098 68.0589 40.2861 68.1962 40.562C67.4461 41.8107 66.9477 41.7304 66.3616 40.3535C66.2695 40.1373 66.0474 39.9233 65.9114 39.9661C65.3889 40.1306 65.3454 39.6709 65.3444 38.7037C65.1018 38.9322 64.8593 39.1606 64.6167 39.3891C64.6198 39.5545 64.6228 39.7199 64.6258 39.8853C64.3847 39.5636 64.1435 39.2419 63.7587 38.7286C63.7011 39.2718 63.6132 39.7019 63.6191 40.128C63.6313 41.0198 63.5471 41.5664 62.9125 41.4136C62.5623 41.3292 62.1872 41.5663 61.8029 41.6637C61.8029 41.3462 61.8029 41.1386 61.8029 40.9878C61.5837 41.0878 61.3826 41.2282 61.1765 41.2573C61.0249 41.2786 60.8666 41.1542 60.7113 41.0948C60.7225 40.9432 60.7337 40.7917 60.7448 40.6401C60.3377 40.7167 59.7834 41.1286 59.55 40.8091C58.7522 39.7165 58.203 41.1571 57.5358 41.1809C57.3626 41.1871 57.185 41.4108 57.0197 41.3772C56.7198 41.3162 56.4276 41.1372 56.041 40.9674C55.3671 41.8617 54.8886 41.903 54.6015 40.812C54.4347 41.1872 54.2917 41.5087 54.223 41.6633C53.9735 41.564 53.7808 41.409 53.5932 41.4262C52.8282 41.4961 52.0646 41.6188 51.2663 41.7267C51.0709 42.5795 50.8499 43.0168 50.3874 41.9306C50.2644 41.6416 49.8139 41.7875 49.4771 41.7272C49.4771 42.072 49.4771 42.3607 49.4771 43.0188C48.9267 42.5229 48.4886 42.1284 48.0324 41.7174C48.0256 41.7989 48.0092 41.9949 48.0102 41.9834C47.575 42.0826 47.1717 42.1747 46.6565 42.2922C46.674 42.3389 46.5977 42.136 46.5323 41.962C46.1319 42.3401 45.7548 42.696 45.3521 43.0762C45.4252 42.3309 45.4911 41.6594 45.5768 40.7852C44.8969 41.0758 45.3533 42.8601 44.5044 42.6207C44.0566 42.4944 43.566 42.8418 43.0525 42.9872C43.0742 43.0583 43.1616 43.3434 43.2733 43.7083C42.9618 43.7509 42.6866 43.7886 42.4566 43.8201C42.4818 43.3244 42.5033 42.9027 42.5179 42.6159C40.2331 42.7168 38.0926 43.5614 35.9479 42.6346C36.1665 42.4219 36.3668 42.3048 36.6699 42.1277C36.2116 41.6263 35.8733 41.2071 35.4558 41.8285C35.4043 41.8422 35.3529 41.8558 35.2175 41.8695C34.9629 41.8982 34.7923 41.9268 34.6216 41.9555C34.6309 42.0751 34.6401 42.1947 34.6493 42.3143C34.8001 42.3143 34.9508 42.3143 35.1015 42.3143C35.2252 42.5112 35.3489 42.7081 35.4725 42.9049C35.2806 43.1073 35.1005 43.4206 34.8944 43.4889C34.4706 43.6293 34.0328 43.6387 33.4521 43.7239C33.0302 43.1353 32.1684 43.0991 31.4701 43.912C31.2256 43.0492 30.895 43.0114 30.4381 43.5319C29.926 44.1154 29.3432 44.3186 28.7304 43.9698C28.6122 43.9025 28.4713 43.8935 28.3479 43.9308C27.5509 44.1714 26.7608 44.52 25.9588 44.6592C25.3023 44.7732 24.6324 44.6351 23.9684 44.6301C23.711 44.6281 23.4536 44.6858 23.1961 44.7145C22.7389 44.7655 22.2817 44.8151 21.8245 44.8652C21.7584 44.7099 21.6923 44.5546 21.6262 44.3993C21.4158 45.3575 21.2055 46.3156 20.9766 47.3581C20.8679 47.1252 20.7352 46.8408 20.5369 46.4156C20.3749 46.8648 20.2346 47.2535 20.0762 47.6927C19.77 47.3666 19.5659 47.1492 19.3268 46.8278C19.2946 46.6542 19.2976 46.5848 19.3008 46.5154C19.3708 46.2504 19.4409 45.9855 19.524 45.5943C19.5371 45.4682 19.5752 45.388 19.5752 45.388C19.9759 46.1051 20.5209 46.1029 20.761 45.2818C19.7958 44.7498 18.8621 44.3381 17.8807 45.4473C17.8203 45.4391 17.7971 45.395 17.7971 45.395ZM61.4321 35.7699C61.624 35.9966 61.8159 36.2232 62.0232 36.4681C62.2025 36.1807 62.3707 35.9112 62.6028 35.5392C62.2886 35.4168 62.0605 35.3279 61.829 35.2378C61.8169 34.9146 61.806 34.6219 61.7951 34.3292C61.7538 34.3163 61.7125 34.3035 61.6713 34.2906C61.5636 34.7153 61.456 35.14 61.2387 35.5686C60.8773 35.712 60.516 35.8562 60.1545 35.9985C60.0708 36.0314 59.9864 36.058 59.9023 36.0875C59.9386 36.2094 59.9581 36.3694 60.0141 36.4471C60.3152 36.8647 61.1884 36.3677 61.4321 35.7699ZM35.2103 36.2729C35.2247 36.0034 35.2391 35.734 35.2538 35.4601C35.3912 35.5592 35.5213 35.653 35.6812 35.7683C35.6345 35.3323 35.5981 34.9919 35.5602 34.6378C35.3239 34.6605 35.0832 34.6836 34.8473 34.7062C34.8351 36.1065 34.8351 36.1065 35.1746 36.6145C34.542 36.5441 33.9095 36.4702 33.2766 36.4066C33.1544 36.3943 32.9806 36.3325 32.9158 36.4457C32.3463 37.4418 31.6576 37.2347 30.959 37.1902C30.4616 37.1585 29.8517 36.8348 29.5869 38.0938C29.5513 38.2629 29.3347 38.315 29.3347 38.315C29.0316 38.0015 28.8275 37.7904 28.6233 37.5792C28.5823 37.6938 28.5414 37.8084 28.5004 37.923C28.667 38.6314 28.6327 39.6172 29.4082 39.3118C29.9811 39.0861 30.6063 38.9029 31.1702 39.0796C31.7799 39.2707 32.2563 39.3436 32.544 38.3425C32.9668 38.6243 33.3314 38.9802 33.7185 39.0911C34.0593 39.1889 34.4253 39.0127 34.7702 38.9591C34.5439 38.4231 34.4071 38.0994 34.2634 37.7589C34.9343 37.9339 35.4913 38.0792 36.0797 38.2327C35.9171 38.415 35.7795 38.5693 35.6297 38.7372C36.1954 39.4191 36.8774 39.1992 37.3066 38.4492C38.0549 38.6979 38.6906 38.9093 39.3264 39.1206C39.3593 38.9905 39.3922 38.8604 39.4251 38.7302C39.2731 38.4181 39.1212 38.106 38.9692 37.7939C39.1901 37.6768 39.4624 37.6855 39.4996 37.8551C39.7976 39.2133 39.9403 38.2069 40.0449 37.9416C40.458 37.9785 40.7996 37.9711 41.1346 38.0508C41.4045 38.1151 41.6671 38.2797 41.9314 38.4095C42.0818 38.4834 42.2291 38.5768 42.3778 38.6614C42.3677 38.3805 42.3604 38.0991 42.3466 37.8188C42.3379 37.6417 42.3197 37.4661 42.3156 37.4145C43.2417 37.8069 44.1463 38.1902 45.0173 38.5593C44.9661 38.0142 44.9206 37.5294 44.8908 37.2119C45.2427 37.4785 45.4813 37.7594 45.7385 37.8306C46.122 37.9367 46.3022 38.1712 46.248 38.5089C45.7237 38.6795 45.3255 38.8091 44.9273 38.9388C44.9437 39.1461 44.9602 39.3535 44.9766 39.5608C45.9347 39.3931 46.8928 39.2254 47.9651 39.0377C47.4417 38.64 47.071 38.3583 46.7002 38.0766C46.7225 37.9577 46.7448 37.8388 46.7671 37.7199C47.7085 37.7314 48.8035 38.4288 49.1907 36.3044C48.8131 36.0133 48.4864 35.607 48.1365 35.5299C47.6717 35.4276 47.1996 35.5429 46.7149 35.6905C45.4882 36.064 44.2334 35.6087 42.9688 35.8341C42.1681 35.9768 41.6159 36.1168 41.3304 37.1985C41.1408 36.9187 40.9834 36.5021 40.7852 36.4286C40.2137 36.2168 39.5995 35.7227 39.0955 36.7984C39.0453 36.9055 38.8135 36.7749 38.6718 36.713C38.5035 36.6394 38.342 36.4385 38.1766 36.4352C37.1931 36.4153 36.2092 36.4366 35.2103 36.2729ZM102.774 36.1019C102.804 35.957 102.84 35.815 102.863 35.6669C103.089 34.2327 103.059 34.1394 102.22 34.1179C101.433 34.0977 100.642 34.0667 99.8584 34.1644C99.553 34.2024 99.2612 34.5793 98.9632 34.8019C98.9756 34.9346 98.9879 35.0673 99.0002 35.2C99.5237 35.2 100.062 35.3376 100.567 35.1637C101.142 34.9652 101.657 34.6416 102.105 35.6536C102.226 35.9266 102.486 36.0075 102.774 36.1019ZM70.7785 35.4589C71.6395 35.5257 72.5005 35.5926 73.3615 35.6595C73.3701 35.4591 73.3788 35.2588 73.3874 35.0584C72.5298 34.1739 71.4357 36.0904 70.7028 34.6182C70.1239 34.9405 69.615 35.224 69.1061 35.5074C69.1222 35.6159 69.1383 35.7243 69.1544 35.8328C69.3077 35.8158 69.461 35.7987 69.8339 35.7572C69.6278 36.7577 69.4726 37.5114 69.2843 38.4256C69.6674 37.7869 69.9514 37.3136 70.2353 36.8402C70.1624 36.4973 70.1834 36.1543 70.2829 35.9121C70.3665 35.7087 70.5417 35.6228 70.7785 35.4589ZM12.6693 43.5039C13.8612 43.6862 15.0459 43.8138 16.215 43.1278C16.5954 42.9047 17.0929 43.0708 17.012 42.0052C15.8682 42.3228 14.7263 42.6399 13.5843 42.957C13.2639 42.8618 12.8978 41.9688 12.6693 43.5039ZM107.289 33.6405C107.023 34.1343 106.757 34.6282 106.491 35.1221C106.531 35.2569 106.571 35.3917 106.611 35.5266C107.805 35.2067 108.999 34.8868 110.277 34.5445C110.326 34.3997 110.421 34.1188 110.567 33.6854C109.909 33.8834 109.364 34.047 108.631 34.2674C108.489 34.2851 108.138 34.2246 107.828 34.3936C107.424 34.6134 107.298 34.4497 107.289 33.6405ZM51.5999 35.7528C51.2519 35.8758 50.8932 35.9433 50.5595 36.1417C50.3409 36.2718 50.1583 36.5913 49.8225 36.9878C49.8762 36.2894 49.8946 36.049 49.9131 35.8086C49.8659 35.7659 49.8186 35.7232 49.7714 35.6804C49.6424 36.003 49.5134 36.3256 49.2605 36.9583C49.8322 37.088 50.4459 37.4867 50.571 37.2059C50.9127 36.4393 51.2947 36.8735 51.6443 36.7402C51.8675 36.6551 52.0974 36.6251 52.364 36.5609C52.3591 36.6629 52.349 36.872 52.3336 37.1883C52.6294 36.9557 52.8585 36.7754 53.1028 36.5833C52.6375 36.2058 52.3367 35.1352 51.5999 35.7528ZM57.6318 35.7352C57.3002 35.4611 56.9686 35.1871 56.637 34.9131C56.6109 34.9889 56.5849 35.0648 56.5588 35.1406C56.6665 35.3736 56.7742 35.6066 56.8634 35.7997C56.7254 36.083 56.5981 36.3443 56.4708 36.6056C56.5151 36.7466 56.5594 36.8877 56.6036 37.0287C56.8891 36.8171 57.1726 36.5967 57.4609 36.3978C57.5898 36.3088 57.7316 36.1935 57.8618 36.2124C58.1201 36.25 58.3746 36.4411 58.6303 36.4389C58.8451 36.4371 59.2186 36.3141 59.2414 36.1339C59.2926 35.7299 59.2401 35.1499 59.0936 34.8475C58.9867 34.627 58.6624 34.7352 58.435 34.6968C58.4284 34.7941 58.4218 34.8913 58.4153 34.9885C58.5227 35.1117 58.6302 35.2348 58.7377 35.358C58.7203 35.4484 58.7029 35.5389 58.6855 35.6293C58.4571 35.5434 58.2304 35.425 57.9994 35.3873C57.9045 35.3718 57.8005 35.5298 57.6318 35.7352ZM105.236 33.884C105.022 33.929 104.808 34.0025 104.594 34.0129C104.169 34.0333 103.744 34.0189 103.319 34.0189C103.313 34.1578 103.306 34.2967 103.3 34.4356C103.906 34.7799 104.278 36.0831 105.146 35.6814C104.992 35.4382 104.89 35.2774 104.776 35.0988C105.523 34.5065 105.523 34.5065 105.236 33.884ZM54.8017 37.7579C54.7849 38.0036 54.7682 38.2493 54.7515 38.495C54.8791 38.328 55.0383 38.2021 55.128 37.986C55.3489 37.454 55.5379 36.8805 55.7933 36.1759C55.7041 35.921 55.7003 35.8925 54.3274 36.4719C54.0811 36.5758 53.8814 37.0239 53.6602 37.313C53.7052 37.4023 53.7503 37.4915 53.7953 37.5808C53.9953 37.4235 54.1929 37.1576 54.3959 37.1443C54.5504 37.1342 54.7116 37.445 54.8017 37.7579ZM112.375 34.9751C112.492 34.9751 112.609 34.9751 112.753 34.9751C112.225 32.9496 112.225 32.9496 111.402 34.3521C111.243 34.1179 111.082 33.8815 110.869 33.5675C110.869 34.1054 110.869 34.5034 110.869 34.9499C111.337 34.9499 111.797 34.9499 112.375 34.9751ZM8.51939 44.6816C8.90818 44.3726 9.29696 44.0635 9.68575 43.7545C9.65993 43.637 9.63411 43.5195 9.60829 43.402C9.17251 43.537 8.73426 43.6517 8.30215 43.8166C8.12596 43.8839 7.92716 43.9989 7.80984 44.2136C7.75389 44.316 7.84803 44.9081 7.90247 44.9215C8.07272 44.9637 8.25644 44.8359 8.51939 44.6816ZM43.3773 41.1974C43.5199 41.0374 43.6624 40.8774 43.8767 40.6368C43.8864 40.6432 44.0258 40.7343 44.1651 40.8254C43.9239 39.7779 43.5108 39.301 42.8484 39.3762C43.011 40.0086 43.1539 40.5649 43.3773 41.1974ZM84.565 36.007C84.6688 36.1436 84.7725 36.2802 84.8763 36.4168C85.2286 35.4925 85.8176 36.017 86.2707 35.7077C86.3699 35.64 86.4749 35.5987 86.5772 35.5453C85.8516 35.3332 85.2708 35.3072 84.6916 35.3501C84.5311 35.362 84.1409 35.3282 84.565 36.007ZM94.6206 35.0329C94.8587 35.3425 95.0968 35.6521 95.3222 35.9452C95.571 35.5413 95.7987 35.1717 96.0706 34.7303C95.5271 34.6153 95.0848 34.5194 94.6413 34.4467C94.6335 34.4454 94.611 34.7226 94.6206 35.0329ZM71.7461 37.3465C72.0122 37.5405 72.2783 37.7344 72.5075 37.9014C72.6378 37.3159 72.7562 36.7833 72.8747 36.2508C72.8188 36.1847 72.7629 36.1185 72.707 36.0524C72.4701 36.7878 71.7141 35.8938 71.7461 37.3465ZM130.008 31.8407C130.166 32.2251 130.324 32.6095 130.553 33.1664C130.685 32.9417 130.85 32.663 131.014 32.3844C130.816 32.093 130.632 31.7608 130.413 31.5325C130.337 31.4536 130.175 31.6328 130.008 31.8407ZM64.177 37.5121C64.5315 37.5763 64.9377 38.5406 65.3115 37.1334C64.8679 37.033 64.501 36.9499 64.1342 36.8668C64.1296 37.0375 64.125 37.2082 64.177 37.5121ZM27.0265 41.6898C26.9642 41.7858 26.9019 41.8818 26.7713 42.0829C27.2119 42.0829 27.5611 42.0829 27.8737 42.0829C27.6817 41.5107 27.507 40.9906 27.3324 40.4705C27.2726 40.5669 27.2128 40.6634 27.153 40.7598C27.1378 41.0439 27.1225 41.3279 27.0265 41.6898ZM103.181 37.0533C102.881 37.0678 102.578 37.0462 102.283 37.1224C102.21 37.1413 102.088 37.5665 102.119 37.6488C102.194 37.8447 102.392 38.1151 102.461 38.0579C102.738 37.8277 102.985 37.4845 103.181 37.0533ZM11.4553 20.7845C11.6545 20.7638 11.8536 20.743 12.2243 20.7043C11.8014 20.0892 11.575 19.7599 11.3283 19.4011C10.9678 19.8769 11.0916 20.2809 11.4553 20.7845ZM130.945 19.4259C130.688 19.7149 130.431 20.0039 130.174 20.2929C130.208 20.4013 130.241 20.5096 130.275 20.618C130.591 20.5705 130.908 20.523 131.341 20.458C131.212 20.0154 131.13 19.733 130.945 19.4259ZM16.5854 10.983C16.5194 11.4623 16.4396 11.9381 16.4004 12.4242C16.3936 12.5088 16.5512 12.6861 16.6457 12.7262C16.7052 12.7515 16.855 12.5857 16.851 12.5322C16.8113 12.0032 16.7478 11.4797 16.5854 10.983ZM133.881 27.6889C134.174 27.7611 134.416 29.1704 134.785 27.7606C134.581 27.5339 134.392 27.2784 134.182 27.101C133.885 26.8509 133.844 26.9265 133.881 27.6889ZM96.5877 34.7162C96.6914 35.6854 96.881 35.8427 97.5854 35.1561C97.1536 34.8847 96.8753 34.7097 96.5877 34.7162ZM24.906 33.1459C24.7337 33.2009 24.5615 33.2558 24.3845 33.3124C24.3845 33.5024 24.3845 33.7284 24.3845 33.9146C24.6993 34.0868 24.9908 34.2461 25.3698 34.4534C25.2256 33.9549 25.1112 33.5596 24.906 33.1459Z" fill="#FFE3C2"/>
<path d="M21.9687 47.8026C21.7893 47.4503 21.6098 47.0979 21.4087 46.703C21.5458 46.6556 21.6849 46.6075 21.787 46.5723C21.761 46.3213 21.6682 45.9944 21.7251 45.8443C21.8151 45.6064 22.0007 45.3561 22.1539 45.3394C22.8371 45.265 23.5236 45.2412 24.2077 45.2742C24.3466 45.2809 24.4805 45.612 24.5617 45.7201C26.3348 44.4148 28.1612 45.6272 29.9359 45.0785C29.9334 45.0183 29.9237 44.7843 29.9053 44.3411C30.581 45.2719 31.2004 45.6381 31.8693 44.5655C31.89 44.4617 31.9153 44.4173 31.9153 44.4173C31.9833 44.7107 32.0512 45.0041 32.1026 45.2257C32.3162 45.3518 32.5513 45.4906 32.7004 45.5786C32.9501 45.4512 33.2477 45.1261 33.3811 45.2714C33.5867 45.4953 33.6797 46.0416 33.9068 46.7026C33.9844 46.2453 34.056 45.8233 34.1512 45.2624C34.821 44.675 35.0997 45.7944 35.4797 46.6149C35.4514 46.701 35.4229 46.8767 35.3878 46.881C34.3665 47.0053 33.3446 47.1143 32.3226 47.2218C31.6846 47.289 31.0465 47.395 30.4083 47.4006C29.7553 47.4063 29.1023 47.2965 28.4488 47.2663C28.1848 47.2542 27.9197 47.3192 27.6551 47.3492C27.7384 47.7965 27.8 48.2618 27.9129 48.6844C27.982 48.9428 28.1298 49.1354 28.3424 49.5554C27.6833 49.3862 27.1312 49.2444 26.5546 48.9783C26.5301 48.8539 26.5279 48.7744 26.5279 48.7744C26.638 48.3931 26.9279 47.9349 26.5494 47.6387C26.3057 47.448 26.1084 46.7133 25.7068 47.294C25.5745 47.4854 25.269 47.2915 25.0428 47.2949C24.6189 47.3014 24.1737 47.1867 23.7779 47.3809C23.4474 47.5429 23.1406 48.0143 22.8896 48.464C22.7355 48.7399 22.7062 49.233 22.5943 49.7515C22.3953 49.1309 22.2341 48.6282 22.0224 48.0446C21.9709 47.91 21.9698 47.8563 21.9687 47.8026Z" fill="#FFE3C2"/>
<path d="M20.2953 39.0277C20.4383 39.5305 20.5814 40.0333 20.7271 40.5457C20.701 40.5398 20.5138 40.6005 20.435 40.4648C19.7146 39.2236 18.9196 39.7688 18.1254 40.0926C17.9833 40.1505 17.8238 40.0612 17.6731 40.0722C17.3375 40.0965 16.859 39.3114 16.7107 40.6105C16.7008 40.6978 16.1302 41.6747 15.7212 40.7586C15.6359 40.5677 15.3496 40.657 15.0744 40.5646C14.9334 40.5178 14.874 40.5235 14.8146 40.5292C14.8711 40.5962 14.9277 40.6631 14.9842 40.7301C14.9446 40.9341 14.8936 41.3204 14.8671 41.3152C14.303 41.2051 13.7416 41.0511 13.1797 40.9056C13.1618 40.7748 13.1439 40.6439 13.1261 40.513C13.0555 40.8879 12.9849 41.2629 12.8918 41.7574C12.1929 41.7711 11.6816 40.1728 10.7018 40.9618C11.1277 41.3599 11.427 41.6396 11.7263 41.9193C11.7282 42.0038 11.7302 42.0882 11.7321 42.1726C11.1013 42.2169 10.4623 42.391 9.84215 42.2677C9.26248 42.1524 8.7107 41.6299 8.13055 41.4761C7.90879 41.4173 7.64235 41.8844 7.3684 42.1376C7.28508 41.9014 7.16185 41.5521 6.99266 41.1776C6.90958 41.0581 6.87247 40.9637 6.83252 40.809C7.01601 40.5639 7.19439 40.3436 7.39131 40.2063C7.53234 40.1081 7.71211 40.0324 7.85053 40.1001C8.37793 40.3581 8.84767 40.2886 9.24152 39.5511C9.27159 39.4948 9.29944 39.3848 9.32869 39.3844C10.0268 39.3749 10.725 39.377 11.4695 39.377C11.4495 39.08 11.4259 38.7277 11.3988 38.3244C11.7872 38.2662 12.145 38.2126 12.5741 38.1483C12.514 38.3793 12.4383 38.5529 12.4284 38.7375C12.4158 38.9738 12.4158 39.3725 12.4825 39.4273C12.6094 39.5315 12.858 39.5562 12.9327 39.413C13.4358 38.4493 13.8696 38.8302 14.1122 39.2568C16.0987 38.992 17.9067 38.751 19.8181 38.4962C19.839 38.5291 20.0001 38.7818 20.2205 39.0403C20.2798 39.046 20.2953 39.0277 20.2953 39.0277Z" fill="white"/>
<path d="M66.2078 43.5843C66.318 43.9548 66.374 44.3155 66.4122 44.5616C66.8346 44.1602 67.2736 43.7308 67.72 43.3267C67.8426 43.2158 67.9887 43.1251 68.1209 43.1368C68.1801 43.142 68.2986 43.4958 68.2744 43.5648C68.1863 43.8161 67.9938 44.2399 67.9391 44.198C67.1382 43.5842 67.1949 45.5601 66.6096 45.539C66.6096 45.8709 66.6096 46.2027 66.6096 46.5345C66.5522 46.5857 66.4948 46.6369 66.4374 46.6881C66.3111 46.2968 66.1848 45.9055 66.0317 45.4312C64.6836 46.3786 63.5571 44.3369 62.2151 44.4928C62.2175 44.3553 62.22 44.2179 62.2224 44.0804C63.5328 43.9117 64.8432 43.7431 66.2078 43.5843Z" fill="#FFE3C2"/>
<path d="M36.0274 46.204C36.2726 45.5867 36.4898 45.2265 36.9617 45.5066C37.2135 45.6561 37.5436 45.3942 37.9637 45.2855C37.583 46.2643 37.2968 47.0003 36.9026 48.0139C36.8727 47.3764 36.8566 47.0341 36.8406 46.6918C36.7964 46.662 36.7523 46.6323 36.7082 46.6025C36.6449 46.9484 36.5816 47.2943 36.4987 47.7474C36.29 47.4439 36.0392 47.0958 35.8087 46.7099C35.7916 46.6813 35.9204 46.3808 36.0274 46.204Z" fill="#FFE3C2"/>
<path d="M32.4214 49.6836C32.2172 49.252 32.0368 48.8981 31.846 48.5239C31.0785 50.1769 31.0394 50.1956 30.7354 49.1808C32.0172 47.6882 33.6039 47.5312 33.7953 48.7627C33.4305 48.7159 33.0414 48.6659 32.5975 48.6088C32.8595 49.7757 32.8595 49.7757 32.4214 49.6836Z" fill="#FFE3C2"/>
<path d="M109.535 41.4351C109.731 41.8413 109.903 42.1754 110.188 42.7331C109.238 42.9318 108.444 43.0976 107.536 43.2874C107.636 42.9467 107.696 42.4118 107.832 42.3415C108.24 42.1316 108.678 42.1038 108.991 42.0311C109.186 41.7798 109.348 41.5714 109.535 41.4351Z" fill="#FFE3C2"/>
<path d="M4.28134 45.4348C4.27995 45.8951 4.27995 46.3604 4.27995 46.8166C3.43264 47.6373 3.36143 47.5692 2.78662 45.2958C3.04094 45.2958 3.25133 45.2958 3.46172 45.2958C3.46183 45.3896 3.46193 45.4835 3.46204 45.5773C3.71113 45.5143 3.96022 45.4512 4.24849 45.4174C4.28767 45.4467 4.28273 45.4398 4.28134 45.4348Z" fill="#FFE3C2"/>
<path d="M10.426 36.1174C10.4114 36.2057 10.3709 36.2029 10.3508 36.1988C9.92311 35.8263 9.51553 35.4579 9.10254 35.0846C9.37035 34.409 10.9294 34.5208 11.4348 35.1992C11.1034 35.476 10.772 35.7526 10.426 36.1174Z" fill="#FFE3C2"/>
<path d="M41.8409 45.1327C41.7964 45.3124 41.7112 45.4536 41.6396 45.5725C42.4171 47.1993 40.8763 46.5111 41.1657 47.6372C41.0595 47.578 40.9534 47.5188 40.8472 47.4596C40.9062 46.6993 40.9653 45.939 41.0397 44.9816C41.2686 45.0155 41.5344 45.0549 41.8409 45.1327Z" fill="#FFE3C2"/>
<path d="M69.8953 44.0804C70.3487 44.0799 70.7564 44.1131 71.2303 44.1517C71.2303 43.763 71.2303 43.3322 71.2303 42.694C71.6914 43.2277 71.7807 44.0107 71.6017 44.5202C71.4802 44.8662 70.9922 44.9514 70.6788 44.9088C70.3256 44.8609 69.9844 44.5388 69.6199 44.3252C69.6975 44.2539 69.7736 44.184 69.8953 44.0804Z" fill="#FFE3C2"/>
<path d="M21.9124 47.8064C21.9696 47.8562 21.9707 47.9099 21.9737 48.0447C21.7102 48.3925 21.4449 48.6591 21.0979 49.0079C21.0672 48.9671 20.9142 48.7638 20.7206 48.5066C20.2508 49.254 19.8564 48.8449 19.3848 48.2147C20.2785 48.0684 21.0673 47.9394 21.9124 47.8064Z" fill="#FFE3C2"/>
<path d="M115.205 34.3394C115.319 34.1912 115.43 34.1353 115.588 34.092C115.869 34.3658 116.105 34.6269 116.34 34.8881C116.357 34.9907 116.374 35.0934 116.391 35.196C115.888 35.3687 115.386 35.5477 114.88 35.6809C114.866 35.6846 114.738 35.1291 114.791 34.9566C114.864 34.7203 115.059 34.6011 115.205 34.3394Z" fill="#FFE3C2"/>
<path d="M39.6435 48.7478C39.1983 48.9913 38.7478 49.1438 38.2974 49.2964C38.309 49.3843 38.3206 49.4723 38.3322 49.5603C38.0908 49.4059 37.8493 49.2516 37.5474 49.0585C37.5829 48.7664 37.6215 48.4484 37.6772 47.9893C38.0499 48.5282 38.4263 49.2697 38.6337 47.8293C38.9798 48.1144 39.3091 48.3856 39.6435 48.7478Z" fill="#FFE3C2"/>
<path d="M53.8433 47.02C53.6353 46.8053 53.443 46.5062 53.2507 46.2071C53.2752 46.0839 53.2997 45.9607 53.3241 45.8374C53.6532 45.7839 53.9822 45.7305 54.3482 45.671C54.3989 45.5047 54.4834 45.228 54.5678 44.9513C54.632 44.9511 54.6962 44.9509 54.7604 44.9507C54.793 45.3533 54.9279 45.8856 54.831 46.1238C54.7233 46.3887 54.3981 46.3576 54.1799 46.5101C54.0599 46.5939 53.9651 46.7901 53.8433 47.02Z" fill="#FFE3C2"/>
<path d="M132.482 15.1703C131.779 14.1442 131.791 13.7359 132.597 12.7458C132.49 13.2872 132.413 13.6725 132.305 14.2181C132.736 14.2181 133.096 14.2181 133.456 14.2181C133.075 14.3826 133.08 15.7354 132.482 15.1703Z" fill="#FFE3C2"/>
<path d="M42.0852 46.1718C42.3539 45.7311 42.5925 44.9268 42.9572 45.9317C42.9968 46.0409 43.225 45.9783 43.3587 45.9322C43.9725 45.7208 44.1177 46.0182 43.978 46.9626C43.3378 46.7246 42.7129 46.4922 42.0852 46.1718Z" fill="#FFE3C2"/>
<path d="M77.4254 43.7463C77.1115 44.4712 76.5491 44.4723 75.9702 43.6244C76.3969 43.6655 76.6704 43.6919 76.9894 43.7227C77.0206 43.3519 77.0524 42.9744 77.0909 42.5166C77.2944 42.5166 77.5139 42.5166 77.7272 42.5166C77.6097 42.9598 77.5174 43.3077 77.4254 43.7463Z" fill="#FFE3C2"/>
<path d="M126.669 38.2843C126.267 38.2338 125.922 38.1856 125.576 38.1375C125.576 37.9818 125.576 37.826 125.577 37.6703C126.138 37.5783 126.7 37.4863 127.262 37.3943C127.292 37.5298 127.322 37.6654 127.352 37.8009C127.143 37.9628 126.934 38.1248 126.669 38.2843Z" fill="#FFE3C2"/>
<path d="M79.945 44.2251C79.0626 43.8369 79.4634 45.0767 79.3085 45.7082C79.1707 45.0682 78.9972 44.5266 78.961 43.9577C78.9476 43.7465 79.3256 43.2095 79.4043 43.2749C79.6327 43.4646 79.7998 43.8842 79.945 44.2251Z" fill="#FFE3C2"/>
<path d="M82.4204 43.5372C82.8053 42.9323 83.1927 42.4123 83.6046 41.8591C83.8627 42.3854 84.0059 42.6772 84.0458 42.7587C83.6217 43.0393 83.2001 43.3317 82.7721 43.5917C82.6662 43.656 82.5398 43.6147 82.4204 43.5372Z" fill="#FFE3C2"/>
<path d="M102.089 42.6751C102.404 42.3509 102.709 42.1083 103.113 41.7881C103.156 41.9943 103.287 42.3064 103.25 42.533C103.216 42.7425 103.005 42.8684 102.866 43.0165C102.697 43.1979 102.522 43.3639 102.296 43.5904C102.25 43.4127 102.165 43.0847 102.089 42.6751Z" fill="#FFE3C2"/>
<path d="M14.3316 34.6072C13.9625 34.4271 13.5933 34.2469 13.2242 34.0667C13.2183 33.9423 13.2124 33.8178 13.2065 33.6934C13.6278 33.5428 14.0491 33.3922 14.6248 33.1864C14.4774 33.8432 14.4088 34.1488 14.3348 34.5364C14.3295 34.6183 14.3316 34.6072 14.3316 34.6072Z" fill="#FFE3C2"/>
<path d="M34.6706 48.1017C34.9769 48.1295 35.2336 48.1295 35.6345 48.1295C35.6231 48.0222 35.6812 48.4362 35.6658 48.4449C35.2111 48.7019 34.7491 48.9187 34.2882 49.1418C34.2481 48.9987 34.208 48.8556 34.168 48.7124C34.319 48.4996 34.47 48.2867 34.6706 48.1017Z" fill="#FFE3C2"/>
<path d="M69.7183 46.4822C69.7213 46.157 69.6966 45.8956 69.6338 45.2303C70.0069 45.8295 70.2617 46.2101 70.4828 46.644C70.5022 46.6819 70.2507 47.2892 70.2101 47.2602C70.009 47.1168 69.5879 47.3759 69.7183 46.4822Z" fill="#FFE3C2"/>
<path d="M92.7603 0.886203C92.7705 1.34471 92.7514 1.72804 92.7322 2.11138C92.3822 1.42447 92.1385 0.780322 91.6364 1.58927C91.5991 1.64932 91.3976 1.39128 91.2725 1.28112C91.2773 1.1549 91.2822 1.02867 91.287 0.902447C91.7683 0.871977 92.2497 0.841507 92.7603 0.886203Z" fill="#FFE3C2"/>
<path d="M38.6715 46.8567C38.5161 45.7729 38.9291 45.3715 39.4013 45.2276C39.605 45.1655 39.8493 45.5184 40.0603 45.9248C39.3401 45.221 39.0303 46.0571 38.6715 46.8567Z" fill="#FFE3C2"/>
<path d="M93.5185 42.7934C93.8646 42.5423 94.1825 42.3615 94.5547 42.1497C93.9136 43.7678 93.2294 43.9675 92.8704 42.7367C93.077 42.7787 93.2836 42.8211 93.5185 42.7934Z" fill="#FFE3C2"/>
<path d="M60.7481 45.3018C60.3023 45.0083 59.8985 44.7187 59.4829 44.4205C59.956 43.5722 60.5489 44.0013 60.7481 45.3018Z" fill="#FFE3C2"/>
<path d="M45.3502 46.7503C45.1406 46.9511 44.9636 47.0852 44.7866 47.2193C44.7703 46.9575 44.6912 46.5309 44.7486 46.4626C44.9923 46.1729 45.2764 45.9896 45.5458 45.7675C45.5857 45.8973 45.6257 46.0271 45.6656 46.157C45.5714 46.3325 45.4771 46.508 45.3502 46.7503Z" fill="#FFE3C2"/>
<path d="M26.4834 48.7366C26.5281 48.7743 26.5303 48.8538 26.5307 48.8935C26.3633 49.0963 26.2042 49.3086 26.025 49.4081C25.8562 49.5018 25.6662 49.4766 25.376 49.5201C25.5527 48.917 26.2654 48.7525 25.586 48.1538C25.616 48.0659 25.646 47.9779 25.676 47.89C25.9302 48.1596 26.1844 48.4292 26.4834 48.7366Z" fill="#FFE3C2"/>
<path d="M29.738 49.9058C29.6559 50.0027 29.6004 50.0353 29.5449 50.0679C29.7373 49.5483 29.8944 48.9669 30.1369 48.5351C30.257 48.3211 30.5342 48.3824 30.7404 48.3191C30.7519 48.4174 30.7634 48.5157 30.7749 48.614C30.5866 48.7764 30.3983 48.9389 30.1815 49.1261C30.2374 49.3612 30.2915 49.5884 30.3677 49.9088C30.1316 49.8825 29.9481 49.862 29.738 49.9058Z" fill="#FFE3C2"/>
<path d="M19.2542 46.4745C19.2977 46.5849 19.2947 46.6543 19.2912 46.7763C19.0771 46.942 18.7715 47.2633 18.6701 47.1232C18.4815 46.8628 18.412 46.3334 18.2124 45.634C18.6808 46.0103 18.9442 46.2219 19.2542 46.4745Z" fill="#FFE3C2"/>
<path d="M14.3484 34.7024C14.3315 34.6072 14.3294 34.6183 14.3271 34.6227C14.6029 34.5239 14.8846 34.3176 15.1575 34.3491C15.3873 34.3755 15.6069 34.6784 15.8957 34.911C15.4747 35.0472 15.1999 35.2107 14.9277 35.1985C14.7384 35.19 14.5527 34.9399 14.3484 34.7024Z" fill="#FFE3C2"/>
<path d="M95.2888 43.3555C95.2902 42.2591 95.5322 42.019 96.3008 42.531C95.9047 42.8923 95.6102 43.1609 95.2888 43.3555Z" fill="#FFE3C2"/>
<path d="M9.08731 45.5016C9.21084 45.3439 9.31144 45.2659 9.45613 45.1879C9.60643 45.5211 9.71263 45.8545 9.84503 46.27C9.59312 46.351 9.33818 46.4329 9.08325 46.5149C9.07696 46.2037 9.07067 45.8925 9.08731 45.5016Z" fill="#FFE3C2"/>
<path d="M46.9331 46.0565C47.1825 45.9023 47.4506 45.7691 47.7137 45.795C47.7935 45.8029 47.8595 46.2501 47.9319 46.4962C47.7996 46.5421 47.6544 46.6719 47.5379 46.6156C47.3326 46.5165 47.1449 46.3037 46.9331 46.0565Z" fill="#FFE3C2"/>
<path d="M39.612 46.2723C39.8706 46.4854 40.0855 46.6695 40.3003 46.8536C40.2839 46.9453 40.2676 47.037 40.2512 47.1287C39.8806 47.0932 39.5101 47.0577 39.0769 47.0162C39.2505 46.7431 39.4094 46.4932 39.612 46.2723Z" fill="#FFE3C2"/>
<path d="M35.4932 41.8694C35.8735 41.2072 36.2119 41.6263 36.6701 42.1277C36.3671 42.3048 36.1667 42.4219 35.9159 42.5542C35.7537 42.3498 35.642 42.13 35.4932 41.8694Z" fill="white"/>
<path d="M30.4083 4.9884C30.5347 5.43119 30.6461 5.89542 30.7574 6.35966C30.8354 6.28204 30.9134 6.20442 30.9914 6.1268C30.7789 6.0847 30.5598 6.07957 30.3603 5.96641C30.3244 5.94604 30.3694 5.48076 30.3825 5.14933C30.388 5.07777 30.3931 5.00986 30.4083 4.9884Z" fill="#FFE3C2"/>
<path d="M35.1152 42.2617C34.9512 42.3144 34.8005 42.3144 34.6498 42.3144C34.6405 42.1948 34.6313 42.0752 34.6221 41.9556C34.7927 41.9269 34.9633 41.8983 35.1806 41.8898C35.1943 42.0096 35.1614 42.1093 35.1152 42.2617Z" fill="white"/>
<path d="M10.9773 44.2582C10.8588 44.1086 10.7685 43.9159 10.6782 43.7233C10.71 43.6673 10.7418 43.6114 10.7737 43.5554C10.8586 43.6989 10.9435 43.8424 11.0446 44.0566C11.0423 44.1565 11.0238 44.1859 10.9773 44.2582Z" fill="#FFE3C2"/>
<path d="M17.8323 45.4607C17.7734 45.6858 17.7026 45.8892 17.5787 46.0904C17.5256 46.0882 17.4873 46.0031 17.4873 46.0031C17.562 45.8046 17.6367 45.6061 17.7544 45.4014C17.7973 45.3951 17.8204 45.4392 17.8323 45.4607Z" fill="#FFE3C2"/>
<path d="M1.03246 43.8525C0.902694 43.7768 0.793632 43.6595 0.68457 43.5422C0.701346 43.4855 0.718122 43.4287 0.734898 43.3719C0.836791 43.452 0.938685 43.532 1.06708 43.669C1.09358 43.7261 1.05317 43.8108 1.03246 43.8525Z" fill="#FFE3C2"/>
<path d="M31.3721 5.63461C31.3583 5.5242 31.376 5.37115 31.4325 5.20935C31.4488 5.33106 31.4262 5.46151 31.3721 5.63461Z" fill="#FFE3C2"/>
<path d="M5.05638 41.9478C4.99276 41.8875 4.95146 41.7825 4.91016 41.6775C4.96649 41.6857 5.02283 41.6939 5.10121 41.7578C5.1084 41.8435 5.09354 41.8733 5.05638 41.9478Z" fill="#FFE3C2"/>
<path d="M19.5178 45.5076C19.4539 45.4689 19.4096 45.3907 19.3652 45.3126C19.4232 45.3047 19.4812 45.2968 19.5573 45.3385C19.5754 45.3881 19.5373 45.4682 19.5178 45.5076Z" fill="#FFE3C2"/>
<path d="M17.5448 46.1309C17.4848 46.2095 17.4057 46.2455 17.3267 46.2815C17.3552 46.2028 17.3838 46.1241 17.4499 46.0242C17.4875 46.003 17.5258 46.0882 17.5448 46.1309Z" fill="#FFE3C2"/>
<path d="M12.3587 9.63489C12.3944 9.68504 12.4008 9.78035 12.4071 9.87567C12.3812 9.81047 12.3552 9.74526 12.3587 9.63489Z" fill="#FFE3C2"/>
<path d="M7.90186 19.1637C7.91803 19.1592 7.93488 19.1559 7.92778 19.1598C7.90384 19.167 7.90253 19.165 7.90186 19.1637Z" fill="#FFE3C2"/>
<path d="M5.51158 46.6452C5.49747 46.7039 5.47374 46.7461 5.45 46.7884C5.44454 46.7386 5.43907 46.6887 5.45798 46.6177C5.48235 46.5965 5.50194 46.6288 5.51158 46.6452Z" fill="#FFE3C2"/>
<path d="M31.8779 44.4836C31.8331 44.462 31.8011 44.4184 31.769 44.3748C31.8053 44.3591 31.8416 44.3434 31.897 44.3725C31.9162 44.4173 31.8908 44.4617 31.8779 44.4836Z" fill="#FFE3C2"/>
<path d="M35.2256 36.4442C36.2093 36.4367 37.1932 36.4154 38.1767 36.4353C38.3421 36.4386 38.5036 36.6395 38.6719 36.7131C38.8136 36.775 39.0454 36.9056 39.0955 36.7985C39.5996 35.7228 40.2138 36.2169 40.7853 36.4287C40.9835 36.5022 41.1409 36.9188 41.3305 37.1986C41.616 36.1169 42.1681 35.9769 42.9689 35.8342C44.2334 35.6088 45.4883 36.0641 46.715 35.6906C47.1997 35.543 47.6718 35.4277 48.1366 35.53C48.4865 35.6071 48.8132 36.0134 49.1908 36.3045C48.8036 38.4289 47.7086 37.7315 46.7672 37.72C46.7449 37.8389 46.7226 37.9578 46.7003 38.0767C47.071 38.3584 47.4418 38.6401 47.9652 39.0378C46.8929 39.2255 45.9348 39.3932 44.9767 39.5609C44.9602 39.3536 44.9438 39.1462 44.9274 38.9389C45.3256 38.8092 45.7238 38.6796 46.2481 38.509C46.3023 38.1713 46.1221 37.9368 45.7386 37.8307C45.4814 37.7595 45.2428 37.4786 44.8909 37.212C44.9207 37.5295 44.9662 38.0143 45.0174 38.5594C44.1464 38.1903 43.2418 37.807 42.3157 37.4146C42.3198 37.4662 42.338 37.6418 42.3467 37.8189C42.3604 38.0992 42.3678 38.3806 42.3779 38.6615C42.2292 38.5769 42.0819 38.4835 41.9315 38.4096C41.6672 38.2798 41.4046 38.1152 41.1347 38.0509C40.7997 37.9712 40.458 37.9786 40.0449 37.9417C39.9403 38.2069 39.7976 39.2134 39.4997 37.8552C39.4625 37.6856 39.1901 37.6769 38.9693 37.794C39.1212 38.1061 39.2732 38.4182 39.4252 38.7303C39.3923 38.8605 39.3594 38.9906 39.3265 39.1207C38.6907 38.9094 38.055 38.698 37.3067 38.4493C36.8775 39.1993 36.1954 39.4192 35.6298 38.7373C35.7796 38.5694 35.9172 38.4151 36.0798 38.2328C35.4914 38.0793 34.9343 37.934 34.2634 37.759C34.4072 38.0995 34.5439 38.4232 34.7703 38.9592C34.4254 39.0128 34.0594 39.189 33.7186 39.0912C33.3315 38.9803 32.9669 38.6244 32.5441 38.3426C32.2563 39.3437 31.78 39.2708 31.1702 39.0797C30.6064 38.903 29.9812 39.0862 29.4083 39.3119C28.6328 39.6173 28.6671 38.6315 28.5005 37.9231C28.5415 37.8085 28.5824 37.6939 28.6234 37.5793C28.8276 37.7905 29.0317 38.0016 29.3348 38.3151C29.3361 38.3141 29.5514 38.263 29.587 38.0939C29.8518 36.8349 30.4616 37.1586 30.9591 37.1903C31.6577 37.2348 32.3464 37.4419 32.9159 36.4458C32.9806 36.3326 33.1545 36.3944 33.2767 36.4067C33.9095 36.4703 34.5421 36.5442 35.2003 36.525C35.226 36.4355 35.2256 36.4442 35.2256 36.4442Z" fill="white"/>
<path d="M20.3503 39.0368C20.2955 39.0277 20.28 39.046 20.2715 39.0515C20.2878 38.8336 20.2878 38.4399 20.3417 38.4153C20.6346 38.2819 21.1256 38.0034 21.2093 38.2079C21.5177 38.9614 21.8799 38.5936 22.2074 38.5521C23.6367 38.3707 25.0651 38.1571 26.4906 37.8983C26.7687 37.8478 27.0322 37.5443 27.3457 37.3275C27.5584 38.2006 28.5482 38.2421 28.4573 40.0319C28.0278 39.6022 27.6622 39.2364 27.309 38.8829C27.1059 39.132 26.8339 39.6774 26.5137 39.7882C26.2749 39.8709 25.9739 39.3918 25.7005 39.1628C25.7122 39.0408 25.7239 38.9187 25.7356 38.7966C25.4788 39.1944 25.2219 39.5922 24.8726 40.1332C24.8985 39.5422 24.9698 39.0538 24.9126 39.0011C24.7613 38.8618 24.5545 38.8984 24.3694 38.8886C24.1256 38.8758 23.8814 38.8855 23.54 38.8855C23.7318 39.2002 23.8621 39.414 24.0391 39.7045C23.8997 39.8747 23.7321 40.189 23.6725 40.1346C23.1939 39.697 22.8021 40.4082 22.3714 40.3689C22.2086 40.354 22.0554 40.0055 21.9387 39.6984C22.0625 39.4747 22.1455 39.3618 22.2285 39.2489C22.2075 39.1947 22.1864 39.1405 22.1654 39.0863C22.0434 39.2064 21.9214 39.3265 21.7994 39.4466C21.2667 40.0506 20.8479 39.4179 20.3503 39.0368Z" fill="white"/>
<path d="M102.728 36.1393C102.486 36.0076 102.226 35.9267 102.105 35.6536C101.657 34.6417 101.142 34.9653 100.567 35.1638C100.063 35.3376 99.5239 35.2001 99.0004 35.2001C98.9881 35.0674 98.9757 34.9347 98.9634 34.802C99.2614 34.5794 99.5532 34.2025 99.8585 34.1645C100.643 34.0668 101.433 34.0977 102.22 34.118C103.059 34.1395 103.089 34.2328 102.863 35.6669C102.84 35.815 102.804 35.9571 102.728 36.1393Z" fill="white"/>
<path d="M70.7276 35.472C70.5418 35.6229 70.3667 35.7088 70.2831 35.9122C70.1835 36.1544 70.1625 36.4974 70.2354 36.8403C69.9515 37.3137 69.6675 37.787 69.2844 38.4257C69.4727 37.5115 69.628 36.7578 69.834 35.7573C69.4611 35.7988 69.3079 35.8158 69.1546 35.8329C69.1384 35.7244 69.1223 35.6159 69.1062 35.5075C69.6151 35.2241 70.1241 34.9406 70.7029 34.6183C71.4358 36.0905 72.5299 34.174 73.3876 35.0585C73.3789 35.2589 73.3703 35.4592 73.3616 35.6595C72.5006 35.5927 71.6396 35.5258 70.7276 35.472Z" fill="white"/>
<path d="M12.647 43.4303C12.8981 41.9689 13.2643 42.8619 13.5847 42.9571C14.7266 42.64 15.8686 42.3229 17.0124 42.0052C17.0933 43.0709 16.5957 42.9048 16.2154 43.1279C15.0462 43.8139 13.8616 43.6863 12.647 43.4303Z" fill="white"/>
<path d="M107.326 33.6909C107.298 34.4497 107.424 34.6134 107.828 34.3936C108.138 34.2246 108.489 34.2851 108.631 34.2674C109.365 34.047 109.909 33.8834 110.568 33.6854C110.421 34.1189 110.326 34.3997 110.277 34.5445C108.999 34.8868 107.805 35.2067 106.612 35.5266C106.571 35.3918 106.531 35.2569 106.491 35.1221C106.757 34.6282 107.023 34.1344 107.326 33.6909Z" fill="white"/>
<path d="M51.658 35.7466C52.337 35.1352 52.6378 36.2058 53.1031 36.5833C52.8588 36.7755 52.6296 36.9557 52.3339 37.1883C52.3492 36.872 52.3594 36.6629 52.3643 36.5609C52.0977 36.6252 51.8678 36.6552 51.6446 36.7402C51.295 36.8735 50.913 36.4393 50.5713 37.2059C50.4461 37.4867 49.8324 37.0881 49.2607 36.9583C49.5137 36.3257 49.6426 36.0031 49.7716 35.6805C49.8189 35.7232 49.8661 35.7659 49.9134 35.8087C49.8949 36.049 49.8764 36.2894 49.8228 36.9879C50.1585 36.5914 50.3411 36.2718 50.5598 36.1418C50.8935 35.9433 51.2522 35.8759 51.658 35.7466Z" fill="white"/>
<path d="M57.6664 35.6721C57.8006 35.5299 57.9046 35.3718 57.9996 35.3873C58.2305 35.4251 58.4572 35.5434 58.6856 35.6293C58.703 35.5389 58.7204 35.4485 58.7378 35.3581C58.6303 35.2349 58.5229 35.1117 58.4154 34.9885C58.4219 34.8913 58.4285 34.7941 58.4351 34.6969C58.6625 34.7353 58.9868 34.627 59.0937 34.8476C59.2402 35.15 59.2928 35.7299 59.2416 36.134C59.2187 36.3142 58.8452 36.4372 58.6305 36.439C58.3747 36.4411 58.1202 36.2501 57.8619 36.2125C57.7317 36.1935 57.59 36.3089 57.461 36.3978C57.1727 36.5967 56.8892 36.8171 56.6037 37.0288C56.5595 36.8877 56.5152 36.7467 56.4709 36.6057C56.5982 36.3444 56.7255 36.0831 56.8636 35.7998C56.7743 35.6067 56.6666 35.3737 56.559 35.1407C56.585 35.0648 56.6111 34.989 56.6371 34.9132C56.9687 35.1872 57.3003 35.4612 57.6664 35.6721Z" fill="white"/>
<path d="M105.284 33.8793C105.524 34.5066 105.524 34.5066 104.777 35.0989C104.89 35.2775 104.992 35.4382 105.146 35.6815C104.278 36.0832 103.906 34.78 103.3 34.4357C103.306 34.2968 103.313 34.1579 103.319 34.019C103.744 34.019 104.169 34.0334 104.594 34.0129C104.809 34.0026 105.022 33.929 105.284 33.8793Z" fill="white"/>
<path d="M54.836 37.6854C54.7118 37.445 54.5506 37.1343 54.3961 37.1443C54.1932 37.1576 53.9955 37.4235 53.7956 37.5808C53.7505 37.4915 53.7055 37.4023 53.6604 37.3131C53.8816 37.0239 54.0813 36.5758 54.3276 36.4719C55.7005 35.8925 55.7044 35.921 55.7936 36.1759C55.5382 36.8805 55.3492 37.454 55.1282 37.9861C55.0385 38.2021 54.8793 38.328 54.7517 38.495C54.7685 38.2493 54.7852 38.0036 54.836 37.6854Z" fill="white"/>
<path d="M112.316 34.9626C111.798 34.95 111.337 34.95 110.87 34.95C110.87 34.5035 110.87 34.1055 110.87 33.5676C111.083 33.8816 111.243 34.118 111.402 34.3522C112.225 32.9497 112.225 32.9497 112.754 34.9752C112.609 34.9752 112.492 34.9752 112.316 34.9626Z" fill="white"/>
<path d="M8.47745 44.7278C8.25673 44.8359 8.07301 44.9637 7.90276 44.9216C7.84832 44.9082 7.75418 44.3161 7.81013 44.2137C7.92745 43.999 8.12625 43.884 8.30244 43.8167C8.73454 43.6517 9.1728 43.537 9.60858 43.4021C9.6344 43.5196 9.66021 43.637 9.68603 43.7545C9.29725 44.0636 8.90847 44.3726 8.47745 44.7278Z" fill="white"/>
<path d="M90.6726 37.1586C90.4569 36.9118 90.0592 36.5679 90.0817 36.4043C90.1682 35.7754 90.2588 34.9844 90.8085 35.0468C91.0629 35.0757 91.3193 35.0517 91.5747 35.0517C91.5887 35.2097 91.6026 35.3677 91.6166 35.5257C91.3316 35.6192 91.0467 35.7128 90.6962 35.8278C90.6962 36.1521 90.6962 36.5281 90.6978 37.0046C90.6993 37.1051 90.6835 37.1443 90.6726 37.1586Z" fill="white"/>
<path d="M43.3373 41.1594C43.1541 40.565 43.0111 40.0087 42.8486 39.3763C43.511 39.3011 43.9241 39.778 44.1653 40.8255C44.0259 40.7344 43.8866 40.6433 43.8769 40.6369C43.6626 40.8775 43.52 41.0375 43.3373 41.1594Z" fill="white"/>
<path d="M84.5187 35.9903C84.1411 35.3283 84.5312 35.3621 84.6918 35.3502C85.271 35.3073 85.8518 35.3333 86.5774 35.5454C86.475 35.5989 86.37 35.6401 86.2708 35.7078C85.8177 36.0171 85.2287 35.4926 84.8765 36.4169C84.7727 36.2803 84.6689 36.1437 84.5187 35.9903Z" fill="white"/>
<path d="M94.6082 34.9514C94.6112 34.7227 94.6336 34.4455 94.6415 34.4468C95.085 34.5195 95.5273 34.6154 96.0708 34.7304C95.7989 35.1718 95.5712 35.5414 95.3224 35.9453C95.097 35.6522 94.8589 35.3426 94.6082 34.9514Z" fill="white"/>
<path d="M71.7073 37.2871C71.7144 35.8939 72.4704 36.7878 72.7073 36.0525C72.7632 36.1186 72.8191 36.1847 72.875 36.2508C72.7565 36.7834 72.6381 37.3159 72.5078 37.9014C72.2786 37.7344 72.0125 37.5405 71.7073 37.2871Z" fill="white"/>
<path d="M61.3486 35.5647C61.4563 35.14 61.5639 34.7153 61.6715 34.2906C61.7128 34.3035 61.7541 34.3164 61.7953 34.3292C61.8063 34.6219 61.8172 34.9146 61.8292 35.2378C62.0607 35.3279 62.2889 35.4168 62.6031 35.5392C62.371 35.9112 62.2028 36.1807 62.0235 36.4681C61.8161 36.2232 61.6242 35.9966 61.3897 35.7021C61.347 35.6343 61.3486 35.5647 61.3486 35.5647Z" fill="white"/>
<path d="M61.2938 35.5667C61.3487 35.5647 61.347 35.6343 61.3452 35.6689C61.1887 36.3678 60.3155 36.8648 60.0144 36.4471C59.9584 36.3694 59.9389 36.2095 59.9026 36.0875C59.9867 36.058 60.0711 36.0314 60.1547 35.9985C60.5163 35.8562 60.8776 35.7121 61.2938 35.5667Z" fill="white"/>
<path d="M130.031 31.7674C130.175 31.6328 130.337 31.4536 130.413 31.5326C130.632 31.7609 130.816 32.093 131.014 32.3844C130.85 32.6631 130.686 32.9417 130.553 33.1664C130.324 32.6096 130.166 32.2251 130.031 31.7674Z" fill="white"/>
<path d="M35.2287 36.4356C34.8355 36.1066 34.8355 36.1066 34.8476 34.7062C35.0835 34.6836 35.3242 34.6605 35.5605 34.6378C35.5984 34.9919 35.6349 35.3324 35.6816 35.7684C35.5216 35.6531 35.3915 35.5592 35.2541 35.4602C35.2395 35.734 35.225 36.0035 35.2182 36.3585C35.2258 36.4441 35.2262 36.4354 35.2287 36.4356Z" fill="white"/>
<path d="M64.1488 37.4455C64.1252 37.2082 64.1297 37.0375 64.1343 36.8668C64.5012 36.9499 64.868 37.033 65.3117 37.1334C64.9379 38.5406 64.5317 37.5763 64.1488 37.4455Z" fill="white"/>
<path d="M27.067 41.651C27.1226 41.328 27.1379 41.0439 27.1532 40.7599C27.213 40.6634 27.2728 40.567 27.3326 40.4706C27.5072 40.9907 27.6818 41.5108 27.8739 42.0829C27.5613 42.0829 27.2121 42.0829 26.7715 42.0829C26.902 41.8818 26.9643 41.7859 27.067 41.651Z" fill="white"/>
<path d="M103.212 37.1182C102.985 37.4846 102.738 37.8278 102.461 38.0579C102.392 38.1151 102.195 37.8447 102.12 37.6488C102.088 37.5665 102.211 37.1413 102.284 37.1224C102.578 37.0463 102.881 37.0678 103.212 37.1182Z" fill="white"/>
<path d="M11.4179 20.7281C11.092 20.2809 10.9683 19.8769 11.3287 19.4011C11.5754 19.7599 11.8018 20.0892 12.2247 20.7043C11.854 20.743 11.6549 20.7638 11.4179 20.7281Z" fill="white"/>
<path d="M130.997 19.4384C131.13 19.7331 131.212 20.0155 131.341 20.4581C130.908 20.5231 130.592 20.5705 130.275 20.618C130.242 20.5097 130.208 20.4013 130.174 20.293C130.431 20.004 130.688 19.715 130.997 19.4384Z" fill="white"/>
<path d="M16.6384 10.9689C16.748 11.4797 16.8115 12.0032 16.8512 12.5323C16.8552 12.5858 16.7054 12.7516 16.6459 12.7263C16.5514 12.6861 16.3938 12.5088 16.4006 12.4242C16.4398 11.9382 16.5196 11.4624 16.6384 10.9689Z" fill="white"/>
<path d="M133.831 27.6857C133.844 26.9265 133.886 26.8509 134.182 27.101C134.392 27.2784 134.581 27.5339 134.785 27.7606C134.416 29.1704 134.174 27.7611 133.831 27.6857Z" fill="white"/>
<path d="M96.5925 34.6255C96.8755 34.7098 97.1538 34.8847 97.5856 35.1562C96.8812 35.8428 96.6916 35.6854 96.5925 34.6255Z" fill="white"/>
<path d="M24.9517 33.1552C25.1115 33.5596 25.2258 33.9549 25.3701 34.4534C24.991 34.2462 24.6996 34.0868 24.3848 33.9147C24.3848 33.7284 24.3848 33.5025 24.3848 33.3124C24.5618 33.2559 24.734 33.2009 24.9517 33.1552Z" fill="white"/>
<path d="M2.67945 21.2935C2.70732 21.3102 2.73463 21.328 2.76194 21.3458C2.73994 21.3569 2.71795 21.3681 2.68722 21.3373C2.67848 21.2954 2.67889 21.2945 2.67945 21.2935Z" fill="white"/>
<path d="M14.9999 40.6996C14.9275 40.663 14.871 40.5961 14.8145 40.5291C14.8739 40.5234 14.9333 40.5176 15.0199 40.5602C15.0471 40.6084 15.0156 40.6693 14.9999 40.6996Z" fill="#FFE3C2"/>
<path d="M21.8247 39.4985C21.921 39.3265 22.043 39.2064 22.165 39.0863C22.186 39.1405 22.2071 39.1947 22.2281 39.2489C22.1451 39.3618 22.0621 39.4747 21.9422 39.6179C21.887 39.6155 21.8687 39.5829 21.8247 39.4985Z" fill="#FFE3C2"/>
</svg>
