<svg width="37" height="46" viewBox="0 0 37 46" fill="none" xmlns="http://www.w3.org/2000/svg">
<path d="M31.5256 5.68538C27.9701 2.38404 23.2728 0.588445 18.4207 0.675772C13.5685 0.763099 8.93902 2.72656 5.50474 6.15369C2.07046 9.58082 0.0986632 14.2049 0.00360314 19.0545C-0.0914569 23.9041 1.6976 28.6018 4.99494 32.1608L18.2497 45.409L31.5256 32.1608C35.0313 28.6463 36.9999 23.8859 36.9999 18.9231C36.9999 13.9603 35.0313 9.19988 31.5256 5.68538ZM23.4172 24.0985C22.3951 25.1207 21.0926 25.817 19.6744 26.0993C18.2563 26.3816 16.7862 26.2372 15.4502 25.6843C14.1142 25.1314 12.9723 24.1949 12.1689 22.9933C11.3654 21.7917 10.9366 20.3788 10.9366 18.9336C10.9366 17.4883 11.3654 16.0755 12.1689 14.8739C12.9723 13.6722 14.1142 12.7357 15.4502 12.1829C16.7862 11.63 18.2563 11.4856 19.6744 11.7678C21.0926 12.0501 22.3951 12.7464 23.4172 13.7687C24.0981 14.4457 24.6384 15.2505 25.007 16.1368C25.3757 17.0232 25.5655 17.9737 25.5655 18.9336C25.5655 19.8935 25.3757 20.8439 25.007 21.7303C24.6384 22.6167 24.0981 23.4215 23.4172 24.0985Z" fill="#263238"/>
<path opacity="0.2" d="M31.4937 32.1017L18.1636 45.409V26.1733C20.1091 26.1733 21.975 25.3981 23.3507 24.0183C24.7265 22.6384 25.4994 20.7669 25.4994 18.8154C25.4994 16.864 24.7265 14.9925 23.3507 13.6126C21.975 12.2328 20.1091 11.4575 18.1636 11.4575V0.000260576C21.8801 -0.0193648 25.5184 1.06999 28.616 3.12981C31.7137 5.18963 34.1306 8.12686 35.5595 11.568C36.9885 15.0092 37.3649 18.7989 36.6409 22.4552C35.9169 26.1116 34.1253 29.4694 31.4937 32.1017Z" fill="white"/>
</svg>
