<svg width="172" height="172" viewBox="0 0 172 172" fill="none" xmlns="http://www.w3.org/2000/svg">
<circle cx="86" cy="86" r="86" fill="#D9CBF7"/>
<mask id="mask0_251_1095" style="mask-type:alpha" maskUnits="userSpaceOnUse" x="0" y="0" width="172" height="172">
<circle cx="86" cy="86" r="86" fill="#D9CBF7"/>
</mask>
<g mask="url(#mask0_251_1095)">
<path d="M86.8648 178.453C133.475 178.453 171.261 156.638 171.261 129.728C171.261 102.819 133.475 81.0038 86.8648 81.0038C40.2541 81.0038 2.46875 102.819 2.46875 129.728C2.46875 156.638 40.2541 178.453 86.8648 178.453Z" fill="#F5F5F5"/>
<path d="M39.5766 26.533L36.5423 28.281C36.5599 28.1486 36.5684 28.0151 36.568 27.8815V27.002C36.568 25.4372 35.4686 24.8033 34.12 25.5875C33.535 25.9429 33.0347 26.422 32.6542 26.991C32.4343 25.0268 30.8915 24.2939 29.0189 25.3749C26.9923 26.5439 25.3542 29.406 25.3542 31.7257V33.0413C25.3417 33.5653 25.4482 34.0853 25.6657 34.5621L23.1481 36.028C22.7524 36.2855 22.4231 36.6328 22.1869 37.0416C21.9506 37.4504 21.8142 37.9092 21.7886 38.3806C21.7886 39.2492 22.3969 39.601 23.1481 39.1685L39.5766 29.6699C39.9723 29.4123 40.3017 29.065 40.5379 28.6562C40.7741 28.2474 40.9106 27.7886 40.9362 27.3172C40.9362 26.4487 40.3279 26.0969 39.5766 26.533Z" fill="#EBEBEB"/>
<path d="M52.5495 35.3646L50.2627 36.6839C50.2743 36.5841 50.2804 36.4838 50.2811 36.3834V35.7201C50.2811 34.5401 49.4529 34.0637 48.4304 34.6537C47.9914 34.9226 47.6162 35.2841 47.331 35.7128C47.1625 34.2469 45.9971 33.6752 44.5863 34.4924C43.7803 35.0175 43.1094 35.7251 42.628 36.5579C42.1467 37.3907 41.8684 38.3253 41.8158 39.2858V40.2789C41.8078 40.6739 41.888 41.0657 42.0503 41.4259L40.1521 42.5253C39.8536 42.7202 39.6052 42.9827 39.4269 43.2915C39.2487 43.6002 39.1456 43.9466 39.126 44.3026C39.126 44.9586 39.5841 45.2224 40.1521 44.8963L52.5495 37.7393C52.8479 37.5443 53.0964 37.2818 53.2746 36.9731C53.4529 36.6643 53.556 36.3179 53.5755 35.9619C53.5755 35.3023 53.1175 35.0385 52.5495 35.3646Z" fill="#EBEBEB"/>
<path d="M33.2191 146.527L37.0047 144.328C37.0047 144.328 37.9318 136.226 37.3125 129.952C36.4477 121.135 30.7529 110.53 23.9587 113.018C17.1645 115.506 27.0699 124.51 29.2687 131.982C31.4675 139.454 33.2191 146.527 33.2191 146.527Z" fill="#35A3E7"/>
<path opacity="0.2" d="M33.2191 146.527L37.0047 144.328C37.0047 144.328 37.9318 136.226 37.3125 129.952C36.4477 121.135 30.7529 110.53 23.9587 113.018C17.1645 115.506 27.0699 124.51 29.2687 131.982C31.4675 139.454 33.2191 146.527 33.2191 146.527Z" fill="black"/>
<path d="M35.2085 145.607C35.1787 145.606 35.1493 145.6 35.1221 145.587C35.0949 145.575 35.0704 145.557 35.05 145.536C35.0295 145.514 35.0136 145.488 35.0031 145.46C34.9926 145.432 34.9877 145.403 34.9886 145.373C35.6519 125.778 25.9004 115.924 25.8014 115.829C25.7758 115.809 25.7547 115.783 25.7395 115.755C25.7243 115.726 25.7154 115.694 25.7134 115.662C25.7113 115.629 25.7161 115.596 25.7275 115.566C25.739 115.535 25.7567 115.508 25.7796 115.485C25.8025 115.461 25.83 115.443 25.8604 115.432C25.8908 115.42 25.9233 115.415 25.9558 115.416C25.9883 115.418 26.0201 115.427 26.0491 115.441C26.0781 115.456 26.1036 115.477 26.1239 115.503C26.2229 115.598 36.1173 125.599 35.4467 145.387C35.4458 145.418 35.4388 145.447 35.4263 145.475C35.4138 145.502 35.3959 145.527 35.3737 145.547C35.3515 145.568 35.3255 145.584 35.2971 145.594C35.2688 145.604 35.2386 145.609 35.2085 145.607Z" fill="white"/>
<path d="M31.1993 148.092L33.8928 146.538C33.8928 146.538 34.3509 140.979 31.6244 134.221C29.2497 128.358 23.3643 123.466 20.4033 124.488C17.4423 125.511 17.512 127.614 18.9375 129.816C20.363 132.019 29.1874 137.27 31.1993 148.092Z" fill="#35A3E7"/>
<path d="M32.6214 147.502C32.5602 147.502 32.5014 147.478 32.4581 147.434C32.4148 147.391 32.3905 147.332 32.3905 147.271C32.4455 134.885 20.814 126.511 20.6967 126.427C20.6553 126.389 20.6292 126.338 20.6233 126.282C20.6175 126.227 20.6322 126.171 20.6649 126.126C20.6975 126.08 20.7457 126.049 20.8003 126.036C20.8548 126.024 20.9119 126.033 20.9606 126.06C21.0779 126.145 32.9036 134.657 32.8486 147.282C32.8467 147.341 32.8219 147.397 32.7795 147.438C32.7371 147.479 32.6804 147.502 32.6214 147.502Z" fill="white"/>
<path d="M103.879 130.872L80.4259 144.431L80.371 144.402L71.4476 139.245C70.6711 138.747 70.0545 138.035 69.6711 137.196C69.2878 136.356 69.1539 135.424 69.2855 134.511L72.5837 117.316L96.0372 103.757L92.739 120.952C92.6074 121.865 92.7413 122.797 93.1246 123.637C93.508 124.476 94.1247 125.188 94.9012 125.686L103.879 130.872Z" fill="#37474F"/>
<path d="M72.5948 117.316L69.3113 134.361L92.7721 120.82L95.8064 105.055L94.3259 104.758L72.5948 117.316Z" fill="#263238"/>
<path d="M80.4186 144.427L71.4439 139.245C70.6681 138.746 70.0519 138.034 69.6687 137.195C69.2854 136.356 69.1511 135.424 69.2818 134.511L72.58 117.316L68.6698 115.055L64.8879 134.727C64.3859 137.329 65.8554 140.543 68.1495 141.866L80.4076 148.942L80.4186 144.427Z" fill="#263238"/>
<path d="M103.879 130.872L80.4185 144.427V148.946L103.879 135.39V130.872Z" fill="#455A64"/>
<path d="M126.831 19.4493C127.908 20.0723 128.784 21.648 128.784 22.9856V94.9806C128.745 95.7038 128.536 96.4076 128.173 97.0348C127.811 97.662 127.306 98.1949 126.699 98.5903L36.9636 150.404C35.8129 151.068 34.0026 151.1 32.9325 150.478C31.8624 149.855 30.9756 148.279 30.9756 146.941V74.9462C31.0152 74.2225 31.2246 73.5183 31.5868 72.8906C31.9491 72.2629 32.454 71.7292 33.0607 71.3329L122.789 19.5226C123.939 18.8556 125.75 18.8226 126.831 19.4493Z" fill="#455A64"/>
<path d="M36.7144 150.529C35.5637 151.068 33.9256 151.057 32.9178 150.478C31.8368 149.855 30.9609 148.279 30.9609 146.941V74.9462C30.987 74.22 31.1976 73.5125 31.5729 72.8903L35.4977 75.1514C35.1221 75.7721 34.9114 76.4785 34.8857 77.2036V149.199C34.8747 150.434 35.6773 150.987 36.7144 150.529Z" fill="#263238"/>
<path d="M128.784 94.9806V23.0003C128.784 21.67 127.853 21.1313 126.699 21.7946L36.9633 73.5939C36.3565 73.9893 35.8514 74.5222 35.4891 75.1494C35.1268 75.7766 34.9175 76.4803 34.8782 77.2036V149.199C34.8782 150.529 35.8127 151.068 36.9633 150.404L126.699 98.5902C127.306 98.1949 127.811 97.662 128.173 97.0348C128.535 96.4076 128.745 95.7038 128.784 94.9806Z" fill="#37474F"/>
<path d="M124.203 25.4556L38.4989 74.9645C38.0137 75.281 37.6098 75.7074 37.3201 76.2091C37.0304 76.7108 36.863 77.2737 36.8315 77.8522V141.774C36.8315 142.837 37.5645 143.269 38.4989 142.738L124.207 93.229C124.692 92.9125 125.096 92.4861 125.386 91.9844C125.675 91.4827 125.843 90.9197 125.874 90.3412V26.4194C125.874 25.3566 125.127 24.9242 124.203 25.4556Z" fill="#35A3E7"/>
<path opacity="0.8" d="M124.203 25.4556L38.4989 74.9645C38.0137 75.281 37.6098 75.7074 37.3201 76.2091C37.0304 76.7108 36.863 77.2737 36.8315 77.8522V141.774C36.8315 142.837 37.5645 143.269 38.4989 142.738L124.207 93.229C124.692 92.9125 125.096 92.4861 125.386 91.9844C125.675 91.4827 125.843 90.9197 125.874 90.3412V26.4194C125.874 25.3566 125.127 24.9242 124.203 25.4556Z" fill="white"/>
<path d="M42.9409 134.877C42.4865 134.877 42.208 134.511 42.208 133.884V83.2612L120.491 38.0692V88.4796C120.461 89.0168 120.305 89.5393 120.035 90.0051C119.766 90.471 119.391 90.8673 118.941 91.1621L43.5822 134.676C43.3896 134.797 43.1686 134.867 42.9409 134.877Z" fill="#F5F5F5"/>
<path d="M120.308 38.3916V88.4869C120.277 88.9933 120.129 89.4855 119.874 89.9244C119.62 90.3633 119.266 90.7369 118.843 91.0155L43.4907 134.518C43.3254 134.622 43.1362 134.683 42.941 134.694C42.45 134.694 42.3987 134.13 42.3987 133.884V83.3674L120.308 38.3916ZM120.675 37.7577L42.0322 83.1622V133.884C42.0322 134.617 42.3987 135.06 42.941 135.06C43.2012 135.051 43.4542 134.973 43.674 134.833L119.029 91.327C119.508 91.0153 119.907 90.595 120.193 90.1002C120.479 89.6054 120.644 89.0502 120.675 88.4796V37.7503V37.7577Z" fill="#E0E0E0"/>
<path d="M42.0322 83.1549V90.2752L120.675 44.8707V37.7503L42.0322 83.1549Z" fill="#35A3E7"/>
<path d="M91.3762 57.4476V58.9795C91.3762 59.2909 91.5998 59.4192 91.8709 59.2653L116.057 45.3031V42.6426L91.8709 56.6048C91.7291 56.6976 91.6106 56.822 91.5248 56.9682C91.4389 57.1144 91.3881 57.2785 91.3762 57.4476Z" fill="#FAFAFA"/>
<path d="M118.641 41.1474C118.912 40.9899 119.132 41.1181 119.132 41.4333V42.9651C119.122 43.1358 119.073 43.3019 118.987 43.4501C118.902 43.5983 118.784 43.7246 118.641 43.8189L116.05 45.3141V42.6426L118.641 41.1474Z" fill="#455A64"/>
<path d="M118.447 43.2472L118.161 43.1593C118.189 43.0392 118.204 42.9163 118.205 42.7928C118.218 42.6762 118.2 42.5581 118.154 42.4501C118.108 42.3422 118.034 42.2482 117.941 42.1772C117.877 42.1387 117.804 42.1183 117.73 42.1183C117.656 42.1183 117.583 42.1387 117.519 42.1772C117.335 42.3178 117.187 42.5001 117.087 42.709C116.987 42.9179 116.938 43.1476 116.944 43.3792C116.931 43.4964 116.949 43.615 116.995 43.7235C117.041 43.832 117.114 43.9267 117.208 43.9985C117.264 44.0301 117.327 44.0466 117.391 44.0461C117.475 44.0449 117.558 44.0208 117.629 43.9765C117.849 43.8255 118.012 43.6066 118.095 43.3535L118.384 43.4415H118.417C118.44 43.441 118.463 43.4333 118.481 43.4195C118.499 43.4057 118.513 43.3865 118.52 43.3645C118.522 43.3396 118.516 43.3146 118.503 43.2934C118.49 43.2722 118.47 43.256 118.447 43.2472ZM117.519 43.8043C117.488 43.8226 117.453 43.8323 117.417 43.8323C117.381 43.8323 117.345 43.8226 117.314 43.8043C117.255 43.75 117.21 43.6824 117.183 43.6072C117.156 43.532 117.147 43.4513 117.157 43.3718C117.154 43.1779 117.195 42.9858 117.276 42.81C117.358 42.6342 117.479 42.4792 117.629 42.3567C117.668 42.3323 117.712 42.3184 117.758 42.3164C117.783 42.3105 117.809 42.3105 117.835 42.3164C117.893 42.3713 117.937 42.4389 117.965 42.514C117.992 42.5891 118.001 42.6695 117.992 42.7489C118 42.9494 117.962 43.149 117.88 43.3322C117.798 43.5153 117.675 43.6769 117.519 43.8043Z" fill="#FAFAFA"/>
<path d="M42.032 79.7138C42.0622 79.1435 42.2266 78.5883 42.5119 78.0936C42.7972 77.5988 43.1953 77.1783 43.6737 76.8664L119.029 33.3601C119.938 32.8361 120.675 33.2612 120.675 34.3093V37.7504L42.032 83.1549V79.7138Z" fill="#37474F"/>
<path d="M111.421 39.5277C111.197 39.674 111.011 39.871 110.877 40.1027C110.744 40.3345 110.666 40.5944 110.652 40.8616C110.652 41.3563 110.996 41.5542 111.421 41.3087C111.647 41.1628 111.835 40.9655 111.969 40.733C112.104 40.5005 112.181 40.2393 112.195 39.9711C112.195 39.491 111.85 39.2821 111.421 39.5277Z" fill="#35A3E7"/>
<path d="M114.122 37.9739C113.897 38.1193 113.71 38.3161 113.575 38.5479C113.441 38.7798 113.364 39.0402 113.349 39.3078C113.349 39.7988 113.694 40.0004 114.122 39.7549C114.347 39.6082 114.533 39.4106 114.667 39.1782C114.801 38.9458 114.878 38.6851 114.892 38.4173C114.892 37.9262 114.547 37.7283 114.122 37.9739Z" fill="#35A3E7"/>
<path d="M116.82 36.4201C116.596 36.5664 116.409 36.7634 116.276 36.9951C116.142 37.2269 116.065 37.4868 116.05 37.754C116.05 38.245 116.395 38.4466 116.82 38.2011C117.044 38.0542 117.23 37.8565 117.364 37.6242C117.498 37.3918 117.575 37.1312 117.589 36.8635C117.586 36.3724 117.245 36.1929 116.82 36.4201Z" fill="#35A3E7"/>
<path d="M76.5086 84.8297L86.1978 79.2375C86.8098 78.871 87.2972 79.1678 87.2972 79.8788V91.0632C87.277 91.4474 87.167 91.8216 86.9761 92.1558C86.7852 92.4899 86.5186 92.7746 86.1978 92.9871L76.5086 98.5793C75.8966 98.9457 75.4092 98.6452 75.4092 97.938V86.7646C75.4268 86.3782 75.5356 86.0015 75.7267 85.6652C75.9177 85.3289 76.1857 85.0426 76.5086 84.8297Z" fill="#35A3E7"/>
<path d="M79.1688 98.7625L85.0321 95.3837C85.4719 95.1272 85.8237 95.3104 85.8237 95.7832C85.8039 96.0496 85.722 96.3077 85.5845 96.5368C85.4471 96.7658 85.2579 96.9596 85.0321 97.1024L79.1688 100.481C78.729 100.734 78.3735 100.554 78.3735 100.082C78.3929 99.8148 78.475 99.5562 78.6132 99.3269C78.7514 99.0977 78.9417 98.9043 79.1688 98.7625Z" fill="#455A64"/>
<path d="M81.2688 84.4192C82.2986 83.8255 83.1305 84.3056 83.1305 85.4929C83.0958 86.1385 82.9091 86.7668 82.5856 87.3266C82.2621 87.8863 81.8109 88.3618 81.2688 88.7141C80.2428 89.3078 79.4109 88.8277 79.4109 87.6404C79.4457 86.9953 79.6321 86.3674 79.9549 85.8078C80.2777 85.2481 80.7279 84.7724 81.2688 84.4192Z" fill="#FAFAFA"/>
<path d="M84.9373 90.7626C84.9373 88.8167 83.5667 87.9482 81.881 88.9303L80.8256 89.5423C79.1362 90.5171 77.7693 92.8844 77.7693 94.834V95.3581L84.9373 91.2244V90.7626Z" fill="#FAFAFA"/>
<path d="M94.3809 74.5027L104.066 68.9105C104.682 68.5441 105.166 68.8409 105.166 69.5519V80.7363C105.146 81.1207 105.036 81.4951 104.846 81.8293C104.655 82.1635 104.388 82.4481 104.066 82.6602L94.3809 88.2524C93.7689 88.6188 93.2815 88.3183 93.2815 87.6111V76.4267C93.3011 76.0423 93.4108 75.6678 93.6018 75.3336C93.7928 74.9994 94.0596 74.7148 94.3809 74.5027Z" fill="#35A3E7"/>
<path opacity="0.2" d="M94.3809 74.5027L104.066 68.9105C104.682 68.5441 105.166 68.8409 105.166 69.5519V80.7363C105.146 81.1207 105.036 81.4951 104.846 81.8293C104.655 82.1635 104.388 82.4481 104.066 82.6602L94.3809 88.2524C93.7689 88.6188 93.2815 88.3183 93.2815 87.6111V76.4267C93.3011 76.0423 93.4108 75.6678 93.6018 75.3336C93.7928 74.9994 94.0596 74.7148 94.3809 74.5027Z" fill="black"/>
<path d="M97.0413 88.4356L102.905 85.0568C103.341 84.804 103.696 84.9836 103.696 85.4563C103.677 85.7229 103.595 85.9812 103.458 86.2103C103.32 86.4395 103.131 86.6331 102.905 86.7755L97.0413 90.1543C96.6016 90.4072 96.2461 90.2276 96.2461 89.7549C96.2655 89.4879 96.3476 89.2293 96.4857 89C96.6239 88.7708 96.8143 88.5774 97.0413 88.4356Z" fill="#455A64"/>
<path d="M99.1409 74.0924C100.171 73.4987 101.003 73.9788 101.003 75.1661C100.968 75.8118 100.782 76.4401 100.458 77C100.135 77.5598 99.6832 78.0351 99.1409 78.3873C98.1148 78.981 97.283 78.5009 97.283 77.3136C97.3181 76.6685 97.5046 76.0407 97.8274 75.4811C98.1501 74.9215 98.6001 74.4458 99.1409 74.0924Z" fill="#FAFAFA"/>
<path d="M102.809 80.4357C102.809 78.4898 101.439 77.6213 99.7528 78.6034L98.6974 79.2154C97.008 80.1902 95.6411 82.5575 95.6411 84.5071V85.0312L102.809 80.9011V80.4357Z" fill="#FAFAFA"/>
<path d="M58.6543 95.1309L68.3436 89.5387C68.9555 89.1722 69.4429 89.4727 69.4429 90.18V101.364C69.4236 101.749 69.314 102.123 69.123 102.458C68.932 102.792 68.665 103.076 68.3436 103.288L58.6543 108.88C58.0423 109.247 57.5549 108.95 57.5549 108.239V97.0548C57.5751 96.6705 57.6851 96.2963 57.876 95.9622C58.0669 95.6281 58.3335 95.3434 58.6543 95.1309Z" fill="#35A3E7"/>
<path opacity="0.5" d="M58.6543 95.1309L68.3436 89.5387C68.9555 89.1722 69.4429 89.4727 69.4429 90.18V101.364C69.4236 101.749 69.314 102.123 69.123 102.458C68.932 102.792 68.665 103.076 68.3436 103.288L58.6543 108.88C58.0423 109.247 57.5549 108.95 57.5549 108.239V97.0548C57.5751 96.6705 57.6851 96.2963 57.876 95.9622C58.0669 95.6281 58.3335 95.3434 58.6543 95.1309Z" fill="white"/>
<path d="M61.315 109.064L67.1784 105.685C67.6181 105.432 67.9699 105.612 67.9699 106.084C67.9507 106.351 67.869 106.609 67.7315 106.838C67.594 107.068 67.4045 107.261 67.1784 107.404L61.315 110.782C60.8752 111.035 60.5198 110.856 60.5198 110.383C60.5391 110.116 60.6212 109.857 60.7594 109.628C60.8976 109.399 61.088 109.206 61.315 109.064Z" fill="#455A64"/>
<path d="M63.4146 94.7204C64.4444 94.1268 65.2762 94.6105 65.2762 95.7942C65.2415 96.4402 65.0549 97.069 64.7314 97.6294C64.4079 98.1898 63.9567 98.6659 63.4146 99.019C62.3885 99.609 61.5566 99.1289 61.5566 97.9416C61.5918 97.2965 61.7783 96.6688 62.101 96.1092C62.4238 95.5496 62.8738 95.0738 63.4146 94.7204Z" fill="#FAFAFA"/>
<path d="M67.083 101.057C67.083 99.107 65.7125 98.2421 64.0267 99.2242L62.9823 99.8362C61.2929 100.811 59.926 103.182 59.926 105.132V105.656L67.094 101.518L67.083 101.057Z" fill="#FAFAFA"/>
<path d="M151.549 71.9705L147.657 69.7241C143.732 67.5253 138.352 67.8368 132.39 71.2779C126.813 74.4917 121.726 79.8567 117.893 86.0646C113.459 93.2106 110.67 101.485 110.67 108.902C110.67 115.821 113.092 120.673 117.01 122.949L120.942 125.203C124.9 127.724 130.47 127.5 136.7 123.924C148.698 116.994 158.423 100.148 158.423 86.2955C158.409 79.0688 155.77 74.1106 151.549 71.9705Z" fill="#35A3E7"/>
<path opacity="0.1" d="M120.788 125.111L117.01 122.949C113.092 120.677 110.674 115.818 110.674 108.899C110.674 101.482 113.462 93.2143 117.893 86.0683L122.173 88.5566C117.739 95.7026 114.958 103.966 114.958 111.376C114.958 117.991 117.171 122.718 120.788 125.111Z" fill="black"/>
<path opacity="0.4" d="M151.391 71.8789C147.521 70.0026 142.358 70.479 136.689 73.7478C131.104 76.9764 126.017 82.345 122.173 88.5566L117.893 86.0683C121.73 79.8384 126.82 74.4954 132.394 71.2816C138.352 67.8368 143.736 67.5107 147.664 69.7241L151.391 71.8789Z" fill="white"/>
<path d="M126.941 123.953C125.361 123.986 123.806 123.561 122.463 122.729L122.4 122.689L122.276 122.619C119.414 120.67 117.838 116.683 117.838 111.372C117.838 104.776 120.304 97.0402 124.61 90.1177C128.348 84.0784 133.138 79.1715 138.103 76.3021C141.017 74.6201 143.868 73.7369 146.338 73.7369C147.592 73.7181 148.836 73.9798 149.977 74.5028L150.108 74.5761L150.174 74.6091C153.513 76.2985 155.426 80.5641 155.426 86.3139C155.426 99.217 146.338 114.956 135.164 121.403C132.243 123.066 129.411 123.953 126.941 123.953Z" fill="#FAFAFA"/>
<mask id="mask1_251_1095" style="mask-type:luminance" maskUnits="userSpaceOnUse" x="117" y="73" width="39" height="51">
<path d="M126.941 123.953C125.361 123.986 123.806 123.561 122.463 122.729L122.4 122.689L122.276 122.619C119.414 120.67 117.838 116.683 117.838 111.372C117.838 104.776 120.304 97.0402 124.61 90.1177C128.348 84.0784 133.138 79.1715 138.103 76.3021C141.017 74.6201 143.868 73.7369 146.338 73.7369C147.592 73.7181 148.836 73.9798 149.977 74.5028L150.108 74.5761L150.174 74.6091C153.513 76.2985 155.426 80.5641 155.426 86.3139C155.426 99.217 146.338 114.956 135.164 121.403C132.243 123.066 129.411 123.953 126.941 123.953Z" fill="white"/>
</mask>
<g mask="url(#mask1_251_1095)">
<path d="M137.638 103.069C132.109 104.534 127.623 101.266 127.623 95.7393V92.1957C127.623 87.5086 131.423 82.6933 136.11 81.4364L139.163 80.6191C143.85 79.3622 147.65 82.1436 147.65 86.8307V90.3743C147.635 95.9006 143.168 101.584 137.638 103.069Z" fill="#263238"/>
<path d="M151.252 117.038L155.672 130.872L150.145 133.899L146.833 120.886L151.252 117.038Z" fill="#FFA8A7"/>
<path d="M141.578 105.19C144.509 104.457 147.76 104.824 148.874 107.169C149.988 109.515 152.425 117.94 152.425 117.94C150.909 119.983 148.689 121.391 146.195 121.894L141.578 105.19Z" fill="#35A3E7"/>
<path opacity="0.3" d="M141.578 105.19C144.509 104.457 147.76 104.824 148.874 107.169C149.988 109.515 152.425 117.94 152.425 117.94C150.909 119.983 148.689 121.391 146.195 121.894L141.578 105.19Z" fill="black"/>
<path d="M135.487 106.942L133.039 107.715C130.375 109.181 129.415 111.534 128.297 114.564C127.482 116.716 127.407 119.079 128.085 121.278L131.203 130.861C131.203 130.861 129.737 135.324 128.048 139.63C135.872 142.562 145.638 137.307 147.995 132.997C148.097 132.188 147.962 128.706 148.148 124.653C148.354 120.329 148.859 115.374 148.28 112.89C147.199 108.283 145.18 104.227 141.156 105.304L135.487 106.942Z" fill="#F5F5F5"/>
<path d="M133.039 107.715C130.371 108.866 126.443 110.537 125.098 118.229C123.727 126.024 123.463 127.863 123.463 127.863C123.463 127.863 125.798 129.926 130.228 128.713C130.228 128.713 134.135 113.084 133.039 107.715Z" fill="#35A3E7"/>
<path opacity="0.3" d="M133.039 107.715C130.371 108.866 126.443 110.537 125.098 118.229C123.727 126.024 123.463 127.863 123.463 127.863C123.463 127.863 125.798 129.926 130.228 128.713C130.228 128.713 134.135 113.084 133.039 107.715Z" fill="black"/>
<path d="M128.88 118.09C132.013 117.251 134.556 114.029 134.556 110.896V100.818C131.419 101.661 128.88 104.883 128.88 108.016V118.09Z" fill="#263238"/>
<path d="M130.346 128.23C130.84 126.152 131.361 123.788 131.852 121.267C131.852 121.267 131.83 126.478 131.06 130.429L130.346 128.23Z" fill="#E0E0E0"/>
<path d="M144.363 83.8989C145.418 84.335 146.726 87.0578 146.598 93.5332C146.488 99.0301 144.956 100.778 144.187 101.372C143.417 101.965 141.933 102.127 140.493 102.237V105.513C140.493 105.513 142.486 107.653 142.358 109.177C142.23 110.702 139.481 111.805 137.616 110.837C136.384 110.13 135.336 109.144 134.556 107.957V100.049C134.556 100.049 133.581 101.812 131.991 101.016C130.4 100.221 130.338 97.2161 131.258 95.8859C132.178 94.5556 134.19 94.3614 134.556 95.7613C134.556 95.7613 136.854 95.2446 139.917 92.4631C142.375 90.2312 143.952 87.1931 144.363 83.8989Z" fill="#FFA8A7"/>
<path d="M141.321 93.5736C141.33 93.7629 141.28 93.9503 141.179 94.1107C141.078 94.2711 140.931 94.397 140.757 94.4714C140.431 94.574 140.148 94.3468 140.134 93.9583C140.124 93.7694 140.173 93.582 140.273 93.4215C140.374 93.2611 140.52 93.1351 140.694 93.0605C141.039 92.9579 141.303 93.1851 141.321 93.5736Z" fill="#263238"/>
<path d="M141.478 98.158L142.86 98.2972C142.826 98.5151 142.718 98.7147 142.555 98.8627C142.392 99.0108 142.182 99.0983 141.962 99.1108C141.581 99.0704 141.365 98.6454 141.478 98.158Z" fill="#F28F8F"/>
<path d="M146.195 90.1618L144.99 89.5205C145.209 89.0661 145.656 88.8389 145.99 89.0184C146.323 89.198 146.411 89.6964 146.195 90.1618Z" fill="#263238"/>
<path d="M145.916 91.8475C145.926 92.0365 145.877 92.2238 145.776 92.3838C145.675 92.5438 145.527 92.6688 145.352 92.7417C145.026 92.848 144.747 92.6171 144.729 92.2286C144.72 92.0402 144.769 91.8534 144.869 91.6936C144.969 91.5337 145.116 91.4084 145.29 91.3345C145.62 91.2282 145.898 91.4591 145.916 91.8475Z" fill="#263238"/>
<path d="M143.113 92.2066L143.208 96.311L145.088 95.1346L143.113 92.2066Z" fill="#F28F8F"/>
<path d="M140.493 102.237C138.972 102.413 135.846 102.215 135.363 100.917C135.534 101.542 135.924 102.084 136.462 102.446C137.396 103.12 140.493 103.329 140.493 103.329V102.237Z" fill="#F28F8F"/>
</g>
<path d="M131.349 117.225L128.355 115.495H128.322C126.834 114.652 124.793 114.762 122.532 116.081C120.418 117.302 118.501 119.336 117.035 121.688C115.357 124.4 114.298 127.552 114.298 130.351C114.298 132.972 115.218 134.815 116.702 135.676L119.743 137.413C121.242 138.37 123.36 138.285 125.713 136.926C130.261 134.298 133.951 127.911 133.951 122.659C133.951 119.918 132.951 118.035 131.349 117.225Z" fill="#37474F"/>
<path d="M119.681 137.373L116.702 135.673C115.214 134.811 114.298 132.968 114.298 130.344C114.298 127.533 115.353 124.397 117.035 121.688L120.216 123.521C118.534 126.232 117.479 129.362 117.479 132.173C117.471 134.672 118.318 136.468 119.681 137.373Z" fill="#263238"/>
<path d="M131.287 117.181C129.821 116.47 127.864 116.649 125.713 117.892C123.562 119.134 121.682 121.15 120.216 123.506L117.035 121.674C118.501 119.317 120.421 117.276 122.532 116.067C124.793 114.762 126.834 114.638 128.322 115.477H128.355L131.287 117.181Z" fill="#455A64"/>
<path d="M129.286 124.243L126.541 125.829V121.432C126.541 120.725 126.175 120.369 125.713 120.633C125.251 120.897 124.885 121.681 124.885 122.388V126.786L122.136 128.373C121.909 128.553 121.726 128.784 121.602 129.046C121.478 129.308 121.417 129.596 121.422 129.886C121.422 130.494 121.744 130.802 122.136 130.571L124.885 128.988V133.386C124.885 134.093 125.251 134.449 125.713 134.185C126.175 133.921 126.541 133.133 126.541 132.429V128.032L129.286 126.445C129.514 126.265 129.697 126.035 129.821 125.772C129.945 125.51 130.006 125.222 130.001 124.932C130.001 124.323 129.678 124.015 129.286 124.243Z" fill="#F5F5F5"/>
</g>
</svg>
