<svg width="356" height="259" viewBox="0 0 356 259" fill="none" xmlns="http://www.w3.org/2000/svg">
<path d="M52.0362 231.811C121.438 268.063 233.91 268.063 303.296 231.811C372.682 195.558 372.698 136.804 303.296 100.551C233.894 64.2988 121.422 64.307 52.0362 100.551C-17.3495 136.795 -17.3413 195.567 52.0362 231.811Z" fill="#F5F5F5"/>
<path d="M31.4521 174.019H34.3751C35.7149 169.546 36.5931 164.946 36.9961 160.294C37.6329 151.68 33.4607 138.494 25.8183 134.076C18.1759 129.659 14.0363 135.121 16.6001 139.792C19.1639 144.462 27.8105 157.747 27.9248 169.177L31.4521 174.019Z" fill="#FFAF51"/>
<path d="M30.7502 174.019H31.5667C32.3645 168.378 32.3645 162.653 31.5667 157.012C30.244 145.834 26.5698 140.641 23.1568 137.032C23.0821 136.953 22.9791 136.907 22.8704 136.904C22.7616 136.901 22.6562 136.941 22.5771 137.016C22.4981 137.09 22.452 137.193 22.4489 137.302C22.4458 137.411 22.4861 137.516 22.5608 137.595C25.8839 141.098 29.4602 146.16 30.7257 157.101C31.5346 162.711 31.5428 168.407 30.7502 174.019Z" fill="white"/>
<path d="M31.689 174.019C30.1867 166.932 23.3608 158.506 16.9186 157.053C9.44773 155.42 5.81433 159.363 6.88393 162.768C7.95354 166.173 13.8568 167.757 19.5886 170.427C21.5186 171.32 23.2828 172.535 24.806 174.019H31.689Z" fill="#FFAF51"/>
<path d="M28.9699 174.019H29.8436C26.6837 166.075 19.4986 160.408 13.6198 159.886C13.5666 159.88 13.5128 159.885 13.4616 159.901C13.4104 159.916 13.3628 159.942 13.3217 159.976C13.2806 160.011 13.2468 160.053 13.2223 160.1C13.1977 160.148 13.183 160.2 13.1789 160.253C13.1721 160.307 13.1764 160.361 13.1915 160.413C13.2066 160.464 13.2321 160.512 13.2666 160.554C13.3011 160.595 13.3437 160.629 13.3919 160.653C13.44 160.677 13.4926 160.691 13.5464 160.694C19.0985 161.192 25.8836 166.516 28.9699 174.019Z" fill="white"/>
<path d="M295.261 99.3181L301.377 102.527L301.891 98.6976C298.862 90.1571 301.352 80.4735 304.627 76.44C307.901 72.4065 307.272 69.4426 306.088 68.1199C304.904 66.7972 300.414 65.7929 295.972 70.9858C291.53 76.1787 290.509 82.482 291.252 88.8425C291.726 92.8188 293.816 96.9013 295.261 99.3181Z" fill="#FFAF51"/>
<path opacity="0.2" d="M295.261 99.3181L301.377 102.527L301.891 98.6976C298.862 90.1571 301.352 80.4735 304.627 76.44C307.901 72.4065 307.272 69.4426 306.088 68.1199C304.904 66.7972 300.414 65.7929 295.972 70.9858C291.53 76.1787 290.509 82.482 291.252 88.8425C291.726 92.8188 293.816 96.9013 295.261 99.3181Z" fill="black"/>
<path d="M297.784 100.641L298.993 101.278C298.981 101.255 298.967 101.233 298.952 101.213C297.221 99.1549 294.984 89.0794 295.923 83.1762C297.082 75.8849 300.822 71.1247 304.022 69.108C304.062 69.0839 304.096 69.0521 304.122 69.0146C304.149 68.9771 304.168 68.9346 304.178 68.8896C304.188 68.8447 304.188 68.7982 304.18 68.7529C304.172 68.7077 304.154 68.6646 304.129 68.6262C304.077 68.5482 303.997 68.4934 303.905 68.4736C303.814 68.4538 303.718 68.4705 303.639 68.5201C300.373 70.6185 296.421 75.5419 295.221 83.07C294.355 88.565 296.086 97.2688 297.784 100.641Z" fill="white"/>
<path d="M301.5 84.7438C303.288 89.1284 303.28 91.2758 300.365 91.7248C297.736 92.1168 294.543 95.3092 297.507 100.494L314.849 109.59C314.893 108.62 315.132 107.67 315.553 106.796C315.974 105.921 316.568 105.142 317.299 104.503C320.148 101.653 322.777 99.506 322.369 96.338C321.961 93.17 319.209 90.1164 318.752 87.3566C318.295 84.5969 319.699 83.021 322.696 79.9265C325.692 76.832 328.411 72.031 324.41 69.8428C320.41 67.6546 315.829 71.4023 313.918 73.9253C312.008 76.4482 310.261 77.5587 306.496 77.3464C302.732 77.1341 299.711 80.3593 301.5 84.7438Z" fill="#FFAF51"/>
<path d="M306.407 105.164C306.325 91.7086 315.968 75.9502 321.332 72.7659C321.411 72.7154 321.468 72.6364 321.491 72.5453C321.514 72.4542 321.501 72.3578 321.455 72.276C321.405 72.1974 321.328 72.1408 321.238 72.118C321.149 72.0952 321.053 72.1079 320.973 72.1535C315.535 75.4195 305.81 91.186 305.704 104.813L306.407 105.164Z" fill="white"/>
<path d="M308.987 91.1778C308.913 91.1947 308.836 91.1861 308.768 91.1535C308.699 91.1209 308.644 91.0662 308.611 90.9982C307.053 88.0922 305.742 85.0605 304.692 81.9351C304.678 81.8912 304.673 81.8449 304.677 81.7989C304.681 81.753 304.694 81.7083 304.715 81.6673C304.736 81.6264 304.765 81.59 304.801 81.5603C304.836 81.5306 304.877 81.5081 304.921 81.4942C304.965 81.4803 305.011 81.4751 305.057 81.4791C305.103 81.483 305.147 81.496 305.188 81.5172C305.229 81.5384 305.266 81.5675 305.295 81.6028C305.325 81.6381 305.348 81.6789 305.362 81.7228C306.402 84.8049 307.697 87.7953 309.232 90.6634C309.275 90.747 309.284 90.8443 309.257 90.9344C309.229 91.0245 309.167 91.1002 309.085 91.1452L308.987 91.1778Z" fill="white"/>
<path d="M306.668 99.4243C306.601 99.4367 306.532 99.4303 306.469 99.4058C306.405 99.3812 306.35 99.3396 306.309 99.2855C306.255 99.2074 306.234 99.1113 306.251 99.018C306.268 98.9247 306.321 98.8418 306.399 98.7875C309.915 96.3258 314.18 95.1706 318.458 95.5215C318.551 95.5334 318.636 95.5818 318.693 95.6561C318.751 95.7303 318.776 95.8244 318.764 95.9175C318.752 96.0106 318.704 96.0952 318.63 96.1526C318.556 96.21 318.461 96.2356 318.368 96.2237C314.273 95.9119 310.193 97.0096 306.807 99.3345C306.767 99.3734 306.72 99.404 306.668 99.4243Z" fill="white"/>
<path d="M204.198 17.2279L184.3 5.73987L164.41 17.2279L184.3 28.716L204.198 17.2279Z" fill="#F5F5F5"/>
<path d="M184.3 51.7004L204.198 40.2123V17.228L184.3 28.7161V51.7004Z" fill="#EBEBEB"/>
<path d="M188.138 44.0742C188.032 44.0761 187.928 44.0508 187.836 44.0007C187.709 43.9079 187.607 43.7842 187.542 43.6413C187.476 43.4984 187.448 43.3411 187.46 43.1842V40.7347V40.5551H187.583L189.493 39.4365V42.1554C189.49 42.5056 189.404 42.85 189.24 43.1598C189.077 43.4695 188.842 43.7355 188.554 43.9354C188.431 44.0188 188.287 44.0668 188.138 44.0742ZM187.77 40.9144V43.1679C187.757 43.2728 187.77 43.3794 187.808 43.4779C187.847 43.5763 187.91 43.6635 187.991 43.7313C188.057 43.7608 188.13 43.7719 188.202 43.7632C188.274 43.7546 188.342 43.7266 188.399 43.6823C188.644 43.5117 188.845 43.2862 188.986 43.0239C189.128 42.7616 189.207 42.4698 189.216 42.1718V41.9758H188.505L188.366 41.0205L187.77 40.9144ZM188.75 41.6655H189.191V39.9917L188.048 40.6531L188.611 40.7592L188.75 41.6655Z" fill="white"/>
<path d="M188.481 46.0175C188.439 46.0175 188.4 46.0012 188.371 45.9721C188.342 45.943 188.325 45.9035 188.325 45.8624V43.8211C188.324 43.8005 188.327 43.7798 188.335 43.7604C188.342 43.741 188.354 43.7235 188.368 43.7088C188.383 43.6942 188.4 43.6828 188.42 43.6754C188.439 43.668 188.46 43.6648 188.481 43.666C188.522 43.666 188.561 43.6824 188.59 43.7114C188.619 43.7405 188.636 43.78 188.636 43.8211V45.8297C188.639 45.8524 188.638 45.8757 188.632 45.8978C188.626 45.92 188.615 45.9406 188.6 45.9583C188.586 45.9761 188.567 45.9905 188.547 46.0007C188.526 46.0109 188.504 46.0166 188.481 46.0175Z" fill="white"/>
<path d="M187.591 46.5319C187.563 46.5318 187.537 46.524 187.514 46.5096C187.491 46.4952 187.472 46.4746 187.46 46.4503C187.449 46.4336 187.441 46.4146 187.438 46.3947C187.435 46.3748 187.436 46.3544 187.441 46.335C187.447 46.3155 187.456 46.2975 187.469 46.2822C187.482 46.2669 187.499 46.2546 187.517 46.2462L189.289 45.2174C189.307 45.2072 189.326 45.2005 189.346 45.1979C189.367 45.1952 189.387 45.1965 189.407 45.2019C189.427 45.2072 189.445 45.2163 189.461 45.2288C189.477 45.2413 189.491 45.2568 189.501 45.2745C189.52 45.3107 189.524 45.3525 189.514 45.3917C189.503 45.431 189.478 45.4649 189.444 45.4868L187.664 46.5074L187.591 46.5319Z" fill="white"/>
<path d="M193.927 43.0047C193.871 43.0217 193.811 43.0217 193.755 43.0047C193.696 42.9647 193.648 42.9096 193.616 42.8451C193.585 42.7806 193.571 42.7089 193.576 42.6373V42.2209C193.575 42.2009 193.578 42.1809 193.584 42.1621C193.591 42.1433 193.602 42.1262 193.616 42.1116C193.63 42.0971 193.646 42.0855 193.664 42.0776C193.683 42.0698 193.703 42.0657 193.723 42.0657C193.743 42.0646 193.764 42.0678 193.783 42.0751C193.803 42.0825 193.82 42.0939 193.835 42.1085C193.85 42.1232 193.861 42.1408 193.868 42.1601C193.876 42.1795 193.879 42.2002 193.878 42.2209V42.5638C193.878 42.6291 193.878 42.6618 193.878 42.6618C193.878 42.6618 193.927 42.6618 193.976 42.6618C194.071 42.5755 194.146 42.4693 194.195 42.3507C194.245 42.2322 194.267 42.1042 194.262 41.9759V39.2978C194.262 39.2778 194.266 39.258 194.273 39.2396C194.281 39.2212 194.293 39.2047 194.307 39.1909C194.322 39.1771 194.339 39.1665 194.358 39.1596C194.377 39.1527 194.397 39.1498 194.417 39.1509C194.456 39.1509 194.493 39.1663 194.521 39.1939C194.548 39.2215 194.564 39.2588 194.564 39.2978V42.0249C194.57 42.2067 194.534 42.3874 194.459 42.5531C194.384 42.7188 194.272 42.8649 194.131 42.9802C194.065 43.0012 193.996 43.0095 193.927 43.0047Z" fill="white"/>
<path d="M192.31 40.6288V40.3675C192.348 39.6875 192.545 39.0259 192.886 38.436C193.226 37.846 193.7 37.3442 194.27 36.9709C194.473 36.7994 194.725 36.6947 194.99 36.6711C195.256 36.6475 195.522 36.7061 195.753 36.8389C195.984 36.9718 196.168 37.1724 196.281 37.4136C196.394 37.6549 196.43 37.925 196.384 38.1874V38.2773L192.31 40.6288ZM195.184 37.0035C194.914 37.012 194.652 37.0939 194.425 37.2403C193.94 37.5601 193.529 37.9798 193.219 38.4712C192.909 38.9626 192.708 39.5144 192.629 40.0899L196.074 38.1058C196.087 37.9131 196.05 37.7203 195.968 37.5458C195.885 37.3714 195.758 37.2212 195.601 37.1097C195.474 37.0378 195.33 37.0011 195.184 37.0035Z" fill="white"/>
<path d="M199.389 39.8694C199.349 39.8694 199.311 39.8542 199.282 39.8269C199.253 39.7995 199.236 39.7621 199.234 39.7224V34.5132C199.234 34.472 199.25 34.4326 199.279 34.4035C199.308 34.3744 199.348 34.358 199.389 34.358C199.43 34.358 199.469 34.3744 199.498 34.4035C199.528 34.4326 199.544 34.472 199.544 34.5132V39.7224C199.542 39.7621 199.525 39.7995 199.496 39.8269C199.467 39.8542 199.429 39.8694 199.389 39.8694Z" fill="white"/>
<path d="M198.973 35.697H198.915C198.897 35.689 198.88 35.6773 198.865 35.6627C198.851 35.6481 198.84 35.6309 198.832 35.6119C198.825 35.5929 198.821 35.5726 198.821 35.5522C198.821 35.5318 198.826 35.5116 198.834 35.4929L199.381 34.2355L199.985 34.9377C199.998 34.9527 200.008 34.9701 200.014 34.9889C200.02 35.0077 200.022 35.0275 200.021 35.0472C200.019 35.0669 200.014 35.0861 200.005 35.1037C199.996 35.1214 199.984 35.1371 199.969 35.1499C199.954 35.1628 199.936 35.1726 199.917 35.1787C199.899 35.1849 199.879 35.1873 199.859 35.1857C199.839 35.1842 199.82 35.1788 199.803 35.1699C199.785 35.161 199.769 35.1486 199.756 35.1336L199.462 34.807L199.111 35.6235C199.098 35.6476 199.077 35.6673 199.053 35.6803C199.028 35.6934 199 35.6991 198.973 35.697Z" fill="white"/>
<path d="M200.834 39.0693C200.794 39.0672 200.757 39.0499 200.73 39.021C200.702 38.9922 200.687 38.9539 200.687 38.9141V33.7049C200.682 33.6821 200.682 33.6585 200.687 33.6356C200.692 33.6128 200.702 33.5915 200.717 33.5731C200.731 33.5548 200.75 33.54 200.771 33.5299C200.792 33.5197 200.815 33.5144 200.838 33.5144C200.862 33.5144 200.885 33.5197 200.906 33.5299C200.927 33.54 200.945 33.5548 200.96 33.5731C200.974 33.5915 200.985 33.6128 200.99 33.6356C200.995 33.6585 200.995 33.6821 200.989 33.7049V38.9141C200.989 38.9553 200.973 38.9947 200.944 39.0238C200.915 39.0529 200.875 39.0693 200.834 39.0693Z" fill="white"/>
<path d="M200.385 34.8888H200.328C200.309 34.8808 200.292 34.8691 200.278 34.8545C200.264 34.8399 200.252 34.8226 200.245 34.8037C200.237 34.7847 200.233 34.7644 200.234 34.744C200.234 34.7236 200.238 34.7034 200.246 34.6847L200.793 33.4272L201.398 34.1294C201.425 34.1582 201.44 34.1961 201.44 34.2356C201.44 34.275 201.425 34.313 201.398 34.3417C201.367 34.3693 201.328 34.3845 201.287 34.3845C201.247 34.3845 201.207 34.3693 201.177 34.3417L200.891 34.007L200.54 34.8235C200.523 34.8481 200.5 34.8674 200.472 34.879C200.445 34.8906 200.415 34.894 200.385 34.8888Z" fill="white"/>
<path d="M184.3 51.7004L164.402 40.2123L164.411 17.228L184.3 28.7161V51.7004Z" fill="#E0E0E0"/>
<path d="M175.433 23.5966L195.315 12.1004L193.069 10.8021L173.18 22.2984L175.433 23.5966Z" fill="white"/>
<path d="M167.423 30.4061L174.551 34.4886C174.961 34.7587 175.302 35.1208 175.548 35.5461C175.793 35.9713 175.935 36.448 175.964 36.9381V41.3308C175.964 42.2371 175.327 42.6046 174.551 42.1473L167.423 38.0649C167.013 37.7953 166.671 37.4333 166.426 37.0079C166.181 36.5825 166.039 36.1056 166.011 35.6154V31.2226C166.011 30.3163 166.648 29.9571 167.423 30.4061Z" fill="#FFAF51"/>
<path d="M166.876 31.5002L167.146 31.6635V36.538L166.876 36.3829V31.5002Z" fill="#FFAF51"/>
<path d="M167.979 32.1372L168.444 32.4148V37.2893L167.979 37.0198V32.1372Z" fill="#FFAF51"/>
<path d="M169.081 32.7739L169.35 32.9291V37.8117L169.081 37.6566V32.7739Z" fill="#FFAF51"/>
<path d="M169.905 33.2476L170.452 33.566V38.4486L169.905 38.122V33.2476Z" fill="#FFAF51"/>
<path d="M171.277 34.0477L171.555 34.2029V39.0855L171.277 38.9222V34.0477Z" fill="#FFAF51"/>
<path d="M172.077 34.4967L172.649 34.8396V39.7141L172.069 39.3712L172.077 34.4967Z" fill="#FFAF51"/>
<path d="M173.481 35.3215L173.751 35.4767V40.3511L173.481 40.196V35.3215Z" fill="#FFAF51"/>
<path d="M174.11 35.6725L174.249 35.7541V40.6286L174.11 40.5551V35.6725Z" fill="#FFAF51"/>
<path d="M172.983 35.052L173.114 35.1336V40.0081L172.983 39.9346V35.052Z" fill="#FFAF51"/>
<path d="M170.763 33.7538L170.893 33.8273V38.7099L170.763 38.6282V33.7538Z" fill="#FFAF51"/>
<path d="M169.546 33.0516L169.685 33.1333V38.0159L169.546 37.9343V33.0516Z" fill="#FFAF51"/>
<path d="M168.673 32.5698L168.811 32.6515V37.5341L168.673 37.4525V32.5698Z" fill="#FFAF51"/>
<path d="M167.489 31.8514L167.627 31.9331V36.8157L167.489 36.7341V31.8514Z" fill="#FFAF51"/>
<path d="M174.584 35.9502L174.853 36.1053V40.988L174.584 40.8328V35.9502Z" fill="#FFAF51"/>
<path d="M177.67 13.3987L154.449 0L131.236 13.3987L154.449 26.8055L177.67 13.3987Z" fill="#F5F5F5"/>
<path d="M144.496 21.0572L167.717 7.65857L165.464 6.36035L142.251 19.759L144.496 21.0572Z" fill="white"/>
<path d="M154.449 68.9283L177.67 55.5297V13.3986L154.449 26.8054V68.9283Z" fill="#EBEBEB"/>
<path d="M158.287 61.3431C158.18 61.345 158.076 61.3167 157.985 61.2615C157.856 61.1703 157.753 61.0469 157.687 60.9036C157.621 60.7602 157.594 60.6021 157.609 60.445V57.9955V57.8159H157.74L159.642 56.6973V59.4162C159.638 59.7661 159.551 60.1101 159.388 60.4196C159.224 60.7291 158.99 60.9953 158.703 61.1962C158.581 61.2825 158.436 61.3333 158.287 61.3431ZM157.919 58.1833V60.4368C157.906 60.5417 157.919 60.6483 157.957 60.7468C157.996 60.8452 158.059 60.9324 158.14 61.0002C158.206 61.0297 158.279 61.0408 158.351 61.0321C158.423 61.0235 158.491 60.9956 158.548 60.9512C158.793 60.7806 158.994 60.5551 159.136 60.2928C159.277 60.0305 159.356 59.7387 159.365 59.4407V59.2447H158.654L158.515 58.2894L157.919 58.1833ZM158.899 58.9345H159.381V57.2606L158.238 57.9302L158.801 58.0282L158.899 58.9345Z" fill="white"/>
<path d="M158.63 63.2537C158.589 63.2537 158.549 63.2374 158.52 63.2083C158.491 63.1792 158.475 63.1397 158.475 63.0986V61.0492C158.475 61.0292 158.479 61.0094 158.487 60.991C158.494 60.9726 158.506 60.956 158.521 60.9422C158.535 60.9285 158.552 60.9178 158.571 60.911C158.59 60.9041 158.61 60.9011 158.63 60.9022C158.67 60.9021 158.708 60.9174 158.737 60.9447C158.766 60.9721 158.783 61.0095 158.785 61.0492V63.0986C158.783 63.1391 158.766 63.1774 158.737 63.2061C158.709 63.2347 158.67 63.2517 158.63 63.2537Z" fill="white"/>
<path d="M157.748 63.7926C157.722 63.7932 157.695 63.7867 157.672 63.7737C157.65 63.7608 157.63 63.7419 157.617 63.7191C157.599 63.6829 157.594 63.6411 157.605 63.6019C157.615 63.5626 157.64 63.5287 157.674 63.5068L159.446 62.4862C159.464 62.4759 159.483 62.4693 159.504 62.4667C159.524 62.464 159.544 62.4654 159.564 62.4707C159.584 62.476 159.602 62.4851 159.619 62.4976C159.635 62.5101 159.648 62.5256 159.658 62.5433C159.669 62.5604 159.675 62.5793 159.678 62.5989C159.68 62.6186 159.679 62.6385 159.673 62.6576C159.668 62.6766 159.659 62.6944 159.647 62.7099C159.634 62.7253 159.619 62.7381 159.601 62.7475L157.821 63.7762C157.799 63.7893 157.773 63.795 157.748 63.7926Z" fill="white"/>
<path d="M164.075 60.2409C164.016 60.2411 163.957 60.2271 163.904 60.2001C163.844 60.16 163.796 60.105 163.765 60.0405C163.733 59.976 163.719 59.9043 163.724 59.8326V59.4081C163.724 59.3881 163.728 59.3683 163.736 59.3499C163.744 59.3315 163.756 59.3149 163.77 59.3012C163.785 59.2874 163.802 59.2767 163.821 59.2699C163.84 59.263 163.86 59.26 163.88 59.2611C163.899 59.2611 163.918 59.2649 163.936 59.2723C163.954 59.2797 163.97 59.2905 163.983 59.3041C163.997 59.3178 164.008 59.334 164.015 59.3518C164.023 59.3697 164.026 59.3888 164.026 59.4081V59.8326C164.026 59.8898 164.026 59.9225 164.026 59.9306C164.026 59.9388 164.075 59.9306 164.124 59.9306C164.22 59.8428 164.295 59.7351 164.344 59.6152C164.393 59.4953 164.416 59.3661 164.41 59.2366V56.5177C164.41 56.4765 164.427 56.4371 164.456 56.408C164.485 56.3789 164.524 56.3625 164.565 56.3625C164.606 56.3645 164.644 56.3815 164.673 56.4102C164.702 56.4389 164.719 56.4772 164.72 56.5177V59.2366C164.728 59.4194 164.692 59.6014 164.616 59.7676C164.539 59.9337 164.424 60.0792 164.28 60.1919C164.216 60.2236 164.146 60.2403 164.075 60.2409Z" fill="white"/>
<path d="M162.459 57.8649V57.5954C162.498 56.9167 162.695 56.2565 163.035 55.6679C163.376 55.0794 163.85 54.579 164.419 54.207C164.622 54.0355 164.874 53.9308 165.139 53.9072C165.405 53.8836 165.671 53.9422 165.902 54.075C166.133 54.2079 166.317 54.4085 166.43 54.6497C166.543 54.891 166.579 55.1611 166.533 55.4235V55.5133L162.459 57.8649ZM165.333 54.2314C165.064 54.2438 164.802 54.3253 164.574 54.4682C164.088 54.789 163.676 55.2099 163.366 55.7028C163.057 56.1956 162.856 56.7491 162.777 57.326L166.223 55.3419C166.235 55.1481 166.198 54.9545 166.115 54.7789C166.033 54.6033 165.907 54.4515 165.749 54.3376C165.622 54.2681 165.479 54.2316 165.333 54.2314Z" fill="white"/>
<path d="M169.571 57.1054C169.53 57.1054 169.49 57.0891 169.461 57.06C169.432 57.0309 169.416 56.9914 169.416 56.9503V51.7411C169.416 51.6999 169.432 51.6605 169.461 51.6314C169.49 51.6023 169.53 51.5859 169.571 51.5859C169.612 51.5859 169.651 51.6023 169.68 51.6314C169.709 51.6605 169.726 51.6999 169.726 51.7411V56.9503C169.726 56.9914 169.709 57.0309 169.68 57.06C169.651 57.0891 169.612 57.1054 169.571 57.1054Z" fill="white"/>
<path d="M169.122 52.9332H169.064C169.046 52.9261 169.029 52.9152 169.015 52.9014C169.001 52.8876 168.989 52.871 168.982 52.8527C168.974 52.8344 168.97 52.8147 168.97 52.7949C168.971 52.775 168.975 52.7554 168.983 52.7373L169.53 51.4799L170.134 52.182C170.16 52.2124 170.173 52.2518 170.17 52.2916C170.167 52.3314 170.148 52.3683 170.118 52.3943C170.087 52.4203 170.048 52.4332 170.008 52.4301C169.968 52.4271 169.931 52.4083 169.905 52.378L169.611 52.0432L169.26 52.8597C169.247 52.8839 169.226 52.9036 169.202 52.9166C169.177 52.9296 169.149 52.9353 169.122 52.9332Z" fill="white"/>
<path d="M170.983 56.2972C170.944 56.2972 170.907 56.2817 170.879 56.2542C170.852 56.2266 170.836 56.1892 170.836 56.1502V50.941C170.835 50.921 170.838 50.9011 170.845 50.8823C170.852 50.8635 170.862 50.8463 170.876 50.8318C170.89 50.8172 170.907 50.8057 170.925 50.7978C170.943 50.7899 170.963 50.7859 170.983 50.7859C171.004 50.7847 171.025 50.7879 171.044 50.7953C171.063 50.8026 171.081 50.814 171.095 50.8287C171.11 50.8433 171.121 50.8609 171.129 50.8803C171.136 50.8996 171.139 50.9203 171.138 50.941V56.1502C171.138 56.1703 171.134 56.1901 171.126 56.2084C171.118 56.2268 171.107 56.2434 171.092 56.2572C171.078 56.2709 171.061 56.2816 171.042 56.2885C171.023 56.2953 171.003 56.2983 170.983 56.2972Z" fill="white"/>
<path d="M170.542 52.1249H170.477C170.44 52.1071 170.412 52.0763 170.396 52.0386C170.381 52.0008 170.381 51.9588 170.395 51.9207L170.942 50.6633L171.555 51.3655C171.58 51.3951 171.594 51.4327 171.594 51.4717C171.594 51.5106 171.58 51.5482 171.555 51.5778C171.54 51.5924 171.523 51.6039 171.504 51.6118C171.485 51.6197 171.465 51.6238 171.444 51.6238C171.424 51.6238 171.404 51.6197 171.385 51.6118C171.366 51.6039 171.349 51.5924 171.334 51.5778L171.048 51.243L170.697 52.0595C170.681 52.085 170.658 52.1049 170.63 52.1166C170.602 52.1283 170.572 52.1312 170.542 52.1249Z" fill="white"/>
<path d="M154.449 68.9283L131.236 55.5297V13.3986L154.449 26.8054V68.9283Z" fill="#E0E0E0"/>
<path d="M135.955 46.7688L143.075 50.8512C143.487 51.1199 143.83 51.4815 144.077 51.9069C144.324 52.3324 144.467 52.8097 144.496 53.3007V57.7016C144.496 58.5997 143.859 58.9672 143.075 58.5181L135.955 54.4356C135.544 54.1675 135.201 53.8058 134.956 53.3802C134.71 52.9545 134.569 52.4768 134.543 51.9861V47.5934C134.543 46.6463 135.18 46.3197 135.955 46.7688Z" fill="#F5F5F5"/>
<path d="M135.408 47.8628L135.678 48.0261V52.9006L135.408 52.7454V47.8628Z" fill="#E0E0E0"/>
<path d="M136.511 48.4996L136.976 48.7772V53.6599L136.511 53.3823V48.4996Z" fill="#E0E0E0"/>
<path d="M137.605 49.1366L137.882 49.2917L137.874 54.1744L137.605 54.0192V49.1366Z" fill="#E0E0E0"/>
<path d="M138.438 49.6101L138.977 49.9285V54.8112L138.438 54.4846V49.6101Z" fill="#E0E0E0"/>
<path d="M139.809 50.4103L140.079 50.5654V55.448L139.809 55.2847V50.4103Z" fill="#E0E0E0"/>
<path d="M140.602 50.8594L141.181 51.2023V56.0768L140.602 55.7338V50.8594Z" fill="#E0E0E0"/>
<path d="M142.014 51.6759L142.283 51.8392V56.7137L142.014 56.5585V51.6759Z" fill="#E0E0E0"/>
<path d="M142.643 52.035L142.781 52.1167V56.9993L142.643 56.9177V52.035Z" fill="#E0E0E0"/>
<path d="M141.516 51.4146L141.647 51.4962V56.3707L141.516 56.2972V51.4146Z" fill="#E0E0E0"/>
<path d="M139.295 50.1163L139.426 50.1898V55.0725L139.295 54.9908V50.1163Z" fill="#E0E0E0"/>
<path d="M138.079 49.4142L138.209 49.4958V54.3785L138.079 54.2968V49.4142Z" fill="#E0E0E0"/>
<path d="M137.205 48.9324L137.344 49.014V53.8967L137.205 53.815V48.9324Z" fill="#E0E0E0"/>
<path d="M136.021 48.2139L136.16 48.2955V53.1782L136.021 53.0965V48.2139Z" fill="#E0E0E0"/>
<path d="M143.116 52.3127L143.386 52.4679V57.3505L143.116 57.1954V52.3127Z" fill="#E0E0E0"/>
<path d="M142.251 25.197L144.496 26.4952V21.0574L142.251 19.7592V25.197Z" fill="#F0F0F0"/>
<path d="M108.015 57.4403L91.4322 47.871L68.2192 61.2696L84.8022 70.8471L108.015 57.4403Z" fill="#F5F5F5"/>
<path d="M84.8022 109.141L108.015 95.742V57.4403L84.8022 70.8471V109.141Z" fill="#EBEBEB"/>
<path d="M88.6317 101.523C88.5279 101.525 88.4257 101.497 88.3378 101.441C88.2096 101.349 88.1075 101.226 88.0417 101.083C87.9758 100.94 87.9484 100.782 87.9622 100.625V98.1752V97.9955H88.0847L89.9953 96.877V99.5959C89.9913 99.9458 89.904 100.29 89.7408 100.599C89.5775 100.909 89.3429 101.175 89.0563 101.376C88.9302 101.461 88.7837 101.512 88.6317 101.523ZM88.2725 98.363V100.616C88.2573 100.721 88.2696 100.829 88.3083 100.927C88.3469 101.026 88.4106 101.113 88.4929 101.18C88.5597 101.206 88.632 101.216 88.7033 101.207C88.7745 101.198 88.8425 101.172 88.9012 101.131C89.1457 100.96 89.3469 100.735 89.4887 100.473C89.6305 100.21 89.7089 99.9184 89.7177 99.6204V99.4244H89.0073L88.8685 98.4691L88.2725 98.363ZM89.2523 99.1141H89.6932V97.4322L88.5501 98.1017L89.1135 98.1997L89.2523 99.1141Z" fill="white"/>
<path d="M88.9828 103.466C88.9416 103.466 88.9022 103.45 88.8731 103.421C88.844 103.392 88.8276 103.352 88.8276 103.311V101.262C88.8276 101.242 88.8317 101.222 88.8396 101.203C88.8475 101.185 88.859 101.168 88.8735 101.155C88.8881 101.141 88.9052 101.13 88.924 101.123C88.9428 101.116 88.9628 101.113 88.9828 101.115C89.0218 101.115 89.0591 101.13 89.0867 101.158C89.1143 101.185 89.1297 101.223 89.1297 101.262V103.311C89.1298 103.351 89.1146 103.389 89.0872 103.418C89.0599 103.447 89.0225 103.464 88.9828 103.466Z" fill="white"/>
<path d="M88.0928 103.972C88.0663 103.974 88.0398 103.968 88.0167 103.955C87.9935 103.942 87.9746 103.922 87.9621 103.899C87.9504 103.882 87.9423 103.863 87.9385 103.843C87.9346 103.823 87.9349 103.802 87.9396 103.782C87.9442 103.762 87.9529 103.743 87.9652 103.727C87.9776 103.71 87.9932 103.696 88.0111 103.686L89.7911 102.666C89.8088 102.656 89.8283 102.649 89.8485 102.646C89.8688 102.644 89.8894 102.645 89.9091 102.65C89.9288 102.656 89.9473 102.665 89.9635 102.677C89.9797 102.69 89.9932 102.705 90.0034 102.723C90.0134 102.74 90.0199 102.759 90.0225 102.779C90.025 102.798 90.0236 102.818 90.0183 102.837C90.0129 102.856 90.0038 102.874 89.9914 102.89C89.979 102.905 89.9637 102.918 89.9462 102.927L88.1663 103.956C88.1441 103.969 88.1184 103.975 88.0928 103.972Z" fill="white"/>
<path d="M94.4285 100.453C94.3689 100.453 94.3102 100.439 94.257 100.412C94.1974 100.372 94.1494 100.317 94.1179 100.253C94.0864 100.188 94.0724 100.117 94.0774 100.045V99.6203C94.0774 99.5813 94.0929 99.5439 94.1205 99.5164C94.148 99.4888 94.1854 99.4733 94.2244 99.4733C94.2444 99.4722 94.2643 99.4752 94.2831 99.4821C94.3019 99.489 94.3191 99.4996 94.3336 99.5134C94.3482 99.5271 94.3597 99.5437 94.3676 99.5621C94.3755 99.5805 94.3795 99.6003 94.3795 99.6203V100.045C94.3795 100.102 94.3795 100.135 94.3795 100.143C94.3795 100.151 94.4285 100.143 94.4775 100.143C94.5711 100.054 94.6449 99.9458 94.6941 99.8262C94.7434 99.7067 94.7669 99.5781 94.7633 99.4488V96.7299C94.7579 96.7071 94.7578 96.6835 94.7629 96.6607C94.768 96.6379 94.7782 96.6165 94.7928 96.5982C94.8073 96.5799 94.8258 96.565 94.8468 96.5549C94.8679 96.5447 94.8909 96.5394 94.9143 96.5394C94.9377 96.5394 94.9608 96.5447 94.9818 96.5549C95.0029 96.565 95.0213 96.5799 95.0359 96.5982C95.0504 96.6165 95.0606 96.6379 95.0657 96.6607C95.0708 96.6835 95.0707 96.7071 95.0654 96.7299V99.4488C95.0721 99.6307 95.0365 99.8116 94.9614 99.9774C94.8863 100.143 94.7738 100.289 94.6326 100.404C94.5692 100.436 94.4994 100.453 94.4285 100.453Z" fill="white"/>
<path d="M92.812 98.0854V97.8159C92.8507 97.1372 93.0482 96.477 93.3885 95.8885C93.7289 95.3 94.2026 94.7996 94.7716 94.4275C94.9744 94.2541 95.2259 94.1479 95.4916 94.1235C95.7573 94.099 96.024 94.1575 96.255 94.291C96.4861 94.4244 96.67 94.6261 96.7816 94.8685C96.8932 95.1108 96.9269 95.3818 96.8781 95.6441V95.7339L92.812 98.0854ZM95.6861 94.452C95.4168 94.4643 95.1553 94.5459 94.9267 94.6888C94.4409 95.0095 94.0292 95.4304 93.7194 95.9233C93.4096 96.4162 93.2088 96.9696 93.1304 97.5465L96.576 95.5543C96.5875 95.3618 96.5502 95.1695 96.4674 94.9953C96.3846 94.8211 96.259 94.6707 96.1025 94.5581C95.9778 94.4871 95.8376 94.4478 95.6942 94.4438L95.6861 94.452Z" fill="white"/>
<path d="M99.9239 97.3178C99.8828 97.3178 99.8433 97.3015 99.8142 97.2724C99.7851 97.2433 99.7688 97.2038 99.7688 97.1627V91.9535C99.7688 91.9123 99.7851 91.8729 99.8142 91.8438C99.8433 91.8147 99.8828 91.7983 99.9239 91.7983C99.9651 91.7983 100.005 91.8147 100.034 91.8438C100.063 91.8729 100.079 91.9123 100.079 91.9535V97.1627C100.079 97.2038 100.063 97.2433 100.034 97.2724C100.005 97.3015 99.9651 97.3178 99.9239 97.3178Z" fill="white"/>
<path d="M99.4746 93.1864H99.4174C99.3989 93.1792 99.3821 93.1684 99.3679 93.1546C99.3537 93.1407 99.3424 93.1242 99.3348 93.1058C99.3272 93.0875 99.3233 93.0679 99.3235 93.048C99.3237 93.0282 99.3279 93.0086 99.3358 92.9904L99.8829 91.733L100.487 92.4352C100.513 92.4655 100.526 92.5049 100.523 92.5447C100.52 92.5846 100.501 92.6215 100.471 92.6475C100.456 92.6604 100.438 92.6702 100.42 92.6763C100.401 92.6824 100.381 92.6848 100.361 92.6833C100.321 92.6802 100.284 92.6615 100.258 92.6312L99.9645 92.2964L99.6134 93.1129C99.5996 93.137 99.5792 93.1567 99.5546 93.1697C99.5301 93.1828 99.5023 93.1885 99.4746 93.1864Z" fill="white"/>
<path d="M101.336 96.5096C101.296 96.5097 101.258 96.4945 101.229 96.4671C101.2 96.4397 101.183 96.4024 101.181 96.3626V91.1534C101.181 91.1123 101.197 91.0728 101.226 91.0437C101.255 91.0146 101.295 90.9983 101.336 90.9983C101.357 90.9971 101.377 91.0003 101.397 91.0077C101.416 91.015 101.434 91.0264 101.448 91.0411C101.463 91.0557 101.474 91.0733 101.482 91.0927C101.489 91.112 101.492 91.1327 101.491 91.1534V96.3626C101.491 96.3827 101.487 96.4025 101.479 96.4208C101.471 96.4392 101.46 96.4558 101.445 96.4696C101.431 96.4833 101.414 96.494 101.395 96.5009C101.376 96.5077 101.356 96.5107 101.336 96.5096Z" fill="white"/>
<path d="M100.887 92.3699C100.869 92.3767 100.848 92.3767 100.83 92.3699C100.811 92.3627 100.794 92.3519 100.78 92.338C100.766 92.3242 100.755 92.3076 100.747 92.2893C100.74 92.271 100.736 92.2513 100.736 92.2315C100.736 92.2117 100.74 92.1921 100.748 92.1739L101.295 90.9165L101.899 91.6187C101.926 91.6474 101.941 91.6854 101.941 91.7248C101.941 91.7643 101.926 91.8022 101.899 91.831C101.885 91.8455 101.868 91.8571 101.849 91.865C101.83 91.8729 101.81 91.8769 101.789 91.8769C101.769 91.8769 101.748 91.8729 101.729 91.865C101.711 91.8571 101.693 91.8455 101.679 91.831L101.393 91.4962L101.042 92.3127C101.024 92.3359 101 92.3536 100.973 92.3637C100.945 92.3738 100.916 92.3759 100.887 92.3699Z" fill="white"/>
<path d="M84.8022 109.141L68.2192 99.5713V61.2695L84.8022 70.847V109.141Z" fill="#E0E0E0"/>
<path d="M75.9187 71.1575L78.1641 72.4557V67.0178L75.9187 65.7196V71.1575Z" fill="#F5F5F5"/>
<path d="M78.1641 67.0178L101.385 53.611L99.1316 52.3127L75.9187 65.7196L78.1641 67.0178Z" fill="white"/>
<path d="M78.1641 89.9939L48.3212 72.7659L18.4702 89.9939L48.3212 107.23L78.1641 89.9939Z" fill="#F5F5F5"/>
<path d="M48.3213 130.206L78.1641 112.978V89.9939L48.3213 107.23V130.206Z" fill="#EBEBEB"/>
<path d="M52.1507 122.58C52.0474 122.578 51.9463 122.55 51.8567 122.498C51.7291 122.406 51.6275 122.283 51.5617 122.139C51.4959 121.996 51.4682 121.839 51.4811 121.682V119.232V119.053H51.6036L53.5142 117.926V120.653C53.5089 121.002 53.4211 121.344 53.2578 121.652C53.0946 121.96 52.8607 122.225 52.5752 122.425C52.4496 122.513 52.3033 122.566 52.1507 122.58ZM51.7832 119.42V121.674C51.7687 121.777 51.7814 121.883 51.8201 121.981C51.8587 122.078 51.922 122.163 52.0037 122.229C52.0705 122.259 52.1443 122.272 52.2174 122.265C52.2905 122.257 52.3605 122.231 52.4201 122.188C52.6637 122.017 52.8642 121.791 53.0059 121.529C53.1476 121.267 53.2265 120.975 53.2366 120.678V120.473H52.5018L52.363 119.518L51.7832 119.42ZM52.763 120.171H53.2366V118.498L52.1017 119.167L52.6651 119.265L52.763 120.171Z" fill="white"/>
<path d="M52.4936 124.523C52.4743 124.523 52.4552 124.52 52.4373 124.512C52.4195 124.505 52.4033 124.494 52.3897 124.48C52.376 124.467 52.3652 124.451 52.3578 124.433C52.3504 124.415 52.3466 124.396 52.3466 124.376V122.327C52.3413 122.304 52.3412 122.281 52.3463 122.258C52.3514 122.235 52.3616 122.214 52.3761 122.195C52.3906 122.177 52.4091 122.162 52.4302 122.152C52.4512 122.142 52.4743 122.137 52.4977 122.137C52.521 122.137 52.5441 122.142 52.5652 122.152C52.5862 122.162 52.6047 122.177 52.6192 122.195C52.6337 122.214 52.6439 122.235 52.649 122.258C52.6542 122.281 52.654 122.304 52.6487 122.327V124.376C52.6487 124.397 52.6447 124.416 52.6368 124.435C52.6289 124.453 52.6173 124.47 52.6028 124.483C52.5883 124.497 52.5711 124.508 52.5523 124.515C52.5335 124.522 52.5136 124.525 52.4936 124.523Z" fill="white"/>
<path d="M51.6037 125.03C51.571 125.028 51.5398 125.015 51.5145 124.994C51.4893 124.974 51.4713 124.945 51.4631 124.913C51.455 124.882 51.4571 124.848 51.4691 124.818C51.4812 124.787 51.5025 124.761 51.5302 124.744L53.3102 123.723C53.3263 123.712 53.3448 123.704 53.3644 123.7C53.3839 123.696 53.404 123.696 53.4234 123.701C53.4428 123.706 53.4609 123.715 53.4766 123.727C53.4923 123.739 53.5051 123.755 53.5143 123.772C53.526 123.789 53.5341 123.808 53.538 123.828C53.5418 123.849 53.5415 123.869 53.5369 123.889C53.5322 123.909 53.5235 123.928 53.5112 123.944C53.4988 123.961 53.4832 123.975 53.4653 123.985L51.6853 125.03H51.6037Z" fill="white"/>
<path d="M57.9394 121.519C57.8857 121.531 57.8299 121.531 57.7761 121.519C57.7138 121.479 57.6633 121.423 57.6303 121.357C57.5972 121.291 57.5827 121.217 57.5884 121.143V120.727C57.5884 120.686 57.6047 120.646 57.6338 120.617C57.6629 120.588 57.7023 120.572 57.7435 120.572C57.7846 120.572 57.8241 120.588 57.8532 120.617C57.8823 120.646 57.8986 120.686 57.8986 120.727V121.143C57.8874 121.178 57.8874 121.215 57.8986 121.249C57.8986 121.249 57.9476 121.249 58.0048 121.249C58.0969 121.159 58.1692 121.051 58.217 120.932C58.2648 120.812 58.2871 120.684 58.2824 120.555V117.836C58.2844 117.796 58.3013 117.758 58.33 117.729C58.3587 117.7 58.397 117.683 58.4375 117.681C58.4787 117.681 58.5181 117.698 58.5472 117.727C58.5763 117.756 58.5926 117.795 58.5926 117.836V120.555C58.5994 120.737 58.5638 120.918 58.4887 121.084C58.4136 121.25 58.301 121.396 58.1599 121.511C58.0881 121.531 58.0125 121.533 57.9394 121.519Z" fill="white"/>
<path d="M56.3311 119.143V118.873C56.3665 118.194 56.5626 117.533 56.9032 116.944C57.2439 116.354 57.7194 115.855 58.2906 115.485C58.4934 115.312 58.745 115.205 59.0107 115.181C59.2763 115.157 59.543 115.215 59.7741 115.348C60.0051 115.482 60.1891 115.684 60.3007 115.926C60.4123 116.168 60.446 116.439 60.3972 116.702V116.791L56.3311 119.143ZM59.2051 115.509C58.9336 115.523 58.6697 115.605 58.4376 115.746C57.9533 116.068 57.5432 116.489 57.2348 116.982C56.9264 117.475 56.7269 118.028 56.6495 118.604L60.0869 116.612C60.1001 116.42 60.0643 116.228 59.9829 116.054C59.9015 115.879 59.7771 115.729 59.6215 115.616C59.4947 115.544 59.3509 115.507 59.2051 115.509Z" fill="white"/>
<path d="M63.4427 118.383C63.422 118.385 63.4013 118.381 63.3819 118.374C63.3626 118.367 63.345 118.355 63.3303 118.341C63.3157 118.326 63.3043 118.308 63.2969 118.289C63.2895 118.27 63.2863 118.249 63.2875 118.228V113.019C63.2822 112.996 63.2821 112.973 63.2872 112.95C63.2923 112.927 63.3025 112.906 63.317 112.887C63.3315 112.869 63.35 112.854 63.3711 112.844C63.3921 112.834 63.4152 112.829 63.4386 112.829C63.462 112.829 63.485 112.834 63.5061 112.844C63.5271 112.854 63.5456 112.869 63.5601 112.887C63.5747 112.906 63.5849 112.927 63.59 112.95C63.5951 112.973 63.595 112.996 63.5896 113.019V118.228C63.5907 118.248 63.5878 118.268 63.5809 118.287C63.574 118.306 63.5633 118.323 63.5496 118.338C63.5358 118.352 63.5192 118.364 63.5009 118.372C63.4825 118.379 63.4627 118.383 63.4427 118.383Z" fill="white"/>
<path d="M63.0346 114.211H62.9693C62.9505 114.203 62.9335 114.192 62.9194 114.177C62.9053 114.162 62.8945 114.144 62.8876 114.125C62.8807 114.106 62.8778 114.086 62.8793 114.065C62.8807 114.045 62.8863 114.025 62.8958 114.007L63.4347 112.75L64.0471 113.452C64.0742 113.483 64.0876 113.524 64.0846 113.565C64.0815 113.607 64.0622 113.645 64.0308 113.672C63.9994 113.699 63.9585 113.713 63.9171 113.71C63.8758 113.707 63.8374 113.687 63.8103 113.656L63.5245 113.321L63.1734 114.138C63.1589 114.161 63.1384 114.18 63.114 114.193C63.0896 114.206 63.0622 114.212 63.0346 114.211Z" fill="white"/>
<path d="M64.8551 117.575C64.8139 117.575 64.7745 117.559 64.7454 117.53C64.7163 117.501 64.7 117.461 64.7 117.42V112.211C64.7 112.17 64.7163 112.13 64.7454 112.101C64.7745 112.072 64.8139 112.056 64.8551 112.056C64.8962 112.056 64.9357 112.072 64.9648 112.101C64.9939 112.13 65.0102 112.17 65.0102 112.211V117.42C65.0102 117.461 64.9939 117.501 64.9648 117.53C64.9357 117.559 64.8962 117.575 64.8551 117.575Z" fill="white"/>
<path d="M64.4062 113.403H64.3491C64.3306 113.396 64.3137 113.385 64.2995 113.371C64.2853 113.357 64.2741 113.34 64.2664 113.322C64.2588 113.304 64.255 113.284 64.2551 113.264C64.2553 113.244 64.2595 113.225 64.2674 113.207L64.8145 111.941L65.4187 112.643C65.4333 112.658 65.4448 112.675 65.4527 112.694C65.4606 112.713 65.4647 112.733 65.4647 112.754C65.4647 112.774 65.4606 112.794 65.4527 112.813C65.4448 112.832 65.4333 112.849 65.4187 112.864C65.405 112.878 65.3885 112.89 65.3703 112.897C65.352 112.905 65.3324 112.909 65.3126 112.909C65.2927 112.909 65.2731 112.905 65.2548 112.897C65.2366 112.89 65.2201 112.878 65.2064 112.864L64.9125 112.529L64.5614 113.346C64.5442 113.37 64.5203 113.388 64.4926 113.398C64.4649 113.408 64.4349 113.41 64.4062 113.403Z" fill="white"/>
<path d="M48.3212 130.206L18.4702 112.978V89.9939L48.3212 107.23V130.206Z" fill="#E0E0E0"/>
<path d="M32.269 103.401L34.5144 104.699V99.261L32.269 97.9628V103.401Z" fill="#F5F5F5"/>
<path d="M34.5144 99.2611L64.3654 82.0331L62.1201 80.7267L32.269 97.9629L34.5144 99.2611Z" fill="white"/>
<path d="M23.1979 104.217L30.3178 108.3C30.7297 108.568 31.0728 108.93 31.3195 109.355C31.5663 109.781 31.7098 110.258 31.7385 110.749V115.15C31.7385 116.048 31.1016 116.416 30.3178 115.967L23.1979 111.884C22.7862 111.616 22.4436 111.254 22.1981 110.829C21.9527 110.403 21.8113 109.925 21.7854 109.435V105.042C21.7854 104.127 22.4223 103.801 23.1979 104.217Z" fill="#F5F5F5"/>
<path d="M22.6506 105.311L22.9201 105.466V110.349L22.6506 110.194V105.311Z" fill="#E0E0E0"/>
<path d="M23.7449 105.948L24.2184 106.226V111.1L23.7449 110.831V105.948Z" fill="#E0E0E0"/>
<path d="M24.8469 106.585L25.1245 106.74L25.1164 111.623L24.8469 111.468V106.585Z" fill="#E0E0E0"/>
<path d="M25.6799 107.059L26.227 107.377L26.2188 112.26L25.6799 111.933V107.059Z" fill="#E0E0E0"/>
<path d="M27.0515 107.859L27.321 108.014V112.897L27.0515 112.733V107.859Z" fill="#E0E0E0"/>
<path d="M27.8435 108.308L28.4232 108.651V113.525L27.8435 113.182V108.308Z" fill="#E0E0E0"/>
<path d="M29.2561 109.133L29.5255 109.288V114.162L29.2561 114.007V109.133Z" fill="#E0E0E0"/>
<path d="M29.8848 109.484L30.0236 109.565V114.44L29.8848 114.366V109.484Z" fill="#E0E0E0"/>
<path d="M28.7581 108.863L28.8887 108.937V113.819L28.7581 113.746V108.863Z" fill="#E0E0E0"/>
<path d="M26.5374 107.565L26.668 107.638V112.521L26.5374 112.439V107.565Z" fill="#E0E0E0"/>
<path d="M25.3208 106.863L25.4596 106.944V111.819L25.3208 111.745V106.863Z" fill="#E0E0E0"/>
<path d="M24.447 106.381L24.5858 106.463V111.345L24.447 111.264V106.381Z" fill="#E0E0E0"/>
<path d="M23.2629 105.662L23.4017 105.744V110.619L23.2629 110.545V105.662Z" fill="#E0E0E0"/>
<path d="M30.3584 109.761L30.6278 109.924V114.799L30.3584 114.644V109.761Z" fill="#E0E0E0"/>
<path d="M71.5341 44.0416L48.3212 30.6348L25.1001 44.0416L48.3212 57.4403L71.5341 44.0416Z" fill="#F5F5F5"/>
<path d="M48.3213 103.401L71.5342 89.9939V44.0416L48.3213 57.4403V103.401Z" fill="#EBEBEB"/>
<path d="M52.1507 95.7746C52.048 95.7755 51.9469 95.7502 51.8567 95.7012C51.7291 95.6089 51.6275 95.4853 51.5617 95.3422C51.4959 95.1992 51.4682 95.0416 51.4811 94.8847V92.4352V92.2556H51.6036L53.5142 91.137V93.8559C53.5095 94.2057 53.422 94.5494 53.2588 94.8588C53.0956 95.1682 52.8613 95.4345 52.5752 95.6358C52.4483 95.7185 52.3019 95.7663 52.1507 95.7746ZM51.7832 92.6148V94.8765C51.7703 94.9801 51.7837 95.0853 51.8223 95.1824C51.8608 95.2794 51.9232 95.3652 52.0037 95.4317C52.0705 95.4623 52.1443 95.4746 52.2174 95.4674C52.2905 95.4602 52.3605 95.4338 52.4201 95.3909C52.6639 95.2176 52.8644 94.9905 53.006 94.7271C53.1476 94.4637 53.2265 94.1711 53.2366 93.8722V93.6763H52.5018L52.363 92.721L51.7832 92.6148ZM52.763 93.366H53.2366V91.6922L52.1017 92.3617L52.6651 92.4597L52.763 93.366Z" fill="white"/>
<path d="M52.4936 97.718C52.4736 97.718 52.4538 97.7139 52.4354 97.706C52.417 97.6981 52.4005 97.6866 52.3867 97.6721C52.373 97.6575 52.3623 97.6404 52.3554 97.6216C52.3485 97.6028 52.3456 97.5828 52.3467 97.5628V95.5216C52.3456 95.5016 52.3485 95.4816 52.3554 95.4628C52.3623 95.444 52.373 95.4269 52.3867 95.4123C52.4005 95.3978 52.417 95.3863 52.4354 95.3784C52.4538 95.3705 52.4736 95.3664 52.4936 95.3665C52.5143 95.3653 52.535 95.3685 52.5544 95.3758C52.5737 95.3832 52.5913 95.3946 52.606 95.4093C52.6206 95.4239 52.632 95.4415 52.6394 95.4609C52.6467 95.4802 52.6499 95.5009 52.6488 95.5216V97.5628C52.6499 97.5835 52.6467 97.6042 52.6394 97.6236C52.632 97.6429 52.6206 97.6605 52.606 97.6751C52.5913 97.6898 52.5737 97.7012 52.5544 97.7086C52.535 97.7159 52.5143 97.7191 52.4936 97.718Z" fill="white"/>
<path d="M51.6037 98.2324C51.571 98.2303 51.5398 98.218 51.5145 98.1971C51.4893 98.1762 51.4713 98.1479 51.4631 98.1162C51.455 98.0845 51.4571 98.051 51.4691 98.0205C51.4812 97.99 51.5025 97.9642 51.5302 97.9466L53.3102 96.9178C53.3459 96.8973 53.3883 96.8917 53.4281 96.9024C53.4679 96.9132 53.5019 96.9393 53.5224 96.975C53.543 97.0107 53.5486 97.0532 53.5378 97.093C53.5271 97.1328 53.501 97.1667 53.4653 97.1873L51.6853 98.2079C51.6614 98.2244 51.6328 98.233 51.6037 98.2324Z" fill="white"/>
<path d="M57.9396 94.7132C57.8815 94.7133 57.8247 94.6963 57.7763 94.6642C57.7139 94.6265 57.6633 94.5721 57.6301 94.5072C57.5969 94.4423 57.5825 94.3694 57.5885 94.2968V93.8804C57.5885 93.8392 57.6048 93.7998 57.6339 93.7707C57.663 93.7416 57.7025 93.7252 57.7436 93.7252C57.7847 93.7252 57.8242 93.7416 57.8533 93.7707C57.8824 93.7998 57.8987 93.8392 57.8987 93.8804V94.2968C57.8875 94.3313 57.8875 94.3684 57.8987 94.4029C57.9334 94.4127 57.9702 94.4127 58.0049 94.4029C58.0981 94.3155 58.1712 94.2089 58.2191 94.0905C58.267 93.9721 58.2887 93.8447 58.2825 93.7171V90.9981C58.2825 90.957 58.2988 90.9175 58.3279 90.8885C58.357 90.8594 58.3965 90.843 58.4376 90.843C58.4583 90.8418 58.479 90.845 58.4984 90.8524C58.5177 90.8598 58.5353 90.8712 58.55 90.8858C58.5646 90.9005 58.576 90.918 58.5834 90.9374C58.5907 90.9568 58.5939 90.9775 58.5928 90.9981V93.7171C58.5995 93.8989 58.5639 94.0799 58.4888 94.2456C58.4137 94.4114 58.3012 94.5575 58.16 94.6724C58.0909 94.7034 58.0153 94.7174 57.9396 94.7132Z" fill="white"/>
<path d="M56.3311 92.3699V92.1086C56.3678 91.4283 56.5644 90.7662 56.9049 90.1761C57.2454 89.5859 57.7201 89.0843 58.2906 88.712C58.4952 88.5426 58.7469 88.44 59.0116 88.4181C59.2764 88.3962 59.5414 88.4561 59.7711 88.5896C60.0007 88.7231 60.1839 88.9239 60.2959 89.1648C60.4078 89.4057 60.4432 89.6751 60.3972 89.9367V90.0184L56.3311 92.3699ZM59.2051 88.7446C58.9336 88.7584 58.6697 88.8398 58.4376 88.9814C57.9542 89.3021 57.5447 89.7221 57.2364 90.2134C56.9281 90.7048 56.728 91.2562 56.6495 91.831L60.0869 89.8469C60.1017 89.6548 60.0666 89.4622 59.9851 89.2877C59.9035 89.1132 59.7783 88.9627 59.6215 88.8508C59.4989 88.7645 59.3548 88.7136 59.2051 88.7038V88.7446Z" fill="white"/>
<path d="M63.4427 91.5534C63.4015 91.5534 63.3621 91.537 63.333 91.508C63.3039 91.4789 63.2875 91.4394 63.2875 91.3983V86.189C63.2822 86.1663 63.2821 86.1426 63.2872 86.1198C63.2923 86.097 63.3025 86.0756 63.317 86.0573C63.3315 86.039 63.35 86.0242 63.3711 86.014C63.3921 86.0038 63.4152 85.9985 63.4386 85.9985C63.462 85.9985 63.485 86.0038 63.5061 86.014C63.5271 86.0242 63.5456 86.039 63.5601 86.0573C63.5747 86.0756 63.5849 86.097 63.59 86.1198C63.5951 86.1426 63.595 86.1663 63.5896 86.189V91.3983C63.5897 91.438 63.5745 91.4763 63.5471 91.5052C63.5198 91.534 63.4824 91.5513 63.4427 91.5534Z" fill="white"/>
<path d="M63.0346 87.3974H62.9693C62.9505 87.3896 62.9335 87.3779 62.9194 87.3631C62.9053 87.3483 62.8945 87.3308 62.8876 87.3116C62.8807 87.2924 62.8778 87.2719 62.8793 87.2516C62.8807 87.2312 62.8863 87.2114 62.8958 87.1933L63.4347 85.9359L64.0471 86.6381C64.0741 86.6669 64.0891 86.7048 64.0891 86.7442C64.0891 86.7837 64.0741 86.8216 64.0471 86.8504C64.017 86.8779 63.9777 86.8932 63.9369 86.8932C63.8961 86.8932 63.8567 86.8779 63.8266 86.8504L63.5409 86.5156L63.1898 87.3321C63.1737 87.3576 63.1502 87.3775 63.1225 87.3892C63.0947 87.4009 63.0641 87.4038 63.0346 87.3974Z" fill="white"/>
<path d="M64.8551 90.7369C64.8146 90.7349 64.7763 90.7179 64.7476 90.6893C64.7189 90.6606 64.7019 90.6223 64.7 90.5818V85.3725C64.7 85.3314 64.7163 85.2919 64.7454 85.2628C64.7745 85.2338 64.8139 85.2174 64.8551 85.2174C64.8962 85.2174 64.9357 85.2338 64.9648 85.2628C64.9939 85.2919 65.0102 85.3314 65.0102 85.3725V90.5818C65.0082 90.6223 64.9913 90.6606 64.9626 90.6893C64.9339 90.7179 64.8956 90.7349 64.8551 90.7369Z" fill="white"/>
<path d="M64.4064 86.5973H64.3492C64.3304 86.5893 64.3134 86.5776 64.2991 86.563C64.2848 86.5484 64.2736 86.5311 64.266 86.5122C64.2584 86.4932 64.2546 86.4729 64.2549 86.4525C64.2552 86.4321 64.2595 86.4119 64.2676 86.3931L64.8146 85.1357L65.4188 85.8379C65.4334 85.8524 65.4449 85.8695 65.4528 85.8884C65.4607 85.9074 65.4648 85.9277 65.4648 85.9481C65.4648 85.9686 65.4607 85.9889 65.4528 86.0079C65.4449 86.0268 65.4334 86.044 65.4188 86.0584C65.3892 86.0837 65.3516 86.0976 65.3127 86.0976C65.2737 86.0976 65.2361 86.0837 65.2065 86.0584L64.9126 85.7236L64.5615 86.5401C64.5437 86.5633 64.5196 86.581 64.4922 86.5911C64.4647 86.6012 64.435 86.6033 64.4064 86.5973Z" fill="white"/>
<path d="M48.3212 103.401L25.1001 89.9939V44.0416L48.3212 57.4403V103.401Z" fill="#E0E0E0"/>
<path d="M36.1147 55.8318L38.3683 57.13V51.7003L36.1147 50.3939V55.8318Z" fill="#F5F5F5"/>
<path d="M38.3683 51.7003L61.5812 38.2935L59.3358 36.9952L36.1147 50.3939L38.3683 51.7003Z" fill="white"/>
<path d="M29.8277 81.2329L36.9475 85.3154C37.3597 85.5831 37.7026 85.9446 37.9482 86.3704C38.1937 86.7961 38.3348 87.274 38.36 87.7649V92.1576C38.36 93.0558 37.7313 93.4232 36.9475 92.9741L29.8277 88.8916C29.4144 88.6244 29.0703 88.2631 28.8233 87.8374C28.5764 87.4117 28.4337 86.9336 28.407 86.4422V82.0494C28.4151 81.1513 29.0439 80.7838 29.8277 81.2329Z" fill="#F5F5F5"/>
<path d="M29.2725 82.3352L29.5419 82.4903V87.373L29.2725 87.2097V82.3352Z" fill="#E0E0E0"/>
<path d="M30.3748 82.972L30.8402 83.2415V88.1241L30.3748 87.8465V82.972Z" fill="#E0E0E0"/>
<path d="M31.4771 83.6007L31.7465 83.764V88.6385L31.4771 88.4834V83.6007Z" fill="#E0E0E0"/>
<path d="M32.3098 84.0743L32.8487 84.4009V89.2754L32.3098 88.957V84.0743Z" fill="#E0E0E0"/>
<path d="M33.6816 84.8745L33.9511 85.0296V89.9123L33.6816 89.7571V84.8745Z" fill="#E0E0E0"/>
<path d="M34.4734 85.3236L35.0531 85.6665V90.5492L34.4734 90.2063V85.3236Z" fill="#E0E0E0"/>
<path d="M35.8862 86.1482L36.1557 86.3033V91.186L35.8862 91.0227V86.1482Z" fill="#E0E0E0"/>
<path d="M36.5146 86.5074L36.6453 86.5809V91.4636L36.5146 91.3819V86.5074Z" fill="#E0E0E0"/>
<path d="M35.3799 85.8789L35.5187 85.9605V90.8432L35.3799 90.7615V85.8789Z" fill="#E0E0E0"/>
<path d="M33.1589 84.5807L33.2977 84.6623V89.5368L33.1589 89.4633V84.5807Z" fill="#E0E0E0"/>
<path d="M31.9424 83.8865L32.0812 83.96V88.8426L31.9424 88.7609V83.8865Z" fill="#E0E0E0"/>
<path d="M31.0769 83.4048L31.2075 83.4783V88.3609L31.0769 88.2793V83.4048Z" fill="#E0E0E0"/>
<path d="M29.8931 82.6863L30.0237 82.7598V87.6424L29.8931 87.5607V82.6863Z" fill="#E0E0E0"/>
<path d="M36.9802 86.7852L37.2578 86.9403V91.8148L36.9802 91.6596V86.7852Z" fill="#E0E0E0"/>
<path d="M25.3205 170.549L114.433 221.988C115.528 222.544 116.74 222.834 117.968 222.834C119.197 222.834 120.408 222.544 121.503 221.988L316.752 109.312C318.703 108.185 318.703 106.357 316.752 105.23L227.64 53.7906C226.545 53.2309 225.333 52.9391 224.104 52.9391C222.875 52.9391 221.663 53.2309 220.569 53.7906L25.3205 166.467C23.3691 167.594 23.3691 169.423 25.3205 170.549Z" fill="#455A64"/>
<path d="M73.4855 194.432C75.0048 195.198 76.6827 195.597 78.3844 195.597C80.0862 195.597 81.7641 195.198 83.2834 194.432C86.0023 192.864 86.0023 190.349 83.2834 188.757C81.7653 187.987 80.0868 187.585 78.3844 187.585C76.682 187.585 75.0036 187.987 73.4855 188.757C70.7666 190.349 70.7666 192.88 73.4855 194.432Z" fill="#263238"/>
<path d="M116.107 221.988L26.9944 170.549C25.2471 169.537 25.0675 167.969 26.4474 166.842C25.5758 167.532 24.8592 168.397 24.3443 169.382C23.8295 170.366 23.5278 171.449 23.459 172.558V175.881C23.526 177.108 23.881 178.301 24.4952 179.365C25.1095 180.429 25.9656 181.333 26.9944 182.005L116.107 233.444C117.196 234.013 118.413 234.294 119.642 234.26V222.837C118.41 222.861 117.193 222.569 116.107 221.988Z" fill="#37474F"/>
<path d="M316.743 120.759C317.775 120.09 318.633 119.186 319.249 118.122C319.865 117.058 320.22 115.863 320.287 114.636V111.313C320.221 110.202 319.919 109.118 319.403 108.133C318.886 107.148 318.166 106.283 317.291 105.597C318.679 106.724 318.499 108.292 316.752 109.296L121.503 221.988C120.413 222.555 119.197 222.836 117.968 222.805V234.293C119.197 234.324 120.413 234.044 121.503 233.476L316.743 120.759Z" fill="#263238"/>
<path d="M129.113 211.333L43.8222 162.066C42.6465 161.388 42.6465 160.286 43.8222 159.616L208.689 64.405C209.346 64.0708 210.074 63.8966 210.812 63.8966C211.549 63.8966 212.277 64.0708 212.934 64.405L298.258 113.664C299.426 114.342 299.426 115.436 298.258 116.114L133.326 211.333C132.673 211.662 131.951 211.833 131.22 211.833C130.488 211.833 129.767 211.662 129.113 211.333Z" fill="white"/>
<path d="M94.7471 183.825L104.7 178.077L101.385 176.167L91.4321 181.907L94.7471 183.825Z" fill="#FFAF51"/>
<path d="M214.151 114.889L224.104 109.141L220.781 107.23L210.836 112.978L214.151 114.889Z" fill="#FFAF51"/>
<path d="M234.049 103.401L244.002 97.6527L240.687 95.7421L230.734 101.482L234.049 103.401Z" fill="#FFAF51"/>
<path d="M265.99 83.2741C266.377 83.4674 266.803 83.5681 267.235 83.5681C267.668 83.5681 268.094 83.4674 268.481 83.2741C268.63 83.2229 268.761 83.1261 268.853 82.9972C268.945 82.8684 268.994 82.714 268.994 82.5556C268.994 82.3972 268.945 82.2428 268.853 82.114C268.761 81.9851 268.63 81.8883 268.481 81.8371C268.095 81.64 267.668 81.5372 267.235 81.5372C266.803 81.5372 266.376 81.64 265.99 81.8371C265.84 81.8883 265.71 81.9851 265.618 82.114C265.526 82.2428 265.477 82.3972 265.477 82.5556C265.477 82.714 265.526 82.8684 265.618 82.9972C265.71 83.1261 265.84 83.2229 265.99 83.2741Z" fill="#263238"/>
<path d="M269.967 94.55C270.737 94.9402 271.589 95.1436 272.453 95.1436C273.317 95.1436 274.168 94.9402 274.939 94.55C276.311 93.7335 276.311 92.4679 274.939 91.6759C274.168 91.2856 273.317 91.0823 272.453 91.0823C271.589 91.0823 270.737 91.2856 269.967 91.6759C268.595 92.4679 268.595 93.758 269.967 94.55Z" fill="#263238"/>
<path d="M266.456 89.553C267.37 89.0223 267.321 88.1405 266.349 87.5771L250.02 78.1302C249.494 77.8485 248.909 77.6956 248.313 77.6843C247.717 77.6729 247.126 77.8034 246.59 78.0649C245.676 78.5956 245.725 79.4774 246.696 80.0408L263.075 89.4877C263.595 89.7608 264.171 89.9089 264.758 89.9202C265.344 89.9316 265.926 89.8058 266.456 89.553Z" fill="#263238"/>
<path d="M238.581 51.2432L239.136 50.9166C238.752 52.3099 238.566 53.75 238.581 55.195V57.1873C238.581 64.3398 247.162 82.6129 250.322 89.0795C250.648 89.7572 246.313 94.3704 246.313 94.3704L251.465 91.3984C251.465 91.3984 264.341 80.784 264.341 72.0638V70.0716C264.341 61.3106 258.577 50.8839 251.465 46.777C247.872 44.7113 244.631 44.6378 242.296 46.2054L237.397 49.0142L238.581 51.2432ZM245.023 57.9303C245.023 53.8478 247.905 52.1577 251.465 54.2152C251.171 56.8525 255.988 65.0664 257.899 65.3685C257.899 69.451 255.017 71.1412 251.465 69.0836C249.595 67.8588 248.041 66.2107 246.927 64.2729C245.814 62.3352 245.172 60.1622 245.055 57.9303H245.023Z" fill="#FFAF51"/>
<path d="M233.282 60.3796C233.429 69.1325 246.721 94.3703 246.721 94.3703C246.721 94.3703 259.426 83.5762 259.287 74.8234V72.8312C259.14 64.0784 253.204 53.7415 246.019 49.757C238.834 45.7726 233.135 49.6264 233.282 58.3874V60.3796ZM239.732 61.0165C239.667 56.934 242.524 55.1949 246.109 57.1871C248.003 58.3782 249.59 59.9993 250.741 61.9188C251.891 63.8382 252.573 66.002 252.73 68.2343C252.804 72.3168 249.946 74.0559 246.354 72.0637C244.461 70.8702 242.876 69.2485 241.726 67.3295C240.576 65.4105 239.893 63.248 239.732 61.0165Z" fill="#FFAF51"/>
<path opacity="0.1" d="M233.282 60.3796C233.429 69.1325 246.721 94.3703 246.721 94.3703C246.721 94.3703 259.426 83.5762 259.287 74.8234V72.8312C259.14 64.0784 253.204 53.7415 246.019 49.757C238.834 45.7726 233.135 49.6264 233.282 58.3874V60.3796ZM239.732 61.0165C239.667 56.934 242.524 55.1949 246.109 57.1871C248.003 58.3782 249.59 59.9993 250.741 61.9188C251.891 63.8382 252.573 66.002 252.73 68.2343C252.804 72.3168 249.946 74.0559 246.354 72.0637C244.461 70.8702 242.876 69.2485 241.726 67.3295C240.576 65.4105 239.893 63.248 239.732 61.0165Z" fill="black"/>
<path d="M272.846 4.6694H272.876L278.038 1.68577H278.08C281.332 0.0388033 285.676 0.492319 290.354 3.53562C299.759 9.58642 306.937 23.5498 306.394 34.7145C306.12 40.282 304.007 44.101 300.743 45.7838H300.713L295.546 48.7674H295.51C292.258 50.4204 287.908 49.9609 283.223 46.9236C273.825 40.8668 266.646 26.9094 267.189 15.7446C267.476 10.1712 269.618 6.35216 272.846 4.6694Z" fill="#37474F"/>
<path d="M295.808 48.6123L300.731 45.748H300.767C304.001 44.0593 306.138 40.2402 306.412 34.6787C306.651 29.7021 305.356 24.1704 303.017 19.0326L297.849 22.0162C300.194 27.154 301.489 32.6857 301.245 37.6683C300.988 43.0985 298.935 46.8758 295.808 48.6123Z" fill="#263238"/>
<path d="M283.247 46.9177C273.849 40.8609 266.67 26.9035 267.213 15.7387C267.756 4.57399 275.83 0.426749 285.21 6.47755C294.591 12.5283 301.793 26.4917 301.25 37.6565C300.707 48.8212 292.646 52.9685 283.247 46.9177Z" fill="#455A64"/>
<path d="M291.124 46.13C296.668 46.3985 297.569 40.1627 297.688 37.4774C298.165 27.6315 291.566 14.8019 283.277 9.46117C281.511 8.22408 279.456 7.4636 277.31 7.25328C271.772 6.98475 270.871 13.2205 270.746 15.9058C270.268 25.7518 276.862 38.5814 285.157 43.9519C286.923 45.189 288.978 45.9495 291.124 46.1598V46.13Z" fill="#FAFAFA"/>
<path d="M283.146 28.5444C283.211 28.5446 283.276 28.5325 283.337 28.5086C283.461 28.4682 283.569 28.3878 283.644 28.28C283.718 28.1721 283.755 28.0428 283.748 27.9119V13.6919C283.748 13.5337 283.686 13.3819 283.574 13.27C283.462 13.1581 283.31 13.0952 283.152 13.0952C282.993 13.0952 282.842 13.1581 282.73 13.27C282.618 13.3819 282.555 13.5337 282.555 13.6919V26.1814L275.913 17.6482C275.815 17.5216 275.671 17.4392 275.512 17.419C275.353 17.3989 275.193 17.4427 275.066 17.5408C274.939 17.6389 274.857 17.7833 274.837 17.9423C274.817 18.1012 274.86 18.2616 274.959 18.3882L282.686 28.3117C282.741 28.3824 282.81 28.4399 282.89 28.4802C282.969 28.5205 283.057 28.5424 283.146 28.5444Z" fill="#37474F"/>
<path d="M286.571 39.0648C286.598 39.0703 286.627 39.0703 286.654 39.0648C286.718 39.0454 286.771 39.0023 286.803 38.9444C286.836 38.8866 286.844 38.8185 286.827 38.7545L283.48 27.4823C283.461 27.4182 283.417 27.3643 283.358 27.3324C283.3 27.3005 283.231 27.2933 283.167 27.3123C283.102 27.3313 283.049 27.3749 283.017 27.4337C282.985 27.4924 282.977 27.5615 282.996 27.6255L286.338 38.8977C286.355 38.946 286.387 38.9879 286.428 39.0178C286.47 39.0476 286.52 39.0641 286.571 39.0648Z" fill="#FFAF51"/>
<path d="M283.337 25.0895C282.227 24.3794 281.278 24.8687 281.218 26.1815C281.222 26.8975 281.395 27.6026 281.722 28.2393C282.05 28.876 282.523 29.4263 283.104 29.8454C284.208 30.5615 285.157 30.0721 285.222 28.7593C285.217 28.0427 285.044 27.3373 284.716 26.6999C284.389 26.0625 283.916 25.5109 283.337 25.0895Z" fill="#FFAF51"/>
<path d="M93.8417 164.322L132.21 186.343C137.626 189.446 146.391 189.446 151.796 186.343L223.667 144.906C250.786 129.353 186.713 99.1391 165.773 111.59L93.8417 153.067C88.4667 156.18 88.4769 161.219 93.8417 164.322Z" fill="#E0E0E0"/>
<path d="M154.623 96.3545C155.218 96.1326 155.734 95.74 156.107 95.2259C156.48 94.7118 156.693 94.099 156.719 93.4645C156.884 92.5811 156.766 91.6681 156.38 90.8563C155.994 90.0446 155.361 89.3759 154.572 88.9462C153.905 88.4175 153.104 88.0858 152.259 87.9887C151.414 87.8915 150.558 88.0329 149.789 88.3967L154.623 96.3545Z" fill="#455A64"/>
<path d="M153.717 96.5377C153.35 96.5007 152.999 96.3673 152.699 96.151L150.41 94.6348C149.893 94.2823 149.472 93.8064 149.186 93.2501C148.9 92.6939 148.758 92.075 148.771 91.4496L148.965 89.6891C148.973 89.4787 149.025 89.2723 149.117 89.083C149.21 88.8937 149.34 88.7257 149.501 88.5898C149.662 88.4539 149.849 88.3529 150.051 88.2934C150.253 88.2339 150.466 88.2171 150.674 88.2441C151.038 88.2944 151.386 88.4267 151.692 88.6308L153.971 90.1572C154.485 90.5149 154.9 90.9959 155.18 91.556C155.459 92.1161 155.593 92.7373 155.569 93.3627L155.376 95.1334C155.363 95.336 155.31 95.534 155.219 95.7154C155.128 95.8968 155.001 96.058 154.846 96.1891C154.691 96.3203 154.511 96.4188 154.317 96.4787C154.123 96.5386 153.919 96.5587 153.717 96.5377Z" fill="#263238"/>
<path d="M151.356 89.0481L153.636 90.5746C154.059 90.8759 154.402 91.2766 154.635 91.7415C154.867 92.2063 154.982 92.7211 154.969 93.2407L154.775 95.0114C154.674 95.9272 153.921 96.2223 153.086 95.6627L150.796 94.1362C150.372 93.8361 150.028 93.4357 149.795 92.9705C149.563 92.5053 149.449 91.9899 149.463 91.47L149.667 89.7096C149.789 88.7937 150.522 88.4986 151.356 89.0481Z" fill="#455A64"/>
<g opacity="0.2">
<path d="M152.038 89.5063L149.484 91.3481L149.697 89.3129L150.43 88.7939C150.761 88.7646 151.091 88.8589 151.356 89.0585L152.038 89.5063Z" fill="white"/>
<path d="M154.012 90.8903L150.227 93.6277C150.126 93.5054 150.034 93.3762 149.952 93.241L153.636 90.585C153.773 90.6714 153.899 90.7739 154.012 90.8903Z" fill="white"/>
<path d="M154.958 93.2408V93.5461L152.547 95.2862L151.529 94.584L154.887 92.1621C154.993 92.5116 155.017 92.8805 154.958 93.2408Z" fill="white"/>
</g>
<path d="M161.695 162.5L144.691 152.68L156.027 146.137L173.031 155.957L161.695 162.5Z" fill="#FFAF51"/>
<path opacity="0.3" d="M161.695 162.5L144.691 152.68L156.027 146.137L173.031 155.957L161.695 162.5Z" fill="black"/>
<path d="M218.214 129.926L201.209 120.106L203.967 116.666L220.972 126.476L218.214 129.926Z" fill="#FFAF51"/>
<path opacity="0.3" d="M218.214 129.926L201.209 120.106L203.967 116.666L220.972 126.476L218.214 129.926Z" fill="black"/>
<path d="M155.895 163.375L157.839 159.508L153.219 156.832C151.743 155.987 149.789 156.079 147.632 157.32C143.063 159.966 139.359 166.764 139.359 172.524C139.359 175.576 140.376 177.663 142.004 178.629H142.076L146.736 181.407L148.772 177.337C150.852 175.622 152.558 173.497 153.783 171.096C155.009 168.694 155.727 166.066 155.895 163.375Z" fill="#37474F"/>
<path d="M155.895 163.375L157.839 159.508L153.219 156.832C151.743 155.987 149.789 156.079 147.632 157.32C143.063 159.966 139.359 166.764 139.359 172.524C139.359 175.576 140.376 177.663 142.004 178.629H142.076L146.736 181.407L148.772 177.337C150.852 175.622 152.558 173.497 153.783 171.096C155.009 168.694 155.727 166.066 155.895 163.375Z" fill="black"/>
<path d="M160.688 165.736C160.588 168.361 159.966 170.94 158.861 173.323C157.755 175.706 156.186 177.845 154.246 179.616C153.677 180.101 153.067 180.537 152.425 180.919C147.856 183.555 144.152 181.021 144.152 175.271C144.326 170.607 146.126 166.15 149.24 162.673C150.144 161.658 151.197 160.786 152.364 160.088C156.984 157.463 160.688 159.987 160.688 165.736Z" fill="#263238"/>
<path d="M152.414 163.579C155.325 161.899 157.686 163.65 157.686 167.486C157.686 171.323 155.325 175.79 152.414 177.469C149.504 179.148 147.153 177.398 147.153 173.561C147.153 169.725 149.504 165.258 152.414 163.579Z" fill="#37474F"/>
<path d="M154.796 169.46C154.592 171.374 153.371 173.388 152.058 173.979C151.834 174.104 151.578 174.16 151.322 174.138C151.066 174.116 150.823 174.018 150.624 173.857C150.355 173.55 150.162 173.186 150.06 172.792C149.957 172.398 149.948 171.985 150.033 171.587C150.237 169.674 151.458 167.649 152.781 167.069C153.076 166.918 153.414 166.875 153.737 166.947C154.501 167.13 154.938 168.076 154.796 169.46Z" fill="#455A64"/>
<path d="M160.688 165.736C160.588 168.361 159.966 170.94 158.861 173.323C157.755 175.706 156.186 177.845 154.246 179.616C156.812 176.711 158.617 173.215 159.497 169.44C160.189 166.123 159.935 161.36 157.086 160.159C154.236 158.959 150.481 161.492 149.291 162.653C150.194 161.637 151.248 160.765 152.415 160.068C156.984 157.463 160.688 159.986 160.688 165.736Z" fill="#455A64"/>
<path d="M212.393 130.791L214.337 126.934L209.707 124.248C208.241 123.403 206.277 123.505 204.13 124.746C199.561 127.382 195.857 134.19 195.857 139.939C195.857 142.992 196.874 145.078 198.492 146.045H198.553L203.295 148.782L205.331 144.712C207.391 142.992 209.079 140.871 210.293 138.477C211.507 136.084 212.222 133.469 212.393 130.791Z" fill="#37474F"/>
<path d="M212.393 130.791L214.337 126.934L209.707 124.248C208.241 123.403 206.277 123.505 204.13 124.746C199.561 127.382 195.857 134.19 195.857 139.939C195.857 142.992 196.874 145.078 198.492 146.045H198.553L203.295 148.782L205.331 144.712C207.391 142.992 209.079 140.871 210.293 138.477C211.507 136.084 212.222 133.469 212.393 130.791Z" fill="black"/>
<path d="M217.217 133.172C217.115 135.797 216.494 138.376 215.388 140.758C214.282 143.141 212.714 145.28 210.775 147.053C210.213 147.542 209.607 147.978 208.964 148.355C204.395 150.991 200.68 148.467 200.691 142.707C200.859 138.048 202.652 133.595 205.758 130.119C206.666 129.106 207.723 128.238 208.893 127.545C213.513 124.889 217.217 127.412 217.217 133.172Z" fill="#263238"/>
<path d="M208.943 130.994C211.844 129.315 214.205 131.066 214.205 134.902C214.205 138.739 211.844 143.216 208.943 144.895C206.043 146.574 203.672 144.824 203.672 140.987C203.672 137.151 206.033 132.673 208.943 130.994Z" fill="#37474F"/>
<path d="M211.314 136.886C211.121 138.789 209.89 140.814 208.577 141.395C208.354 141.522 208.098 141.579 207.842 141.559C207.587 141.539 207.343 141.443 207.142 141.283C206.876 140.974 206.684 140.607 206.584 140.211C206.483 139.816 206.476 139.402 206.562 139.003C206.766 137.1 207.987 135.075 209.299 134.485C209.614 134.327 209.974 134.284 210.317 134.363C211.019 134.546 211.467 135.492 211.314 136.886Z" fill="#455A64"/>
<path d="M217.217 133.172C217.115 135.797 216.494 138.376 215.388 140.758C214.282 143.141 212.714 145.28 210.775 147.053C213.335 144.145 215.135 140.649 216.016 136.876C216.718 133.559 216.454 128.796 213.604 127.596C210.755 126.395 207 128.929 205.809 130.079C206.717 129.066 207.774 128.198 208.944 127.504C213.513 124.889 217.217 127.412 217.217 133.172Z" fill="#455A64"/>
<path d="M225.938 114.428V119.943C225.938 122.996 223.231 127.066 219.903 128.949L218.214 129.967C217.196 125.194 213.462 123.403 208.933 126.008C207.587 126.803 206.371 127.802 205.331 128.969C202.385 132.253 200.418 136.297 199.653 140.641L161.685 162.49C160.729 157.727 156.943 155.926 152.415 158.531C151.074 159.339 149.861 160.341 148.812 161.503C145.879 164.791 143.923 168.834 143.164 173.175L139.42 175.342C136.092 177.266 132.978 177.378 127.341 175.342C121.703 173.307 106.357 164.82 99.7528 159.406C95.4381 155.926 93.7183 152.985 93.7183 149.373V142.829C93.7183 142.514 93.7183 142.178 93.7183 141.873C93.7183 141.567 93.7183 141.252 93.7794 140.947C93.8436 139.634 94.0069 138.327 94.2679 137.039C94.3552 136.466 94.4741 135.899 94.624 135.34C95.4822 131.642 96.9287 128.107 98.9082 124.868C102.979 118.437 104.546 116.972 108.657 114.59L122.018 119.943C122.018 119.943 167.659 93.6478 174.935 89.4145C182.211 85.1812 201.647 86.5244 212.922 93.6681C224.198 100.812 225.938 106.968 225.938 114.428Z" fill="#FFAF51"/>
<path opacity="0.15" d="M225.938 114.428V119.943C225.938 122.996 223.231 127.066 219.903 128.949L218.214 129.967C217.196 125.194 213.461 123.403 208.933 126.008C207.586 126.803 206.371 127.802 205.331 128.969C202.385 132.253 200.417 136.297 199.652 140.642L161.685 162.49C160.728 157.727 156.943 155.926 152.414 158.531C151.074 159.34 149.86 160.341 148.812 161.503C145.879 164.791 143.923 168.834 143.164 173.175L139.419 175.342C136.092 177.266 132.978 177.378 127.34 175.342C121.703 173.307 106.357 164.82 99.7526 159.406C95.4379 155.926 93.7181 152.985 93.7181 149.373V142.829C93.7181 142.514 93.7181 142.178 93.7181 141.873C93.7181 141.568 93.7181 141.252 93.7791 140.947C93.8434 139.634 94.0067 138.328 94.2676 137.039C94.3549 136.467 94.4739 135.899 94.6238 135.34C95.4819 131.642 96.9284 128.107 98.908 124.868C102.978 118.437 104.546 116.972 108.657 114.59L122.018 119.943L165.43 94.93C169.856 92.3758 200.416 115.374 202.186 114.855C212.424 111.802 220.086 106.857 221.358 100.659C225.164 105.127 225.938 109.482 225.938 114.428Z" fill="black"/>
<path opacity="0.15" d="M145.189 132.714L108.402 114.733C104.464 117.022 102.877 118.559 98.8877 124.909C96.9052 128.157 95.4586 131.703 94.6035 135.411C94.4536 135.97 94.3347 136.538 94.2474 137.11C93.9865 138.399 93.8232 139.705 93.7589 141.018C93.7589 141.323 93.708 141.639 93.6979 141.944C93.6877 142.249 93.6979 142.585 93.6979 142.901V149.454C93.6979 153.067 95.4176 156.007 99.7323 159.488C106.337 164.901 121.682 173.358 127.32 175.424C131.034 176.777 133.639 177.164 135.949 176.736C135.034 174.345 135.858 169.338 137.11 159.589C138.687 147.124 140.804 137.629 145.189 132.714Z" fill="black"/>
<path d="M201.372 115.455C203.529 114.173 204.517 112.311 203.662 110.296L180.602 105.849V112.402L201.372 115.455Z" fill="#263238"/>
<path d="M152.262 91.5107H174.935C178.578 91.5107 184.887 93.6172 192.784 98.7969C200.68 103.977 209.066 110.784 202.186 114.875L152.262 91.5107Z" fill="#263238"/>
<path d="M153.025 92.2433H175.698C179.229 92.2433 186.271 96.0085 191.98 99.2852C197.689 102.562 206.318 110.642 203.316 112.372C202.207 113.013 199.581 112.687 191.98 111.741L182.302 110.53L153.025 92.2433Z" fill="#455A64"/>
<path opacity="0.2" d="M202.064 107.793C199.147 104.432 195.712 101.56 191.888 99.2853C186.22 96.0085 179.178 92.2331 175.606 92.2433H152.933L163.435 98.807L166.274 97.5553C162.835 95.52 172.492 94.5024 177.977 95.286C183.462 96.0695 198.045 102.704 202.064 107.793Z" fill="white"/>
<path d="M147.123 135.828C146.877 138.058 146.826 140.305 146.97 142.544C147.052 144.783 148.751 145.78 150.756 144.631L201.372 115.455C203.408 114.305 203.133 113.135 200.843 112.85L187.675 111.202C184.987 110.995 182.295 111.541 179.901 112.779L150.756 129.549C148.772 130.709 147.459 132.653 147.123 135.828Z" fill="#263238"/>
<path d="M148.202 135.523C147.856 137.754 147.777 140.019 147.967 142.27C148.13 143.562 149.28 144.05 150.613 143.287L197.617 116.208C198.95 115.435 198.798 114.651 197.261 114.458L185.803 113.013C184.012 112.862 182.214 113.215 180.613 114.031L150.623 131.33C149.28 132.154 148.619 132.958 148.202 135.523Z" fill="#37474F"/>
<path d="M169.083 119.251V133.752L170.04 133.203V118.702L169.083 119.251Z" fill="#263238"/>
<path d="M186.271 112.026V123.82L187.227 123.261V111.476L186.271 112.026Z" fill="#263238"/>
<path d="M135.4 134.19C136.522 134.762 137.763 135.06 139.023 135.06C140.282 135.06 141.523 134.762 142.645 134.19L180.226 112.545C183.564 110.622 183.564 107.457 180.226 105.574L158.307 92.9152C156.435 91.9666 154.366 91.4723 152.267 91.4723C150.168 91.4723 148.099 91.9666 146.227 92.9152L108.647 114.56C106.611 115.71 106.611 117.613 108.647 118.742L135.4 134.19Z" fill="#FFAF51"/>
<path opacity="0.15" d="M137.578 130.832C131.472 128.033 127.218 125.744 122.171 121.062C117.123 116.381 120.085 110.255 132.266 100.964L108.657 114.601C106.622 115.75 106.622 117.653 108.657 118.783L135.4 134.19C136.522 134.762 137.763 135.06 139.023 135.06C140.282 135.06 141.523 134.762 142.645 134.19L155.132 127.066C155.06 127.066 143.683 133.63 137.578 130.832Z" fill="black"/>
<path opacity="0.3" d="M180.226 105.615L158.307 92.9559C155.776 91.6536 152.889 91.2107 150.084 91.694C151.815 91.613 153.539 91.9626 155.101 92.7117C157.93 93.9328 166.132 98.8174 175.382 103.905C184.633 108.994 181 110.886 178.435 112.362C175.871 113.837 146.665 131.91 142.666 134.19L180.247 112.545C183.564 110.663 183.564 107.538 180.226 105.615Z" fill="white"/>
<path d="M105.635 157.188V152.222C105.635 151.601 106.072 151.357 106.601 151.662L115.048 156.537C115.269 156.682 115.454 156.878 115.586 157.108C115.719 157.337 115.796 157.595 115.811 157.86V162.754C115.811 163.375 115.373 163.63 114.793 163.324L106.357 158.501C106.143 158.353 105.967 158.157 105.841 157.929C105.716 157.702 105.645 157.448 105.635 157.188Z" fill="#37474F"/>
<path d="M107.222 146.249V145.597C107.222 144.824 107.761 144.519 108.433 144.905L116.187 149.383C116.538 149.612 116.83 149.92 117.04 150.283C117.25 150.645 117.373 151.051 117.398 151.469V152.059C117.398 152.833 116.849 153.148 116.187 152.762L108.433 148.335C108.08 148.109 107.785 147.801 107.575 147.438C107.364 147.076 107.243 146.668 107.222 146.249Z" fill="#FFAF51"/>
<path opacity="0.2" d="M107.222 146.249V145.597C107.222 144.824 107.761 144.519 108.433 144.905L116.187 149.383C116.538 149.612 116.83 149.92 117.04 150.283C117.25 150.645 117.373 151.051 117.398 151.469V152.059C117.398 152.833 116.849 153.148 116.187 152.762L108.433 148.335C108.08 148.109 107.785 147.801 107.575 147.438C107.364 147.076 107.243 146.668 107.222 146.249Z" fill="white"/>
<path d="M129.854 155.356C128.848 155.54 127.913 155.999 127.151 156.682C126.39 157.364 125.832 158.244 125.539 159.223C124.867 162.073 125.905 164.464 128.256 165.075C129.274 165.339 131.736 164.942 133.69 162.124C135.023 160.19 135.206 157.137 134.464 156.17C133.721 155.204 131.675 154.868 129.854 155.356Z" fill="#37474F"/>
<path d="M130.77 158.552C130.77 158.92 130.661 159.28 130.456 159.586C130.251 159.892 129.96 160.131 129.62 160.272C129.28 160.413 128.905 160.45 128.544 160.378C128.183 160.306 127.851 160.129 127.591 159.868C127.33 159.608 127.153 159.276 127.081 158.915C127.009 158.554 127.046 158.179 127.187 157.839C127.328 157.499 127.567 157.208 127.873 157.003C128.179 156.799 128.539 156.689 128.908 156.689C129.401 156.689 129.875 156.886 130.224 157.235C130.574 157.584 130.77 158.058 130.77 158.552Z" fill="#FFAF51"/>
<path d="M129.264 162.347C129.264 162.567 129.199 162.781 129.077 162.964C128.955 163.146 128.782 163.288 128.579 163.372C128.376 163.456 128.153 163.478 127.938 163.435C127.723 163.392 127.525 163.287 127.37 163.132C127.215 162.976 127.11 162.779 127.067 162.564C127.024 162.349 127.046 162.126 127.13 161.923C127.214 161.72 127.356 161.547 127.538 161.425C127.721 161.303 127.935 161.238 128.155 161.238C128.301 161.237 128.446 161.264 128.581 161.32C128.716 161.375 128.839 161.457 128.942 161.56C129.045 161.663 129.127 161.786 129.182 161.921C129.237 162.056 129.265 162.201 129.264 162.347Z" fill="#FFAF51"/>
<path d="M95.9163 145.496C95.5397 146.055 94.6748 146.045 93.6877 144.844V142.809C93.6877 142.494 93.6877 142.158 93.6877 141.852C93.6877 141.547 93.6877 141.232 93.7487 140.926C93.813 139.613 93.9763 138.307 94.2372 137.019C94.3245 136.446 94.4435 135.879 94.5934 135.319C95.5969 136.247 96.2448 137.496 96.4251 138.85C96.6184 141.171 96.4353 144.793 95.9163 145.496Z" fill="#37474F"/>
<path d="M94.349 141.873C94.1087 141.878 93.878 141.968 93.6977 142.127C93.6977 142.371 93.6977 142.605 93.6977 142.86V143.603C93.8169 143.724 93.9646 143.813 94.1272 143.863C94.2899 143.912 94.4623 143.92 94.6287 143.886C94.7952 143.851 94.9504 143.776 95.0802 143.666C95.21 143.556 95.3102 143.416 95.3717 143.257C95.4332 143.099 95.454 142.927 95.4323 142.759C95.4106 142.59 95.347 142.43 95.2473 142.292C95.1477 142.155 95.0151 142.044 94.8617 141.971C94.7083 141.897 94.5391 141.864 94.3694 141.873H94.349Z" fill="#FFAF51"/>
<path d="M95.6821 138.983C95.6829 139.504 95.4839 140.005 95.1261 140.384C94.7683 140.762 94.279 140.989 93.7588 141.018C93.8231 139.705 93.9864 138.399 94.2473 137.11C94.6513 137.235 95.0065 137.482 95.2637 137.817C95.5208 138.153 95.667 138.56 95.6821 138.983Z" fill="#FFAF51"/>
<path d="M217.97 97.3724C222.284 102.868 209.595 111.772 203.876 115.008C198.157 118.244 162.377 139.003 162.377 139.003C162.377 139.003 206.521 115.598 217.206 111.741C224.259 109.156 225.928 117.949 225.938 119.943V114.428C225.948 108.261 224.737 103.03 217.97 97.3724Z" fill="#FFAF51"/>
<path opacity="0.1" d="M217.97 97.3724C222.284 102.868 209.595 111.772 203.876 115.008C198.157 118.244 162.377 139.003 162.377 139.003C162.377 139.003 206.521 115.598 217.206 111.741C224.259 109.156 225.928 117.949 225.938 119.943V114.428C225.948 108.261 224.737 103.03 217.97 97.3724Z" fill="white"/>
<path d="M147.886 159.162C148.95 157.872 150.19 156.738 151.57 155.794C152.957 154.826 154.53 154.157 156.19 153.83C157.032 153.709 157.887 153.726 158.724 153.881C159.559 154.056 160.349 154.402 161.044 154.898C162.376 155.944 163.328 157.4 163.751 159.04C163.218 157.474 162.22 156.107 160.891 155.122C160.214 154.672 159.458 154.354 158.663 154.186C157.86 154.064 157.043 154.064 156.241 154.186C154.624 154.495 153.085 155.121 151.712 156.028C150.326 156.929 149.043 157.98 147.886 159.162Z" fill="#FFAF51"/>
<path d="M204.222 126.619C205.296 125.339 206.535 124.206 207.906 123.25C209.295 122.289 210.868 121.624 212.525 121.296C213.368 121.164 214.227 121.164 215.07 121.296C215.901 121.474 216.687 121.82 217.38 122.314C218.717 123.355 219.67 124.813 220.086 126.456C219.558 124.887 218.56 123.519 217.227 122.538C216.554 122.088 215.801 121.77 215.008 121.602C214.203 121.469 213.382 121.469 212.576 121.602C210.964 121.907 209.428 122.529 208.058 123.433C206.664 124.348 205.377 125.416 204.222 126.619Z" fill="#FFAF51"/>
<path opacity="0.2" d="M165.135 158.165C170.365 154.807 175.667 151.571 181.04 148.457C183.717 146.89 186.393 145.323 189.1 143.806C191.807 142.29 194.493 140.753 197.241 139.278L197.058 139.563C197.281 137.769 197.754 136.016 198.462 134.353C199.152 132.696 200.162 131.192 201.433 129.926C200.306 131.287 199.443 132.847 198.889 134.526C198.309 136.168 197.94 137.878 197.79 139.614V139.797L197.627 139.899C194.982 141.537 192.285 143.074 189.609 144.651C186.932 146.228 184.246 147.765 181.539 149.281C176.132 152.375 170.664 155.336 165.135 158.165Z" fill="black"/>
<path d="M222.732 102.47C223.607 104.842 221.307 108.342 221.715 111.71C222.122 115.079 224.767 115.313 225.887 111.71C226.355 107.905 223.587 102.989 222.732 102.47Z" fill="#FAFAFA"/>
<path d="M97.7172 130.018C99.543 126.602 101.782 123.423 104.383 120.554C104.945 120.021 105.674 119.698 106.447 119.639C107.219 119.579 107.989 119.787 108.626 120.228C117.436 126.418 126.785 131.803 136.56 136.317C136.886 136.469 137.177 136.685 137.418 136.952C137.659 137.219 137.844 137.532 137.961 137.871C138.079 138.211 138.127 138.571 138.103 138.93C138.079 139.288 137.983 139.639 137.822 139.96C136.177 143.55 134.908 147.302 134.036 151.154C133.974 151.498 133.836 151.824 133.63 152.107C133.424 152.39 133.158 152.623 132.849 152.789C132.541 152.954 132.199 153.048 131.85 153.062C131.5 153.077 131.152 153.012 130.831 152.873C119.185 148.402 108.306 142.147 98.5822 134.332C97.9785 133.812 97.5657 133.105 97.409 132.323C97.2523 131.542 97.3608 130.73 97.7172 130.018Z" fill="#263238"/>
<path d="M131.737 152.039C131.542 152.035 131.349 151.997 131.167 151.927C119.616 147.486 108.824 141.283 99.1727 133.538C98.7575 133.162 98.4749 132.661 98.3667 132.111C98.2585 131.562 98.3306 130.991 98.5723 130.486C100.356 127.138 102.547 124.024 105.095 121.215C105.302 121.009 105.548 120.848 105.819 120.741C106.091 120.634 106.381 120.584 106.673 120.594C107.17 120.589 107.658 120.738 108.067 121.022C116.916 127.254 126.306 132.683 136.123 137.243C136.323 137.332 136.504 137.461 136.655 137.622C136.805 137.783 136.922 137.972 136.998 138.179C137.151 138.641 137.118 139.145 136.906 139.583C135.24 143.224 133.951 147.026 133.059 150.93C132.999 151.238 132.835 151.516 132.594 151.718C132.353 151.92 132.051 152.033 131.737 152.039Z" fill="#455A64"/>
<path d="M136.998 138.138C136.922 137.931 136.805 137.742 136.655 137.581C136.504 137.421 136.323 137.292 136.123 137.202C127.682 133.286 119.552 128.734 111.801 123.586L98.3382 131.361C98.2945 131.764 98.3473 132.172 98.4924 132.55C98.6375 132.929 98.8707 133.268 99.1727 133.538C108.824 141.283 119.616 147.486 131.167 151.927C131.349 151.997 131.542 152.035 131.737 152.039C132.056 152.031 132.364 151.912 132.605 151.702C132.847 151.492 133.007 151.205 133.059 150.889C133.951 146.985 135.24 143.183 136.906 139.542C137.118 139.104 137.151 138.6 136.998 138.138Z" fill="#37474F"/>
<path d="M92.9854 149.454C93.3822 151.337 99.5287 157.33 109.685 162.988C119.84 168.646 128.419 173.175 133.507 172.92C138.595 172.666 145.169 168.341 145.169 168.341C144.56 170.145 144.121 172.002 143.856 173.887C143.856 173.887 138.493 177.276 134.067 177.612C131.126 177.825 127.33 178.405 109.532 168.127C97.7478 161.309 94.1556 157.595 92.8022 154.542C92.2813 153.019 92.0669 151.407 92.1713 149.8C92.2323 146.432 93.6773 146.096 93.6773 146.096C93.0362 146.757 92.5783 147.531 92.9854 149.454Z" fill="#FFAF51"/>
<path opacity="0.3" d="M92.9854 149.454C93.3822 151.337 99.5287 157.33 109.685 162.988C119.84 168.646 128.419 173.175 133.507 172.92C138.595 172.666 145.169 168.341 145.169 168.341C144.56 170.145 144.121 172.002 143.856 173.887C143.856 173.887 138.493 177.276 134.067 177.612C131.126 177.825 127.33 178.405 109.532 168.127C97.7478 161.309 94.1556 157.595 92.8022 154.542C92.2813 153.019 92.0669 151.407 92.1713 149.8C92.2323 146.432 93.6773 146.096 93.6773 146.096C93.0362 146.757 92.5783 147.531 92.9854 149.454Z" fill="black"/>
<path d="M93.6875 146.137C93.0363 146.757 92.5783 147.531 92.9854 149.403C93.3924 151.276 99.5287 157.28 109.685 162.938C119.84 168.595 128.419 173.175 133.507 172.92C138.595 172.666 145.169 168.341 145.169 168.341L144.589 168.015C144.589 168.015 137.974 172.218 133.487 172.157C128.999 172.096 122.944 169.847 110.295 162.5C97.6461 155.153 94.2574 150.696 93.6672 149.139L93.6875 146.137Z" fill="#FFAF51"/>
<path d="M200.945 123.118C201.528 122.886 202.03 122.489 202.392 121.976C202.753 121.462 202.958 120.855 202.98 120.228C203.148 119.345 203.031 118.43 202.645 117.618C202.259 116.805 201.624 116.137 200.833 115.71C200.172 115.178 199.376 114.842 198.534 114.739C197.693 114.637 196.839 114.772 196.07 115.13L200.945 123.118Z" fill="#455A64"/>
<path d="M200.029 123.281C199.662 123.242 199.312 123.109 199.011 122.894L196.722 121.368C196.208 121.01 195.793 120.529 195.514 119.969C195.234 119.409 195.101 118.788 195.124 118.162L195.317 116.402C195.326 116.191 195.378 115.985 195.47 115.796C195.562 115.606 195.693 115.438 195.854 115.302C196.015 115.167 196.202 115.066 196.404 115.006C196.606 114.947 196.818 114.93 197.027 114.957C197.394 114.997 197.744 115.13 198.045 115.343L200.334 116.87C200.845 117.229 201.258 117.711 201.536 118.271C201.813 118.831 201.946 119.451 201.922 120.075L201.728 121.836C201.722 122.046 201.671 122.252 201.58 122.441C201.489 122.631 201.359 122.799 201.199 122.935C201.039 123.071 200.852 123.172 200.651 123.232C200.449 123.291 200.237 123.308 200.029 123.281Z" fill="#263238"/>
<path d="M197.617 115.811L199.897 117.338C200.322 117.637 200.667 118.038 200.899 118.503C201.132 118.968 201.245 119.484 201.23 120.004L201.036 121.765C200.935 122.691 200.182 122.986 199.347 122.426L197.058 120.9C196.633 120.6 196.29 120.199 196.059 119.734C195.828 119.268 195.717 118.753 195.735 118.233L195.928 116.473C196.081 115.547 196.834 115.252 197.617 115.811Z" fill="#455A64"/>
<g opacity="0.2">
<path d="M198.35 116.27L195.796 118.112L196.02 116.076L196.742 115.547C197.074 115.527 197.401 115.624 197.668 115.822L198.35 116.27Z" fill="white"/>
<path d="M200.334 117.653L196.539 120.381C196.436 120.264 196.344 120.138 196.264 120.004L199.948 117.338C200.084 117.434 200.213 117.539 200.334 117.653Z" fill="white"/>
<path d="M201.281 120.004V120.309L198.869 122.05L197.851 121.347L201.128 118.925C201.256 119.27 201.308 119.638 201.281 120.004Z" fill="white"/>
</g>
<g opacity="0.2">
<path d="M145.719 139.888C145.861 142.819 145.882 145.77 146.085 148.691C146.128 150.14 146.417 151.572 146.94 152.924C147.052 153.248 147.252 153.534 147.518 153.75C147.784 153.966 148.106 154.103 148.446 154.145C149.154 154.1 149.847 153.913 150.481 153.596C151.857 153.064 153.268 152.628 154.704 152.293C156.148 151.924 157.654 151.868 159.121 152.13C160.613 152.438 161.933 153.3 162.815 154.542C163.641 155.784 164.24 157.162 164.585 158.613C164.183 157.203 163.539 155.874 162.683 154.685C161.816 153.515 160.547 152.706 159.121 152.415C157.684 152.181 156.213 152.254 154.806 152.629C153.391 152.989 152.001 153.441 150.644 153.982C150.298 154.104 149.983 154.257 149.626 154.359C149.446 154.417 149.263 154.465 149.077 154.501H148.487C148.094 154.449 147.724 154.289 147.417 154.039C147.11 153.79 146.878 153.46 146.747 153.087C146.223 151.693 145.941 150.22 145.912 148.731C145.719 145.76 145.719 142.829 145.719 139.888Z" fill="black"/>
</g>
<g opacity="0.2">
<path d="M170.213 133.844C170.355 137.416 170.365 140.967 170.386 144.58V149.943C170.386 151.734 170.315 153.525 170.253 155.316C170.182 153.525 170.142 151.734 170.111 149.943V144.58C170.05 140.998 170.06 137.416 170.213 133.844Z" fill="black"/>
</g>
<g opacity="0.2">
<path d="M194.422 119.943C194.564 123.505 194.574 127.066 194.595 130.638V135.981C194.595 137.772 194.534 139.553 194.462 141.333C194.401 139.553 194.351 137.772 194.33 135.981V130.638C194.269 127.066 194.279 123.494 194.422 119.943Z" fill="black"/>
</g>
<path d="M153.29 145.445L156.597 143.562C157.269 143.175 157.808 143.236 157.808 143.684C157.732 144.01 157.583 144.314 157.373 144.574C157.164 144.835 156.899 145.045 156.597 145.19L153.29 147.083C152.618 147.47 152.079 147.408 152.079 146.961C152.156 146.634 152.305 146.329 152.514 146.067C152.724 145.804 152.988 145.592 153.29 145.445Z" fill="#37474F"/>
<path d="M173.103 133.976L176.41 132.093C177.082 131.707 177.621 131.768 177.621 132.216C177.544 132.542 177.395 132.847 177.186 133.11C176.976 133.372 176.711 133.584 176.41 133.732L173.103 135.614C172.431 136.001 171.892 135.94 171.892 135.492C171.969 135.166 172.117 134.86 172.327 134.598C172.536 134.336 172.801 134.123 173.103 133.976Z" fill="#37474F"/>
</svg>
