<svg width="292" height="106" viewBox="0 0 292 106" fill="none" xmlns="http://www.w3.org/2000/svg">
<path d="M35.5943 90.79C35.3546 90.5586 35.1102 90.1144 34.8759 90.1305C33.4462 90.2285 32.0187 90.431 30.5905 90.5987C30.5833 90.2061 30.576 89.8135 30.5687 89.4209C30.9071 89.4209 31.2828 89.2519 31.5763 89.4545C32.2889 89.9461 32.7849 89.9507 32.9165 88.0318C31.5993 88.234 30.3384 88.4274 28.6966 88.6793C29.2865 89.649 29.576 90.125 30.0666 90.9315C29.5925 91.1104 29.1829 91.5181 28.9563 91.3085C27.6901 90.1381 26.5562 91.2739 25.371 91.708C25.009 91.8406 24.4552 91.8716 24.2659 91.5043C24.0835 91.1503 24.2586 90.2216 24.2761 89.5656C23.5871 89.3828 22.7826 89.1693 21.9942 88.6931C22.0473 88.3716 22.0842 88.3129 22.121 88.2542C22.3298 87.9479 22.5386 87.6415 22.7474 87.3351C22.3534 86.9201 21.9672 86.2025 21.5632 86.1697C21.0982 86.132 20.5834 86.6078 20.1727 87.0831C20.0925 87.1759 20.3897 88.2866 20.4766 88.7389C20.1108 89.0827 19.5967 89.5659 18.9533 90.2124C18.6228 90.5318 18.4216 90.6877 18.2204 90.8437C17.2074 90.2622 17.0471 91.5374 16.9202 92.765C14.7744 93.3198 14.7743 93.3198 13.8941 90.3198C13.4088 90.6879 12.9119 91.0648 12.3608 91.4828C12.7873 92.3349 13.1387 93.0367 13.5975 93.9534C12.6564 93.6808 11.9562 93.4781 11.129 93.2663C11.0019 93.2574 10.9632 93.1928 10.9632 93.1928C10.6123 92.2518 10.2613 91.3108 10.0968 90.8696C9.431 90.8696 9.08807 90.8696 8.65511 90.8746C8.56509 90.8795 8.57497 90.8933 8.57497 90.8933C8.58138 89.1059 8.20716 88.2575 7.10905 88.8451C6.27396 89.2919 5.4086 89.5622 4.73355 89.8387C4.73355 90.8319 4.73355 91.6173 4.73355 92.4027C4.3665 92.3573 3.6862 92.361 3.68108 92.2589C3.63246 91.2899 3.69851 90.303 3.74783 88.8383C3.36641 88.669 2.74057 88.3912 2.11051 87.8674C2.10629 87.6215 2.18711 87.452 2.18711 87.452C3.67237 87.1522 5.15626 86.8278 6.64391 86.5712C6.98421 86.5125 7.34488 86.6307 7.6829 86.7688C8.14266 86.9567 8.7356 87.6795 9.01118 87.3927C9.55371 86.828 9.92244 85.7339 10.3421 84.8284C10.3694 84.7694 10.2183 84.4524 10.1538 84.0308C10.187 83.7465 10.2167 83.6869 10.2465 83.6272C10.6196 83.9929 10.9782 84.4204 11.3695 84.7097C11.9439 85.1343 12.7274 86.0389 13.083 85.6829C13.536 85.2294 14.5316 84.3946 13.9905 82.5344C14.3234 83.104 14.5699 83.8026 14.7365 84.2749C15.2844 83.7686 15.8173 82.8345 16.2608 82.952C17.4211 83.2596 18.5247 84.3046 19.684 84.5352C20.9242 84.7819 22.2024 84.4336 23.4639 84.345C23.4601 84.1761 23.4562 84.0073 23.4523 83.8385C22.8538 83.279 22.2552 82.7195 21.4034 81.9233C23.3629 80.3454 24.3856 83.5419 25.7832 83.5146C25.9694 82.5255 26.1106 81.7757 26.2518 81.0258C26.2876 81.2875 26.3234 81.5493 26.3591 81.811C27.483 82.102 28.6057 82.41 29.734 82.6302C29.787 82.6405 29.889 81.8679 29.9997 81.3993C30.0313 81.3386 30.0942 81.2169 30.2029 81.2255C30.699 81.3138 31.2716 81.1353 31.4421 81.5171C32.2602 83.3492 33.4013 81.3954 33.4212 81.2208C33.7176 78.6226 34.6746 80.1928 35.346 80.1441C35.6474 80.1222 35.9663 80.3008 36.2506 80.1849C37.8389 79.5373 39.429 78.4469 40.8697 80.9293C41.0273 81.2008 41.4017 81.0794 41.454 81.0911C41.1625 80.0664 40.8764 79.0608 40.6998 78.0733C41.695 78.8356 42.5327 80.1011 43.6495 78.9967C43.7374 79.1656 43.7741 79.2308 43.8029 79.457C44.1101 80.0109 44.4164 80.7079 44.7421 80.7376C45.6034 80.8163 46.3871 79.3938 47.3443 80.269C47.4634 80.3779 47.7986 79.7492 48.0775 79.4088C47.7234 78.8279 47.4628 78.4003 47.0791 77.7707C47.762 77.7707 48.2504 77.7513 48.738 77.7771C49.1082 77.7966 49.5218 77.7234 49.8245 78.0021C49.9389 78.1075 49.7963 79.0842 49.7444 80.2663C50.443 79.1843 50.9568 78.3887 51.4705 77.5931C51.4471 77.8372 51.4237 78.0813 51.4003 78.3255C51.947 78.7833 52.5491 79.7416 53.0266 79.5763C53.667 79.3545 54.211 78.2638 54.6172 77.7657C55.3237 78.4726 56.0549 79.2043 56.9138 80.0637C57.0957 76.4841 55.116 76.401 54.6907 74.6548C54.0636 75.0883 53.5367 75.6954 52.9804 75.7964C50.1295 76.314 47.2727 76.7413 44.414 77.104C43.7591 77.1871 43.0346 77.9227 42.4179 76.4157C42.2505 76.0066 41.2684 76.5635 40.6827 76.8305C40.5749 76.8796 40.5749 77.6671 40.4237 78.0913C40 77.5634 39.6778 77.0579 39.6359 76.9922C35.813 77.5018 32.1971 77.9837 28.224 78.5133C27.739 77.6602 26.8713 76.8984 25.8652 78.8258C25.7157 79.1121 25.2184 79.0627 24.9647 78.8544C24.8314 78.7449 24.8314 77.9473 24.8566 77.4747C24.8763 77.1056 25.0277 76.7583 25.1479 76.2964C24.2898 76.425 23.5742 76.5322 22.7973 76.6486C22.8515 77.4552 22.8988 78.1597 22.9386 78.7538C21.4498 78.7538 20.0534 78.7496 18.6571 78.7686C18.5986 78.7693 18.5429 78.9893 18.4827 79.1019C17.6951 80.577 16.7556 80.7159 15.7008 80.1999C15.4239 80.0645 15.0644 80.2159 14.7823 80.4124C14.3885 80.6869 14.0317 81.1275 13.6591 81.497C12.9536 81.0913 12.2482 80.6856 11.4063 80.2014C11.4544 81.0286 11.4832 81.5241 11.5242 82.2293C9.47849 81.2758 7.55141 81.4152 6.13063 82.9232C4.74826 82.6221 3.67543 82.3884 2.35391 82.1005C3.57487 80.335 4.68032 78.7365 5.86628 77.0217C5.65347 76.452 5.42023 75.8277 5.13087 75.0531C5.5675 74.5859 5.98404 74.1401 6.4477 73.6439C6.64073 76.7529 7.46535 77.6223 8.86107 76.0563C8.60674 77.3954 8.39801 78.4944 8.17756 79.6551C8.42316 79.7041 8.56725 79.7666 8.57586 79.7298C9.50807 75.7534 11.4692 76.0327 13.3599 76.1949C14.2048 76.2674 14.6194 76.0422 14.2522 74.8335C15.9146 74.6944 17.6305 74.5567 19.344 74.3545C19.3718 74.3512 19.3697 73.5597 19.3748 73.378C19.8147 73.1375 20.2059 72.9237 20.6691 72.5578C20.7412 72.4057 20.8222 72.4112 20.8222 72.4112C21.2805 73.0748 21.7388 73.7385 22.3091 74.5644C23.4355 74.3184 24.9788 74.8403 25.3501 70.7386C25.6416 72.0725 25.7707 72.6631 25.9446 73.4589C26.5368 73.15 27.1154 72.8482 27.8954 72.4413C27.5213 71.9465 27.3194 71.6797 27.1176 71.4128C27.1554 71.2617 27.1933 71.1107 27.2311 70.9596C27.5999 71.197 28.0468 71.2747 28.3244 71.6985C29.7587 73.8881 29.7418 73.9156 31.2139 71.6167C31.3452 71.4117 31.5163 71.1517 31.6706 71.1479C33.0733 71.1138 34.2529 70.0237 35.4491 68.8966C35.6715 68.6869 36.1251 69.3738 36.4862 69.4588C36.9474 69.5675 37.4231 69.4852 37.8926 69.4852C37.9049 69.282 37.9172 69.0789 37.9295 68.8757C36.5667 68.3029 35.1885 67.8182 33.8517 67.0953C33.516 66.9137 33.3128 65.9676 32.9738 65.2043C32.4855 65.6734 31.8554 66.3296 31.1971 66.8807C30.9964 67.0488 30.6435 67.1099 30.4872 66.9101C29.2497 65.3289 27.9794 65.7497 26.5512 65.9718C25.0884 66.1993 23.5205 65.234 22.0698 64.403C21.3504 63.9909 20.9998 63.8076 20.347 64.7843C19.8567 65.5179 18.9244 65.4971 18.1882 65.5019C17.4979 65.5064 16.8067 65.1037 16.221 64.9141C15.7851 64.1793 15.4091 63.1965 14.89 62.8034C14.5863 62.5734 13.9466 63.0869 13.6424 63.6042C11.5903 67.0935 9.0335 66.4836 7.65952 62.0973C7.51108 61.6234 7.33198 61.1795 7.26598 60.9962C5.98002 61.3381 4.83067 61.6438 3.50807 61.9955C3.55029 61.6145 3.65682 60.972 3.68561 60.3187C3.72904 59.3333 3.93766 58.008 3.66596 57.4482C3.41635 56.9339 2.62455 57.2406 2.1002 57.1885C1.81063 56.4669 1.46735 55.4751 1.04677 54.5993C0.563966 53.5938 0.80654 51.9683 1.55243 51.6835C1.8965 51.5521 2.26206 51.5964 2.48196 51.1637C3.12565 50.2809 3.76933 49.3982 4.43045 48.4915C3.83768 47.7036 3.22391 46.8878 2.73559 46.2387C2.23793 46.7155 1.79159 47.1432 1.34526 47.5708C1.29063 47.3963 1.236 47.2217 1.18137 47.0471C2.10901 45.1554 3.05407 43.2892 3.95705 41.3615C4.42103 40.3709 4.52968 40.4555 5.27899 42.6311C5.4351 42.7361 5.4788 42.7138 5.52249 42.6914C5.46824 42.6559 5.41398 42.6203 5.35973 42.5847C5.44578 41.5465 5.53184 40.5084 5.62301 39.4085C7.05522 39.4085 8.3209 39.4085 9.6949 39.4085C9.66709 39.874 9.63048 40.4868 9.58918 41.1782C10.3032 41.2738 10.9534 41.361 11.7204 41.4637C11.6441 40.2996 11.5869 39.429 11.559 39.003C12.3734 38.4015 13.0462 37.9046 13.9292 37.2524C14.2874 37.462 14.9472 37.8482 15.706 38.2821C15.805 38.33 15.8075 38.334 15.8075 38.334C16.3785 39.5425 16.3785 39.5425 16.9335 37.0329C17.5783 38.8137 19.8538 36.5747 19.2425 41.0625C19.3648 41.1072 19.487 41.152 19.6093 41.1968C19.8933 40.4434 20.3044 39.7447 20.4184 38.9181C20.4991 38.3325 20.1781 37.5741 19.9671 36.5597C20.3888 34.48 21.5271 33.83 23.1534 33.7006C22.7405 32.7588 22.3621 32.0146 22.0663 31.1791C21.8699 30.6245 21.7917 29.9394 21.6606 29.3127C21.9894 29.1617 22.3169 29.001 22.6474 28.8632C22.8542 28.7771 23.1231 28.8483 23.2658 28.6394C24.5518 26.757 25.8602 26.8726 27.4118 27.737C28.0659 28.1014 29.0245 26.7602 29.9733 26.1056C29.2009 24.8787 28.6518 24.0064 27.9516 22.8942C27.9012 23.9626 27.8702 24.6202 27.8175 25.7379C26.9867 25.8515 26.1293 26.2014 25.3173 25.9949C24.8103 25.8659 24.4118 24.7187 23.8915 24.3551C23.346 23.974 22.7156 23.9357 22.1176 23.8335C21.2722 23.6891 20.4224 23.6236 19.5745 23.5244C19.5772 23.1685 19.5799 22.8126 19.5826 22.4566C20.9017 22.2183 22.2208 21.98 23.384 21.7698C23.2314 20.6303 23.1033 19.6734 22.9752 18.7165C23.0734 18.618 23.1715 18.5195 23.2696 18.421C23.8578 19.3487 24.4459 20.2763 25.2754 21.5849C25.2754 20.2781 25.2754 19.468 25.2754 18.4481C25.5544 18.1542 25.9254 17.7632 26.3457 17.3203C25.9808 17.0042 25.6546 16.7217 25.1136 16.2533C26.6479 15.7936 27.9422 14.2548 29.2498 16.5513C30.3292 14.4743 31.4382 13.7484 32.6269 16.4162C32.776 16.7508 33.3736 16.4619 33.892 16.4619C33.5745 14.3488 34.1184 13.7516 35.2117 13.5997C37.0222 13.3482 38.8133 12.677 40.6229 12.3808C41.2734 12.2744 41.9539 12.7403 42.5679 12.5731C43.6778 12.2631 44.7855 11.9265 45.898 11.6501C47.2261 11.32 48.5551 10.9837 49.8894 10.7529C52.5466 10.2931 55.2047 9.81311 57.869 9.5363C58.7528 9.44447 59.6564 9.94974 60.6522 10.3118C60.7382 10.9613 60.6483 11.8919 60.7201 11.9326C61.1191 12.1589 61.5574 12.1692 61.9822 12.2534C61.8262 12.4086 61.6703 12.5639 61.5143 12.7191C61.2916 11.7906 61.0689 10.8622 60.8463 9.93369C61.6501 8.09587 62.3391 9.25111 62.911 10.316C62.751 10.7422 62.7162 11.0483 62.6813 11.3544C63.0868 11.6089 63.4924 11.8635 63.8979 12.118C63.8121 11.3732 63.7263 10.6284 63.5853 9.40433C65.2913 8.943 67.0724 8.11037 68.8617 8.05206C72.3596 7.93807 75.8309 7.73926 79.2955 6.69129C80.8315 6.22669 82.4513 6.67743 84.0315 6.60811C87.1791 6.47002 90.3187 6.48471 93.4725 5.94347C96.6282 5.40192 99.8442 6.00757 103.034 5.99472C103.948 5.99104 104.86 5.54391 105.778 5.38568C106.16 5.31981 106.556 5.46033 106.943 5.53748C107.8 5.70807 108.66 6.10074 109.51 6.03879C111.419 5.89972 113.322 5.3336 115.229 5.31367C118.536 5.27911 121.844 5.55586 125.152 5.63967C126.278 5.66821 127.406 5.48464 128.534 5.4415C129.987 5.38591 131.444 5.27671 132.892 5.41693C133.223 5.44898 133.526 6.40623 133.92 7.06992C134.407 4.06884 135.886 4.94823 137.044 4.80412C138.171 4.66386 139.328 5.28548 140.454 5.13663C141.859 4.95082 143.238 4.12731 144.643 3.95553C145.423 3.86013 146.226 4.64373 147.033 4.81888C147.614 4.94505 148.22 4.72524 148.815 4.65068C149.075 4.61813 149.372 4.39286 149.586 4.54467C151.423 5.84444 153.229 4.6535 155.044 4.4088C155.089 4.40286 155.145 4.33694 155.173 4.36634C157.487 6.76209 160.018 3.30793 162.375 5.17169C162.639 5.38043 163.134 4.67591 163.301 4.5553C164.5 4.77706 165.546 5.15187 166.589 5.12707C169.082 5.06779 171.572 4.721 174.064 4.69582C175.111 4.68524 176.156 5.3652 177.208 5.42095C178.365 5.48231 179.528 5.17173 180.69 5.05391C181.206 5.00154 181.732 5.11371 182.24 4.98883C182.778 4.85684 183.3 4.53158 183.547 4.41928C184.703 4.41928 185.619 4.35882 186.533 4.43152C188.609 4.59683 190.683 4.89286 192.76 5.00936C194.207 5.0905 195.657 4.95873 197.106 4.92871C197.542 4.91968 197.979 4.90527 198.414 4.94625C198.68 4.97122 198.972 5.27391 199.2 5.1498C200.942 4.20022 202.703 4.47864 204.469 4.75853C204.685 4.7928 204.92 4.5764 205.128 4.64784C207.944 5.61796 210.722 4.30386 213.518 4.27616C214.601 4.26542 215.685 5.00069 216.774 5.34298C217.088 5.44175 217.593 5.59681 217.718 5.31711C219.03 2.39276 220.809 3.95055 222.388 3.7067C224.281 3.41429 226.177 3.11454 228.075 2.99511C229.975 2.8756 231.879 3.02036 233.78 2.9669C236.483 2.89089 239.188 2.81896 241.888 2.59278C243.714 2.43977 245.532 1.86601 247.357 1.80741C248.05 1.78518 248.752 2.67897 249.366 2.66636C250.985 2.13524 252.607 1.16177 254.222 1.20085C255.752 1.23789 257.568 1.41765 258.076 4.99182C257.651 6.00542 257.2 7.08299 256.62 8.46451C257.34 8.6892 257.743 8.81489 258.344 9.00231C257.682 11.2308 256.985 12.9749 255.704 13.8259C255.462 13.9865 255.277 14.4129 255.066 14.7167C255.286 15.0153 255.5 15.5579 255.727 15.5755C258.561 15.7956 257.699 14.9346 258.64 19.2103C258.714 19.5452 258.86 19.8305 259.056 20.3691C258.533 20.2934 258.16 20.2394 257.786 20.1853C257.754 20.4115 257.722 20.6377 257.689 20.8639C258.093 20.9646 258.502 21.0228 258.898 21.1768C259.407 21.374 259.906 21.6484 260.807 22.0805C259.942 23.1949 259.437 23.8446 258.845 24.6072C259.243 25.8655 259.418 27.8598 260.871 26.0379C261.353 25.4337 262.235 25.7197 262.926 25.8036C263.149 25.8307 263.551 26.5844 263.518 26.8815C263.417 27.7742 263.236 28.7384 262.918 29.4355C262.06 31.317 261.114 33.0745 260.155 34.9782C259.847 34.5695 259.55 34.176 259.254 33.7824C259.148 33.9941 259.042 34.2058 258.937 34.4175C259.311 35.0087 259.686 35.5999 260.314 36.5915C260.317 36.6285 260.384 37.3373 260.525 38.8478C261.63 33.122 263.692 36.3967 265.336 36.1488C265.345 36.34 265.353 36.5313 265.362 36.7225C264.353 36.7225 263.344 36.7225 262.336 36.7225C262.332 37.0451 262.328 37.3677 262.324 37.6902C262.999 37.7567 263.679 37.9452 264.348 37.8606C265.311 37.739 266.088 37.8771 266.512 39.7632C266.782 40.966 267.239 41.5117 268.181 41.2927C269.478 40.9912 270.843 41.3779 272.16 41.7055C272.477 41.7846 272.71 42.808 273.003 43.3626C273.276 43.8803 273.578 44.3521 273.867 44.8441C273.966 44.6607 274.066 44.4773 274.165 44.294C273.87 43.8163 273.576 43.3386 273.148 42.6456C274.561 40.4993 275.953 42.9941 277.23 41.9838C277.317 42.2064 277.404 42.4289 277.491 42.6514C276.736 44.6632 275.981 46.675 275.116 48.983C276.31 49.0895 277.551 49.2003 278.792 49.311C278.855 49.5447 278.918 49.7784 278.98 50.012C278.666 50.3856 278.257 51.1967 278.054 51.059C277.032 50.3657 276.384 50.7044 276.013 52.6018C275.941 52.9699 275.632 53.1935 275.291 53.69C276.606 55.1991 276.639 57.2272 276.263 59.5347C276.186 60.0109 276.592 60.733 276.809 61.4555C276.338 61.7713 275.846 62.1008 275.37 62.4195C274.411 60.5456 274.132 60.6087 273.282 62.6973C272.871 63.7072 272.472 64.5924 271.752 63.0859C271.533 62.6285 270.869 62.6714 270.423 62.7473C269.043 62.9821 267.671 63.3761 266.291 63.6069C266.143 63.6317 265.96 62.9906 265.817 62.7064C265.228 63.196 264.648 63.6782 263.871 64.3243C264.356 64.5375 264.723 64.7628 265.1 64.8505C265.886 65.0336 266.683 65.087 267.462 65.3279C267.637 65.382 267.898 66.0368 267.866 66.3249C267.829 66.6461 267.494 67.109 267.303 67.0884C265.926 66.939 264.552 66.6651 263.176 66.4732C262.841 66.4265 262.496 66.4964 262.162 66.5843C260.285 67.078 258.404 68.0134 256.899 66.5918C255.791 67.0171 254.962 67.653 254.156 67.5723C252.882 67.4449 251.525 68.1926 250.305 66.6754C250.156 66.4898 249.459 67.6792 248.903 68.371C247.651 68.0116 246.145 67.4876 244.625 67.1834C243.927 67.0438 243.143 67.1091 243.203 69.1024C243.214 69.4862 242.738 69.9154 242.384 70.1167C242.447 67.0164 242.447 67.0164 240.6 67.9929C240.557 68.5724 240.612 69.4563 240.46 69.5851C240.008 69.9701 239.472 70.2378 238.973 70.2171C238.406 70.1934 237.843 69.8091 237.251 69.5702C237.329 68.2458 236.077 66.7422 235.113 67.1132C233.921 67.5719 232.708 67.8665 231.294 68.1954C230.86 68.2706 230.638 68.3823 230.416 68.494C229.106 68.494 227.796 68.494 226.485 68.494C226.475 68.686 226.465 68.8779 226.455 69.0699C227.173 69.1637 227.892 69.2574 228.689 69.3615C228.884 70.4887 228.866 71.273 227.928 71.4006C226.607 71.5803 225.3 72.1615 223.98 72.2368C222.493 72.3215 221 72.0158 219.509 71.9202C218.942 71.8838 218.202 71.5595 217.834 72.0505C215.826 74.7227 213.422 71.9576 211.359 73.6784C211.131 73.869 210.67 73.1919 210.356 73.4076C209.785 73.6189 209.212 73.8245 208.642 74.0431C208.158 74.2285 207.676 74.4289 207.193 74.6226C207.337 75.3239 207.481 76.0252 207.658 76.8882C206.049 76.8882 204.443 76.8882 202.836 76.8882C202.761 76.5797 202.686 76.2711 202.611 75.9626C202.957 75.7726 203.303 75.5825 203.56 75.4411C203.36 74.8166 203.313 74.5623 203.275 74.5664C202.415 74.6597 201.542 74.6525 200.7 74.9343C199.879 75.2092 199.085 76.3386 198.354 74.5418C198.23 74.239 197.658 74.1043 197.481 74.3374C196.337 75.8466 195.122 74.5741 193.955 74.7812C193.413 74.8774 192.888 75.2558 192.246 75.557C192.52 76.5704 192.712 77.2826 192.857 77.8234C192.329 77.9742 191.87 78.105 191.319 78.2622C191.402 77.3416 191.497 76.2913 191.641 74.6929C191.062 76.1815 190.676 77.1773 190.434 77.7997C190.114 76.8604 189.86 75.5781 189.657 75.6024C187.874 75.816 186.099 76.2388 184.328 76.6699C184.095 76.7266 183.893 77.1794 183.63 77.5063C183.445 76.9465 183.27 76.4191 183.047 75.745C182.804 76.07 182.596 76.348 182.343 76.6855C181.487 74.2836 182.793 74.3725 183.325 73.6251C183.284 73.4246 183.243 73.2241 183.201 73.0236C182.662 73.4174 182.122 73.8112 181.487 74.0065C181.392 73.056 181.392 72.304 181.392 71.6554C182.093 71.4253 182.663 71.2383 183.233 71.0512C183.205 70.7352 183.177 70.4193 183.149 70.1033C182.638 70.1033 182.126 70.1512 181.617 70.0934C180.517 69.9686 180.336 71.5505 180.163 72.8085C180.118 73.1356 180.913 73.8234 181.323 74.3456C181.458 76.8451 181.416 76.8191 180.053 76.1862C179.434 75.8984 178.735 76.0788 178.074 76.141C176.957 76.2464 175.843 76.4556 174.726 76.5593C174.342 76.595 173.951 76.3657 173.566 76.3987C172.926 76.4537 172.227 76.3728 171.666 76.8072C170.978 77.3408 170.406 78.3447 169.904 78.9902C169.136 78.0999 168.541 77.3583 167.914 76.7113C167.696 76.4856 167.25 76.2564 167.162 76.4303C165.852 79.0137 163.632 75.943 162.323 79.0203C161.685 80.5207 160.776 79.9197 160.157 77.4005C160.015 79.0035 159.94 79.846 159.855 80.8071C158.099 80.9106 157.287 76.4789 155.237 77.8174C155.283 78.3285 155.328 78.8271 155.345 79.016C154.409 79.3171 153.502 79.6086 152.466 79.9416C152.539 79.4674 152.659 78.692 152.788 77.8576C151.205 76.3497 150.538 78.8183 149.877 80.0679C148.818 79.8262 147.96 79.6303 146.901 79.3885C146.925 79.4312 146.708 79.0382 146.492 78.6451C146.349 79.2051 146.118 79.748 146.081 80.3287C146.015 81.4002 146.062 82.4939 146.062 83.5783C145.874 83.6012 145.685 83.6241 145.497 83.647C145.379 82.5696 145.33 81.4456 145.114 80.4333C144.998 79.889 144.626 79.2727 144.313 79.1551C143.762 78.9476 143.167 79.097 142.678 79.2778C142.218 79.5033 141.747 79.9647 141.298 79.9058C140.326 79.7783 139.369 79.2674 138.399 79.1777C138.14 79.1538 137.853 80.0865 137.558 80.6167C137.451 80.2477 137.281 79.6578 137.097 79.0247C136.585 79.1078 136.117 79.1837 135.478 79.2874C135.843 80.0195 136.118 80.5722 136.392 81.1239C134.892 83.6214 133.895 83.4609 132.723 80.707C132.539 80.2745 132.095 79.8465 131.823 79.9321C130.778 80.2611 130.691 79.3418 130.689 77.4074C130.204 77.8643 129.719 78.3212 129.233 78.7781C129.24 79.1089 129.246 79.4397 129.252 79.7706C128.769 79.1272 128.287 78.4838 127.517 77.4572C127.402 78.5436 127.226 79.4038 127.238 80.256C127.263 82.0397 127.094 83.1329 125.825 82.8271C125.125 82.6584 124.374 83.1327 123.606 83.3274C123.606 82.6925 123.606 82.2771 123.606 81.9755C123.167 82.1755 122.765 82.4565 122.353 82.5145C122.05 82.5573 121.733 82.3084 121.423 82.1896C121.445 81.8864 121.467 81.5833 121.49 81.2802C120.675 81.4334 119.567 82.2572 119.1 81.6181C117.504 79.433 116.406 82.3141 115.072 82.3619C114.725 82.3743 114.37 82.8215 114.039 82.7543C113.44 82.6325 112.855 82.2743 112.082 81.9347C110.734 83.7233 109.777 83.8061 109.203 81.624C108.869 82.3744 108.583 83.0174 108.446 83.3267C107.947 83.1279 107.562 82.818 107.186 82.8523C105.656 82.9923 104.129 83.2376 102.533 83.4533C102.142 85.159 101.7 86.0335 100.775 83.8613C100.529 83.2832 99.6279 83.5751 98.9543 83.4544C98.9543 84.144 98.9543 84.7214 98.9543 86.0375C97.8534 85.0459 96.9773 84.2567 96.0648 83.4349C96.0512 83.5978 96.0185 83.9898 96.0204 83.9667C95.15 84.1653 94.3434 84.3493 93.3129 84.5844C93.3481 84.6778 93.1955 84.272 93.0646 83.9241C92.2638 84.6801 91.5097 85.392 90.7043 86.1524C90.8505 84.6617 90.9822 83.3188 91.1537 81.5705C89.7937 82.1517 90.7066 85.7202 89.0088 85.2414C88.1132 84.9889 87.1321 85.6835 86.1049 85.9745C86.1485 86.1165 86.3231 86.6868 86.5466 87.4165C85.9236 87.5018 85.3732 87.5772 84.9132 87.6403C84.9637 86.6489 85.0066 85.8054 85.0358 85.2318C80.4661 85.4336 76.1852 87.1227 71.8957 85.2692C72.333 84.8438 72.7337 84.6097 73.3398 84.2555C72.4233 83.2526 71.7465 82.4143 70.9115 83.6571C70.8087 83.6843 70.7058 83.7116 70.435 83.739C69.9258 83.7964 69.5846 83.8537 69.2433 83.911C69.2617 84.1502 69.2802 84.3894 69.2987 84.6286C69.6001 84.6286 69.9015 84.6286 70.203 84.6286C70.4503 85.0223 70.6977 85.4161 70.9451 85.8099C70.5613 86.2146 70.201 86.8412 69.7888 86.9778C68.9411 87.2587 68.0657 87.2775 66.9042 87.4477C66.0604 86.2706 64.3368 86.1982 62.9403 87.824C62.4512 86.0983 61.79 86.0229 60.8763 87.0639C59.852 88.2309 58.6865 88.6373 57.4609 87.9397C57.2243 87.8051 56.9425 87.787 56.6958 87.8615C55.1019 88.3428 53.5217 89.04 51.9176 89.3184C50.6046 89.5463 49.2648 89.2702 47.9368 89.2602C47.4221 89.2563 46.9071 89.3716 46.3922 89.429C45.4778 89.5309 44.5634 89.6301 43.649 89.7304C43.5168 89.4198 43.3846 89.1092 43.2524 88.7985C42.8317 90.7149 42.4109 92.6313 41.9532 94.7163C41.7359 94.2505 41.4705 93.6815 41.0738 92.8313C40.7497 93.7296 40.4693 94.5069 40.1523 95.3854C39.5399 94.7332 39.1318 94.2985 38.6536 93.6556C38.5893 93.3085 38.5953 93.1696 38.6016 93.0308C38.7416 92.5009 38.8817 91.9709 39.048 91.1887C39.0742 90.9363 39.1505 90.776 39.1505 90.776C39.9517 92.2102 41.0418 92.2059 41.5221 90.5636C39.5916 89.4997 37.7243 88.6762 35.7614 90.8945C35.6406 90.8781 35.5943 90.79 35.5943 90.79ZM122.864 71.5398C123.248 71.9931 123.632 72.4464 124.046 72.9361C124.405 72.3615 124.741 71.8223 125.206 71.0784C124.577 70.8336 124.121 70.6559 123.658 70.4755C123.634 69.8292 123.612 69.2438 123.59 68.6584C123.508 68.6327 123.425 68.607 123.343 68.5813C123.127 69.4307 122.912 70.28 122.477 71.1372C121.755 71.4241 121.032 71.7124 120.309 71.997C120.142 72.0628 119.973 72.1159 119.805 72.1749C119.877 72.4189 119.916 72.7387 120.028 72.8941C120.63 73.7295 122.377 72.7354 122.864 71.5398ZM70.4206 72.5457C70.4494 72.0069 70.4783 71.468 70.5076 70.9203C70.7824 71.1184 71.0426 71.3061 71.3625 71.5367C71.2691 70.6647 71.1962 69.9838 71.1203 69.2756C70.6478 69.3209 70.1663 69.3672 69.6945 69.4124C69.6703 72.2131 69.6703 72.2131 70.3492 73.2289C69.0839 73.0883 67.8189 72.9405 66.5533 72.8132C66.3088 72.7887 65.9611 72.6649 65.8317 72.8913C64.6927 74.8837 63.3152 74.4694 61.9181 74.3804C60.9231 74.317 59.7033 73.6697 59.1738 76.1877C59.1027 76.5258 58.6695 76.6299 58.6695 76.6299C58.0633 76.003 57.655 75.5807 57.2466 75.1584C57.1647 75.3876 57.0828 75.6168 57.0008 75.846C57.334 77.2628 57.2655 79.2345 58.8165 78.6235C59.9622 78.1722 61.2126 77.8058 62.3403 78.1592C63.5598 78.5414 64.5125 78.6873 65.088 76.6851C65.9336 77.2485 66.6628 77.9604 67.437 78.1823C68.1186 78.3777 68.8507 78.0254 69.5404 77.9181C69.0877 76.8463 68.8143 76.1988 68.5267 75.5179C69.8685 75.8679 70.9826 76.1585 72.1595 76.4655C71.8342 76.8301 71.559 77.1386 71.2594 77.4744C72.3907 78.8383 73.7549 78.3985 74.6133 76.8983C76.1097 77.3958 77.3813 77.8186 78.6528 78.2413C78.7186 77.981 78.7844 77.7207 78.8502 77.4605C78.5463 76.8362 78.2423 76.212 77.9384 75.5878C78.3801 75.3537 78.9249 75.371 78.9993 75.7102C79.5951 78.4265 79.8805 76.4137 80.0897 75.8832C80.9159 75.9569 81.5992 75.9421 82.2692 76.1017C82.8089 76.2302 83.3342 76.5594 83.8629 76.819C84.1636 76.9667 84.4582 77.1536 84.7555 77.3228C84.7354 76.761 84.7207 76.1983 84.6933 75.6376C84.6759 75.2834 84.6394 74.9322 84.6313 74.829C86.4834 75.6138 88.2926 76.3805 90.0346 77.1186C89.9323 76.0285 89.8412 75.0587 89.7816 74.4238C90.4854 74.957 90.9626 75.5189 91.477 75.6612C92.244 75.8735 92.6045 76.3425 92.496 77.0177C91.4475 77.359 90.651 77.6183 89.8546 77.8775C89.8875 78.2922 89.9203 78.707 89.9532 79.1217C91.8694 78.7862 93.7856 78.4508 95.9302 78.0753C94.8834 77.28 94.1419 76.7165 93.4004 76.1531C93.445 75.9153 93.4897 75.6776 93.5343 75.4398C95.417 75.4628 97.607 76.8576 98.3815 72.6087C97.6262 72.0266 96.9729 71.2139 96.2731 71.0599C95.3434 70.8552 94.3991 71.0858 93.4298 71.3809C90.9764 72.1279 88.4667 71.2175 85.9376 71.6681C84.3361 71.9535 83.2318 72.2337 82.6608 74.3971C82.2817 73.8374 81.9668 73.0042 81.5703 72.8572C80.4274 72.4337 79.199 71.4454 78.1909 73.5969C78.0906 73.811 77.627 73.5499 77.3437 73.426C77.007 73.2789 76.684 72.877 76.3533 72.8704C74.3861 72.8306 72.4185 72.8733 70.4206 72.5457ZM205.548 72.2038C205.608 71.914 205.679 71.6299 205.726 71.3337C206.178 68.4655 206.117 68.2788 204.44 68.2358C202.866 68.1953 201.285 68.1334 199.717 68.3288C199.106 68.4049 198.522 69.1587 197.926 69.6038C197.951 69.8692 197.976 70.1346 198 70.4C199.047 70.4 200.125 70.6751 201.133 70.3274C202.284 69.9305 203.314 69.2832 204.21 71.3071C204.452 71.8533 204.972 72.0151 205.548 72.2038ZM141.557 70.9177C143.279 71.0515 145.001 71.1852 146.723 71.3189C146.74 70.9182 146.758 70.5175 146.775 70.1169C145.06 68.3478 142.871 72.1807 141.406 69.2364C140.248 69.8811 139.23 70.4479 138.212 71.0148C138.244 71.2317 138.277 71.4487 138.309 71.6656C138.615 71.6315 138.922 71.5974 139.668 71.5144C139.256 73.5154 138.945 75.0229 138.569 76.8511C139.335 75.5739 139.903 74.6272 140.471 73.6805C140.325 72.9946 140.367 72.3086 140.566 71.8242C140.733 71.4174 141.083 71.2456 141.557 70.9177ZM25.3385 87.0079C27.7224 87.3724 30.0917 87.6276 32.43 86.2557C33.1907 85.8094 34.1858 86.1416 34.024 84.0103C31.7364 84.6456 29.4525 85.2798 27.1687 85.914C26.5279 85.7236 25.7955 83.9376 25.3385 87.0079ZM214.578 67.2809C214.046 68.2687 213.513 69.2564 212.981 70.2441C213.062 70.5138 213.142 70.7835 213.223 71.0532C215.61 70.4134 217.998 69.7736 220.553 69.089C220.651 68.7994 220.841 68.2377 221.135 67.3708C219.817 67.7667 218.729 68.0939 217.262 68.5347C216.978 68.5702 216.276 68.4491 215.655 68.7872C214.847 69.2268 214.596 68.8994 214.578 67.2809ZM103.2 71.5055C102.504 71.7517 101.786 71.8866 101.119 72.2835C100.682 72.5436 100.317 73.1827 99.645 73.9756C99.7523 72.5787 99.7893 72.098 99.8262 71.6172C99.7317 71.5318 99.6372 71.4463 99.5427 71.3609C99.2848 72.0061 99.0268 72.6512 98.5209 73.9165C99.6643 74.1761 100.892 74.9733 101.142 74.4118C101.825 72.8785 102.589 73.7469 103.289 73.4804C103.735 73.3103 104.195 73.2503 104.728 73.1218C104.718 73.3257 104.698 73.744 104.667 74.3765C105.259 73.9113 105.717 73.5509 106.206 73.1666C105.275 72.4115 104.673 70.2704 103.2 71.5055ZM115.264 71.4703C114.6 70.9223 113.937 70.3743 113.274 69.8262C113.222 69.9779 113.17 70.1296 113.118 70.2812C113.333 70.7472 113.548 71.2132 113.727 71.5994C113.451 72.1661 113.196 72.6886 112.942 73.2112C113.03 73.4933 113.119 73.7753 113.207 74.0574C113.778 73.6341 114.345 73.1933 114.922 72.7956C115.18 72.6177 115.463 72.3869 115.724 72.4249C116.24 72.5001 116.749 72.8821 117.261 72.8779C117.69 72.8743 118.437 72.6283 118.483 72.2679C118.585 71.4598 118.48 70.2998 118.187 69.6951C117.973 69.2539 117.325 69.4704 116.87 69.3937C116.857 69.5881 116.844 69.7826 116.831 69.977C117.045 70.2233 117.26 70.4697 117.475 70.716C117.441 70.8969 117.406 71.0777 117.371 71.2586C116.914 71.0868 116.461 70.8501 115.999 70.7746C115.809 70.7435 115.601 71.0597 115.264 71.4703ZM210.473 67.768C210.044 67.858 209.617 68.005 209.188 68.0257C208.338 68.0667 207.488 68.0378 206.638 68.0378C206.625 68.3156 206.612 68.5935 206.6 68.8713C207.811 69.5598 208.555 72.1662 210.292 71.3628C209.983 70.8763 209.779 70.5549 209.553 70.1977C211.047 69.013 211.047 69.013 210.473 67.768ZM109.603 75.5157C109.57 76.0071 109.536 76.4985 109.503 76.9899C109.758 76.6561 110.077 76.4041 110.256 75.9721C110.698 74.9079 111.076 73.761 111.587 72.3518C111.408 71.842 111.401 71.785 108.655 72.9437C108.162 73.1515 107.763 74.0477 107.32 74.6261C107.41 74.8046 107.501 74.9831 107.591 75.1615C107.991 74.847 108.386 74.3152 108.792 74.2887C109.101 74.2685 109.423 74.89 109.603 75.5157ZM224.749 69.9502C224.984 69.9502 225.218 69.9502 225.507 69.9502C224.45 65.8993 224.45 65.8993 222.804 68.7041C222.486 68.2358 222.165 67.7629 221.739 67.1351C221.739 68.2108 221.739 69.0067 221.739 69.8998C222.674 69.8998 223.595 69.8998 224.749 69.9502ZM17.0388 89.3632C17.8164 88.7451 18.5939 88.127 19.3715 87.5089C19.3199 87.274 19.2682 87.039 19.2166 86.8041C18.345 87.0739 17.4685 87.3033 16.6043 87.6333C16.2519 87.7678 15.8543 87.9979 15.6197 88.4273C15.5078 88.632 15.6961 89.8162 15.8049 89.8431C16.1454 89.9273 16.5129 89.6717 17.0388 89.3632ZM86.7547 82.3949C87.0397 82.0748 87.3248 81.7548 87.7533 81.2736C87.7728 81.2864 88.0515 81.4686 88.3302 81.6509C87.8479 79.5558 87.0216 78.602 85.6969 78.7525C86.0219 80.0173 86.3078 81.1297 86.7547 82.3949ZM169.13 72.014C169.338 72.2872 169.545 72.5604 169.753 72.8335C170.457 70.9849 171.635 72.0339 172.541 71.4154C172.74 71.28 172.95 71.1975 173.154 71.0906C171.703 70.6664 170.542 70.6143 169.383 70.7002C169.062 70.7239 168.282 70.6563 169.13 72.014ZM189.241 70.0658C189.717 70.685 190.194 71.3042 190.644 71.8904C191.142 71.0826 191.597 70.3434 192.141 69.4606C191.054 69.2306 190.17 69.0388 189.283 68.8934C189.267 68.8908 189.222 69.4451 189.241 70.0658ZM143.492 74.6931C144.024 75.0809 144.557 75.4688 145.015 75.8028C145.276 74.6318 145.512 73.5667 145.749 72.5015C145.638 72.3693 145.526 72.2371 145.414 72.1049C144.94 73.5755 143.428 71.7876 143.492 74.6931ZM260.017 63.6814C260.333 64.4502 260.648 65.219 261.106 66.3328C261.371 65.8834 261.7 65.3261 262.028 64.7688C261.633 64.186 261.264 63.5217 260.826 63.065C260.675 62.9071 260.351 63.2656 260.017 63.6814ZM128.354 75.0242C129.063 75.1527 129.875 77.0811 130.623 74.2668C129.736 74.0659 129.002 73.8998 128.268 73.7336C128.259 74.075 128.25 74.4164 128.354 75.0242ZM54.0529 83.3797C53.9283 83.5716 53.8037 83.7635 53.5426 84.1657C54.4239 84.1657 55.1223 84.1657 55.7475 84.1657C55.3633 83.0215 55.0141 81.9812 54.6648 80.941C54.5453 81.1339 54.4257 81.3267 54.3061 81.5196C54.2755 82.0877 54.2449 82.6559 54.0529 83.3797ZM206.362 74.1065C205.762 74.1356 205.156 74.0925 204.567 74.2448C204.42 74.2825 204.176 75.133 204.239 75.2976C204.388 75.6893 204.784 76.2302 204.922 76.1157C205.476 75.6555 205.97 74.9691 206.362 74.1065ZM22.9107 41.5691C23.3089 41.5275 23.7071 41.486 24.4486 41.4086C23.6027 40.1784 23.1499 39.5197 22.6566 38.8022C21.9357 39.7539 22.1831 40.5618 22.9107 41.5691ZM261.891 38.8519C261.376 39.4299 260.862 40.0079 260.348 40.5859C260.415 40.8026 260.483 41.0192 260.55 41.2359C261.183 41.141 261.816 41.046 262.682 40.916C262.424 40.0308 262.26 39.4661 261.891 38.8519ZM33.1708 21.9661C33.0388 22.9246 32.8792 23.8763 32.8008 24.8484C32.7872 25.0176 33.1024 25.3721 33.2914 25.4525C33.4104 25.5031 33.7101 25.1715 33.702 25.0645C33.6226 24.0064 33.4957 22.9594 33.1708 21.9661ZM267.762 55.3779C268.349 55.5223 268.832 58.3408 269.57 55.5211C269.162 55.0678 268.784 54.5568 268.363 54.202C267.771 53.7019 267.688 53.853 267.762 55.3779ZM193.175 69.4323C193.383 71.3708 193.762 71.6855 195.171 70.3123C194.307 69.7694 193.751 69.4195 193.175 69.4323ZM49.8119 66.2918C49.4675 66.4018 49.1231 66.5117 48.769 66.6247C48.769 67.0049 48.769 67.4567 48.769 67.8293C49.3987 68.1735 49.9815 68.4923 50.7396 68.9068C50.4511 67.9098 50.2224 67.1192 49.8119 66.2918Z" fill="#FFE3C2"/>
<path d="M43.9374 95.6052C43.5785 94.9005 43.2196 94.1958 42.8174 93.406C43.0915 93.3112 43.3698 93.2151 43.574 93.1445C43.522 92.6425 43.3365 91.9889 43.4501 91.6887C43.6303 91.2128 44.0014 90.7122 44.3077 90.6789C45.6741 90.53 47.0471 90.4824 48.4154 90.5484C48.6932 90.5618 48.961 91.2239 49.1234 91.4403C52.6697 88.8295 56.3224 91.2544 59.8718 90.157C59.8668 90.0365 59.8474 89.5687 59.8106 88.6821C61.162 90.5437 62.4009 91.2762 63.7385 89.131C63.7801 88.9233 63.8306 88.8345 63.8306 88.8345C63.9665 89.4214 64.1025 90.0082 64.2052 90.4513C64.6325 90.7036 65.1027 90.9812 65.4007 91.1572C65.9002 90.9023 66.4955 90.2521 66.7622 90.5427C67.1733 90.9906 67.3593 92.0833 67.8136 93.4052C67.9688 92.4905 68.1121 91.6465 68.3024 90.5248C69.642 89.3499 70.1995 91.5888 70.9594 93.2297C70.9027 93.402 70.8459 93.7534 70.7756 93.7619C68.733 94.0106 66.6892 94.2287 64.6453 94.4437C63.3693 94.5779 62.0931 94.79 60.8165 94.8012C59.5106 94.8126 58.2045 94.5929 56.8976 94.5327C56.3697 94.5083 55.8394 94.6385 55.3102 94.6983C55.4768 95.593 55.6 96.5237 55.8259 97.3688C55.964 97.8856 56.2597 98.2708 56.6848 99.1107C55.3665 98.7723 54.2624 98.4889 53.1092 97.9566C53.0602 97.7078 53.0557 97.5488 53.0557 97.5488C53.2759 96.7861 53.8557 95.8697 53.0987 95.2774C52.6113 94.8961 52.2168 93.4265 51.4137 94.588C51.1489 94.9708 50.5381 94.583 50.0857 94.5899C49.2379 94.6027 48.3473 94.3735 47.5558 94.7617C46.8949 95.0859 46.2813 96.0286 45.7791 96.928C45.4711 97.4797 45.4124 98.4659 45.1886 99.503C44.7905 98.2617 44.4682 97.2565 44.0449 96.0893C43.9418 95.8199 43.9396 95.7126 43.9374 95.6052Z" fill="#FFE3C2"/>
<path d="M40.5905 78.0555C40.8766 79.0611 41.1628 80.0667 41.4543 81.0913C41.402 81.0797 41.0275 81.201 40.87 80.9296C39.4293 78.4471 37.8391 79.5376 36.2509 80.1851C35.9665 80.3011 35.6477 80.1225 35.3463 80.1443C34.6749 80.1931 33.7179 78.6228 33.4215 81.221C33.4016 81.3956 32.2605 83.3494 31.4424 81.5173C31.2719 81.1355 30.6993 81.314 30.1488 81.1292C29.8669 81.0355 29.748 81.047 29.6292 81.0584C29.7423 81.1924 29.8553 81.3263 29.9684 81.4602C29.8892 81.8681 29.7873 82.6407 29.7343 82.6304C28.606 82.4103 27.4833 82.1022 26.3594 81.8113C26.3237 81.5495 26.2879 81.2878 26.2521 81.026C26.1109 81.7759 25.9697 82.5258 25.7835 83.5148C24.3859 83.5421 23.3632 80.3457 21.4037 81.9236C22.2555 82.7197 22.854 83.2792 23.4526 83.8387C23.4565 84.0075 23.4604 84.1764 23.4642 84.3452C22.2027 84.4338 20.9245 84.7821 19.6843 84.5354C18.525 84.3048 17.4214 83.2599 16.2611 82.9523C15.8176 82.8347 15.2847 83.7688 14.7368 84.2752C14.5702 83.8028 14.3237 83.1042 13.9853 82.3553C13.8192 82.1162 13.7449 81.9275 13.665 81.618C14.032 81.1278 14.3888 80.6872 14.7826 80.4127C15.0647 80.2161 15.4242 80.0647 15.7011 80.2002C16.7559 80.7161 17.6953 80.5773 18.483 79.1021C18.5432 78.9895 18.5989 78.7696 18.6574 78.7688C20.0537 78.7498 21.4501 78.754 22.9389 78.754C22.899 78.16 22.8518 77.4555 22.7976 76.6488C23.5745 76.5324 24.2901 76.4252 25.1482 76.2966C25.028 76.7586 24.8766 77.1058 24.8569 77.4749C24.8316 77.9476 24.8317 78.7451 24.965 78.8546C25.2187 79.0629 25.716 79.1123 25.8655 78.826C26.8716 76.8986 27.7393 77.6605 28.2243 78.5136C32.1974 77.984 35.8133 77.502 39.6362 76.9925C39.6781 77.0582 40.0003 77.5637 40.441 78.0806C40.5595 78.092 40.5905 78.0555 40.5905 78.0555Z" fill="white"/>
<path d="M132.416 87.1685C132.636 87.9097 132.748 88.6311 132.824 89.1232C133.669 88.3204 134.547 87.4615 135.44 86.6534C135.685 86.4317 135.977 86.2502 136.242 86.2735C136.36 86.2839 136.597 86.9916 136.549 87.1295C136.373 87.6322 135.988 88.4799 135.878 88.396C134.276 87.1684 134.39 91.1203 133.219 91.0781C133.219 91.7417 133.219 92.4054 133.219 93.069C133.104 93.1714 132.99 93.2738 132.875 93.3762C132.622 92.5936 132.37 91.8111 132.063 90.8625C129.367 92.7572 127.114 88.6738 124.43 88.9856C124.435 88.7107 124.44 88.4357 124.445 88.1608C127.066 87.8235 129.686 87.4861 132.416 87.1685Z" fill="#FFE3C2"/>
<path d="M72.0549 92.408C72.5451 91.1733 72.9796 90.453 73.9234 91.0132C74.427 91.3122 75.0872 90.7884 75.9273 90.571C75.166 92.5286 74.5935 94.0005 73.8052 96.0277C73.7453 94.7528 73.7132 94.0682 73.6811 93.3835C73.5929 93.3241 73.5046 93.2646 73.4164 93.2051C73.2898 93.8969 73.1632 94.5886 72.9974 95.4947C72.5801 94.8878 72.0784 94.1916 71.6173 93.4198C71.5832 93.3626 71.8408 92.7615 72.0549 92.408Z" fill="#FFE3C2"/>
<path d="M64.8428 99.3672C64.4345 98.504 64.0736 97.7963 63.6919 97.0477C62.1569 100.354 62.0788 100.391 61.4707 98.3616C64.0345 95.3764 67.2078 95.0624 67.5907 97.5255C66.8611 97.4317 66.0827 97.3317 65.1949 97.2177C65.7191 99.5514 65.7191 99.5514 64.8428 99.3672Z" fill="#FFE3C2"/>
<path d="M219.07 82.8701C219.463 83.6826 219.805 84.3509 220.377 85.4662C218.475 85.8636 216.888 86.1952 215.071 86.5748C215.272 85.8934 215.392 84.8236 215.665 84.683C216.481 84.2631 217.356 84.2075 217.983 84.0621C218.373 83.5597 218.697 83.1428 219.07 82.8701Z" fill="#FFE3C2"/>
<path d="M8.56268 90.8696C8.5599 91.7903 8.5599 92.7208 8.5599 93.6332C6.86529 95.2745 6.72286 95.1385 5.57324 90.5916C6.08189 90.5916 6.50267 90.5916 6.92345 90.5916C6.92366 90.7793 6.92387 90.967 6.92408 91.1547C7.42226 91.0285 7.92043 90.9023 8.49698 90.8348C8.57534 90.8933 8.56545 90.8795 8.56268 90.8696Z" fill="#FFE3C2"/>
<path d="M20.852 72.2348C20.8228 72.4113 20.7418 72.4058 20.7016 72.3977C19.8462 71.6527 19.0311 70.9158 18.2051 70.1691C18.7407 68.818 21.8589 69.0416 22.8696 70.3984C22.2069 70.952 21.544 71.5052 20.852 72.2348Z" fill="#FFE3C2"/>
<path d="M83.6818 90.2655C83.5928 90.6248 83.4224 90.9073 83.2791 91.145C84.8342 94.3986 81.7527 93.0222 82.3315 95.2745C82.1191 95.1561 81.9067 95.0377 81.6943 94.9192C81.8125 93.3986 81.9306 91.878 82.0794 89.9631C82.5373 90.031 83.0689 90.1099 83.6818 90.2655Z" fill="#FFE3C2"/>
<path d="M139.791 88.1608C140.697 88.1598 141.513 88.2262 142.461 88.3033C142.461 87.5261 142.461 86.6643 142.461 85.3879C143.383 86.4555 143.561 88.0214 143.203 89.0405C142.96 89.7324 141.984 89.9027 141.358 89.8176C140.651 89.7218 139.969 89.0775 139.24 88.6505C139.395 88.5078 139.547 88.368 139.791 88.1608Z" fill="#FFE3C2"/>
<path d="M43.8247 95.6128C43.9393 95.7124 43.9415 95.8198 43.9473 96.0894C43.4204 96.7849 42.8899 97.3182 42.1958 98.0158C42.1344 97.9342 41.8284 97.5277 41.4413 97.0132C40.5016 98.5081 39.7127 97.6898 38.7695 96.4293C40.557 96.1368 42.1347 95.8787 43.8247 95.6128Z" fill="#FFE3C2"/>
<path d="M230.41 68.6787C230.639 68.3823 230.861 68.2706 231.176 68.1841C231.739 68.7315 232.209 69.2539 232.68 69.7762C232.714 69.9815 232.748 70.1868 232.782 70.392C231.776 70.7373 230.772 71.0955 229.76 71.3618C229.732 71.3693 229.477 70.2583 229.583 69.9133C229.728 69.4406 230.118 69.2022 230.41 68.6787Z" fill="#FFE3C2"/>
<path d="M79.287 97.4956C78.3965 97.9826 77.4957 98.2877 76.5948 98.5928C76.618 98.7687 76.6413 98.9446 76.6645 99.1205C76.1816 98.8118 75.6986 98.5031 75.0947 98.1171C75.1657 97.5328 75.2429 96.8969 75.3545 95.9787C76.0998 97.0564 76.8526 98.5395 77.2675 95.6587C77.9596 96.2288 78.6182 96.7712 79.287 97.4956Z" fill="#FFE3C2"/>
<path d="M107.687 94.04C107.271 93.6106 106.886 93.0124 106.501 92.4143C106.55 92.1678 106.599 91.9213 106.648 91.6748C107.306 91.5679 107.964 91.4609 108.696 91.3419C108.798 91.0094 108.967 90.456 109.136 89.9026C109.264 89.9022 109.392 89.9018 109.521 89.9014C109.586 90.7065 109.856 91.7713 109.662 92.2476C109.447 92.7773 108.796 92.7153 108.36 93.0201C108.12 93.1877 107.93 93.5802 107.687 94.04Z" fill="#FFE3C2"/>
<path d="M264.964 30.3406C263.558 28.2883 263.582 27.4718 265.195 25.4917C264.98 26.5745 264.826 27.345 264.61 28.4361C265.471 28.4361 266.191 28.4361 266.911 28.4361C266.15 28.7653 266.161 31.4709 264.964 30.3406Z" fill="#FFE3C2"/>
<path d="M84.1704 92.3437C84.7078 91.4621 85.185 89.8535 85.9143 91.8634C85.9936 92.0818 86.4499 91.9566 86.7174 91.8645C87.9451 91.4415 88.2354 92.0364 87.9559 93.9252C86.6755 93.4492 85.4258 92.9845 84.1704 92.3437Z" fill="#FFE3C2"/>
<path d="M154.851 87.4926C154.223 88.9424 153.098 88.9446 151.94 87.2487C152.794 87.331 153.341 87.3838 153.979 87.4453C154.041 86.7038 154.105 85.9488 154.182 85.0332C154.589 85.0332 155.028 85.0332 155.454 85.0332C155.219 85.9196 155.035 86.6153 154.851 87.4926Z" fill="#FFE3C2"/>
<path d="M253.338 76.5686C252.534 76.4676 251.843 76.3713 251.152 76.275C251.153 75.9635 251.153 75.6521 251.153 75.3407C252.277 75.1566 253.4 74.9726 254.524 74.7886C254.584 75.0597 254.644 75.3308 254.704 75.6019C254.286 75.9257 253.869 76.2495 253.338 76.5686Z" fill="#FFE3C2"/>
<path d="M159.89 88.4503C158.125 87.6737 158.927 90.1534 158.617 91.4164C158.341 90.1363 157.994 89.0531 157.922 87.9154C157.895 87.4929 158.651 86.419 158.809 86.5498C159.265 86.9291 159.6 87.7685 159.89 88.4503Z" fill="#FFE3C2"/>
<path d="M164.841 87.0744C165.611 85.8646 166.385 84.8245 167.209 83.7183C167.725 84.7707 168.012 85.3545 168.092 85.5174C167.243 86.0785 166.4 86.6635 165.544 87.1834C165.332 87.312 165.08 87.2295 164.841 87.0744Z" fill="#FFE3C2"/>
<path d="M204.179 85.3502C204.808 84.7017 205.419 84.2165 206.225 83.5762C206.312 83.9886 206.574 84.6128 206.5 85.066C206.432 85.485 206.009 85.7369 205.733 86.0331C205.394 86.3957 205.044 86.7279 204.592 87.1807C204.5 86.8253 204.33 86.1694 204.179 85.3502Z" fill="#FFE3C2"/>
<path d="M28.6632 69.2145C27.9249 68.8541 27.1866 68.4938 26.4484 68.1334C26.4366 67.8845 26.4248 67.6356 26.4131 67.3867C27.2556 67.0856 28.0982 66.7844 29.2495 66.3728C28.9547 67.6864 28.8176 68.2976 28.6697 69.0728C28.6589 69.2367 28.6632 69.2145 28.6632 69.2145Z" fill="#FFE3C2"/>
<path d="M69.3412 96.2034C69.9539 96.259 70.4673 96.259 71.2689 96.259C71.2462 96.0443 71.3623 96.8724 71.3316 96.8897C70.4222 97.4037 69.4981 97.8373 68.5764 98.2837C68.4962 97.9974 68.4161 97.7111 68.3359 97.4249C68.6379 96.9991 68.94 96.5734 69.3412 96.2034Z" fill="#FFE3C2"/>
<path d="M139.437 92.9644C139.443 92.314 139.393 91.7911 139.268 90.4607C140.014 91.6591 140.523 92.4201 140.966 93.2881C141.004 93.3639 140.501 94.5784 140.42 94.5204C140.018 94.2336 139.176 94.7519 139.437 92.9644Z" fill="#FFE3C2"/>
<path d="M185.521 1.77241C185.541 2.68941 185.503 3.45609 185.464 4.22276C184.764 2.84894 184.277 1.56064 183.273 3.17853C183.198 3.29864 182.795 2.78256 182.545 2.56224C182.555 2.30979 182.564 2.05734 182.574 1.80489C183.537 1.74395 184.499 1.68301 185.521 1.77241Z" fill="#FFE3C2"/>
<path d="M77.3429 93.7134C77.0323 91.5458 77.8581 90.743 78.8025 90.4552C79.21 90.331 79.6986 91.0367 80.1206 91.8496C78.6801 90.442 78.0606 92.1141 77.3429 93.7134Z" fill="#FFE3C2"/>
<path d="M187.037 85.5868C187.729 85.0847 188.365 84.7229 189.109 84.2993C187.827 87.5356 186.459 87.9349 185.741 85.4734C186.154 85.5574 186.567 85.6423 187.037 85.5868Z" fill="#FFE3C2"/>
<path d="M121.496 90.6036C120.605 90.0167 119.797 89.4373 118.966 88.8411C119.912 87.1443 121.098 88.0026 121.496 90.6036Z" fill="#FFE3C2"/>
<path d="M90.7004 93.5005C90.2812 93.9022 89.9272 94.1704 89.5732 94.4387C89.5406 93.9151 89.3824 93.0618 89.4973 92.9252C89.9845 92.3459 90.5528 91.9793 91.0915 91.5349C91.1714 91.7946 91.2514 92.0542 91.3313 92.3139C91.1427 92.665 90.9542 93.0161 90.7004 93.5005Z" fill="#FFE3C2"/>
<path d="M52.9667 97.4731C53.0562 97.5487 53.0606 97.7077 53.0614 97.7871C52.7265 98.1925 52.4084 98.6173 52.05 98.8161C51.7124 99.0036 51.3324 98.9531 50.752 99.0402C51.1053 97.834 52.5308 97.505 51.172 96.3076C51.232 96.1317 51.2921 95.9559 51.3521 95.78C51.8605 96.3192 52.3689 96.8584 52.9667 97.4731Z" fill="#FFE3C2"/>
<path d="M59.476 99.8116C59.3118 100.005 59.2008 100.071 59.0898 100.136C59.4745 99.0965 59.7887 97.9338 60.2737 97.0702C60.5141 96.6423 61.0685 96.7647 61.4808 96.6382C61.5038 96.8348 61.5267 97.0314 61.5497 97.228C61.1732 97.5529 60.7967 97.8778 60.3629 98.2521C60.4748 98.7224 60.5829 99.1768 60.7354 99.8177C60.2632 99.765 59.8963 99.7241 59.476 99.8116Z" fill="#FFE3C2"/>
<path d="M38.5085 92.9489C38.5953 93.1697 38.5893 93.3086 38.5824 93.5526C38.1541 93.884 37.543 94.5265 37.3401 94.2464C36.963 93.7255 36.8239 92.6669 36.4248 91.2681C37.3617 92.0206 37.8885 92.4437 38.5085 92.9489Z" fill="#FFE3C2"/>
<path d="M28.6968 69.4048C28.663 69.2143 28.6587 69.2365 28.6543 69.2454C29.2057 69.0477 29.7692 68.6352 30.3151 68.6981C30.7746 68.7511 31.2138 69.3568 31.7914 69.822C30.9494 70.0944 30.3999 70.4214 29.8554 70.3969C29.4769 70.3799 29.1053 69.8797 28.6968 69.4048Z" fill="#FFE3C2"/>
<path d="M190.578 86.7109C190.58 84.5183 191.064 84.038 192.602 85.062C191.809 85.7846 191.22 86.3217 190.578 86.7109Z" fill="#FFE3C2"/>
<path d="M18.1746 91.0033C18.4217 90.6879 18.6229 90.5319 18.9123 90.3757C19.2129 91.0422 19.4253 91.7089 19.6901 92.54C19.1862 92.702 18.6764 92.8659 18.1665 93.0298C18.1539 92.4074 18.1413 91.7851 18.1746 91.0033Z" fill="#FFE3C2"/>
<path d="M93.8662 92.1129C94.365 91.8045 94.9012 91.5381 95.4273 91.59C95.5871 91.6057 95.7191 92.5003 95.8638 92.9923C95.5992 93.0843 95.3087 93.3438 95.0758 93.2313C94.6653 93.0329 94.2898 92.6075 93.8662 92.1129Z" fill="#FFE3C2"/>
<path d="M79.2241 92.5447C79.7412 92.9709 80.1709 93.339 80.6006 93.7071C80.5679 93.8906 80.5352 94.074 80.5024 94.2575C79.7613 94.1865 79.0201 94.1155 78.1538 94.0325C78.5011 93.4863 78.8188 92.9864 79.2241 92.5447Z" fill="#FFE3C2"/>
<path d="M70.9863 83.7388C71.747 82.4143 72.4237 83.2526 73.3403 84.2555C72.7341 84.6097 72.3335 84.8438 71.8318 85.1085C71.5074 84.6995 71.284 84.26 70.9863 83.7388Z" fill="white"/>
<path d="M60.8165 9.97681C61.0695 10.8624 61.2921 11.7908 61.5148 12.7193C61.6708 12.5641 61.8267 12.4088 61.9827 12.2536C61.5579 12.1694 61.1196 12.1591 60.7206 11.9328C60.6488 11.8921 60.7387 10.9615 60.765 10.2987C60.7759 10.1555 60.7863 10.0197 60.8165 9.97681Z" fill="#FFE3C2"/>
<path d="M70.2305 84.5234C69.9024 84.6287 69.601 84.6287 69.2995 84.6287C69.2811 84.3895 69.2626 84.1503 69.2441 83.9111C69.5854 83.8538 69.9267 83.7965 70.3612 83.7795C70.3887 84.0192 70.3229 84.2186 70.2305 84.5234Z" fill="white"/>
<path d="M21.9545 88.5165C21.7176 88.2172 21.537 87.8319 21.3564 87.4466C21.4201 87.3347 21.4837 87.2228 21.5473 87.1108C21.7172 87.3978 21.8871 87.6848 22.0892 88.1131C22.0845 88.3131 22.0477 88.3718 21.9545 88.5165Z" fill="#FFE3C2"/>
<path d="M35.6645 90.9215C35.5468 91.3715 35.4053 91.7784 35.1575 92.1809C35.0512 92.1765 34.9746 92.0062 34.9746 92.0062C35.124 91.6092 35.2735 91.2122 35.5087 90.8027C35.5945 90.7903 35.6409 90.8783 35.6645 90.9215Z" fill="#FFE3C2"/>
<path d="M2.06492 87.7049C1.80539 87.5536 1.58726 87.319 1.36914 87.0845C1.40269 86.9709 1.43624 86.8574 1.4698 86.7439C1.67358 86.9039 1.87737 87.064 2.13416 87.3381C2.18716 87.4521 2.10634 87.6217 2.06492 87.7049Z" fill="#FFE3C2"/>
<path d="M62.7443 11.2692C62.7167 11.0484 62.752 10.7423 62.8651 10.4187C62.8976 10.6621 62.8524 10.923 62.7443 11.2692Z" fill="#FFE3C2"/>
<path d="M10.1128 83.8956C9.98553 83.7749 9.90292 83.565 9.82031 83.355C9.93299 83.3713 10.0457 83.3877 10.2024 83.5157C10.2168 83.6869 10.1871 83.7466 10.1128 83.8956Z" fill="#FFE3C2"/>
<path d="M39.0355 91.0152C38.9078 90.9377 38.8192 90.7815 38.7305 90.6252C38.8464 90.6094 38.9624 90.5935 39.1146 90.6769C39.1508 90.7761 39.0745 90.9364 39.0355 91.0152Z" fill="#FFE3C2"/>
<path d="M35.0896 92.2617C34.9696 92.419 34.8115 92.491 34.6533 92.5629C34.7104 92.4055 34.7675 92.2481 34.8998 92.0484C34.9749 92.0061 35.0515 92.1763 35.0896 92.2617Z" fill="#FFE3C2"/>
<path d="M24.7174 19.2698C24.7889 19.3701 24.8015 19.5607 24.8142 19.7513C24.7623 19.6209 24.7105 19.4905 24.7174 19.2698Z" fill="#FFE3C2"/>
<path d="M15.8037 38.3274C15.8361 38.3183 15.8698 38.3118 15.8556 38.3196C15.8077 38.3339 15.8051 38.3299 15.8037 38.3274Z" fill="#FFE3C2"/>
<path d="M11.0232 93.2904C10.9949 93.4078 10.9475 93.4923 10.9 93.5768C10.8891 93.4771 10.8781 93.3775 10.916 93.2354C10.9647 93.193 11.0039 93.2576 11.0232 93.2904Z" fill="#FFE3C2"/>
<path d="M63.7559 88.9673C63.6661 88.924 63.6021 88.8368 63.5381 88.7496C63.6106 88.7182 63.6832 88.6868 63.7941 88.7449C63.8324 88.8345 63.7816 88.9233 63.7559 88.9673Z" fill="#FFE3C2"/>
<path d="M70.4512 72.8884C72.4186 72.8735 74.3863 72.8308 76.3534 72.8706C76.6842 72.8772 77.0072 73.2791 77.3438 73.4262C77.6272 73.5501 78.0908 73.8112 78.1911 73.5971C79.1992 71.4456 80.4276 72.4338 81.5705 72.8574C81.9669 73.0044 82.2818 73.8376 82.6609 74.3973C83.2319 72.2339 84.3363 71.9537 85.9378 71.6683C88.4669 71.2177 90.9766 72.1281 93.4299 71.3811C94.3993 71.086 95.3436 70.8554 96.2732 71.0601C96.973 71.2141 97.6264 72.0268 98.3816 72.6089C97.6071 76.8578 95.4171 75.463 93.5345 75.44C93.4898 75.6778 93.4452 75.9155 93.4006 76.1533C94.1421 76.7167 94.8836 77.2801 95.9304 78.0755C93.7857 78.451 91.8696 78.7864 89.9534 79.1219C89.9205 78.7072 89.8876 78.2924 89.8547 77.8777C90.6512 77.6185 91.4477 77.3592 92.4962 77.0179C92.6046 76.3427 92.2442 75.8737 91.4772 75.6614C90.9628 75.5191 90.4855 74.9572 89.7818 74.424C89.8414 75.0589 89.9324 76.0287 90.0348 77.1188C88.2928 76.3806 86.4836 75.614 84.6314 74.8292C84.6396 74.9324 84.6761 75.2836 84.6934 75.6378C84.7209 76.1985 84.7356 76.7612 84.7557 77.323C84.4584 77.1538 84.1638 76.9669 83.863 76.8192C83.3344 76.5596 82.8091 76.2304 82.2693 76.1019C81.5993 75.9423 80.9161 75.9571 80.0899 75.8834C79.8807 76.4139 79.5953 78.4267 78.9994 75.7104C78.925 75.3712 78.3803 75.3539 77.9386 75.588C78.2425 76.2122 78.5464 76.8364 78.8503 77.4607C78.7845 77.7209 78.7187 77.9812 78.6529 78.2415C77.3814 77.8188 76.1099 77.396 74.6134 76.8985C73.755 78.3987 72.3909 78.8385 71.2596 77.4746C71.5592 77.1388 71.8344 76.8303 72.1597 76.4657C70.9828 76.1587 69.8687 75.8681 68.5269 75.5181C68.8144 76.199 69.0879 76.8465 69.5405 77.9183C68.8508 78.0256 68.1188 78.3779 67.4371 78.1825C66.663 77.9606 65.9338 77.2487 65.0882 76.6853C64.5127 78.6875 63.5599 78.5416 62.3405 78.1594C61.2128 77.806 59.9623 78.1724 58.8166 78.6237C57.2656 79.2346 57.3342 77.263 57.001 75.8462C57.0829 75.617 57.1649 75.3878 57.2468 75.1586C57.6551 75.5809 58.0634 76.0032 58.6696 76.6301C58.6721 76.6282 59.1028 76.526 59.1739 76.1878C59.7035 73.6699 60.9233 74.3172 61.9182 74.3806C63.3153 74.4696 64.6929 74.8839 65.8318 72.8915C65.9613 72.6651 66.309 72.7889 66.5534 72.8134C67.8191 72.9407 69.0841 73.0885 70.4006 73.0501C70.4519 72.871 70.4512 72.8884 70.4512 72.8884Z" fill="white"/>
<path d="M40.7006 78.0735C40.591 78.0554 40.56 78.092 40.543 78.1029C40.5757 77.6672 40.5756 76.8798 40.6834 76.8307C41.2692 76.5637 42.2513 76.0068 42.4187 76.4158C43.0354 77.9229 43.7599 77.1873 44.4147 77.1042C47.2734 76.7415 50.1303 76.3142 52.9811 75.7966C53.5375 75.6955 54.0644 75.0885 54.6915 74.655C55.1168 76.4012 57.0965 76.4842 56.9145 80.0639C56.0556 79.2044 55.3244 78.4728 54.618 77.7659C54.2117 78.264 53.6678 79.3547 53.0274 79.5765C52.5499 79.7418 51.9477 78.7835 51.4011 78.3256C51.4245 78.0815 51.4478 77.8374 51.4712 77.5933C50.9575 78.3889 50.4438 79.1845 49.7451 80.2665C49.797 79.0844 49.9397 78.1076 49.8252 78.0022C49.5225 77.7236 49.109 77.7968 48.7387 77.7772C48.2511 77.7515 47.7627 77.7709 47.0799 77.7709C47.4636 78.4005 47.7242 78.8281 48.0782 79.409C47.7994 79.7493 47.4641 80.3781 47.345 80.2692C46.3878 79.394 45.6041 80.8164 44.7429 80.7378C44.4171 80.7081 44.1109 80.0111 43.8774 79.3967C44.1249 78.9494 44.291 78.7236 44.457 78.4978C44.4149 78.3894 44.3728 78.281 44.3308 78.1726C44.0868 78.4128 43.8428 78.653 43.5989 78.8932C42.5334 80.1013 41.6958 78.8358 40.7006 78.0735Z" fill="white"/>
<path d="M205.456 72.2787C204.972 72.0152 204.452 71.8534 204.211 71.3073C203.315 69.2833 202.285 69.9306 201.134 70.3275C200.125 70.6753 199.048 70.4001 198.001 70.4001C197.976 70.1347 197.951 69.8693 197.927 69.604C198.523 69.1589 199.106 68.405 199.717 68.3289C201.285 68.1336 202.866 68.1955 204.441 68.2359C206.118 68.279 206.179 68.4656 205.726 71.3339C205.679 71.6301 205.608 71.9142 205.456 72.2787Z" fill="white"/>
<path d="M141.455 70.9439C141.084 71.2458 140.733 71.4176 140.566 71.8244C140.367 72.3088 140.325 72.9948 140.471 73.6807C139.903 74.6274 139.335 75.574 138.569 76.8513C138.945 75.0231 139.256 73.5156 139.668 71.5146C138.922 71.5976 138.616 71.6317 138.309 71.6658C138.277 71.4489 138.245 71.2319 138.212 71.0149C139.23 70.4481 140.248 69.8813 141.406 69.2366C142.872 72.1809 145.06 68.348 146.775 70.117C146.758 70.5177 146.741 70.9184 146.723 71.3191C145.001 71.1854 143.279 71.0516 141.455 70.9439Z" fill="white"/>
<path d="M25.2939 86.8605C25.7963 83.9378 26.5287 85.7237 27.1695 85.9142C29.4533 85.2799 31.7371 84.6457 34.0247 84.0105C34.1866 86.1418 33.1915 85.8095 32.4308 86.2558C30.0925 87.6277 27.7231 87.3726 25.2939 86.8605Z" fill="white"/>
<path d="M214.651 67.3818C214.597 68.8995 214.848 69.2269 215.656 68.7872C216.277 68.4492 216.978 68.5703 217.262 68.5348C218.729 68.094 219.818 67.7668 221.135 67.3708C220.842 68.2377 220.652 68.7995 220.554 69.089C217.999 69.7736 215.611 70.4134 213.223 71.0532C213.142 70.7835 213.062 70.5139 212.981 70.2442C213.514 69.2565 214.046 68.2687 214.651 67.3818Z" fill="white"/>
<path d="M103.316 71.4932C104.674 70.2704 105.276 72.4116 106.206 73.1667C105.718 73.551 105.259 73.9114 104.668 74.3766C104.698 73.7441 104.719 73.3258 104.729 73.1218C104.195 73.2503 103.736 73.3103 103.289 73.4805C102.59 73.747 101.826 72.8786 101.143 74.4119C100.892 74.9734 99.6649 74.1761 98.5215 73.9166C99.0274 72.6513 99.2853 72.0061 99.5433 71.3609C99.6378 71.4464 99.7323 71.5319 99.8268 71.6173C99.7898 72.098 99.7529 72.5788 99.6455 73.9757C100.317 73.1827 100.682 72.5437 101.12 72.2836C101.787 71.8867 102.504 71.7517 103.316 71.4932Z" fill="white"/>
<path d="M115.333 71.3442C115.601 71.0598 115.809 70.7436 115.999 70.7747C116.461 70.8502 116.914 71.0869 117.371 71.2587C117.406 71.0778 117.441 70.897 117.476 70.7162C117.261 70.4698 117.046 70.2234 116.831 69.9771C116.844 69.7827 116.857 69.5882 116.87 69.3938C117.325 69.4705 117.974 69.254 118.187 69.6952C118.48 70.2999 118.586 71.4599 118.483 72.268C118.437 72.6284 117.69 72.8744 117.261 72.878C116.749 72.8823 116.24 72.5002 115.724 72.425C115.463 72.387 115.18 72.6178 114.922 72.7957C114.345 73.1934 113.778 73.6342 113.207 74.0575C113.119 73.7755 113.03 73.4934 112.942 73.2113C113.196 72.6888 113.451 72.1662 113.727 71.5995C113.549 71.2133 113.333 70.7473 113.118 70.2813C113.17 70.1297 113.222 69.978 113.274 69.8263C113.937 70.3744 114.601 70.9224 115.333 71.3442Z" fill="white"/>
<path d="M210.568 67.7585C211.047 69.0131 211.047 69.0131 209.553 70.1978C209.78 70.555 209.984 70.8765 210.292 71.3629C208.556 72.1664 207.812 69.5599 206.6 68.8714C206.613 68.5936 206.626 68.3158 206.639 68.0379C207.488 68.0379 208.339 68.0668 209.188 68.0258C209.617 68.0051 210.045 67.8581 210.568 67.7585Z" fill="white"/>
<path d="M109.672 75.3709C109.424 74.89 109.101 74.2685 108.792 74.2887C108.386 74.3152 107.991 74.847 107.591 75.1616C107.501 74.9831 107.411 74.8046 107.321 74.6261C107.763 74.0477 108.163 73.1516 108.655 72.9437C111.401 71.785 111.409 71.842 111.587 72.3519C111.076 73.761 110.698 74.908 110.256 75.9721C110.077 76.4042 109.759 76.6561 109.503 76.99C109.537 76.4986 109.57 76.0072 109.672 75.3709Z" fill="white"/>
<path d="M224.633 69.9252C223.595 69.9 222.675 69.9 221.739 69.9C221.739 69.0069 221.739 68.211 221.739 67.1353C222.165 67.7631 222.487 68.236 222.804 68.7044C224.45 65.8995 224.45 65.8995 225.507 69.9504C225.219 69.9504 224.984 69.9504 224.633 69.9252Z" fill="white"/>
<path d="M16.9549 89.4556C16.5135 89.6719 16.146 89.9275 15.8055 89.8432C15.6966 89.8163 15.5084 88.6322 15.6203 88.4274C15.8549 87.998 16.2525 87.768 16.6049 87.6334C17.4691 87.3035 18.3456 87.0741 19.2172 86.8042C19.2688 87.0391 19.3204 87.2741 19.3721 87.5091C18.5945 88.1271 17.8169 88.7452 16.9549 89.4556Z" fill="white"/>
<path d="M181.345 74.3172C180.914 73.8237 180.118 73.1358 180.163 72.8087C180.336 71.5507 180.518 69.9688 181.617 70.0936C182.126 70.1514 182.639 70.1035 183.149 70.1035C183.177 70.4195 183.205 70.7354 183.233 71.0514C182.663 71.2385 182.093 71.4255 181.392 71.6556C181.392 72.3042 181.392 73.0562 181.396 74.0092C181.399 74.2102 181.367 74.2885 181.345 74.3172Z" fill="white"/>
<path d="M86.6745 82.3187C86.3081 81.1299 86.0223 80.0175 85.6973 78.7527C87.022 78.6022 87.8482 79.556 88.3306 81.6511C88.0519 81.4688 87.7732 81.2866 87.7537 81.2738C87.3251 81.755 87.0401 82.0751 86.6745 82.3187Z" fill="white"/>
<path d="M169.037 71.9805C168.282 70.6566 169.062 70.7242 169.384 70.7004C170.542 70.6146 171.704 70.6667 173.155 71.0908C172.95 71.1977 172.74 71.2802 172.542 71.4156C171.635 72.0341 170.457 70.9852 169.753 72.8338C169.545 72.5606 169.338 72.2874 169.037 71.9805Z" fill="white"/>
<path d="M189.216 69.9029C189.222 69.4453 189.267 68.891 189.283 68.8936C190.17 69.039 191.055 69.2308 192.142 69.4608C191.598 70.3436 191.142 71.0828 190.645 71.8906C190.194 71.3044 189.718 70.6852 189.216 69.9029Z" fill="white"/>
<path d="M143.415 74.5743C143.429 71.7877 144.941 73.5756 145.415 72.105C145.526 72.2372 145.638 72.3694 145.75 72.5016C145.513 73.5668 145.276 74.6319 145.016 75.8029C144.557 75.4689 144.025 75.081 143.415 74.5743Z" fill="white"/>
<path d="M122.697 71.1294C122.913 70.28 123.128 69.4307 123.343 68.5813C123.426 68.607 123.508 68.6327 123.591 68.6584C123.613 69.2438 123.634 69.8293 123.658 70.4755C124.121 70.6559 124.578 70.8336 125.206 71.0784C124.742 71.8223 124.406 72.3615 124.047 72.9362C123.632 72.4464 123.248 71.9931 122.779 71.4042C122.694 71.2686 122.697 71.1294 122.697 71.1294Z" fill="white"/>
<path d="M122.588 71.1334C122.697 71.1295 122.694 71.2687 122.69 71.3377C122.377 72.7355 120.631 73.7296 120.029 72.8942C119.917 72.7388 119.878 72.419 119.805 72.175C119.973 72.116 120.142 72.0629 120.309 71.9971C121.033 71.7125 121.755 71.4242 122.588 71.1334Z" fill="white"/>
<path d="M260.062 63.5349C260.351 63.2657 260.675 62.9072 260.826 63.0651C261.264 63.5217 261.633 64.1861 262.029 64.7689C261.7 65.3262 261.371 65.8835 261.106 66.3329C260.649 65.2191 260.333 64.4503 260.062 63.5349Z" fill="white"/>
<path d="M70.4573 72.8711C69.6709 72.2131 69.6709 72.2131 69.6952 69.4125C70.167 69.3672 70.6484 69.321 71.121 69.2756C71.1968 69.9839 71.2698 70.6647 71.3631 71.5367C71.0433 71.3061 70.7831 71.1185 70.5083 70.9203C70.479 71.4681 70.4501 72.0069 70.4365 72.717C70.4517 72.8883 70.4524 72.8708 70.4573 72.8711Z" fill="white"/>
<path d="M128.298 74.891C128.25 74.4164 128.259 74.075 128.269 73.7336C129.002 73.8998 129.736 74.0659 130.623 74.2669C129.876 77.0811 129.063 75.1527 128.298 74.891Z" fill="white"/>
<path d="M54.134 83.302C54.2453 82.656 54.2759 82.0879 54.3064 81.5197C54.426 81.3269 54.5456 81.134 54.6652 80.9412C55.0144 81.9814 55.3637 83.0216 55.7478 84.1658C55.1226 84.1658 54.4242 84.1658 53.543 84.1658C53.8041 83.7636 53.9287 83.5717 54.134 83.302Z" fill="white"/>
<path d="M206.425 74.2364C205.971 74.9691 205.477 75.6555 204.923 76.1158C204.785 76.2303 204.389 75.6894 204.24 75.2977C204.177 75.1331 204.421 74.2826 204.567 74.2448C205.157 74.0925 205.763 74.1356 206.425 74.2364Z" fill="white"/>
<path d="M22.8359 41.4563C22.184 40.5618 21.9365 39.7539 22.6575 38.8022C23.1508 39.5198 23.6036 40.1784 24.4494 41.4086C23.708 41.486 23.3098 41.5275 22.8359 41.4563Z" fill="white"/>
<path d="M261.994 38.8767C262.261 39.4662 262.425 40.0309 262.682 40.9162C261.816 41.0461 261.183 41.1411 260.551 41.236C260.483 41.0194 260.416 40.8027 260.348 40.586C260.862 40.008 261.377 39.43 261.994 38.8767Z" fill="white"/>
<path d="M33.2769 21.9377C33.496 22.9595 33.623 24.0064 33.7024 25.0645C33.7105 25.1716 33.4108 25.5031 33.2918 25.4526C33.1028 25.3722 32.7876 25.0177 32.8012 24.8485C32.8796 23.8764 33.0392 22.9247 33.2769 21.9377Z" fill="white"/>
<path d="M267.663 55.3714C267.688 53.853 267.771 53.7019 268.364 54.202C268.784 54.5568 269.162 55.0678 269.57 55.5212C268.832 58.3408 268.349 55.5223 267.663 55.3714Z" fill="white"/>
<path d="M193.185 69.251C193.751 69.4195 194.308 69.7695 195.171 70.3123C193.762 71.6856 193.383 71.3708 193.185 69.251Z" fill="white"/>
<path d="M49.9033 66.3103C50.2229 67.1193 50.4517 67.9098 50.7401 68.9069C49.9821 68.4923 49.3992 68.1736 48.7695 67.8293C48.7695 67.4568 48.7695 67.005 48.7695 66.6248C49.1236 66.5118 49.468 66.4018 49.9033 66.3103Z" fill="white"/>
<path d="M5.3589 42.5869C5.41463 42.6204 5.46925 42.656 5.52387 42.6915C5.47989 42.7139 5.4359 42.7362 5.37444 42.6746C5.35696 42.5908 5.35779 42.589 5.3589 42.5869Z" fill="white"/>
<path d="M29.9997 81.3993C29.8551 81.326 29.742 81.1921 29.6289 81.0582C29.7477 81.0467 29.8666 81.0353 30.0398 81.1203C30.0942 81.2169 30.0313 81.3386 29.9997 81.3993Z" fill="#FFE3C2"/>
<path d="M43.6494 78.9969C43.842 78.653 44.086 78.4128 44.33 78.1726C44.3721 78.281 44.4141 78.3894 44.4562 78.4978C44.2902 78.7236 44.1241 78.9495 43.8844 79.2357C43.7741 79.231 43.7374 79.1658 43.6494 78.9969Z" fill="#FFE3C2"/>
</svg>
