<svg width="19" height="49" viewBox="0 0 19 49" fill="none" xmlns="http://www.w3.org/2000/svg">
<path d="M10.1014 17.0968H7.69214V48.9972H10.1014V17.0968Z" fill="#E0E0E0"/>
<path d="M10.1012 49C10.1012 49 10.1012 48.9405 10.1012 48.833C10.1012 48.7254 10.1012 48.5499 10.1012 48.3517C10.1012 47.9242 10.1012 47.3042 10.1012 46.5058C10.1012 44.9035 10.1012 42.5848 10.0786 39.7113C10.0786 33.9699 10.0588 26.0061 10.0475 17.0939L10.1211 17.1675H7.69202L7.76562 17.0939C7.76562 31.6484 7.74581 44.0825 7.71749 48.9972L7.69202 48.9689L9.48125 48.9858H9.94271H10.1012H9.9512H9.49823L7.69202 49H7.66371V48.9745C7.63823 44.0598 7.61841 31.6258 7.61841 17.0713V16.9977H10.1664V17.0713C10.1664 26.0033 10.1437 33.9869 10.1352 39.7424C10.1352 42.6075 10.1182 44.9176 10.1126 46.5172C10.1126 47.307 10.1126 47.9327 10.1126 48.346C10.1126 48.5499 10.1126 48.7056 10.1126 48.816C10.1126 48.9264 10.1012 49 10.1012 49Z" fill="#263238"/>
<path d="M15.8341 0H2.73764C1.22568 0 0 1.22568 0 2.73764V15.8341C0 17.3461 1.22568 18.5718 2.73764 18.5718H15.8341C17.3461 18.5718 18.5718 17.3461 18.5718 15.8341V2.73764C18.5718 1.22568 17.3461 0 15.8341 0Z" fill="#455A64"/>
<path d="M15.8114 17.9545H2.75733C2.19417 17.953 1.65454 17.7285 1.25659 17.33C0.858634 16.9315 0.63478 16.3916 0.634033 15.8284V2.78571C0.635528 2.22304 0.859711 1.68384 1.25758 1.28596C1.65545 0.888093 2.19466 0.663909 2.75733 0.662415H15.8114C16.3743 0.663164 16.9139 0.887106 17.3119 1.28514C17.71 1.68317 17.9339 2.22281 17.9347 2.78571V15.8397C17.9317 16.4012 17.7067 16.9386 17.3089 17.3348C16.9111 17.731 16.3728 17.9538 15.8114 17.9545ZM2.75733 0.934198C2.26951 0.934947 1.80189 1.12906 1.45695 1.474C1.11201 1.81894 0.917888 2.28657 0.917139 2.77439V15.8284C0.917139 16.3167 1.11093 16.7851 1.45595 17.1306C1.80097 17.4762 2.26902 17.6707 2.75733 17.6714H15.8114C16.2997 17.6707 16.7677 17.4762 17.1127 17.1306C17.4578 16.7851 17.6516 16.3167 17.6515 15.8284V2.78571C17.6508 2.29789 17.4567 1.83027 17.1117 1.48533C16.7668 1.14039 16.2992 0.94627 15.8114 0.945521L2.75733 0.934198Z" fill="white"/>
<path d="M12.0235 4.95437C12.5845 5.19359 13.0629 5.59227 13.3994 6.10095C13.6567 6.48438 13.8263 6.91991 13.8959 7.37644C13.9655 7.83297 13.9334 8.29923 13.802 8.74194C13.6706 9.18465 13.443 9.59288 13.1356 9.93747C12.8281 10.2821 12.4484 10.5545 12.0235 10.7354C11.3589 11.0176 10.6418 11.1547 9.91999 11.1374H8.36574V13.4702H5.84326V4.55236H9.91999C10.6418 4.53507 11.3589 4.67213 12.0235 4.95437ZM10.9392 8.8131C11.0734 8.69283 11.1788 8.54381 11.2474 8.37714C11.316 8.21048 11.3462 8.03047 11.3355 7.85054C11.3456 7.66984 11.3152 7.48917 11.2467 7.32168C11.1781 7.15419 11.0731 7.0041 10.9392 6.88232C10.6028 6.63015 10.1864 6.50845 9.76711 6.53976H8.36574V9.15H9.76711C10.1855 9.18139 10.6013 9.06187 10.9392 8.8131Z" fill="white"/>
</svg>
